G04 #@! TF.GenerationSoftware,KiCad,Pcbnew,(6.0.11)*
G04 #@! TF.CreationDate,2023-12-28T20:45:09+09:00*
G04 #@! TF.ProjectId,ORION_boost_v5,4f52494f-4e5f-4626-9f6f-73745f76352e,rev?*
G04 #@! TF.SameCoordinates,Original*
G04 #@! TF.FileFunction,Soldermask,Bot*
G04 #@! TF.FilePolarity,Negative*
%FSLAX46Y46*%
G04 Gerber Fmt 4.6, Leading zero omitted, Abs format (unit mm)*
G04 Created by KiCad (PCBNEW (6.0.11)) date 2023-12-28 20:45:09*
%MOMM*%
%LPD*%
G01*
G04 APERTURE LIST*
G04 Aperture macros list*
%AMRoundRect*
0 Rectangle with rounded corners*
0 $1 Rounding radius*
0 $2 $3 $4 $5 $6 $7 $8 $9 X,Y pos of 4 corners*
0 Add a 4 corners polygon primitive as box body*
4,1,4,$2,$3,$4,$5,$6,$7,$8,$9,$2,$3,0*
0 Add four circle primitives for the rounded corners*
1,1,$1+$1,$2,$3*
1,1,$1+$1,$4,$5*
1,1,$1+$1,$6,$7*
1,1,$1+$1,$8,$9*
0 Add four rect primitives between the rounded corners*
20,1,$1+$1,$2,$3,$4,$5,0*
20,1,$1+$1,$4,$5,$6,$7,0*
20,1,$1+$1,$6,$7,$8,$9,0*
20,1,$1+$1,$8,$9,$2,$3,0*%
%AMRotRect*
0 Rectangle, with rotation*
0 The origin of the aperture is its center*
0 $1 length*
0 $2 width*
0 $3 Rotation angle, in degrees counterclockwise*
0 Add horizontal line*
21,1,$1,$2,0,0,$3*%
%AMFreePoly0*
4,1,22,0.550000,-0.750000,0.000000,-0.750000,0.000000,-0.745033,-0.079941,-0.743568,-0.215256,-0.701293,-0.333266,-0.622738,-0.424486,-0.514219,-0.481581,-0.384460,-0.499164,-0.250000,-0.500000,-0.250000,-0.500000,0.250000,-0.499164,0.250000,-0.499963,0.256109,-0.478152,0.396186,-0.417904,0.524511,-0.324060,0.630769,-0.204165,0.706417,-0.067858,0.745374,0.000000,0.744959,0.000000,0.750000,
0.550000,0.750000,0.550000,-0.750000,0.550000,-0.750000,$1*%
%AMFreePoly1*
4,1,20,0.000000,0.744959,0.073905,0.744508,0.209726,0.703889,0.328688,0.626782,0.421226,0.519385,0.479903,0.390333,0.500000,0.250000,0.500000,-0.250000,0.499851,-0.262216,0.476331,-0.402017,0.414519,-0.529596,0.319384,-0.634700,0.198574,-0.708877,0.061801,-0.746166,0.000000,-0.745033,0.000000,-0.750000,-0.550000,-0.750000,-0.550000,0.750000,0.000000,0.750000,0.000000,0.744959,
0.000000,0.744959,$1*%
G04 Aperture macros list end*
%ADD10C,0.150000*%
%ADD11O,2.800000X2.460000*%
%ADD12R,3.800000X3.800000*%
%ADD13C,3.800000*%
%ADD14RoundRect,0.250000X0.625000X-0.350000X0.625000X0.350000X-0.625000X0.350000X-0.625000X-0.350000X0*%
%ADD15O,1.750000X1.200000*%
%ADD16C,1.524000*%
%ADD17C,1.600000*%
%ADD18RoundRect,0.250000X-0.575000X0.350000X-0.575000X-0.350000X0.575000X-0.350000X0.575000X0.350000X0*%
%ADD19O,1.650000X1.200000*%
%ADD20R,1.700000X1.700000*%
%ADD21O,1.700000X1.700000*%
%ADD22RoundRect,0.500000X-0.500000X2.000000X-0.500000X-2.000000X0.500000X-2.000000X0.500000X2.000000X0*%
%ADD23RoundRect,0.250000X1.150000X-0.980000X1.150000X0.980000X-1.150000X0.980000X-1.150000X-0.980000X0*%
%ADD24C,4.000000*%
%ADD25RoundRect,0.225000X0.575000X-0.225000X0.575000X0.225000X-0.575000X0.225000X-0.575000X-0.225000X0*%
%ADD26R,1.600000X1.600000*%
%ADD27RoundRect,0.200000X-0.200000X-0.275000X0.200000X-0.275000X0.200000X0.275000X-0.200000X0.275000X0*%
%ADD28R,1.000000X1.000000*%
%ADD29RoundRect,0.250000X-0.625000X0.312500X-0.625000X-0.312500X0.625000X-0.312500X0.625000X0.312500X0*%
%ADD30R,2.580000X1.000000*%
%ADD31R,2.200000X1.200000*%
%ADD32R,6.400000X5.800000*%
%ADD33R,1.200000X1.200000*%
%ADD34R,1.000000X1.200000*%
%ADD35FreePoly0,0.000000*%
%ADD36R,1.000000X1.500000*%
%ADD37FreePoly1,0.000000*%
%ADD38RoundRect,0.200000X0.200000X0.275000X-0.200000X0.275000X-0.200000X-0.275000X0.200000X-0.275000X0*%
%ADD39RoundRect,0.225000X-0.225000X-0.250000X0.225000X-0.250000X0.225000X0.250000X-0.225000X0.250000X0*%
%ADD40RoundRect,0.200000X0.275000X-0.200000X0.275000X0.200000X-0.275000X0.200000X-0.275000X-0.200000X0*%
%ADD41RoundRect,0.150000X0.150000X-0.512500X0.150000X0.512500X-0.150000X0.512500X-0.150000X-0.512500X0*%
%ADD42RoundRect,0.200000X-0.275000X0.200000X-0.275000X-0.200000X0.275000X-0.200000X0.275000X0.200000X0*%
%ADD43RoundRect,0.225000X-0.250000X0.225000X-0.250000X-0.225000X0.250000X-0.225000X0.250000X0.225000X0*%
%ADD44RoundRect,0.250000X0.980000X1.150000X-0.980000X1.150000X-0.980000X-1.150000X0.980000X-1.150000X0*%
%ADD45O,2.460000X2.800000*%
%ADD46RotRect,1.800000X1.800000X45.000000*%
%ADD47C,1.800000*%
%ADD48RoundRect,0.250000X0.650000X-0.325000X0.650000X0.325000X-0.650000X0.325000X-0.650000X-0.325000X0*%
%ADD49RotRect,1.800000X1.800000X135.000000*%
%ADD50RoundRect,0.225000X0.225000X0.250000X-0.225000X0.250000X-0.225000X-0.250000X0.225000X-0.250000X0*%
%ADD51RoundRect,0.225000X0.250000X-0.225000X0.250000X0.225000X-0.250000X0.225000X-0.250000X-0.225000X0*%
%ADD52RoundRect,0.150000X0.512500X0.150000X-0.512500X0.150000X-0.512500X-0.150000X0.512500X-0.150000X0*%
%ADD53R,1.500000X2.400000*%
%ADD54R,1.500000X1.050000*%
%ADD55RoundRect,0.250000X-0.650000X0.325000X-0.650000X-0.325000X0.650000X-0.325000X0.650000X0.325000X0*%
%ADD56R,1.900000X0.400000*%
%ADD57C,2.200000*%
%ADD58R,0.640000X1.900000*%
%ADD59RoundRect,0.150000X0.725000X0.150000X-0.725000X0.150000X-0.725000X-0.150000X0.725000X-0.150000X0*%
%ADD60R,1.800000X1.800000*%
%ADD61RoundRect,0.150000X-0.150000X0.587500X-0.150000X-0.587500X0.150000X-0.587500X0.150000X0.587500X0*%
%ADD62R,1.200000X2.200000*%
%ADD63R,5.800000X6.400000*%
%ADD64R,1.800000X2.500000*%
%ADD65RoundRect,0.250000X2.350000X-0.325000X2.350000X0.325000X-2.350000X0.325000X-2.350000X-0.325000X0*%
%ADD66RoundRect,0.075000X-0.662500X-0.075000X0.662500X-0.075000X0.662500X0.075000X-0.662500X0.075000X0*%
%ADD67RoundRect,0.075000X-0.075000X-0.662500X0.075000X-0.662500X0.075000X0.662500X-0.075000X0.662500X0*%
%ADD68R,12.500000X3.150000*%
%ADD69C,1.905000*%
%ADD70O,1.905000X2.000000*%
%ADD71R,1.905000X2.000000*%
G04 APERTURE END LIST*
D10*
X129666666Y-84242619D02*
X129619047Y-84195000D01*
X129523809Y-84147380D01*
X129285714Y-84147380D01*
X129190476Y-84195000D01*
X129142857Y-84242619D01*
X129095238Y-84337857D01*
X129095238Y-84433095D01*
X129142857Y-84575952D01*
X129714285Y-85147380D01*
X129095238Y-85147380D01*
X128476190Y-84147380D02*
X128380952Y-84147380D01*
X128285714Y-84195000D01*
X128238095Y-84242619D01*
X128190476Y-84337857D01*
X128142857Y-84528333D01*
X128142857Y-84766428D01*
X128190476Y-84956904D01*
X128238095Y-85052142D01*
X128285714Y-85099761D01*
X128380952Y-85147380D01*
X128476190Y-85147380D01*
X128571428Y-85099761D01*
X128619047Y-85052142D01*
X128666666Y-84956904D01*
X128714285Y-84766428D01*
X128714285Y-84528333D01*
X128666666Y-84337857D01*
X128619047Y-84242619D01*
X128571428Y-84195000D01*
X128476190Y-84147380D01*
X127761904Y-84242619D02*
X127714285Y-84195000D01*
X127619047Y-84147380D01*
X127380952Y-84147380D01*
X127285714Y-84195000D01*
X127238095Y-84242619D01*
X127190476Y-84337857D01*
X127190476Y-84433095D01*
X127238095Y-84575952D01*
X127809523Y-85147380D01*
X127190476Y-85147380D01*
X126857142Y-84147380D02*
X126238095Y-84147380D01*
X126571428Y-84528333D01*
X126428571Y-84528333D01*
X126333333Y-84575952D01*
X126285714Y-84623571D01*
X126238095Y-84718809D01*
X126238095Y-84956904D01*
X126285714Y-85052142D01*
X126333333Y-85099761D01*
X126428571Y-85147380D01*
X126714285Y-85147380D01*
X126809523Y-85099761D01*
X126857142Y-85052142D01*
X125095238Y-84099761D02*
X125952380Y-85385476D01*
X124571428Y-84147380D02*
X124476190Y-84147380D01*
X124380952Y-84195000D01*
X124333333Y-84242619D01*
X124285714Y-84337857D01*
X124238095Y-84528333D01*
X124238095Y-84766428D01*
X124285714Y-84956904D01*
X124333333Y-85052142D01*
X124380952Y-85099761D01*
X124476190Y-85147380D01*
X124571428Y-85147380D01*
X124666666Y-85099761D01*
X124714285Y-85052142D01*
X124761904Y-84956904D01*
X124809523Y-84766428D01*
X124809523Y-84528333D01*
X124761904Y-84337857D01*
X124714285Y-84242619D01*
X124666666Y-84195000D01*
X124571428Y-84147380D01*
X123333333Y-84147380D02*
X123809523Y-84147380D01*
X123857142Y-84623571D01*
X123809523Y-84575952D01*
X123714285Y-84528333D01*
X123476190Y-84528333D01*
X123380952Y-84575952D01*
X123333333Y-84623571D01*
X123285714Y-84718809D01*
X123285714Y-84956904D01*
X123333333Y-85052142D01*
X123380952Y-85099761D01*
X123476190Y-85147380D01*
X123714285Y-85147380D01*
X123809523Y-85099761D01*
X123857142Y-85052142D01*
X122142857Y-84099761D02*
X123000000Y-85385476D01*
X121857142Y-84242619D02*
X121809523Y-84195000D01*
X121714285Y-84147380D01*
X121476190Y-84147380D01*
X121380952Y-84195000D01*
X121333333Y-84242619D01*
X121285714Y-84337857D01*
X121285714Y-84433095D01*
X121333333Y-84575952D01*
X121904761Y-85147380D01*
X121285714Y-85147380D01*
X120666666Y-84147380D02*
X120571428Y-84147380D01*
X120476190Y-84195000D01*
X120428571Y-84242619D01*
X120380952Y-84337857D01*
X120333333Y-84528333D01*
X120333333Y-84766428D01*
X120380952Y-84956904D01*
X120428571Y-85052142D01*
X120476190Y-85099761D01*
X120571428Y-85147380D01*
X120666666Y-85147380D01*
X120761904Y-85099761D01*
X120809523Y-85052142D01*
X120857142Y-84956904D01*
X120904761Y-84766428D01*
X120904761Y-84528333D01*
X120857142Y-84337857D01*
X120809523Y-84242619D01*
X120761904Y-84195000D01*
X120666666Y-84147380D01*
X130571428Y-86757380D02*
X130571428Y-85757380D01*
X130571428Y-86709761D02*
X130666666Y-86757380D01*
X130857142Y-86757380D01*
X130952380Y-86709761D01*
X131000000Y-86662142D01*
X131047619Y-86566904D01*
X131047619Y-86281190D01*
X131000000Y-86185952D01*
X130952380Y-86138333D01*
X130857142Y-86090714D01*
X130666666Y-86090714D01*
X130571428Y-86138333D01*
X129714285Y-86709761D02*
X129809523Y-86757380D01*
X130000000Y-86757380D01*
X130095238Y-86709761D01*
X130142857Y-86614523D01*
X130142857Y-86233571D01*
X130095238Y-86138333D01*
X130000000Y-86090714D01*
X129809523Y-86090714D01*
X129714285Y-86138333D01*
X129666666Y-86233571D01*
X129666666Y-86328809D01*
X130142857Y-86424047D01*
X129285714Y-86709761D02*
X129190476Y-86757380D01*
X129000000Y-86757380D01*
X128904761Y-86709761D01*
X128857142Y-86614523D01*
X128857142Y-86566904D01*
X128904761Y-86471666D01*
X129000000Y-86424047D01*
X129142857Y-86424047D01*
X129238095Y-86376428D01*
X129285714Y-86281190D01*
X129285714Y-86233571D01*
X129238095Y-86138333D01*
X129142857Y-86090714D01*
X129000000Y-86090714D01*
X128904761Y-86138333D01*
X128428571Y-86757380D02*
X128428571Y-86090714D01*
X128428571Y-85757380D02*
X128476190Y-85805000D01*
X128428571Y-85852619D01*
X128380952Y-85805000D01*
X128428571Y-85757380D01*
X128428571Y-85852619D01*
X127523809Y-86090714D02*
X127523809Y-86900238D01*
X127571428Y-86995476D01*
X127619047Y-87043095D01*
X127714285Y-87090714D01*
X127857142Y-87090714D01*
X127952380Y-87043095D01*
X127523809Y-86709761D02*
X127619047Y-86757380D01*
X127809523Y-86757380D01*
X127904761Y-86709761D01*
X127952380Y-86662142D01*
X128000000Y-86566904D01*
X128000000Y-86281190D01*
X127952380Y-86185952D01*
X127904761Y-86138333D01*
X127809523Y-86090714D01*
X127619047Y-86090714D01*
X127523809Y-86138333D01*
X127047619Y-86090714D02*
X127047619Y-86757380D01*
X127047619Y-86185952D02*
X127000000Y-86138333D01*
X126904761Y-86090714D01*
X126761904Y-86090714D01*
X126666666Y-86138333D01*
X126619047Y-86233571D01*
X126619047Y-86757380D01*
X125761904Y-86709761D02*
X125857142Y-86757380D01*
X126047619Y-86757380D01*
X126142857Y-86709761D01*
X126190476Y-86614523D01*
X126190476Y-86233571D01*
X126142857Y-86138333D01*
X126047619Y-86090714D01*
X125857142Y-86090714D01*
X125761904Y-86138333D01*
X125714285Y-86233571D01*
X125714285Y-86328809D01*
X126190476Y-86424047D01*
X124857142Y-86757380D02*
X124857142Y-85757380D01*
X124857142Y-86709761D02*
X124952380Y-86757380D01*
X125142857Y-86757380D01*
X125238095Y-86709761D01*
X125285714Y-86662142D01*
X125333333Y-86566904D01*
X125333333Y-86281190D01*
X125285714Y-86185952D01*
X125238095Y-86138333D01*
X125142857Y-86090714D01*
X124952380Y-86090714D01*
X124857142Y-86138333D01*
X123619047Y-86757380D02*
X123619047Y-85757380D01*
X123619047Y-86138333D02*
X123523809Y-86090714D01*
X123333333Y-86090714D01*
X123238095Y-86138333D01*
X123190476Y-86185952D01*
X123142857Y-86281190D01*
X123142857Y-86566904D01*
X123190476Y-86662142D01*
X123238095Y-86709761D01*
X123333333Y-86757380D01*
X123523809Y-86757380D01*
X123619047Y-86709761D01*
X122809523Y-86090714D02*
X122571428Y-86757380D01*
X122333333Y-86090714D02*
X122571428Y-86757380D01*
X122666666Y-86995476D01*
X122714285Y-87043095D01*
X122809523Y-87090714D01*
X121190476Y-86757380D02*
X121190476Y-86090714D01*
X121190476Y-85757380D02*
X121238095Y-85805000D01*
X121190476Y-85852619D01*
X121142857Y-85805000D01*
X121190476Y-85757380D01*
X121190476Y-85852619D01*
X120714285Y-86757380D02*
X120714285Y-85757380D01*
X120714285Y-86138333D02*
X120619047Y-86090714D01*
X120428571Y-86090714D01*
X120333333Y-86138333D01*
X120285714Y-86185952D01*
X120238095Y-86281190D01*
X120238095Y-86566904D01*
X120285714Y-86662142D01*
X120333333Y-86709761D01*
X120428571Y-86757380D01*
X120619047Y-86757380D01*
X120714285Y-86709761D01*
X119809523Y-86757380D02*
X119809523Y-86090714D01*
X119809523Y-85757380D02*
X119857142Y-85805000D01*
X119809523Y-85852619D01*
X119761904Y-85805000D01*
X119809523Y-85757380D01*
X119809523Y-85852619D01*
X119380952Y-86709761D02*
X119285714Y-86757380D01*
X119095238Y-86757380D01*
X119000000Y-86709761D01*
X118952380Y-86614523D01*
X118952380Y-86566904D01*
X119000000Y-86471666D01*
X119095238Y-86424047D01*
X119238095Y-86424047D01*
X119333333Y-86376428D01*
X119380952Y-86281190D01*
X119380952Y-86233571D01*
X119333333Y-86138333D01*
X119238095Y-86090714D01*
X119095238Y-86090714D01*
X119000000Y-86138333D01*
D11*
X164450000Y-78480000D03*
X164450000Y-74520000D03*
D12*
X89500000Y-89000000D03*
D13*
X94500000Y-89000000D03*
D14*
X112000000Y-130000000D03*
D15*
X112000000Y-128000000D03*
D16*
X121540000Y-130951000D03*
X119000000Y-130951000D03*
X116460000Y-130951000D03*
D17*
X132500000Y-131500000D03*
X137500000Y-131500000D03*
D18*
X108000000Y-123000000D03*
D19*
X106000000Y-123000000D03*
X108000000Y-125000000D03*
X106000000Y-125000000D03*
X108000000Y-127000000D03*
X106000000Y-127000000D03*
X108000000Y-129000000D03*
X106000000Y-129000000D03*
D20*
X137500000Y-157500000D03*
D21*
X137500000Y-154960000D03*
X137500000Y-152420000D03*
X137500000Y-149880000D03*
X137500000Y-147340000D03*
X137500000Y-144800000D03*
X137500000Y-142260000D03*
X137500000Y-139720000D03*
X137500000Y-137180000D03*
X137500000Y-134640000D03*
D22*
X142500000Y-127250000D03*
X142500000Y-134750000D03*
D23*
X85450000Y-78480000D03*
D11*
X85450000Y-74520000D03*
D16*
X116460000Y-129049000D03*
X119000000Y-129049000D03*
X121540000Y-129049000D03*
D12*
X160500000Y-89000000D03*
D13*
X155500000Y-89000000D03*
D24*
X142500000Y-140000000D03*
D25*
X154500000Y-104500000D03*
X154500000Y-103000000D03*
X154500000Y-101500000D03*
X154500000Y-100000000D03*
X154500000Y-98500000D03*
X154500000Y-97000000D03*
D24*
X135000000Y-128500000D03*
D26*
X92402651Y-96000000D03*
D17*
X88902651Y-96000000D03*
D27*
X104175000Y-109000000D03*
X105825000Y-109000000D03*
D28*
X131000000Y-117750000D03*
X131000000Y-115250000D03*
D29*
X110000000Y-54437500D03*
X110000000Y-57362500D03*
D30*
X107085000Y-106500000D03*
X102915000Y-106500000D03*
D31*
X104700000Y-70720000D03*
D32*
X98400000Y-73000000D03*
D33*
X105200000Y-75280000D03*
D34*
X104106800Y-75280000D03*
D35*
X109200000Y-116000000D03*
D36*
X110500000Y-116000000D03*
D37*
X111800000Y-116000000D03*
D38*
X97825000Y-104000000D03*
X96175000Y-104000000D03*
D39*
X117225000Y-95000000D03*
X118775000Y-95000000D03*
D26*
X157597349Y-96000000D03*
D17*
X161097349Y-96000000D03*
D40*
X138000000Y-106825000D03*
X138000000Y-105175000D03*
X104977500Y-103325000D03*
X104977500Y-101675000D03*
D41*
X112125000Y-103637500D03*
X111175000Y-103637500D03*
X110225000Y-103637500D03*
X110225000Y-101362500D03*
X112125000Y-101362500D03*
D42*
X107000000Y-99675000D03*
X107000000Y-101325000D03*
D38*
X97825000Y-102000000D03*
X96175000Y-102000000D03*
X112000000Y-106000000D03*
X110350000Y-106000000D03*
D43*
X133000000Y-101725000D03*
X133000000Y-103275000D03*
D44*
X92980000Y-74450000D03*
D45*
X89020000Y-74450000D03*
D46*
X108598439Y-140401561D03*
D47*
X110394490Y-138605510D03*
D48*
X123500000Y-128475000D03*
X123500000Y-125525000D03*
D40*
X147500000Y-109325000D03*
X147500000Y-107675000D03*
D49*
X123401561Y-140401561D03*
D47*
X121605510Y-138605510D03*
D43*
X140000000Y-105225000D03*
X140000000Y-106775000D03*
D50*
X126275000Y-116000000D03*
X124725000Y-116000000D03*
D31*
X145300000Y-61280000D03*
D32*
X151600000Y-59000000D03*
D31*
X145300000Y-56720000D03*
D42*
X128000000Y-89675000D03*
X128000000Y-91325000D03*
D39*
X129725000Y-92500000D03*
X131275000Y-92500000D03*
D27*
X132175000Y-106500000D03*
X133825000Y-106500000D03*
D42*
X104000000Y-65175000D03*
X104000000Y-66825000D03*
X133000000Y-113675000D03*
X133000000Y-115325000D03*
D51*
X125500000Y-77275000D03*
X125500000Y-75725000D03*
D52*
X125137500Y-118550000D03*
X125137500Y-119500000D03*
X125137500Y-120450000D03*
X122862500Y-120450000D03*
X122862500Y-118550000D03*
D53*
X132000000Y-145150000D03*
D54*
X132000000Y-147525000D03*
D38*
X97825000Y-100000000D03*
X96175000Y-100000000D03*
D42*
X129000000Y-115675000D03*
X129000000Y-117325000D03*
X146000000Y-72175000D03*
X146000000Y-73825000D03*
X140500000Y-89175000D03*
X140500000Y-90825000D03*
D50*
X105775000Y-110500000D03*
X104225000Y-110500000D03*
D55*
X118500000Y-75525000D03*
X118500000Y-78475000D03*
D31*
X104700000Y-57220000D03*
D32*
X98400000Y-59500000D03*
D31*
X104700000Y-61780000D03*
D51*
X121000000Y-104275000D03*
X121000000Y-102725000D03*
D31*
X104700000Y-63720000D03*
D32*
X98400000Y-66000000D03*
D31*
X104700000Y-68280000D03*
D51*
X106500000Y-95275000D03*
X106500000Y-93725000D03*
D38*
X97825000Y-94000000D03*
X96175000Y-94000000D03*
D56*
X118000000Y-98300000D03*
X118000000Y-99500000D03*
X118000000Y-100700000D03*
D40*
X132000000Y-137325000D03*
X132000000Y-135675000D03*
D57*
X146000000Y-53000000D03*
X131000000Y-53000000D03*
D58*
X149770000Y-103370000D03*
X148500000Y-103370000D03*
X147230000Y-103370000D03*
X147230000Y-92630000D03*
X148500000Y-92630000D03*
X149770000Y-92630000D03*
D27*
X146675000Y-89500000D03*
X148325000Y-89500000D03*
D38*
X118825000Y-96500000D03*
X117175000Y-96500000D03*
D51*
X143000000Y-90775000D03*
X143000000Y-89225000D03*
X137000000Y-92275000D03*
X137000000Y-90725000D03*
X126500000Y-91275000D03*
X126500000Y-89725000D03*
D42*
X107000000Y-102675000D03*
X107000000Y-104325000D03*
D59*
X113575000Y-109595000D03*
X113575000Y-110865000D03*
X113575000Y-112135000D03*
X113575000Y-113405000D03*
X108425000Y-113405000D03*
X108425000Y-112135000D03*
X108425000Y-110865000D03*
X108425000Y-109595000D03*
D60*
X106500000Y-147275000D03*
D47*
X106500000Y-144735000D03*
D51*
X135500000Y-155775000D03*
X135500000Y-154225000D03*
D42*
X110000000Y-92175000D03*
X110000000Y-93825000D03*
D61*
X132050000Y-110062500D03*
X133950000Y-110062500D03*
X133000000Y-111937500D03*
D62*
X143780000Y-121200000D03*
D63*
X141500000Y-114900000D03*
D62*
X139220000Y-121200000D03*
D43*
X138000000Y-95225000D03*
X138000000Y-96775000D03*
D42*
X146000000Y-58175000D03*
X146000000Y-59825000D03*
D64*
X112000000Y-121500000D03*
X112000000Y-125500000D03*
D28*
X112425000Y-97500000D03*
X109925000Y-97500000D03*
D38*
X106825000Y-113500000D03*
X105175000Y-113500000D03*
D40*
X152000000Y-97825000D03*
X152000000Y-96175000D03*
D43*
X145000000Y-94225000D03*
X145000000Y-95775000D03*
D48*
X126000000Y-128475000D03*
X126000000Y-125525000D03*
D65*
X139500000Y-125125000D03*
X139500000Y-122875000D03*
D38*
X97825000Y-106000000D03*
X96175000Y-106000000D03*
D60*
X114725000Y-155500000D03*
D47*
X117265000Y-155500000D03*
D64*
X116500000Y-121500000D03*
X116500000Y-125500000D03*
D55*
X121000000Y-75525000D03*
X121000000Y-78475000D03*
D27*
X100675000Y-89500000D03*
X102325000Y-89500000D03*
D58*
X103270000Y-102370000D03*
X102000000Y-102370000D03*
X100730000Y-102370000D03*
X100730000Y-91630000D03*
X102000000Y-91630000D03*
X103270000Y-91630000D03*
D40*
X127000000Y-78825000D03*
X127000000Y-77175000D03*
D55*
X116000000Y-75525000D03*
X116000000Y-78475000D03*
D49*
X110500000Y-154000000D03*
D47*
X108703949Y-152203949D03*
D66*
X122337500Y-101750000D03*
X122337500Y-101250000D03*
X122337500Y-100750000D03*
X122337500Y-100250000D03*
X122337500Y-99750000D03*
X122337500Y-99250000D03*
X122337500Y-98750000D03*
X122337500Y-98250000D03*
X122337500Y-97750000D03*
X122337500Y-97250000D03*
X122337500Y-96750000D03*
X122337500Y-96250000D03*
D67*
X123750000Y-94837500D03*
X124250000Y-94837500D03*
X124750000Y-94837500D03*
X125250000Y-94837500D03*
X125750000Y-94837500D03*
X126250000Y-94837500D03*
X126750000Y-94837500D03*
X127250000Y-94837500D03*
X127750000Y-94837500D03*
X128250000Y-94837500D03*
X128750000Y-94837500D03*
X129250000Y-94837500D03*
D66*
X130662500Y-96250000D03*
X130662500Y-96750000D03*
X130662500Y-97250000D03*
X130662500Y-97750000D03*
X130662500Y-98250000D03*
X130662500Y-98750000D03*
X130662500Y-99250000D03*
X130662500Y-99750000D03*
X130662500Y-100250000D03*
X130662500Y-100750000D03*
X130662500Y-101250000D03*
X130662500Y-101750000D03*
D67*
X129250000Y-103162500D03*
X128750000Y-103162500D03*
X128250000Y-103162500D03*
X127750000Y-103162500D03*
X127250000Y-103162500D03*
X126750000Y-103162500D03*
X126250000Y-103162500D03*
X125750000Y-103162500D03*
X125250000Y-103162500D03*
X124750000Y-103162500D03*
X124250000Y-103162500D03*
X123750000Y-103162500D03*
D42*
X107000000Y-96675000D03*
X107000000Y-98325000D03*
D68*
X119500000Y-73175000D03*
X119500000Y-57825000D03*
D43*
X115500000Y-110725000D03*
X115500000Y-112275000D03*
D42*
X131000000Y-111675000D03*
X131000000Y-113325000D03*
D69*
X130960000Y-56907500D03*
D70*
X133500000Y-60717500D03*
D71*
X136040000Y-56907500D03*
D43*
X149500000Y-105725000D03*
X149500000Y-107275000D03*
D55*
X113500000Y-75525000D03*
X113500000Y-78475000D03*
D60*
X125500000Y-147275000D03*
D47*
X125500000Y-144735000D03*
D44*
X160980000Y-74450000D03*
D45*
X157020000Y-74450000D03*
D48*
X128500000Y-128475000D03*
X128500000Y-125525000D03*
D46*
X122098439Y-153401561D03*
D47*
X123894490Y-151605510D03*
D42*
X113500000Y-103675000D03*
X113500000Y-105325000D03*
X104000000Y-72175000D03*
X104000000Y-73825000D03*
D51*
X108675000Y-98275000D03*
X108675000Y-96725000D03*
X112000000Y-93775000D03*
X112000000Y-92225000D03*
D58*
X142270000Y-103370000D03*
X141000000Y-103370000D03*
X139730000Y-103370000D03*
X139730000Y-92630000D03*
X141000000Y-92630000D03*
X142270000Y-92630000D03*
D60*
X114725000Y-137000000D03*
D47*
X117265000Y-137000000D03*
D43*
X129500000Y-111725000D03*
X129500000Y-113275000D03*
D42*
X104000000Y-58675000D03*
X104000000Y-60325000D03*
D55*
X123500000Y-75525000D03*
X123500000Y-78475000D03*
D57*
X103500000Y-53000000D03*
X118500000Y-53000000D03*
D61*
X131050000Y-140562500D03*
X132950000Y-140562500D03*
X132000000Y-142437500D03*
D40*
X144000000Y-104325000D03*
X144000000Y-102675000D03*
D50*
X123775000Y-105500000D03*
X122225000Y-105500000D03*
D39*
X119725000Y-115500000D03*
X121275000Y-115500000D03*
D35*
X104700000Y-116000000D03*
D36*
X106000000Y-116000000D03*
D37*
X107300000Y-116000000D03*
D31*
X145300000Y-75280000D03*
D32*
X151600000Y-73000000D03*
D33*
X144800000Y-70720000D03*
D34*
X145893200Y-70720000D03*
D38*
X132825000Y-139000000D03*
X131175000Y-139000000D03*
D63*
X125000000Y-48900000D03*
D62*
X122720000Y-55200000D03*
X127280000Y-55200000D03*
D51*
X114000000Y-101275000D03*
X114000000Y-99725000D03*
D42*
X146000000Y-65175000D03*
X146000000Y-66825000D03*
D38*
X97825000Y-96000000D03*
X96175000Y-96000000D03*
D30*
X147085000Y-106000000D03*
X142915000Y-106000000D03*
D38*
X133825000Y-108000000D03*
X132175000Y-108000000D03*
D31*
X145300000Y-68280000D03*
D32*
X151600000Y-66000000D03*
D31*
X145300000Y-63720000D03*
D28*
X153000000Y-108037500D03*
X153000000Y-105537500D03*
D40*
X151000000Y-107325000D03*
X151000000Y-105675000D03*
X151500000Y-103825000D03*
X151500000Y-102175000D03*
D27*
X119675000Y-117500000D03*
X121325000Y-117500000D03*
D28*
X109925000Y-99500000D03*
X112425000Y-99500000D03*
D38*
X97825000Y-98000000D03*
X96175000Y-98000000D03*
G36*
X144442121Y-132020002D02*
G01*
X144488614Y-132073658D01*
X144500000Y-132126000D01*
X144500000Y-138374000D01*
X144479998Y-138442121D01*
X144426342Y-138488614D01*
X144374000Y-138500000D01*
X141626000Y-138500000D01*
X141557879Y-138479998D01*
X141511386Y-138426342D01*
X141500000Y-138374000D01*
X141500000Y-132126000D01*
X141520002Y-132057879D01*
X141573658Y-132011386D01*
X141626000Y-132000000D01*
X144374000Y-132000000D01*
X144442121Y-132020002D01*
G37*
G36*
X166942121Y-81020002D02*
G01*
X166988614Y-81073658D01*
X167000000Y-81126000D01*
X167000000Y-82374000D01*
X166979998Y-82442121D01*
X166926342Y-82488614D01*
X166874000Y-82500000D01*
X136018115Y-82500000D01*
X136002876Y-82504475D01*
X136001671Y-82505865D01*
X136000000Y-82513548D01*
X136000000Y-128874000D01*
X135979998Y-128942121D01*
X135926342Y-128988614D01*
X135874000Y-129000000D01*
X134626000Y-129000000D01*
X134557879Y-128979998D01*
X134511386Y-128926342D01*
X134500000Y-128874000D01*
X134500000Y-82518115D01*
X134495525Y-82502876D01*
X134494135Y-82501671D01*
X134486452Y-82500000D01*
X83626000Y-82500000D01*
X83557879Y-82479998D01*
X83511386Y-82426342D01*
X83500000Y-82374000D01*
X83500000Y-81126000D01*
X83520002Y-81057879D01*
X83573658Y-81011386D01*
X83626000Y-81000000D01*
X166874000Y-81000000D01*
X166942121Y-81020002D01*
G37*
G36*
X140942121Y-120020002D02*
G01*
X140988614Y-120073658D01*
X141000000Y-120126000D01*
X141000000Y-122874000D01*
X140979998Y-122942121D01*
X140926342Y-122988614D01*
X140874000Y-123000000D01*
X139626000Y-123000000D01*
X139557879Y-122979998D01*
X139511386Y-122926342D01*
X139500000Y-122874000D01*
X139500000Y-120126000D01*
X139520002Y-120057879D01*
X139573658Y-120011386D01*
X139626000Y-120000000D01*
X140874000Y-120000000D01*
X140942121Y-120020002D01*
G37*
G36*
X144442121Y-124520002D02*
G01*
X144488614Y-124573658D01*
X144500000Y-124626000D01*
X144500000Y-129874000D01*
X144479998Y-129942121D01*
X144426342Y-129988614D01*
X144374000Y-130000000D01*
X141552190Y-130000000D01*
X141484069Y-129979998D01*
X141463095Y-129963095D01*
X139036905Y-127536905D01*
X139002879Y-127474593D01*
X139000000Y-127447810D01*
X139000000Y-124626000D01*
X139020002Y-124557879D01*
X139073658Y-124511386D01*
X139126000Y-124500000D01*
X144374000Y-124500000D01*
X144442121Y-124520002D01*
G37*
M02*
