G04 #@! TF.GenerationSoftware,KiCad,Pcbnew,(6.0.11)*
G04 #@! TF.CreationDate,2023-12-28T20:45:09+09:00*
G04 #@! TF.ProjectId,ORION_boost_v5,4f52494f-4e5f-4626-9f6f-73745f76352e,rev?*
G04 #@! TF.SameCoordinates,Original*
G04 #@! TF.FileFunction,Legend,Bot*
G04 #@! TF.FilePolarity,Positive*
%FSLAX46Y46*%
G04 Gerber Fmt 4.6, Leading zero omitted, Abs format (unit mm)*
G04 Created by KiCad (PCBNEW (6.0.11)) date 2023-12-28 20:45:09*
%MOMM*%
%LPD*%
G01*
G04 APERTURE LIST*
%ADD10C,0.150000*%
%ADD11C,0.120000*%
G04 APERTURE END LIST*
D10*
X131000000Y-136000000D02*
G75*
G03*
X131000000Y-136000000I-3000000J0D01*
G01*
X131000000Y-151000000D02*
G75*
G03*
X131000000Y-151000000I-3000000J0D01*
G01*
X155000000Y-79000000D02*
G75*
G03*
X155000000Y-79000000I-2500000J0D01*
G01*
X121000000Y-134500000D02*
X111000000Y-158000000D01*
X155000000Y-53000000D02*
G75*
G03*
X155000000Y-53000000I-2500000J0D01*
G01*
X100000000Y-79000000D02*
G75*
G03*
X100000000Y-79000000I-2500000J0D01*
G01*
X100000000Y-53000000D02*
G75*
G03*
X100000000Y-53000000I-2500000J0D01*
G01*
X106714285Y-108357142D02*
X106761904Y-108404761D01*
X106904761Y-108452380D01*
X107000000Y-108452380D01*
X107142857Y-108404761D01*
X107238095Y-108309523D01*
X107285714Y-108214285D01*
X107333333Y-108023809D01*
X107333333Y-107880952D01*
X107285714Y-107690476D01*
X107238095Y-107595238D01*
X107142857Y-107500000D01*
X107000000Y-107452380D01*
X106904761Y-107452380D01*
X106761904Y-107500000D01*
X106714285Y-107547619D01*
X106095238Y-107452380D02*
X105904761Y-107452380D01*
X105809523Y-107500000D01*
X105714285Y-107595238D01*
X105666666Y-107785714D01*
X105666666Y-108119047D01*
X105714285Y-108309523D01*
X105809523Y-108404761D01*
X105904761Y-108452380D01*
X106095238Y-108452380D01*
X106190476Y-108404761D01*
X106285714Y-108309523D01*
X106333333Y-108119047D01*
X106333333Y-107785714D01*
X106285714Y-107595238D01*
X106190476Y-107500000D01*
X106095238Y-107452380D01*
X105238095Y-108452380D02*
X105238095Y-107452380D01*
X104285714Y-108452380D02*
X104761904Y-108452380D01*
X104761904Y-107452380D01*
X104190476Y-108547619D02*
X103428571Y-108547619D01*
X103238095Y-107547619D02*
X103190476Y-107500000D01*
X103095238Y-107452380D01*
X102857142Y-107452380D01*
X102761904Y-107500000D01*
X102714285Y-107547619D01*
X102666666Y-107642857D01*
X102666666Y-107738095D01*
X102714285Y-107880952D01*
X103285714Y-108452380D01*
X102666666Y-108452380D01*
X165976190Y-69952380D02*
X165976190Y-68952380D01*
X165404761Y-69952380D02*
X165833333Y-69380952D01*
X165404761Y-68952380D02*
X165976190Y-69523809D01*
X164976190Y-69952380D02*
X164976190Y-68952380D01*
X163928571Y-69857142D02*
X163976190Y-69904761D01*
X164119047Y-69952380D01*
X164214285Y-69952380D01*
X164357142Y-69904761D01*
X164452380Y-69809523D01*
X164500000Y-69714285D01*
X164547619Y-69523809D01*
X164547619Y-69380952D01*
X164500000Y-69190476D01*
X164452380Y-69095238D01*
X164357142Y-69000000D01*
X164214285Y-68952380D01*
X164119047Y-68952380D01*
X163976190Y-69000000D01*
X163928571Y-69047619D01*
X163500000Y-69952380D02*
X163500000Y-68952380D01*
X162928571Y-69952380D02*
X163357142Y-69380952D01*
X162928571Y-68952380D02*
X163500000Y-69523809D01*
X161976190Y-69952380D02*
X162547619Y-69952380D01*
X162261904Y-69952380D02*
X162261904Y-68952380D01*
X162357142Y-69095238D01*
X162452380Y-69190476D01*
X162547619Y-69238095D01*
X146214285Y-108357142D02*
X146261904Y-108404761D01*
X146404761Y-108452380D01*
X146500000Y-108452380D01*
X146642857Y-108404761D01*
X146738095Y-108309523D01*
X146785714Y-108214285D01*
X146833333Y-108023809D01*
X146833333Y-107880952D01*
X146785714Y-107690476D01*
X146738095Y-107595238D01*
X146642857Y-107500000D01*
X146500000Y-107452380D01*
X146404761Y-107452380D01*
X146261904Y-107500000D01*
X146214285Y-107547619D01*
X145595238Y-107452380D02*
X145404761Y-107452380D01*
X145309523Y-107500000D01*
X145214285Y-107595238D01*
X145166666Y-107785714D01*
X145166666Y-108119047D01*
X145214285Y-108309523D01*
X145309523Y-108404761D01*
X145404761Y-108452380D01*
X145595238Y-108452380D01*
X145690476Y-108404761D01*
X145785714Y-108309523D01*
X145833333Y-108119047D01*
X145833333Y-107785714D01*
X145785714Y-107595238D01*
X145690476Y-107500000D01*
X145595238Y-107452380D01*
X144738095Y-108452380D02*
X144738095Y-107452380D01*
X143785714Y-108452380D02*
X144261904Y-108452380D01*
X144261904Y-107452380D01*
X143690476Y-108547619D02*
X142928571Y-108547619D01*
X142166666Y-108452380D02*
X142738095Y-108452380D01*
X142452380Y-108452380D02*
X142452380Y-107452380D01*
X142547619Y-107595238D01*
X142642857Y-107690476D01*
X142738095Y-107738095D01*
X105119047Y-118547619D02*
X105214285Y-118547619D01*
X105309523Y-118500000D01*
X105357142Y-118452380D01*
X105404761Y-118357142D01*
X105452380Y-118166666D01*
X105452380Y-117928571D01*
X105404761Y-117738095D01*
X105357142Y-117642857D01*
X105309523Y-117595238D01*
X105214285Y-117547619D01*
X105119047Y-117547619D01*
X105023809Y-117595238D01*
X104976190Y-117642857D01*
X104928571Y-117738095D01*
X104880952Y-117928571D01*
X104880952Y-118166666D01*
X104928571Y-118357142D01*
X104976190Y-118452380D01*
X105023809Y-118500000D01*
X105119047Y-118547619D01*
X107166666Y-117547619D02*
X106595238Y-117547619D01*
X106880952Y-117547619D02*
X106880952Y-118547619D01*
X106785714Y-118404761D01*
X106690476Y-118309523D01*
X106595238Y-118261904D01*
X110071428Y-118547619D02*
X110166666Y-118547619D01*
X110261904Y-118500000D01*
X110309523Y-118452380D01*
X110357142Y-118357142D01*
X110404761Y-118166666D01*
X110404761Y-117928571D01*
X110357142Y-117738095D01*
X110309523Y-117642857D01*
X110261904Y-117595238D01*
X110166666Y-117547619D01*
X110071428Y-117547619D01*
X109976190Y-117595238D01*
X109928571Y-117642857D01*
X109880952Y-117738095D01*
X109833333Y-117928571D01*
X109833333Y-118166666D01*
X109880952Y-118357142D01*
X109928571Y-118452380D01*
X109976190Y-118500000D01*
X110071428Y-118547619D01*
X112119047Y-117547619D02*
X111547619Y-117547619D01*
X111833333Y-117547619D02*
X111833333Y-118547619D01*
X111738095Y-118404761D01*
X111642857Y-118309523D01*
X111547619Y-118261904D01*
X87976190Y-69952380D02*
X87976190Y-68952380D01*
X87404761Y-69952380D02*
X87833333Y-69380952D01*
X87404761Y-68952380D02*
X87976190Y-69523809D01*
X86976190Y-69952380D02*
X86976190Y-68952380D01*
X85928571Y-69857142D02*
X85976190Y-69904761D01*
X86119047Y-69952380D01*
X86214285Y-69952380D01*
X86357142Y-69904761D01*
X86452380Y-69809523D01*
X86500000Y-69714285D01*
X86547619Y-69523809D01*
X86547619Y-69380952D01*
X86500000Y-69190476D01*
X86452380Y-69095238D01*
X86357142Y-69000000D01*
X86214285Y-68952380D01*
X86119047Y-68952380D01*
X85976190Y-69000000D01*
X85928571Y-69047619D01*
X85500000Y-69952380D02*
X85500000Y-68952380D01*
X84928571Y-69952380D02*
X85357142Y-69380952D01*
X84928571Y-68952380D02*
X85500000Y-69523809D01*
X84547619Y-69047619D02*
X84500000Y-69000000D01*
X84404761Y-68952380D01*
X84166666Y-68952380D01*
X84071428Y-69000000D01*
X84023809Y-69047619D01*
X83976190Y-69142857D01*
X83976190Y-69238095D01*
X84023809Y-69380952D01*
X84595238Y-69952380D01*
X83976190Y-69952380D01*
X91295508Y-91107142D02*
X91343127Y-91154761D01*
X91485984Y-91202380D01*
X91581222Y-91202380D01*
X91724079Y-91154761D01*
X91819317Y-91059523D01*
X91866936Y-90964285D01*
X91914555Y-90773809D01*
X91914555Y-90630952D01*
X91866936Y-90440476D01*
X91819317Y-90345238D01*
X91724079Y-90250000D01*
X91581222Y-90202380D01*
X91485984Y-90202380D01*
X91343127Y-90250000D01*
X91295508Y-90297619D01*
X90914555Y-90297619D02*
X90866936Y-90250000D01*
X90771698Y-90202380D01*
X90533603Y-90202380D01*
X90438365Y-90250000D01*
X90390746Y-90297619D01*
X90343127Y-90392857D01*
X90343127Y-90488095D01*
X90390746Y-90630952D01*
X90962174Y-91202380D01*
X90343127Y-91202380D01*
X89724079Y-90202380D02*
X89628841Y-90202380D01*
X89533603Y-90250000D01*
X89485984Y-90297619D01*
X89438365Y-90392857D01*
X89390746Y-90583333D01*
X89390746Y-90821428D01*
X89438365Y-91011904D01*
X89485984Y-91107142D01*
X89533603Y-91154761D01*
X89628841Y-91202380D01*
X89724079Y-91202380D01*
X89819317Y-91154761D01*
X89866936Y-91107142D01*
X89914555Y-91011904D01*
X89962174Y-90821428D01*
X89962174Y-90583333D01*
X89914555Y-90392857D01*
X89866936Y-90297619D01*
X89819317Y-90250000D01*
X89724079Y-90202380D01*
X102642857Y-109452380D02*
X102976190Y-108976190D01*
X103214285Y-109452380D02*
X103214285Y-108452380D01*
X102833333Y-108452380D01*
X102738095Y-108500000D01*
X102690476Y-108547619D01*
X102642857Y-108642857D01*
X102642857Y-108785714D01*
X102690476Y-108880952D01*
X102738095Y-108928571D01*
X102833333Y-108976190D01*
X103214285Y-108976190D01*
X101690476Y-109452380D02*
X102261904Y-109452380D01*
X101976190Y-109452380D02*
X101976190Y-108452380D01*
X102071428Y-108595238D01*
X102166666Y-108690476D01*
X102261904Y-108738095D01*
X101071428Y-108452380D02*
X100976190Y-108452380D01*
X100880952Y-108500000D01*
X100833333Y-108547619D01*
X100785714Y-108642857D01*
X100738095Y-108833333D01*
X100738095Y-109071428D01*
X100785714Y-109261904D01*
X100833333Y-109357142D01*
X100880952Y-109404761D01*
X100976190Y-109452380D01*
X101071428Y-109452380D01*
X101166666Y-109404761D01*
X101214285Y-109357142D01*
X101261904Y-109261904D01*
X101309523Y-109071428D01*
X101309523Y-108833333D01*
X101261904Y-108642857D01*
X101214285Y-108547619D01*
X101166666Y-108500000D01*
X101071428Y-108452380D01*
X131714285Y-119452380D02*
X131714285Y-118452380D01*
X131476190Y-118452380D01*
X131333333Y-118500000D01*
X131238095Y-118595238D01*
X131190476Y-118690476D01*
X131142857Y-118880952D01*
X131142857Y-119023809D01*
X131190476Y-119214285D01*
X131238095Y-119309523D01*
X131333333Y-119404761D01*
X131476190Y-119452380D01*
X131714285Y-119452380D01*
X130190476Y-119452380D02*
X130761904Y-119452380D01*
X130476190Y-119452380D02*
X130476190Y-118452380D01*
X130571428Y-118595238D01*
X130666666Y-118690476D01*
X130761904Y-118738095D01*
X129857142Y-118452380D02*
X129190476Y-118452380D01*
X129619047Y-119452380D01*
X108142857Y-57452380D02*
X108476190Y-56976190D01*
X108714285Y-57452380D02*
X108714285Y-56452380D01*
X108333333Y-56452380D01*
X108238095Y-56500000D01*
X108190476Y-56547619D01*
X108142857Y-56642857D01*
X108142857Y-56785714D01*
X108190476Y-56880952D01*
X108238095Y-56928571D01*
X108333333Y-56976190D01*
X108714285Y-56976190D01*
X107809523Y-56452380D02*
X107190476Y-56452380D01*
X107523809Y-56833333D01*
X107380952Y-56833333D01*
X107285714Y-56880952D01*
X107238095Y-56928571D01*
X107190476Y-57023809D01*
X107190476Y-57261904D01*
X107238095Y-57357142D01*
X107285714Y-57404761D01*
X107380952Y-57452380D01*
X107666666Y-57452380D01*
X107761904Y-57404761D01*
X107809523Y-57357142D01*
X106857142Y-56452380D02*
X106190476Y-56452380D01*
X106619047Y-57452380D01*
X104452380Y-106166666D02*
X105166666Y-106166666D01*
X105309523Y-106119047D01*
X105404761Y-106023809D01*
X105452380Y-105880952D01*
X105452380Y-105785714D01*
X105452380Y-106690476D02*
X105452380Y-106880952D01*
X105404761Y-106976190D01*
X105357142Y-107023809D01*
X105214285Y-107119047D01*
X105023809Y-107166666D01*
X104642857Y-107166666D01*
X104547619Y-107119047D01*
X104500000Y-107071428D01*
X104452380Y-106976190D01*
X104452380Y-106785714D01*
X104500000Y-106690476D01*
X104547619Y-106642857D01*
X104642857Y-106595238D01*
X104880952Y-106595238D01*
X104976190Y-106642857D01*
X105023809Y-106690476D01*
X105071428Y-106785714D01*
X105071428Y-106976190D01*
X105023809Y-107071428D01*
X104976190Y-107119047D01*
X104880952Y-107166666D01*
X103047619Y-72904761D02*
X103000000Y-72809523D01*
X102904761Y-72714285D01*
X102761904Y-72571428D01*
X102714285Y-72476190D01*
X102714285Y-72380952D01*
X102952380Y-72428571D02*
X102904761Y-72333333D01*
X102809523Y-72238095D01*
X102619047Y-72190476D01*
X102285714Y-72190476D01*
X102095238Y-72238095D01*
X102000000Y-72333333D01*
X101952380Y-72428571D01*
X101952380Y-72619047D01*
X102000000Y-72714285D01*
X102095238Y-72809523D01*
X102285714Y-72857142D01*
X102619047Y-72857142D01*
X102809523Y-72809523D01*
X102904761Y-72714285D01*
X102952380Y-72619047D01*
X102952380Y-72428571D01*
X102952380Y-73809523D02*
X102952380Y-73238095D01*
X102952380Y-73523809D02*
X101952380Y-73523809D01*
X102095238Y-73428571D01*
X102190476Y-73333333D01*
X102238095Y-73238095D01*
X114833333Y-115452380D02*
X114833333Y-116166666D01*
X114880952Y-116309523D01*
X114976190Y-116404761D01*
X115119047Y-116452380D01*
X115214285Y-116452380D01*
X114357142Y-116452380D02*
X114357142Y-115452380D01*
X113976190Y-115452380D01*
X113880952Y-115500000D01*
X113833333Y-115547619D01*
X113785714Y-115642857D01*
X113785714Y-115785714D01*
X113833333Y-115880952D01*
X113880952Y-115928571D01*
X113976190Y-115976190D01*
X114357142Y-115976190D01*
X113404761Y-115547619D02*
X113357142Y-115500000D01*
X113261904Y-115452380D01*
X113023809Y-115452380D01*
X112928571Y-115500000D01*
X112880952Y-115547619D01*
X112833333Y-115642857D01*
X112833333Y-115738095D01*
X112880952Y-115880952D01*
X113452380Y-116452380D01*
X112833333Y-116452380D01*
X94666666Y-104452380D02*
X95000000Y-103976190D01*
X95238095Y-104452380D02*
X95238095Y-103452380D01*
X94857142Y-103452380D01*
X94761904Y-103500000D01*
X94714285Y-103547619D01*
X94666666Y-103642857D01*
X94666666Y-103785714D01*
X94714285Y-103880952D01*
X94761904Y-103928571D01*
X94857142Y-103976190D01*
X95238095Y-103976190D01*
X94333333Y-103452380D02*
X93714285Y-103452380D01*
X94047619Y-103833333D01*
X93904761Y-103833333D01*
X93809523Y-103880952D01*
X93761904Y-103928571D01*
X93714285Y-104023809D01*
X93714285Y-104261904D01*
X93761904Y-104357142D01*
X93809523Y-104404761D01*
X93904761Y-104452380D01*
X94190476Y-104452380D01*
X94285714Y-104404761D01*
X94333333Y-104357142D01*
X120666666Y-95357142D02*
X120714285Y-95404761D01*
X120857142Y-95452380D01*
X120952380Y-95452380D01*
X121095238Y-95404761D01*
X121190476Y-95309523D01*
X121238095Y-95214285D01*
X121285714Y-95023809D01*
X121285714Y-94880952D01*
X121238095Y-94690476D01*
X121190476Y-94595238D01*
X121095238Y-94500000D01*
X120952380Y-94452380D01*
X120857142Y-94452380D01*
X120714285Y-94500000D01*
X120666666Y-94547619D01*
X119714285Y-95452380D02*
X120285714Y-95452380D01*
X120000000Y-95452380D02*
X120000000Y-94452380D01*
X120095238Y-94595238D01*
X120190476Y-94690476D01*
X120285714Y-94738095D01*
X159990206Y-101607142D02*
X160037825Y-101654761D01*
X160180682Y-101702380D01*
X160275920Y-101702380D01*
X160418777Y-101654761D01*
X160514015Y-101559523D01*
X160561634Y-101464285D01*
X160609253Y-101273809D01*
X160609253Y-101130952D01*
X160561634Y-100940476D01*
X160514015Y-100845238D01*
X160418777Y-100750000D01*
X160275920Y-100702380D01*
X160180682Y-100702380D01*
X160037825Y-100750000D01*
X159990206Y-100797619D01*
X159656872Y-100702380D02*
X159037825Y-100702380D01*
X159371158Y-101083333D01*
X159228301Y-101083333D01*
X159133063Y-101130952D01*
X159085444Y-101178571D01*
X159037825Y-101273809D01*
X159037825Y-101511904D01*
X159085444Y-101607142D01*
X159133063Y-101654761D01*
X159228301Y-101702380D01*
X159514015Y-101702380D01*
X159609253Y-101654761D01*
X159656872Y-101607142D01*
X158704491Y-100702380D02*
X158085444Y-100702380D01*
X158418777Y-101083333D01*
X158275920Y-101083333D01*
X158180682Y-101130952D01*
X158133063Y-101178571D01*
X158085444Y-101273809D01*
X158085444Y-101511904D01*
X158133063Y-101607142D01*
X158180682Y-101654761D01*
X158275920Y-101702380D01*
X158561634Y-101702380D01*
X158656872Y-101654761D01*
X158704491Y-101607142D01*
X138452380Y-108333333D02*
X137976190Y-108000000D01*
X138452380Y-107761904D02*
X137452380Y-107761904D01*
X137452380Y-108142857D01*
X137500000Y-108238095D01*
X137547619Y-108285714D01*
X137642857Y-108333333D01*
X137785714Y-108333333D01*
X137880952Y-108285714D01*
X137928571Y-108238095D01*
X137976190Y-108142857D01*
X137976190Y-107761904D01*
X138452380Y-108809523D02*
X138452380Y-109000000D01*
X138404761Y-109095238D01*
X138357142Y-109142857D01*
X138214285Y-109238095D01*
X138023809Y-109285714D01*
X137642857Y-109285714D01*
X137547619Y-109238095D01*
X137500000Y-109190476D01*
X137452380Y-109095238D01*
X137452380Y-108904761D01*
X137500000Y-108809523D01*
X137547619Y-108761904D01*
X137642857Y-108714285D01*
X137880952Y-108714285D01*
X137976190Y-108761904D01*
X138023809Y-108809523D01*
X138071428Y-108904761D01*
X138071428Y-109095238D01*
X138023809Y-109190476D01*
X137976190Y-109238095D01*
X137880952Y-109285714D01*
X103929880Y-101857142D02*
X103453690Y-101523809D01*
X103929880Y-101285714D02*
X102929880Y-101285714D01*
X102929880Y-101666666D01*
X102977500Y-101761904D01*
X103025119Y-101809523D01*
X103120357Y-101857142D01*
X103263214Y-101857142D01*
X103358452Y-101809523D01*
X103406071Y-101761904D01*
X103453690Y-101666666D01*
X103453690Y-101285714D01*
X103929880Y-102809523D02*
X103929880Y-102238095D01*
X103929880Y-102523809D02*
X102929880Y-102523809D01*
X103072738Y-102428571D01*
X103167976Y-102333333D01*
X103215595Y-102238095D01*
X103025119Y-103190476D02*
X102977500Y-103238095D01*
X102929880Y-103333333D01*
X102929880Y-103571428D01*
X102977500Y-103666666D01*
X103025119Y-103714285D01*
X103120357Y-103761904D01*
X103215595Y-103761904D01*
X103358452Y-103714285D01*
X103929880Y-103142857D01*
X103929880Y-103761904D01*
X114714285Y-102000000D02*
X114809523Y-101952380D01*
X114952380Y-101952380D01*
X115095238Y-102000000D01*
X115190476Y-102095238D01*
X115238095Y-102190476D01*
X115285714Y-102380952D01*
X115285714Y-102523809D01*
X115238095Y-102714285D01*
X115190476Y-102809523D01*
X115095238Y-102904761D01*
X114952380Y-102952380D01*
X114857142Y-102952380D01*
X114714285Y-102904761D01*
X114666666Y-102857142D01*
X114666666Y-102523809D01*
X114857142Y-102523809D01*
X114238095Y-102952380D02*
X114238095Y-101952380D01*
X114000000Y-101952380D01*
X113857142Y-102000000D01*
X113761904Y-102095238D01*
X113714285Y-102190476D01*
X113666666Y-102380952D01*
X113666666Y-102523809D01*
X113714285Y-102714285D01*
X113761904Y-102809523D01*
X113857142Y-102904761D01*
X114000000Y-102952380D01*
X114238095Y-102952380D01*
X112714285Y-102952380D02*
X113285714Y-102952380D01*
X113000000Y-102952380D02*
X113000000Y-101952380D01*
X113095238Y-102095238D01*
X113190476Y-102190476D01*
X113285714Y-102238095D01*
X108452380Y-99857142D02*
X107976190Y-99523809D01*
X108452380Y-99285714D02*
X107452380Y-99285714D01*
X107452380Y-99666666D01*
X107500000Y-99761904D01*
X107547619Y-99809523D01*
X107642857Y-99857142D01*
X107785714Y-99857142D01*
X107880952Y-99809523D01*
X107928571Y-99761904D01*
X107976190Y-99666666D01*
X107976190Y-99285714D01*
X108452380Y-100809523D02*
X108452380Y-100238095D01*
X108452380Y-100523809D02*
X107452380Y-100523809D01*
X107595238Y-100428571D01*
X107690476Y-100333333D01*
X107738095Y-100238095D01*
X108452380Y-101285714D02*
X108452380Y-101476190D01*
X108404761Y-101571428D01*
X108357142Y-101619047D01*
X108214285Y-101714285D01*
X108023809Y-101761904D01*
X107642857Y-101761904D01*
X107547619Y-101714285D01*
X107500000Y-101666666D01*
X107452380Y-101571428D01*
X107452380Y-101380952D01*
X107500000Y-101285714D01*
X107547619Y-101238095D01*
X107642857Y-101190476D01*
X107880952Y-101190476D01*
X107976190Y-101238095D01*
X108023809Y-101285714D01*
X108071428Y-101380952D01*
X108071428Y-101571428D01*
X108023809Y-101666666D01*
X107976190Y-101714285D01*
X107880952Y-101761904D01*
X94841666Y-102452380D02*
X95175000Y-101976190D01*
X95413095Y-102452380D02*
X95413095Y-101452380D01*
X95032142Y-101452380D01*
X94936904Y-101500000D01*
X94889285Y-101547619D01*
X94841666Y-101642857D01*
X94841666Y-101785714D01*
X94889285Y-101880952D01*
X94936904Y-101928571D01*
X95032142Y-101976190D01*
X95413095Y-101976190D01*
X93984523Y-101785714D02*
X93984523Y-102452380D01*
X94222619Y-101404761D02*
X94460714Y-102119047D01*
X93841666Y-102119047D01*
X111842857Y-107952380D02*
X112176190Y-107476190D01*
X112414285Y-107952380D02*
X112414285Y-106952380D01*
X112033333Y-106952380D01*
X111938095Y-107000000D01*
X111890476Y-107047619D01*
X111842857Y-107142857D01*
X111842857Y-107285714D01*
X111890476Y-107380952D01*
X111938095Y-107428571D01*
X112033333Y-107476190D01*
X112414285Y-107476190D01*
X111461904Y-107047619D02*
X111414285Y-107000000D01*
X111319047Y-106952380D01*
X111080952Y-106952380D01*
X110985714Y-107000000D01*
X110938095Y-107047619D01*
X110890476Y-107142857D01*
X110890476Y-107238095D01*
X110938095Y-107380952D01*
X111509523Y-107952380D01*
X110890476Y-107952380D01*
X110557142Y-106952380D02*
X109938095Y-106952380D01*
X110271428Y-107333333D01*
X110128571Y-107333333D01*
X110033333Y-107380952D01*
X109985714Y-107428571D01*
X109938095Y-107523809D01*
X109938095Y-107761904D01*
X109985714Y-107857142D01*
X110033333Y-107904761D01*
X110128571Y-107952380D01*
X110414285Y-107952380D01*
X110509523Y-107904761D01*
X110557142Y-107857142D01*
X133357142Y-99833333D02*
X133404761Y-99785714D01*
X133452380Y-99642857D01*
X133452380Y-99547619D01*
X133404761Y-99404761D01*
X133309523Y-99309523D01*
X133214285Y-99261904D01*
X133023809Y-99214285D01*
X132880952Y-99214285D01*
X132690476Y-99261904D01*
X132595238Y-99309523D01*
X132500000Y-99404761D01*
X132452380Y-99547619D01*
X132452380Y-99642857D01*
X132500000Y-99785714D01*
X132547619Y-99833333D01*
X132452380Y-100690476D02*
X132452380Y-100500000D01*
X132500000Y-100404761D01*
X132547619Y-100357142D01*
X132690476Y-100261904D01*
X132880952Y-100214285D01*
X133261904Y-100214285D01*
X133357142Y-100261904D01*
X133404761Y-100309523D01*
X133452380Y-100404761D01*
X133452380Y-100595238D01*
X133404761Y-100690476D01*
X133357142Y-100738095D01*
X133261904Y-100785714D01*
X133023809Y-100785714D01*
X132928571Y-100738095D01*
X132880952Y-100690476D01*
X132833333Y-100595238D01*
X132833333Y-100404761D01*
X132880952Y-100309523D01*
X132928571Y-100261904D01*
X133023809Y-100214285D01*
X91738095Y-70952380D02*
X91738095Y-69952380D01*
X91357142Y-69952380D01*
X91261904Y-70000000D01*
X91214285Y-70047619D01*
X91166666Y-70142857D01*
X91166666Y-70285714D01*
X91214285Y-70380952D01*
X91261904Y-70428571D01*
X91357142Y-70476190D01*
X91738095Y-70476190D01*
X90785714Y-70047619D02*
X90738095Y-70000000D01*
X90642857Y-69952380D01*
X90404761Y-69952380D01*
X90309523Y-70000000D01*
X90261904Y-70047619D01*
X90214285Y-70142857D01*
X90214285Y-70238095D01*
X90261904Y-70380952D01*
X90833333Y-70952380D01*
X90214285Y-70952380D01*
X106841793Y-139797969D02*
X106134687Y-139090862D01*
X105966328Y-139259221D01*
X105898984Y-139393908D01*
X105898984Y-139528595D01*
X105932656Y-139629610D01*
X106033671Y-139797969D01*
X106134687Y-139898984D01*
X106303045Y-140000000D01*
X106404061Y-140033671D01*
X106538748Y-140033671D01*
X106673435Y-139966328D01*
X106841793Y-139797969D01*
X105629610Y-140202030D02*
X105663282Y-140101015D01*
X105663282Y-140033671D01*
X105629610Y-139932656D01*
X105595938Y-139898984D01*
X105494923Y-139865312D01*
X105427580Y-139865312D01*
X105326564Y-139898984D01*
X105191877Y-140033671D01*
X105158206Y-140134687D01*
X105158206Y-140202030D01*
X105191877Y-140303045D01*
X105225549Y-140336717D01*
X105326564Y-140370389D01*
X105393908Y-140370389D01*
X105494923Y-140336717D01*
X105629610Y-140202030D01*
X105730625Y-140168358D01*
X105797969Y-140168358D01*
X105898984Y-140202030D01*
X106033671Y-140336717D01*
X106067343Y-140437732D01*
X106067343Y-140505076D01*
X106033671Y-140606091D01*
X105898984Y-140740778D01*
X105797969Y-140774450D01*
X105730625Y-140774450D01*
X105629610Y-140740778D01*
X105494923Y-140606091D01*
X105461251Y-140505076D01*
X105461251Y-140437732D01*
X105494923Y-140336717D01*
X124142857Y-127357142D02*
X124190476Y-127404761D01*
X124333333Y-127452380D01*
X124428571Y-127452380D01*
X124571428Y-127404761D01*
X124666666Y-127309523D01*
X124714285Y-127214285D01*
X124761904Y-127023809D01*
X124761904Y-126880952D01*
X124714285Y-126690476D01*
X124666666Y-126595238D01*
X124571428Y-126500000D01*
X124428571Y-126452380D01*
X124333333Y-126452380D01*
X124190476Y-126500000D01*
X124142857Y-126547619D01*
X123190476Y-127452380D02*
X123761904Y-127452380D01*
X123476190Y-127452380D02*
X123476190Y-126452380D01*
X123571428Y-126595238D01*
X123666666Y-126690476D01*
X123761904Y-126738095D01*
X122285714Y-126452380D02*
X122761904Y-126452380D01*
X122809523Y-126928571D01*
X122761904Y-126880952D01*
X122666666Y-126833333D01*
X122428571Y-126833333D01*
X122333333Y-126880952D01*
X122285714Y-126928571D01*
X122238095Y-127023809D01*
X122238095Y-127261904D01*
X122285714Y-127357142D01*
X122333333Y-127404761D01*
X122428571Y-127452380D01*
X122666666Y-127452380D01*
X122761904Y-127404761D01*
X122809523Y-127357142D01*
X147952380Y-110357142D02*
X147476190Y-110023809D01*
X147952380Y-109785714D02*
X146952380Y-109785714D01*
X146952380Y-110166666D01*
X147000000Y-110261904D01*
X147047619Y-110309523D01*
X147142857Y-110357142D01*
X147285714Y-110357142D01*
X147380952Y-110309523D01*
X147428571Y-110261904D01*
X147476190Y-110166666D01*
X147476190Y-109785714D01*
X147952380Y-111309523D02*
X147952380Y-110738095D01*
X147952380Y-111023809D02*
X146952380Y-111023809D01*
X147095238Y-110928571D01*
X147190476Y-110833333D01*
X147238095Y-110738095D01*
X147285714Y-112166666D02*
X147952380Y-112166666D01*
X146904761Y-111928571D02*
X147619047Y-111690476D01*
X147619047Y-112309523D01*
X119461251Y-135321488D02*
X118754145Y-136028595D01*
X118922503Y-136196954D01*
X119057190Y-136264297D01*
X119191877Y-136264297D01*
X119292893Y-136230625D01*
X119461251Y-136129610D01*
X119562267Y-136028595D01*
X119663282Y-135860236D01*
X119696954Y-135759221D01*
X119696954Y-135624534D01*
X119629610Y-135489847D01*
X119461251Y-135321488D01*
X120538748Y-136398984D02*
X120134687Y-135994923D01*
X120336717Y-136196954D02*
X119629610Y-136904061D01*
X119663282Y-136735702D01*
X119663282Y-136601015D01*
X119629610Y-136500000D01*
X121212183Y-137072419D02*
X120808122Y-136668358D01*
X121010152Y-136870389D02*
X120303045Y-137577496D01*
X120336717Y-137409137D01*
X120336717Y-137274450D01*
X120303045Y-137173435D01*
X140357142Y-108333333D02*
X140404761Y-108285714D01*
X140452380Y-108142857D01*
X140452380Y-108047619D01*
X140404761Y-107904761D01*
X140309523Y-107809523D01*
X140214285Y-107761904D01*
X140023809Y-107714285D01*
X139880952Y-107714285D01*
X139690476Y-107761904D01*
X139595238Y-107809523D01*
X139500000Y-107904761D01*
X139452380Y-108047619D01*
X139452380Y-108142857D01*
X139500000Y-108285714D01*
X139547619Y-108333333D01*
X139452380Y-108666666D02*
X139452380Y-109333333D01*
X140452380Y-108904761D01*
X126142857Y-114857142D02*
X126190476Y-114904761D01*
X126333333Y-114952380D01*
X126428571Y-114952380D01*
X126571428Y-114904761D01*
X126666666Y-114809523D01*
X126714285Y-114714285D01*
X126761904Y-114523809D01*
X126761904Y-114380952D01*
X126714285Y-114190476D01*
X126666666Y-114095238D01*
X126571428Y-114000000D01*
X126428571Y-113952380D01*
X126333333Y-113952380D01*
X126190476Y-114000000D01*
X126142857Y-114047619D01*
X125190476Y-114952380D02*
X125761904Y-114952380D01*
X125476190Y-114952380D02*
X125476190Y-113952380D01*
X125571428Y-114095238D01*
X125666666Y-114190476D01*
X125761904Y-114238095D01*
X124238095Y-114952380D02*
X124809523Y-114952380D01*
X124523809Y-114952380D02*
X124523809Y-113952380D01*
X124619047Y-114095238D01*
X124714285Y-114190476D01*
X124809523Y-114238095D01*
X148047619Y-58904761D02*
X148000000Y-58809523D01*
X147904761Y-58714285D01*
X147761904Y-58571428D01*
X147714285Y-58476190D01*
X147714285Y-58380952D01*
X147952380Y-58428571D02*
X147904761Y-58333333D01*
X147809523Y-58238095D01*
X147619047Y-58190476D01*
X147285714Y-58190476D01*
X147095238Y-58238095D01*
X147000000Y-58333333D01*
X146952380Y-58428571D01*
X146952380Y-58619047D01*
X147000000Y-58714285D01*
X147095238Y-58809523D01*
X147285714Y-58857142D01*
X147619047Y-58857142D01*
X147809523Y-58809523D01*
X147904761Y-58714285D01*
X147952380Y-58619047D01*
X147952380Y-58428571D01*
X147952380Y-59333333D02*
X147952380Y-59523809D01*
X147904761Y-59619047D01*
X147857142Y-59666666D01*
X147714285Y-59761904D01*
X147523809Y-59809523D01*
X147142857Y-59809523D01*
X147047619Y-59761904D01*
X147000000Y-59714285D01*
X146952380Y-59619047D01*
X146952380Y-59428571D01*
X147000000Y-59333333D01*
X147047619Y-59285714D01*
X147142857Y-59238095D01*
X147380952Y-59238095D01*
X147476190Y-59285714D01*
X147523809Y-59333333D01*
X147571428Y-59428571D01*
X147571428Y-59619047D01*
X147523809Y-59714285D01*
X147476190Y-59761904D01*
X147380952Y-59809523D01*
X129952380Y-89857142D02*
X129476190Y-89523809D01*
X129952380Y-89285714D02*
X128952380Y-89285714D01*
X128952380Y-89666666D01*
X129000000Y-89761904D01*
X129047619Y-89809523D01*
X129142857Y-89857142D01*
X129285714Y-89857142D01*
X129380952Y-89809523D01*
X129428571Y-89761904D01*
X129476190Y-89666666D01*
X129476190Y-89285714D01*
X129952380Y-90809523D02*
X129952380Y-90238095D01*
X129952380Y-90523809D02*
X128952380Y-90523809D01*
X129095238Y-90428571D01*
X129190476Y-90333333D01*
X129238095Y-90238095D01*
X129952380Y-91761904D02*
X129952380Y-91190476D01*
X129952380Y-91476190D02*
X128952380Y-91476190D01*
X129095238Y-91380952D01*
X129190476Y-91285714D01*
X129238095Y-91190476D01*
X133166666Y-92857142D02*
X133214285Y-92904761D01*
X133357142Y-92952380D01*
X133452380Y-92952380D01*
X133595238Y-92904761D01*
X133690476Y-92809523D01*
X133738095Y-92714285D01*
X133785714Y-92523809D01*
X133785714Y-92380952D01*
X133738095Y-92190476D01*
X133690476Y-92095238D01*
X133595238Y-92000000D01*
X133452380Y-91952380D01*
X133357142Y-91952380D01*
X133214285Y-92000000D01*
X133166666Y-92047619D01*
X132833333Y-91952380D02*
X132214285Y-91952380D01*
X132547619Y-92333333D01*
X132404761Y-92333333D01*
X132309523Y-92380952D01*
X132261904Y-92428571D01*
X132214285Y-92523809D01*
X132214285Y-92761904D01*
X132261904Y-92857142D01*
X132309523Y-92904761D01*
X132404761Y-92952380D01*
X132690476Y-92952380D01*
X132785714Y-92904761D01*
X132833333Y-92857142D01*
X133642857Y-105452380D02*
X133976190Y-104976190D01*
X134214285Y-105452380D02*
X134214285Y-104452380D01*
X133833333Y-104452380D01*
X133738095Y-104500000D01*
X133690476Y-104547619D01*
X133642857Y-104642857D01*
X133642857Y-104785714D01*
X133690476Y-104880952D01*
X133738095Y-104928571D01*
X133833333Y-104976190D01*
X134214285Y-104976190D01*
X133261904Y-104547619D02*
X133214285Y-104500000D01*
X133119047Y-104452380D01*
X132880952Y-104452380D01*
X132785714Y-104500000D01*
X132738095Y-104547619D01*
X132690476Y-104642857D01*
X132690476Y-104738095D01*
X132738095Y-104880952D01*
X133309523Y-105452380D01*
X132690476Y-105452380D01*
X132119047Y-104880952D02*
X132214285Y-104833333D01*
X132261904Y-104785714D01*
X132309523Y-104690476D01*
X132309523Y-104642857D01*
X132261904Y-104547619D01*
X132214285Y-104500000D01*
X132119047Y-104452380D01*
X131928571Y-104452380D01*
X131833333Y-104500000D01*
X131785714Y-104547619D01*
X131738095Y-104642857D01*
X131738095Y-104690476D01*
X131785714Y-104785714D01*
X131833333Y-104833333D01*
X131928571Y-104880952D01*
X132119047Y-104880952D01*
X132214285Y-104928571D01*
X132261904Y-104976190D01*
X132309523Y-105071428D01*
X132309523Y-105261904D01*
X132261904Y-105357142D01*
X132214285Y-105404761D01*
X132119047Y-105452380D01*
X131928571Y-105452380D01*
X131833333Y-105404761D01*
X131785714Y-105357142D01*
X131738095Y-105261904D01*
X131738095Y-105071428D01*
X131785714Y-104976190D01*
X131833333Y-104928571D01*
X131928571Y-104880952D01*
X105952380Y-65594400D02*
X105476190Y-65261067D01*
X105952380Y-65022972D02*
X104952380Y-65022972D01*
X104952380Y-65403924D01*
X105000000Y-65499162D01*
X105047619Y-65546781D01*
X105142857Y-65594400D01*
X105285714Y-65594400D01*
X105380952Y-65546781D01*
X105428571Y-65499162D01*
X105476190Y-65403924D01*
X105476190Y-65022972D01*
X104952380Y-65927734D02*
X104952380Y-66546781D01*
X105333333Y-66213448D01*
X105333333Y-66356305D01*
X105380952Y-66451543D01*
X105428571Y-66499162D01*
X105523809Y-66546781D01*
X105761904Y-66546781D01*
X105857142Y-66499162D01*
X105904761Y-66451543D01*
X105952380Y-66356305D01*
X105952380Y-66070591D01*
X105904761Y-65975353D01*
X105857142Y-65927734D01*
X105952380Y-67022972D02*
X105952380Y-67213448D01*
X105904761Y-67308686D01*
X105857142Y-67356305D01*
X105714285Y-67451543D01*
X105523809Y-67499162D01*
X105142857Y-67499162D01*
X105047619Y-67451543D01*
X105000000Y-67403924D01*
X104952380Y-67308686D01*
X104952380Y-67118210D01*
X105000000Y-67022972D01*
X105047619Y-66975353D01*
X105142857Y-66927734D01*
X105380952Y-66927734D01*
X105476190Y-66975353D01*
X105523809Y-67022972D01*
X105571428Y-67118210D01*
X105571428Y-67308686D01*
X105523809Y-67403924D01*
X105476190Y-67451543D01*
X105380952Y-67499162D01*
X133452380Y-116857142D02*
X132976190Y-116523809D01*
X133452380Y-116285714D02*
X132452380Y-116285714D01*
X132452380Y-116666666D01*
X132500000Y-116761904D01*
X132547619Y-116809523D01*
X132642857Y-116857142D01*
X132785714Y-116857142D01*
X132880952Y-116809523D01*
X132928571Y-116761904D01*
X132976190Y-116666666D01*
X132976190Y-116285714D01*
X132452380Y-117190476D02*
X132452380Y-117809523D01*
X132833333Y-117476190D01*
X132833333Y-117619047D01*
X132880952Y-117714285D01*
X132928571Y-117761904D01*
X133023809Y-117809523D01*
X133261904Y-117809523D01*
X133357142Y-117761904D01*
X133404761Y-117714285D01*
X133452380Y-117619047D01*
X133452380Y-117333333D01*
X133404761Y-117238095D01*
X133357142Y-117190476D01*
X132547619Y-118190476D02*
X132500000Y-118238095D01*
X132452380Y-118333333D01*
X132452380Y-118571428D01*
X132500000Y-118666666D01*
X132547619Y-118714285D01*
X132642857Y-118761904D01*
X132738095Y-118761904D01*
X132880952Y-118714285D01*
X133452380Y-118142857D01*
X133452380Y-118761904D01*
X125857142Y-78857142D02*
X125904761Y-78809523D01*
X125952380Y-78666666D01*
X125952380Y-78571428D01*
X125904761Y-78428571D01*
X125809523Y-78333333D01*
X125714285Y-78285714D01*
X125523809Y-78238095D01*
X125380952Y-78238095D01*
X125190476Y-78285714D01*
X125095238Y-78333333D01*
X125000000Y-78428571D01*
X124952380Y-78571428D01*
X124952380Y-78666666D01*
X125000000Y-78809523D01*
X125047619Y-78857142D01*
X124952380Y-79190476D02*
X124952380Y-79809523D01*
X125333333Y-79476190D01*
X125333333Y-79619047D01*
X125380952Y-79714285D01*
X125428571Y-79761904D01*
X125523809Y-79809523D01*
X125761904Y-79809523D01*
X125857142Y-79761904D01*
X125904761Y-79714285D01*
X125952380Y-79619047D01*
X125952380Y-79333333D01*
X125904761Y-79238095D01*
X125857142Y-79190476D01*
X125047619Y-80190476D02*
X125000000Y-80238095D01*
X124952380Y-80333333D01*
X124952380Y-80571428D01*
X125000000Y-80666666D01*
X125047619Y-80714285D01*
X125142857Y-80761904D01*
X125238095Y-80761904D01*
X125380952Y-80714285D01*
X125952380Y-80142857D01*
X125952380Y-80761904D01*
X124761904Y-116552380D02*
X124761904Y-117361904D01*
X124714285Y-117457142D01*
X124666666Y-117504761D01*
X124571428Y-117552380D01*
X124380952Y-117552380D01*
X124285714Y-117504761D01*
X124238095Y-117457142D01*
X124190476Y-117361904D01*
X124190476Y-116552380D01*
X123809523Y-116552380D02*
X123190476Y-116552380D01*
X123523809Y-116933333D01*
X123380952Y-116933333D01*
X123285714Y-116980952D01*
X123238095Y-117028571D01*
X123190476Y-117123809D01*
X123190476Y-117361904D01*
X123238095Y-117457142D01*
X123285714Y-117504761D01*
X123380952Y-117552380D01*
X123666666Y-117552380D01*
X123761904Y-117504761D01*
X123809523Y-117457142D01*
X130452380Y-145261904D02*
X129452380Y-145261904D01*
X129452380Y-145500000D01*
X129500000Y-145642857D01*
X129595238Y-145738095D01*
X129690476Y-145785714D01*
X129880952Y-145833333D01*
X130023809Y-145833333D01*
X130214285Y-145785714D01*
X130309523Y-145738095D01*
X130404761Y-145642857D01*
X130452380Y-145500000D01*
X130452380Y-145261904D01*
X129452380Y-146690476D02*
X129452380Y-146500000D01*
X129500000Y-146404761D01*
X129547619Y-146357142D01*
X129690476Y-146261904D01*
X129880952Y-146214285D01*
X130261904Y-146214285D01*
X130357142Y-146261904D01*
X130404761Y-146309523D01*
X130452380Y-146404761D01*
X130452380Y-146595238D01*
X130404761Y-146690476D01*
X130357142Y-146738095D01*
X130261904Y-146785714D01*
X130023809Y-146785714D01*
X129928571Y-146738095D01*
X129880952Y-146690476D01*
X129833333Y-146595238D01*
X129833333Y-146404761D01*
X129880952Y-146309523D01*
X129928571Y-146261904D01*
X130023809Y-146214285D01*
X94666666Y-100452380D02*
X95000000Y-99976190D01*
X95238095Y-100452380D02*
X95238095Y-99452380D01*
X94857142Y-99452380D01*
X94761904Y-99500000D01*
X94714285Y-99547619D01*
X94666666Y-99642857D01*
X94666666Y-99785714D01*
X94714285Y-99880952D01*
X94761904Y-99928571D01*
X94857142Y-99976190D01*
X95238095Y-99976190D01*
X93761904Y-99452380D02*
X94238095Y-99452380D01*
X94285714Y-99928571D01*
X94238095Y-99880952D01*
X94142857Y-99833333D01*
X93904761Y-99833333D01*
X93809523Y-99880952D01*
X93761904Y-99928571D01*
X93714285Y-100023809D01*
X93714285Y-100261904D01*
X93761904Y-100357142D01*
X93809523Y-100404761D01*
X93904761Y-100452380D01*
X94142857Y-100452380D01*
X94238095Y-100404761D01*
X94285714Y-100357142D01*
X128452380Y-115857142D02*
X127976190Y-115523809D01*
X128452380Y-115285714D02*
X127452380Y-115285714D01*
X127452380Y-115666666D01*
X127500000Y-115761904D01*
X127547619Y-115809523D01*
X127642857Y-115857142D01*
X127785714Y-115857142D01*
X127880952Y-115809523D01*
X127928571Y-115761904D01*
X127976190Y-115666666D01*
X127976190Y-115285714D01*
X127452380Y-116190476D02*
X127452380Y-116809523D01*
X127833333Y-116476190D01*
X127833333Y-116619047D01*
X127880952Y-116714285D01*
X127928571Y-116761904D01*
X128023809Y-116809523D01*
X128261904Y-116809523D01*
X128357142Y-116761904D01*
X128404761Y-116714285D01*
X128452380Y-116619047D01*
X128452380Y-116333333D01*
X128404761Y-116238095D01*
X128357142Y-116190476D01*
X127452380Y-117428571D02*
X127452380Y-117523809D01*
X127500000Y-117619047D01*
X127547619Y-117666666D01*
X127642857Y-117714285D01*
X127833333Y-117761904D01*
X128071428Y-117761904D01*
X128261904Y-117714285D01*
X128357142Y-117666666D01*
X128404761Y-117619047D01*
X128452380Y-117523809D01*
X128452380Y-117428571D01*
X128404761Y-117333333D01*
X128357142Y-117285714D01*
X128261904Y-117238095D01*
X128071428Y-117190476D01*
X127833333Y-117190476D01*
X127642857Y-117238095D01*
X127547619Y-117285714D01*
X127500000Y-117333333D01*
X127452380Y-117428571D01*
X145022380Y-72357142D02*
X144546190Y-72023809D01*
X145022380Y-71785714D02*
X144022380Y-71785714D01*
X144022380Y-72166666D01*
X144070000Y-72261904D01*
X144117619Y-72309523D01*
X144212857Y-72357142D01*
X144355714Y-72357142D01*
X144450952Y-72309523D01*
X144498571Y-72261904D01*
X144546190Y-72166666D01*
X144546190Y-71785714D01*
X144117619Y-72738095D02*
X144070000Y-72785714D01*
X144022380Y-72880952D01*
X144022380Y-73119047D01*
X144070000Y-73214285D01*
X144117619Y-73261904D01*
X144212857Y-73309523D01*
X144308095Y-73309523D01*
X144450952Y-73261904D01*
X145022380Y-72690476D01*
X145022380Y-73309523D01*
X145022380Y-73785714D02*
X145022380Y-73976190D01*
X144974761Y-74071428D01*
X144927142Y-74119047D01*
X144784285Y-74214285D01*
X144593809Y-74261904D01*
X144212857Y-74261904D01*
X144117619Y-74214285D01*
X144070000Y-74166666D01*
X144022380Y-74071428D01*
X144022380Y-73880952D01*
X144070000Y-73785714D01*
X144117619Y-73738095D01*
X144212857Y-73690476D01*
X144450952Y-73690476D01*
X144546190Y-73738095D01*
X144593809Y-73785714D01*
X144641428Y-73880952D01*
X144641428Y-74071428D01*
X144593809Y-74166666D01*
X144546190Y-74214285D01*
X144450952Y-74261904D01*
X140952380Y-86857142D02*
X140476190Y-86523809D01*
X140952380Y-86285714D02*
X139952380Y-86285714D01*
X139952380Y-86666666D01*
X140000000Y-86761904D01*
X140047619Y-86809523D01*
X140142857Y-86857142D01*
X140285714Y-86857142D01*
X140380952Y-86809523D01*
X140428571Y-86761904D01*
X140476190Y-86666666D01*
X140476190Y-86285714D01*
X140047619Y-87238095D02*
X140000000Y-87285714D01*
X139952380Y-87380952D01*
X139952380Y-87619047D01*
X140000000Y-87714285D01*
X140047619Y-87761904D01*
X140142857Y-87809523D01*
X140238095Y-87809523D01*
X140380952Y-87761904D01*
X140952380Y-87190476D01*
X140952380Y-87809523D01*
X139952380Y-88714285D02*
X139952380Y-88238095D01*
X140428571Y-88190476D01*
X140380952Y-88238095D01*
X140333333Y-88333333D01*
X140333333Y-88571428D01*
X140380952Y-88666666D01*
X140428571Y-88714285D01*
X140523809Y-88761904D01*
X140761904Y-88761904D01*
X140857142Y-88714285D01*
X140904761Y-88666666D01*
X140952380Y-88571428D01*
X140952380Y-88333333D01*
X140904761Y-88238095D01*
X140857142Y-88190476D01*
X102666666Y-110857142D02*
X102714285Y-110904761D01*
X102857142Y-110952380D01*
X102952380Y-110952380D01*
X103095238Y-110904761D01*
X103190476Y-110809523D01*
X103238095Y-110714285D01*
X103285714Y-110523809D01*
X103285714Y-110380952D01*
X103238095Y-110190476D01*
X103190476Y-110095238D01*
X103095238Y-110000000D01*
X102952380Y-109952380D01*
X102857142Y-109952380D01*
X102714285Y-110000000D01*
X102666666Y-110047619D01*
X102190476Y-110952380D02*
X102000000Y-110952380D01*
X101904761Y-110904761D01*
X101857142Y-110857142D01*
X101761904Y-110714285D01*
X101714285Y-110523809D01*
X101714285Y-110142857D01*
X101761904Y-110047619D01*
X101809523Y-110000000D01*
X101904761Y-109952380D01*
X102095238Y-109952380D01*
X102190476Y-110000000D01*
X102238095Y-110047619D01*
X102285714Y-110142857D01*
X102285714Y-110380952D01*
X102238095Y-110476190D01*
X102190476Y-110523809D01*
X102095238Y-110571428D01*
X101904761Y-110571428D01*
X101809523Y-110523809D01*
X101761904Y-110476190D01*
X101714285Y-110380952D01*
X118642857Y-80357142D02*
X118690476Y-80404761D01*
X118833333Y-80452380D01*
X118928571Y-80452380D01*
X119071428Y-80404761D01*
X119166666Y-80309523D01*
X119214285Y-80214285D01*
X119261904Y-80023809D01*
X119261904Y-79880952D01*
X119214285Y-79690476D01*
X119166666Y-79595238D01*
X119071428Y-79500000D01*
X118928571Y-79452380D01*
X118833333Y-79452380D01*
X118690476Y-79500000D01*
X118642857Y-79547619D01*
X118261904Y-79547619D02*
X118214285Y-79500000D01*
X118119047Y-79452380D01*
X117880952Y-79452380D01*
X117785714Y-79500000D01*
X117738095Y-79547619D01*
X117690476Y-79642857D01*
X117690476Y-79738095D01*
X117738095Y-79880952D01*
X118309523Y-80452380D01*
X117690476Y-80452380D01*
X116785714Y-79452380D02*
X117261904Y-79452380D01*
X117309523Y-79928571D01*
X117261904Y-79880952D01*
X117166666Y-79833333D01*
X116928571Y-79833333D01*
X116833333Y-79880952D01*
X116785714Y-79928571D01*
X116738095Y-80023809D01*
X116738095Y-80261904D01*
X116785714Y-80357142D01*
X116833333Y-80404761D01*
X116928571Y-80452380D01*
X117166666Y-80452380D01*
X117261904Y-80404761D01*
X117309523Y-80357142D01*
X103047619Y-59404761D02*
X103000000Y-59309523D01*
X102904761Y-59214285D01*
X102761904Y-59071428D01*
X102714285Y-58976190D01*
X102714285Y-58880952D01*
X102952380Y-58928571D02*
X102904761Y-58833333D01*
X102809523Y-58738095D01*
X102619047Y-58690476D01*
X102285714Y-58690476D01*
X102095238Y-58738095D01*
X102000000Y-58833333D01*
X101952380Y-58928571D01*
X101952380Y-59119047D01*
X102000000Y-59214285D01*
X102095238Y-59309523D01*
X102285714Y-59357142D01*
X102619047Y-59357142D01*
X102809523Y-59309523D01*
X102904761Y-59214285D01*
X102952380Y-59119047D01*
X102952380Y-58928571D01*
X101952380Y-60214285D02*
X101952380Y-60023809D01*
X102000000Y-59928571D01*
X102047619Y-59880952D01*
X102190476Y-59785714D01*
X102380952Y-59738095D01*
X102761904Y-59738095D01*
X102857142Y-59785714D01*
X102904761Y-59833333D01*
X102952380Y-59928571D01*
X102952380Y-60119047D01*
X102904761Y-60214285D01*
X102857142Y-60261904D01*
X102761904Y-60309523D01*
X102523809Y-60309523D01*
X102428571Y-60261904D01*
X102380952Y-60214285D01*
X102333333Y-60119047D01*
X102333333Y-59928571D01*
X102380952Y-59833333D01*
X102428571Y-59785714D01*
X102523809Y-59738095D01*
X119857142Y-103333333D02*
X119904761Y-103285714D01*
X119952380Y-103142857D01*
X119952380Y-103047619D01*
X119904761Y-102904761D01*
X119809523Y-102809523D01*
X119714285Y-102761904D01*
X119523809Y-102714285D01*
X119380952Y-102714285D01*
X119190476Y-102761904D01*
X119095238Y-102809523D01*
X119000000Y-102904761D01*
X118952380Y-103047619D01*
X118952380Y-103142857D01*
X119000000Y-103285714D01*
X119047619Y-103333333D01*
X119285714Y-104190476D02*
X119952380Y-104190476D01*
X118904761Y-103952380D02*
X119619047Y-103714285D01*
X119619047Y-104333333D01*
X103047619Y-65904761D02*
X103000000Y-65809523D01*
X102904761Y-65714285D01*
X102761904Y-65571428D01*
X102714285Y-65476190D01*
X102714285Y-65380952D01*
X102952380Y-65428571D02*
X102904761Y-65333333D01*
X102809523Y-65238095D01*
X102619047Y-65190476D01*
X102285714Y-65190476D01*
X102095238Y-65238095D01*
X102000000Y-65333333D01*
X101952380Y-65428571D01*
X101952380Y-65619047D01*
X102000000Y-65714285D01*
X102095238Y-65809523D01*
X102285714Y-65857142D01*
X102619047Y-65857142D01*
X102809523Y-65809523D01*
X102904761Y-65714285D01*
X102952380Y-65619047D01*
X102952380Y-65428571D01*
X102380952Y-66428571D02*
X102333333Y-66333333D01*
X102285714Y-66285714D01*
X102190476Y-66238095D01*
X102142857Y-66238095D01*
X102047619Y-66285714D01*
X102000000Y-66333333D01*
X101952380Y-66428571D01*
X101952380Y-66619047D01*
X102000000Y-66714285D01*
X102047619Y-66761904D01*
X102142857Y-66809523D01*
X102190476Y-66809523D01*
X102285714Y-66761904D01*
X102333333Y-66714285D01*
X102380952Y-66619047D01*
X102380952Y-66428571D01*
X102428571Y-66333333D01*
X102476190Y-66285714D01*
X102571428Y-66238095D01*
X102761904Y-66238095D01*
X102857142Y-66285714D01*
X102904761Y-66333333D01*
X102952380Y-66428571D01*
X102952380Y-66619047D01*
X102904761Y-66714285D01*
X102857142Y-66761904D01*
X102761904Y-66809523D01*
X102571428Y-66809523D01*
X102476190Y-66761904D01*
X102428571Y-66714285D01*
X102380952Y-66619047D01*
X106857142Y-90857142D02*
X106904761Y-90809523D01*
X106952380Y-90666666D01*
X106952380Y-90571428D01*
X106904761Y-90428571D01*
X106809523Y-90333333D01*
X106714285Y-90285714D01*
X106523809Y-90238095D01*
X106380952Y-90238095D01*
X106190476Y-90285714D01*
X106095238Y-90333333D01*
X106000000Y-90428571D01*
X105952380Y-90571428D01*
X105952380Y-90666666D01*
X106000000Y-90809523D01*
X106047619Y-90857142D01*
X106952380Y-91809523D02*
X106952380Y-91238095D01*
X106952380Y-91523809D02*
X105952380Y-91523809D01*
X106095238Y-91428571D01*
X106190476Y-91333333D01*
X106238095Y-91238095D01*
X105952380Y-92142857D02*
X105952380Y-92761904D01*
X106333333Y-92428571D01*
X106333333Y-92571428D01*
X106380952Y-92666666D01*
X106428571Y-92714285D01*
X106523809Y-92761904D01*
X106761904Y-92761904D01*
X106857142Y-92714285D01*
X106904761Y-92666666D01*
X106952380Y-92571428D01*
X106952380Y-92285714D01*
X106904761Y-92190476D01*
X106857142Y-92142857D01*
X94642857Y-94452380D02*
X94976190Y-93976190D01*
X95214285Y-94452380D02*
X95214285Y-93452380D01*
X94833333Y-93452380D01*
X94738095Y-93500000D01*
X94690476Y-93547619D01*
X94642857Y-93642857D01*
X94642857Y-93785714D01*
X94690476Y-93880952D01*
X94738095Y-93928571D01*
X94833333Y-93976190D01*
X95214285Y-93976190D01*
X93785714Y-93785714D02*
X93785714Y-94452380D01*
X94023809Y-93404761D02*
X94261904Y-94119047D01*
X93642857Y-94119047D01*
X92833333Y-93785714D02*
X92833333Y-94452380D01*
X93071428Y-93404761D02*
X93309523Y-94119047D01*
X92690476Y-94119047D01*
X115295704Y-98655121D02*
X116295704Y-99321787D01*
X115295704Y-99321787D02*
X116295704Y-98655121D01*
X116295704Y-100226549D02*
X116295704Y-99655121D01*
X116295704Y-99940835D02*
X115295704Y-99940835D01*
X115438562Y-99845597D01*
X115533800Y-99750359D01*
X115581419Y-99655121D01*
X133952380Y-135357142D02*
X133476190Y-135023809D01*
X133952380Y-134785714D02*
X132952380Y-134785714D01*
X132952380Y-135166666D01*
X133000000Y-135261904D01*
X133047619Y-135309523D01*
X133142857Y-135357142D01*
X133285714Y-135357142D01*
X133380952Y-135309523D01*
X133428571Y-135261904D01*
X133476190Y-135166666D01*
X133476190Y-134785714D01*
X133285714Y-136214285D02*
X133952380Y-136214285D01*
X132904761Y-135976190D02*
X133619047Y-135738095D01*
X133619047Y-136357142D01*
X133952380Y-137261904D02*
X133952380Y-136690476D01*
X133952380Y-136976190D02*
X132952380Y-136976190D01*
X133095238Y-136880952D01*
X133190476Y-136785714D01*
X133238095Y-136690476D01*
X135142857Y-53357142D02*
X135190476Y-53404761D01*
X135333333Y-53452380D01*
X135428571Y-53452380D01*
X135571428Y-53404761D01*
X135666666Y-53309523D01*
X135714285Y-53214285D01*
X135761904Y-53023809D01*
X135761904Y-52880952D01*
X135714285Y-52690476D01*
X135666666Y-52595238D01*
X135571428Y-52500000D01*
X135428571Y-52452380D01*
X135333333Y-52452380D01*
X135190476Y-52500000D01*
X135142857Y-52547619D01*
X134761904Y-52547619D02*
X134714285Y-52500000D01*
X134619047Y-52452380D01*
X134380952Y-52452380D01*
X134285714Y-52500000D01*
X134238095Y-52547619D01*
X134190476Y-52642857D01*
X134190476Y-52738095D01*
X134238095Y-52880952D01*
X134809523Y-53452380D01*
X134190476Y-53452380D01*
X133857142Y-52452380D02*
X133190476Y-52452380D01*
X133619047Y-53452380D01*
X152217380Y-96661904D02*
X151217380Y-96661904D01*
X151217380Y-97042857D01*
X151265000Y-97138095D01*
X151312619Y-97185714D01*
X151407857Y-97233333D01*
X151550714Y-97233333D01*
X151645952Y-97185714D01*
X151693571Y-97138095D01*
X151741190Y-97042857D01*
X151741190Y-96661904D01*
X152122142Y-98233333D02*
X152169761Y-98185714D01*
X152217380Y-98042857D01*
X152217380Y-97947619D01*
X152169761Y-97804761D01*
X152074523Y-97709523D01*
X151979285Y-97661904D01*
X151788809Y-97614285D01*
X151645952Y-97614285D01*
X151455476Y-97661904D01*
X151360238Y-97709523D01*
X151265000Y-97804761D01*
X151217380Y-97947619D01*
X151217380Y-98042857D01*
X151265000Y-98185714D01*
X151312619Y-98233333D01*
X151312619Y-98614285D02*
X151265000Y-98661904D01*
X151217380Y-98757142D01*
X151217380Y-98995238D01*
X151265000Y-99090476D01*
X151312619Y-99138095D01*
X151407857Y-99185714D01*
X151503095Y-99185714D01*
X151645952Y-99138095D01*
X152217380Y-98566666D01*
X152217380Y-99185714D01*
X148142857Y-88452380D02*
X148476190Y-87976190D01*
X148714285Y-88452380D02*
X148714285Y-87452380D01*
X148333333Y-87452380D01*
X148238095Y-87500000D01*
X148190476Y-87547619D01*
X148142857Y-87642857D01*
X148142857Y-87785714D01*
X148190476Y-87880952D01*
X148238095Y-87928571D01*
X148333333Y-87976190D01*
X148714285Y-87976190D01*
X147761904Y-87547619D02*
X147714285Y-87500000D01*
X147619047Y-87452380D01*
X147380952Y-87452380D01*
X147285714Y-87500000D01*
X147238095Y-87547619D01*
X147190476Y-87642857D01*
X147190476Y-87738095D01*
X147238095Y-87880952D01*
X147809523Y-88452380D01*
X147190476Y-88452380D01*
X146809523Y-87547619D02*
X146761904Y-87500000D01*
X146666666Y-87452380D01*
X146428571Y-87452380D01*
X146333333Y-87500000D01*
X146285714Y-87547619D01*
X146238095Y-87642857D01*
X146238095Y-87738095D01*
X146285714Y-87880952D01*
X146857142Y-88452380D01*
X146238095Y-88452380D01*
X121333333Y-96428571D02*
X121666666Y-96428571D01*
X121666666Y-96952380D02*
X121666666Y-95952380D01*
X121190476Y-95952380D01*
X120476190Y-96428571D02*
X120333333Y-96476190D01*
X120285714Y-96523809D01*
X120238095Y-96619047D01*
X120238095Y-96761904D01*
X120285714Y-96857142D01*
X120333333Y-96904761D01*
X120428571Y-96952380D01*
X120809523Y-96952380D01*
X120809523Y-95952380D01*
X120476190Y-95952380D01*
X120380952Y-96000000D01*
X120333333Y-96047619D01*
X120285714Y-96142857D01*
X120285714Y-96238095D01*
X120333333Y-96333333D01*
X120380952Y-96380952D01*
X120476190Y-96428571D01*
X120809523Y-96428571D01*
X119285714Y-96952380D02*
X119857142Y-96952380D01*
X119571428Y-96952380D02*
X119571428Y-95952380D01*
X119666666Y-96095238D01*
X119761904Y-96190476D01*
X119857142Y-96238095D01*
X143357142Y-86857142D02*
X143404761Y-86809523D01*
X143452380Y-86666666D01*
X143452380Y-86571428D01*
X143404761Y-86428571D01*
X143309523Y-86333333D01*
X143214285Y-86285714D01*
X143023809Y-86238095D01*
X142880952Y-86238095D01*
X142690476Y-86285714D01*
X142595238Y-86333333D01*
X142500000Y-86428571D01*
X142452380Y-86571428D01*
X142452380Y-86666666D01*
X142500000Y-86809523D01*
X142547619Y-86857142D01*
X142547619Y-87238095D02*
X142500000Y-87285714D01*
X142452380Y-87380952D01*
X142452380Y-87619047D01*
X142500000Y-87714285D01*
X142547619Y-87761904D01*
X142642857Y-87809523D01*
X142738095Y-87809523D01*
X142880952Y-87761904D01*
X143452380Y-87190476D01*
X143452380Y-87809523D01*
X143452380Y-88761904D02*
X143452380Y-88190476D01*
X143452380Y-88476190D02*
X142452380Y-88476190D01*
X142595238Y-88380952D01*
X142690476Y-88285714D01*
X142738095Y-88190476D01*
X137357142Y-88357142D02*
X137404761Y-88309523D01*
X137452380Y-88166666D01*
X137452380Y-88071428D01*
X137404761Y-87928571D01*
X137309523Y-87833333D01*
X137214285Y-87785714D01*
X137023809Y-87738095D01*
X136880952Y-87738095D01*
X136690476Y-87785714D01*
X136595238Y-87833333D01*
X136500000Y-87928571D01*
X136452380Y-88071428D01*
X136452380Y-88166666D01*
X136500000Y-88309523D01*
X136547619Y-88357142D01*
X136547619Y-88738095D02*
X136500000Y-88785714D01*
X136452380Y-88880952D01*
X136452380Y-89119047D01*
X136500000Y-89214285D01*
X136547619Y-89261904D01*
X136642857Y-89309523D01*
X136738095Y-89309523D01*
X136880952Y-89261904D01*
X137452380Y-88690476D01*
X137452380Y-89309523D01*
X136547619Y-89690476D02*
X136500000Y-89738095D01*
X136452380Y-89833333D01*
X136452380Y-90071428D01*
X136500000Y-90166666D01*
X136547619Y-90214285D01*
X136642857Y-90261904D01*
X136738095Y-90261904D01*
X136880952Y-90214285D01*
X137452380Y-89642857D01*
X137452380Y-90261904D01*
X125357142Y-89857142D02*
X125404761Y-89809523D01*
X125452380Y-89666666D01*
X125452380Y-89571428D01*
X125404761Y-89428571D01*
X125309523Y-89333333D01*
X125214285Y-89285714D01*
X125023809Y-89238095D01*
X124880952Y-89238095D01*
X124690476Y-89285714D01*
X124595238Y-89333333D01*
X124500000Y-89428571D01*
X124452380Y-89571428D01*
X124452380Y-89666666D01*
X124500000Y-89809523D01*
X124547619Y-89857142D01*
X125452380Y-90809523D02*
X125452380Y-90238095D01*
X125452380Y-90523809D02*
X124452380Y-90523809D01*
X124595238Y-90428571D01*
X124690476Y-90333333D01*
X124738095Y-90238095D01*
X124452380Y-91428571D02*
X124452380Y-91523809D01*
X124500000Y-91619047D01*
X124547619Y-91666666D01*
X124642857Y-91714285D01*
X124833333Y-91761904D01*
X125071428Y-91761904D01*
X125261904Y-91714285D01*
X125357142Y-91666666D01*
X125404761Y-91619047D01*
X125452380Y-91523809D01*
X125452380Y-91428571D01*
X125404761Y-91333333D01*
X125357142Y-91285714D01*
X125261904Y-91238095D01*
X125071428Y-91190476D01*
X124833333Y-91190476D01*
X124642857Y-91238095D01*
X124547619Y-91285714D01*
X124500000Y-91333333D01*
X124452380Y-91428571D01*
X106022380Y-102857142D02*
X105546190Y-102523809D01*
X106022380Y-102285714D02*
X105022380Y-102285714D01*
X105022380Y-102666666D01*
X105070000Y-102761904D01*
X105117619Y-102809523D01*
X105212857Y-102857142D01*
X105355714Y-102857142D01*
X105450952Y-102809523D01*
X105498571Y-102761904D01*
X105546190Y-102666666D01*
X105546190Y-102285714D01*
X106022380Y-103809523D02*
X106022380Y-103238095D01*
X106022380Y-103523809D02*
X105022380Y-103523809D01*
X105165238Y-103428571D01*
X105260476Y-103333333D01*
X105308095Y-103238095D01*
X105450952Y-104380952D02*
X105403333Y-104285714D01*
X105355714Y-104238095D01*
X105260476Y-104190476D01*
X105212857Y-104190476D01*
X105117619Y-104238095D01*
X105070000Y-104285714D01*
X105022380Y-104380952D01*
X105022380Y-104571428D01*
X105070000Y-104666666D01*
X105117619Y-104714285D01*
X105212857Y-104761904D01*
X105260476Y-104761904D01*
X105355714Y-104714285D01*
X105403333Y-104666666D01*
X105450952Y-104571428D01*
X105450952Y-104380952D01*
X105498571Y-104285714D01*
X105546190Y-104238095D01*
X105641428Y-104190476D01*
X105831904Y-104190476D01*
X105927142Y-104238095D01*
X105974761Y-104285714D01*
X106022380Y-104380952D01*
X106022380Y-104571428D01*
X105974761Y-104666666D01*
X105927142Y-104714285D01*
X105831904Y-104761904D01*
X105641428Y-104761904D01*
X105546190Y-104714285D01*
X105498571Y-104666666D01*
X105450952Y-104571428D01*
X111761904Y-110952380D02*
X111761904Y-111761904D01*
X111714285Y-111857142D01*
X111666666Y-111904761D01*
X111571428Y-111952380D01*
X111380952Y-111952380D01*
X111285714Y-111904761D01*
X111238095Y-111857142D01*
X111190476Y-111761904D01*
X111190476Y-110952380D01*
X110761904Y-111047619D02*
X110714285Y-111000000D01*
X110619047Y-110952380D01*
X110380952Y-110952380D01*
X110285714Y-111000000D01*
X110238095Y-111047619D01*
X110190476Y-111142857D01*
X110190476Y-111238095D01*
X110238095Y-111380952D01*
X110809523Y-111952380D01*
X110190476Y-111952380D01*
X105452380Y-142261904D02*
X104452380Y-142261904D01*
X104452380Y-142500000D01*
X104500000Y-142642857D01*
X104595238Y-142738095D01*
X104690476Y-142785714D01*
X104880952Y-142833333D01*
X105023809Y-142833333D01*
X105214285Y-142785714D01*
X105309523Y-142738095D01*
X105404761Y-142642857D01*
X105452380Y-142500000D01*
X105452380Y-142261904D01*
X105452380Y-143309523D02*
X105452380Y-143500000D01*
X105404761Y-143595238D01*
X105357142Y-143642857D01*
X105214285Y-143738095D01*
X105023809Y-143785714D01*
X104642857Y-143785714D01*
X104547619Y-143738095D01*
X104500000Y-143690476D01*
X104452380Y-143595238D01*
X104452380Y-143404761D01*
X104500000Y-143309523D01*
X104547619Y-143261904D01*
X104642857Y-143214285D01*
X104880952Y-143214285D01*
X104976190Y-143261904D01*
X105023809Y-143309523D01*
X105071428Y-143404761D01*
X105071428Y-143595238D01*
X105023809Y-143690476D01*
X104976190Y-143738095D01*
X104880952Y-143785714D01*
X134357142Y-154833333D02*
X134404761Y-154785714D01*
X134452380Y-154642857D01*
X134452380Y-154547619D01*
X134404761Y-154404761D01*
X134309523Y-154309523D01*
X134214285Y-154261904D01*
X134023809Y-154214285D01*
X133880952Y-154214285D01*
X133690476Y-154261904D01*
X133595238Y-154309523D01*
X133500000Y-154404761D01*
X133452380Y-154547619D01*
X133452380Y-154642857D01*
X133500000Y-154785714D01*
X133547619Y-154833333D01*
X133880952Y-155404761D02*
X133833333Y-155309523D01*
X133785714Y-155261904D01*
X133690476Y-155214285D01*
X133642857Y-155214285D01*
X133547619Y-155261904D01*
X133500000Y-155309523D01*
X133452380Y-155404761D01*
X133452380Y-155595238D01*
X133500000Y-155690476D01*
X133547619Y-155738095D01*
X133642857Y-155785714D01*
X133690476Y-155785714D01*
X133785714Y-155738095D01*
X133833333Y-155690476D01*
X133880952Y-155595238D01*
X133880952Y-155404761D01*
X133928571Y-155309523D01*
X133976190Y-155261904D01*
X134071428Y-155214285D01*
X134261904Y-155214285D01*
X134357142Y-155261904D01*
X134404761Y-155309523D01*
X134452380Y-155404761D01*
X134452380Y-155595238D01*
X134404761Y-155690476D01*
X134357142Y-155738095D01*
X134261904Y-155785714D01*
X134071428Y-155785714D01*
X133976190Y-155738095D01*
X133928571Y-155690476D01*
X133880952Y-155595238D01*
X110452380Y-89357142D02*
X109976190Y-89023809D01*
X110452380Y-88785714D02*
X109452380Y-88785714D01*
X109452380Y-89166666D01*
X109500000Y-89261904D01*
X109547619Y-89309523D01*
X109642857Y-89357142D01*
X109785714Y-89357142D01*
X109880952Y-89309523D01*
X109928571Y-89261904D01*
X109976190Y-89166666D01*
X109976190Y-88785714D01*
X109452380Y-89690476D02*
X109452380Y-90309523D01*
X109833333Y-89976190D01*
X109833333Y-90119047D01*
X109880952Y-90214285D01*
X109928571Y-90261904D01*
X110023809Y-90309523D01*
X110261904Y-90309523D01*
X110357142Y-90261904D01*
X110404761Y-90214285D01*
X110452380Y-90119047D01*
X110452380Y-89833333D01*
X110404761Y-89738095D01*
X110357142Y-89690476D01*
X109880952Y-90880952D02*
X109833333Y-90785714D01*
X109785714Y-90738095D01*
X109690476Y-90690476D01*
X109642857Y-90690476D01*
X109547619Y-90738095D01*
X109500000Y-90785714D01*
X109452380Y-90880952D01*
X109452380Y-91071428D01*
X109500000Y-91166666D01*
X109547619Y-91214285D01*
X109642857Y-91261904D01*
X109690476Y-91261904D01*
X109785714Y-91214285D01*
X109833333Y-91166666D01*
X109880952Y-91071428D01*
X109880952Y-90880952D01*
X109928571Y-90785714D01*
X109976190Y-90738095D01*
X110071428Y-90690476D01*
X110261904Y-90690476D01*
X110357142Y-90738095D01*
X110404761Y-90785714D01*
X110452380Y-90880952D01*
X110452380Y-91071428D01*
X110404761Y-91166666D01*
X110357142Y-91214285D01*
X110261904Y-91261904D01*
X110071428Y-91261904D01*
X109976190Y-91214285D01*
X109928571Y-91166666D01*
X109880952Y-91071428D01*
X131047619Y-110404761D02*
X131000000Y-110309523D01*
X130904761Y-110214285D01*
X130761904Y-110071428D01*
X130714285Y-109976190D01*
X130714285Y-109880952D01*
X130952380Y-109928571D02*
X130904761Y-109833333D01*
X130809523Y-109738095D01*
X130619047Y-109690476D01*
X130285714Y-109690476D01*
X130095238Y-109738095D01*
X130000000Y-109833333D01*
X129952380Y-109928571D01*
X129952380Y-110119047D01*
X130000000Y-110214285D01*
X130095238Y-110309523D01*
X130285714Y-110357142D01*
X130619047Y-110357142D01*
X130809523Y-110309523D01*
X130904761Y-110214285D01*
X130952380Y-110119047D01*
X130952380Y-109928571D01*
X129952380Y-110690476D02*
X129952380Y-111309523D01*
X130333333Y-110976190D01*
X130333333Y-111119047D01*
X130380952Y-111214285D01*
X130428571Y-111261904D01*
X130523809Y-111309523D01*
X130761904Y-111309523D01*
X130857142Y-111261904D01*
X130904761Y-111214285D01*
X130952380Y-111119047D01*
X130952380Y-110833333D01*
X130904761Y-110738095D01*
X130857142Y-110690476D01*
X146047619Y-114404761D02*
X146000000Y-114309523D01*
X145904761Y-114214285D01*
X145761904Y-114071428D01*
X145714285Y-113976190D01*
X145714285Y-113880952D01*
X145952380Y-113928571D02*
X145904761Y-113833333D01*
X145809523Y-113738095D01*
X145619047Y-113690476D01*
X145285714Y-113690476D01*
X145095238Y-113738095D01*
X145000000Y-113833333D01*
X144952380Y-113928571D01*
X144952380Y-114119047D01*
X145000000Y-114214285D01*
X145095238Y-114309523D01*
X145285714Y-114357142D01*
X145619047Y-114357142D01*
X145809523Y-114309523D01*
X145904761Y-114214285D01*
X145952380Y-114119047D01*
X145952380Y-113928571D01*
X145285714Y-115214285D02*
X145952380Y-115214285D01*
X144904761Y-114976190D02*
X145619047Y-114738095D01*
X145619047Y-115357142D01*
X138357142Y-98357142D02*
X138404761Y-98309523D01*
X138452380Y-98166666D01*
X138452380Y-98071428D01*
X138404761Y-97928571D01*
X138309523Y-97833333D01*
X138214285Y-97785714D01*
X138023809Y-97738095D01*
X137880952Y-97738095D01*
X137690476Y-97785714D01*
X137595238Y-97833333D01*
X137500000Y-97928571D01*
X137452380Y-98071428D01*
X137452380Y-98166666D01*
X137500000Y-98309523D01*
X137547619Y-98357142D01*
X138452380Y-99309523D02*
X138452380Y-98738095D01*
X138452380Y-99023809D02*
X137452380Y-99023809D01*
X137595238Y-98928571D01*
X137690476Y-98833333D01*
X137738095Y-98738095D01*
X138452380Y-99785714D02*
X138452380Y-99976190D01*
X138404761Y-100071428D01*
X138357142Y-100119047D01*
X138214285Y-100214285D01*
X138023809Y-100261904D01*
X137642857Y-100261904D01*
X137547619Y-100214285D01*
X137500000Y-100166666D01*
X137452380Y-100071428D01*
X137452380Y-99880952D01*
X137500000Y-99785714D01*
X137547619Y-99738095D01*
X137642857Y-99690476D01*
X137880952Y-99690476D01*
X137976190Y-99738095D01*
X138023809Y-99785714D01*
X138071428Y-99880952D01*
X138071428Y-100071428D01*
X138023809Y-100166666D01*
X137976190Y-100214285D01*
X137880952Y-100261904D01*
X145022380Y-58357142D02*
X144546190Y-58023809D01*
X145022380Y-57785714D02*
X144022380Y-57785714D01*
X144022380Y-58166666D01*
X144070000Y-58261904D01*
X144117619Y-58309523D01*
X144212857Y-58357142D01*
X144355714Y-58357142D01*
X144450952Y-58309523D01*
X144498571Y-58261904D01*
X144546190Y-58166666D01*
X144546190Y-57785714D01*
X144355714Y-59214285D02*
X145022380Y-59214285D01*
X143974761Y-58976190D02*
X144689047Y-58738095D01*
X144689047Y-59357142D01*
X144022380Y-59928571D02*
X144022380Y-60023809D01*
X144070000Y-60119047D01*
X144117619Y-60166666D01*
X144212857Y-60214285D01*
X144403333Y-60261904D01*
X144641428Y-60261904D01*
X144831904Y-60214285D01*
X144927142Y-60166666D01*
X144974761Y-60119047D01*
X145022380Y-60023809D01*
X145022380Y-59928571D01*
X144974761Y-59833333D01*
X144927142Y-59785714D01*
X144831904Y-59738095D01*
X144641428Y-59690476D01*
X144403333Y-59690476D01*
X144212857Y-59738095D01*
X144117619Y-59785714D01*
X144070000Y-59833333D01*
X144022380Y-59928571D01*
X113214285Y-119952380D02*
X113214285Y-118952380D01*
X112976190Y-118952380D01*
X112833333Y-119000000D01*
X112738095Y-119095238D01*
X112690476Y-119190476D01*
X112642857Y-119380952D01*
X112642857Y-119523809D01*
X112690476Y-119714285D01*
X112738095Y-119809523D01*
X112833333Y-119904761D01*
X112976190Y-119952380D01*
X113214285Y-119952380D01*
X111690476Y-119952380D02*
X112261904Y-119952380D01*
X111976190Y-119952380D02*
X111976190Y-118952380D01*
X112071428Y-119095238D01*
X112166666Y-119190476D01*
X112261904Y-119238095D01*
X110833333Y-118952380D02*
X111023809Y-118952380D01*
X111119047Y-119000000D01*
X111166666Y-119047619D01*
X111261904Y-119190476D01*
X111309523Y-119380952D01*
X111309523Y-119761904D01*
X111261904Y-119857142D01*
X111214285Y-119904761D01*
X111119047Y-119952380D01*
X110928571Y-119952380D01*
X110833333Y-119904761D01*
X110785714Y-119857142D01*
X110738095Y-119761904D01*
X110738095Y-119523809D01*
X110785714Y-119428571D01*
X110833333Y-119380952D01*
X110928571Y-119333333D01*
X111119047Y-119333333D01*
X111214285Y-119380952D01*
X111261904Y-119428571D01*
X111309523Y-119523809D01*
X112389285Y-96102380D02*
X112389285Y-95102380D01*
X112151190Y-95102380D01*
X112008333Y-95150000D01*
X111913095Y-95245238D01*
X111865476Y-95340476D01*
X111817857Y-95530952D01*
X111817857Y-95673809D01*
X111865476Y-95864285D01*
X111913095Y-95959523D01*
X112008333Y-96054761D01*
X112151190Y-96102380D01*
X112389285Y-96102380D01*
X111436904Y-95197619D02*
X111389285Y-95150000D01*
X111294047Y-95102380D01*
X111055952Y-95102380D01*
X110960714Y-95150000D01*
X110913095Y-95197619D01*
X110865476Y-95292857D01*
X110865476Y-95388095D01*
X110913095Y-95530952D01*
X111484523Y-96102380D01*
X110865476Y-96102380D01*
X110008333Y-95435714D02*
X110008333Y-96102380D01*
X110246428Y-95054761D02*
X110484523Y-95769047D01*
X109865476Y-95769047D01*
X106166666Y-112452380D02*
X106500000Y-111976190D01*
X106738095Y-112452380D02*
X106738095Y-111452380D01*
X106357142Y-111452380D01*
X106261904Y-111500000D01*
X106214285Y-111547619D01*
X106166666Y-111642857D01*
X106166666Y-111785714D01*
X106214285Y-111880952D01*
X106261904Y-111928571D01*
X106357142Y-111976190D01*
X106738095Y-111976190D01*
X105595238Y-111880952D02*
X105690476Y-111833333D01*
X105738095Y-111785714D01*
X105785714Y-111690476D01*
X105785714Y-111642857D01*
X105738095Y-111547619D01*
X105690476Y-111500000D01*
X105595238Y-111452380D01*
X105404761Y-111452380D01*
X105309523Y-111500000D01*
X105261904Y-111547619D01*
X105214285Y-111642857D01*
X105214285Y-111690476D01*
X105261904Y-111785714D01*
X105309523Y-111833333D01*
X105404761Y-111880952D01*
X105595238Y-111880952D01*
X105690476Y-111928571D01*
X105738095Y-111976190D01*
X105785714Y-112071428D01*
X105785714Y-112261904D01*
X105738095Y-112357142D01*
X105690476Y-112404761D01*
X105595238Y-112452380D01*
X105404761Y-112452380D01*
X105309523Y-112404761D01*
X105261904Y-112357142D01*
X105214285Y-112261904D01*
X105214285Y-112071428D01*
X105261904Y-111976190D01*
X105309523Y-111928571D01*
X105404761Y-111880952D01*
X152452380Y-99333333D02*
X151976190Y-99000000D01*
X152452380Y-98761904D02*
X151452380Y-98761904D01*
X151452380Y-99142857D01*
X151500000Y-99238095D01*
X151547619Y-99285714D01*
X151642857Y-99333333D01*
X151785714Y-99333333D01*
X151880952Y-99285714D01*
X151928571Y-99238095D01*
X151976190Y-99142857D01*
X151976190Y-98761904D01*
X152452380Y-100285714D02*
X152452380Y-99714285D01*
X152452380Y-100000000D02*
X151452380Y-100000000D01*
X151595238Y-99904761D01*
X151690476Y-99809523D01*
X151738095Y-99714285D01*
X143927142Y-94357142D02*
X143974761Y-94309523D01*
X144022380Y-94166666D01*
X144022380Y-94071428D01*
X143974761Y-93928571D01*
X143879523Y-93833333D01*
X143784285Y-93785714D01*
X143593809Y-93738095D01*
X143450952Y-93738095D01*
X143260476Y-93785714D01*
X143165238Y-93833333D01*
X143070000Y-93928571D01*
X143022380Y-94071428D01*
X143022380Y-94166666D01*
X143070000Y-94309523D01*
X143117619Y-94357142D01*
X144022380Y-95309523D02*
X144022380Y-94738095D01*
X144022380Y-95023809D02*
X143022380Y-95023809D01*
X143165238Y-94928571D01*
X143260476Y-94833333D01*
X143308095Y-94738095D01*
X143355714Y-96166666D02*
X144022380Y-96166666D01*
X142974761Y-95928571D02*
X143689047Y-95690476D01*
X143689047Y-96309523D01*
X126642857Y-127357142D02*
X126690476Y-127404761D01*
X126833333Y-127452380D01*
X126928571Y-127452380D01*
X127071428Y-127404761D01*
X127166666Y-127309523D01*
X127214285Y-127214285D01*
X127261904Y-127023809D01*
X127261904Y-126880952D01*
X127214285Y-126690476D01*
X127166666Y-126595238D01*
X127071428Y-126500000D01*
X126928571Y-126452380D01*
X126833333Y-126452380D01*
X126690476Y-126500000D01*
X126642857Y-126547619D01*
X125690476Y-127452380D02*
X126261904Y-127452380D01*
X125976190Y-127452380D02*
X125976190Y-126452380D01*
X126071428Y-126595238D01*
X126166666Y-126690476D01*
X126261904Y-126738095D01*
X125357142Y-126452380D02*
X124690476Y-126452380D01*
X125119047Y-127452380D01*
X138452380Y-119857142D02*
X137976190Y-119523809D01*
X138452380Y-119285714D02*
X137452380Y-119285714D01*
X137452380Y-119666666D01*
X137500000Y-119761904D01*
X137547619Y-119809523D01*
X137642857Y-119857142D01*
X137785714Y-119857142D01*
X137880952Y-119809523D01*
X137928571Y-119761904D01*
X137976190Y-119666666D01*
X137976190Y-119285714D01*
X137547619Y-120238095D02*
X137500000Y-120285714D01*
X137452380Y-120380952D01*
X137452380Y-120619047D01*
X137500000Y-120714285D01*
X137547619Y-120761904D01*
X137642857Y-120809523D01*
X137738095Y-120809523D01*
X137880952Y-120761904D01*
X138452380Y-120190476D01*
X138452380Y-120809523D01*
X137452380Y-121666666D02*
X137452380Y-121476190D01*
X137500000Y-121380952D01*
X137547619Y-121333333D01*
X137690476Y-121238095D01*
X137880952Y-121190476D01*
X138261904Y-121190476D01*
X138357142Y-121238095D01*
X138404761Y-121285714D01*
X138452380Y-121380952D01*
X138452380Y-121571428D01*
X138404761Y-121666666D01*
X138357142Y-121714285D01*
X138261904Y-121761904D01*
X138023809Y-121761904D01*
X137928571Y-121714285D01*
X137880952Y-121666666D01*
X137833333Y-121571428D01*
X137833333Y-121380952D01*
X137880952Y-121285714D01*
X137928571Y-121238095D01*
X138023809Y-121190476D01*
X94666666Y-106452380D02*
X95000000Y-105976190D01*
X95238095Y-106452380D02*
X95238095Y-105452380D01*
X94857142Y-105452380D01*
X94761904Y-105500000D01*
X94714285Y-105547619D01*
X94666666Y-105642857D01*
X94666666Y-105785714D01*
X94714285Y-105880952D01*
X94761904Y-105928571D01*
X94857142Y-105976190D01*
X95238095Y-105976190D01*
X94285714Y-105547619D02*
X94238095Y-105500000D01*
X94142857Y-105452380D01*
X93904761Y-105452380D01*
X93809523Y-105500000D01*
X93761904Y-105547619D01*
X93714285Y-105642857D01*
X93714285Y-105738095D01*
X93761904Y-105880952D01*
X94333333Y-106452380D01*
X93714285Y-106452380D01*
X117209285Y-158912380D02*
X117209285Y-157912380D01*
X116971190Y-157912380D01*
X116828333Y-157960000D01*
X116733095Y-158055238D01*
X116685476Y-158150476D01*
X116637857Y-158340952D01*
X116637857Y-158483809D01*
X116685476Y-158674285D01*
X116733095Y-158769523D01*
X116828333Y-158864761D01*
X116971190Y-158912380D01*
X117209285Y-158912380D01*
X115685476Y-158912380D02*
X116256904Y-158912380D01*
X115971190Y-158912380D02*
X115971190Y-157912380D01*
X116066428Y-158055238D01*
X116161666Y-158150476D01*
X116256904Y-158198095D01*
X114828333Y-158245714D02*
X114828333Y-158912380D01*
X115066428Y-157864761D02*
X115304523Y-158579047D01*
X114685476Y-158579047D01*
X117714285Y-119952380D02*
X117714285Y-118952380D01*
X117476190Y-118952380D01*
X117333333Y-119000000D01*
X117238095Y-119095238D01*
X117190476Y-119190476D01*
X117142857Y-119380952D01*
X117142857Y-119523809D01*
X117190476Y-119714285D01*
X117238095Y-119809523D01*
X117333333Y-119904761D01*
X117476190Y-119952380D01*
X117714285Y-119952380D01*
X116761904Y-119047619D02*
X116714285Y-119000000D01*
X116619047Y-118952380D01*
X116380952Y-118952380D01*
X116285714Y-119000000D01*
X116238095Y-119047619D01*
X116190476Y-119142857D01*
X116190476Y-119238095D01*
X116238095Y-119380952D01*
X116809523Y-119952380D01*
X116190476Y-119952380D01*
X115857142Y-118952380D02*
X115190476Y-118952380D01*
X115619047Y-119952380D01*
X121642857Y-80357142D02*
X121690476Y-80404761D01*
X121833333Y-80452380D01*
X121928571Y-80452380D01*
X122071428Y-80404761D01*
X122166666Y-80309523D01*
X122214285Y-80214285D01*
X122261904Y-80023809D01*
X122261904Y-79880952D01*
X122214285Y-79690476D01*
X122166666Y-79595238D01*
X122071428Y-79500000D01*
X121928571Y-79452380D01*
X121833333Y-79452380D01*
X121690476Y-79500000D01*
X121642857Y-79547619D01*
X121261904Y-79547619D02*
X121214285Y-79500000D01*
X121119047Y-79452380D01*
X120880952Y-79452380D01*
X120785714Y-79500000D01*
X120738095Y-79547619D01*
X120690476Y-79642857D01*
X120690476Y-79738095D01*
X120738095Y-79880952D01*
X121309523Y-80452380D01*
X120690476Y-80452380D01*
X119833333Y-79785714D02*
X119833333Y-80452380D01*
X120071428Y-79404761D02*
X120309523Y-80119047D01*
X119690476Y-80119047D01*
X102380115Y-88452380D02*
X102713448Y-87976190D01*
X102951543Y-88452380D02*
X102951543Y-87452380D01*
X102570591Y-87452380D01*
X102475353Y-87500000D01*
X102427734Y-87547619D01*
X102380115Y-87642857D01*
X102380115Y-87785714D01*
X102427734Y-87880952D01*
X102475353Y-87928571D01*
X102570591Y-87976190D01*
X102951543Y-87976190D01*
X101999162Y-87547619D02*
X101951543Y-87500000D01*
X101856305Y-87452380D01*
X101618210Y-87452380D01*
X101522972Y-87500000D01*
X101475353Y-87547619D01*
X101427734Y-87642857D01*
X101427734Y-87738095D01*
X101475353Y-87880952D01*
X102046781Y-88452380D01*
X101427734Y-88452380D01*
X100475353Y-88452380D02*
X101046781Y-88452380D01*
X100761067Y-88452380D02*
X100761067Y-87452380D01*
X100856305Y-87595238D01*
X100951543Y-87690476D01*
X101046781Y-87738095D01*
X105717380Y-95661904D02*
X104717380Y-95661904D01*
X104717380Y-96042857D01*
X104765000Y-96138095D01*
X104812619Y-96185714D01*
X104907857Y-96233333D01*
X105050714Y-96233333D01*
X105145952Y-96185714D01*
X105193571Y-96138095D01*
X105241190Y-96042857D01*
X105241190Y-95661904D01*
X105622142Y-97233333D02*
X105669761Y-97185714D01*
X105717380Y-97042857D01*
X105717380Y-96947619D01*
X105669761Y-96804761D01*
X105574523Y-96709523D01*
X105479285Y-96661904D01*
X105288809Y-96614285D01*
X105145952Y-96614285D01*
X104955476Y-96661904D01*
X104860238Y-96709523D01*
X104765000Y-96804761D01*
X104717380Y-96947619D01*
X104717380Y-97042857D01*
X104765000Y-97185714D01*
X104812619Y-97233333D01*
X105717380Y-98185714D02*
X105717380Y-97614285D01*
X105717380Y-97900000D02*
X104717380Y-97900000D01*
X104860238Y-97804761D01*
X104955476Y-97709523D01*
X105003095Y-97614285D01*
X126452380Y-74214285D02*
X126452380Y-74785714D01*
X127452380Y-74500000D02*
X126452380Y-74500000D01*
X127452380Y-75119047D02*
X126452380Y-75119047D01*
X126928571Y-75119047D02*
X126928571Y-75690476D01*
X127452380Y-75690476D02*
X126452380Y-75690476D01*
X127452380Y-76690476D02*
X127452380Y-76119047D01*
X127452380Y-76404761D02*
X126452380Y-76404761D01*
X126595238Y-76309523D01*
X126690476Y-76214285D01*
X126738095Y-76119047D01*
X115642857Y-80357142D02*
X115690476Y-80404761D01*
X115833333Y-80452380D01*
X115928571Y-80452380D01*
X116071428Y-80404761D01*
X116166666Y-80309523D01*
X116214285Y-80214285D01*
X116261904Y-80023809D01*
X116261904Y-79880952D01*
X116214285Y-79690476D01*
X116166666Y-79595238D01*
X116071428Y-79500000D01*
X115928571Y-79452380D01*
X115833333Y-79452380D01*
X115690476Y-79500000D01*
X115642857Y-79547619D01*
X115261904Y-79547619D02*
X115214285Y-79500000D01*
X115119047Y-79452380D01*
X114880952Y-79452380D01*
X114785714Y-79500000D01*
X114738095Y-79547619D01*
X114690476Y-79642857D01*
X114690476Y-79738095D01*
X114738095Y-79880952D01*
X115309523Y-80452380D01*
X114690476Y-80452380D01*
X113833333Y-79452380D02*
X114023809Y-79452380D01*
X114119047Y-79500000D01*
X114166666Y-79547619D01*
X114261904Y-79690476D01*
X114309523Y-79880952D01*
X114309523Y-80261904D01*
X114261904Y-80357142D01*
X114214285Y-80404761D01*
X114119047Y-80452380D01*
X113928571Y-80452380D01*
X113833333Y-80404761D01*
X113785714Y-80357142D01*
X113738095Y-80261904D01*
X113738095Y-80023809D01*
X113785714Y-79928571D01*
X113833333Y-79880952D01*
X113928571Y-79833333D01*
X114119047Y-79833333D01*
X114214285Y-79880952D01*
X114261904Y-79928571D01*
X114309523Y-80023809D01*
X111461251Y-155321488D02*
X110754145Y-156028595D01*
X110922503Y-156196954D01*
X111057190Y-156264297D01*
X111191877Y-156264297D01*
X111292893Y-156230625D01*
X111461251Y-156129610D01*
X111562267Y-156028595D01*
X111663282Y-155860236D01*
X111696954Y-155759221D01*
X111696954Y-155624534D01*
X111629610Y-155489847D01*
X111461251Y-155321488D01*
X112538748Y-156398984D02*
X112134687Y-155994923D01*
X112336717Y-156196954D02*
X111629610Y-156904061D01*
X111663282Y-156735702D01*
X111663282Y-156601015D01*
X111629610Y-156500000D01*
X112269374Y-157543824D02*
X112336717Y-157611167D01*
X112437732Y-157644839D01*
X112505076Y-157644839D01*
X112606091Y-157611167D01*
X112774450Y-157510152D01*
X112942809Y-157341793D01*
X113043824Y-157173435D01*
X113077496Y-157072419D01*
X113077496Y-157005076D01*
X113043824Y-156904061D01*
X112976480Y-156836717D01*
X112875465Y-156803045D01*
X112808122Y-156803045D01*
X112707106Y-156836717D01*
X112538748Y-156937732D01*
X112370389Y-157106091D01*
X112269374Y-157274450D01*
X112235702Y-157375465D01*
X112235702Y-157442809D01*
X112269374Y-157543824D01*
X127261904Y-104302380D02*
X127261904Y-105111904D01*
X127214285Y-105207142D01*
X127166666Y-105254761D01*
X127071428Y-105302380D01*
X126880952Y-105302380D01*
X126785714Y-105254761D01*
X126738095Y-105207142D01*
X126690476Y-105111904D01*
X126690476Y-104302380D01*
X125690476Y-105302380D02*
X126261904Y-105302380D01*
X125976190Y-105302380D02*
X125976190Y-104302380D01*
X126071428Y-104445238D01*
X126166666Y-104540476D01*
X126261904Y-104588095D01*
X108452380Y-93857142D02*
X107976190Y-93523809D01*
X108452380Y-93285714D02*
X107452380Y-93285714D01*
X107452380Y-93666666D01*
X107500000Y-93761904D01*
X107547619Y-93809523D01*
X107642857Y-93857142D01*
X107785714Y-93857142D01*
X107880952Y-93809523D01*
X107928571Y-93761904D01*
X107976190Y-93666666D01*
X107976190Y-93285714D01*
X107547619Y-94238095D02*
X107500000Y-94285714D01*
X107452380Y-94380952D01*
X107452380Y-94619047D01*
X107500000Y-94714285D01*
X107547619Y-94761904D01*
X107642857Y-94809523D01*
X107738095Y-94809523D01*
X107880952Y-94761904D01*
X108452380Y-94190476D01*
X108452380Y-94809523D01*
X107452380Y-95428571D02*
X107452380Y-95523809D01*
X107500000Y-95619047D01*
X107547619Y-95666666D01*
X107642857Y-95714285D01*
X107833333Y-95761904D01*
X108071428Y-95761904D01*
X108261904Y-95714285D01*
X108357142Y-95666666D01*
X108404761Y-95619047D01*
X108452380Y-95523809D01*
X108452380Y-95428571D01*
X108404761Y-95333333D01*
X108357142Y-95285714D01*
X108261904Y-95238095D01*
X108071428Y-95190476D01*
X107833333Y-95190476D01*
X107642857Y-95238095D01*
X107547619Y-95285714D01*
X107500000Y-95333333D01*
X107452380Y-95428571D01*
X110452380Y-65333333D02*
X110452380Y-64857142D01*
X109452380Y-64857142D01*
X110452380Y-66190476D02*
X110452380Y-65619047D01*
X110452380Y-65904761D02*
X109452380Y-65904761D01*
X109595238Y-65809523D01*
X109690476Y-65714285D01*
X109738095Y-65619047D01*
X117357142Y-111333333D02*
X117404761Y-111285714D01*
X117452380Y-111142857D01*
X117452380Y-111047619D01*
X117404761Y-110904761D01*
X117309523Y-110809523D01*
X117214285Y-110761904D01*
X117023809Y-110714285D01*
X116880952Y-110714285D01*
X116690476Y-110761904D01*
X116595238Y-110809523D01*
X116500000Y-110904761D01*
X116452380Y-111047619D01*
X116452380Y-111142857D01*
X116500000Y-111285714D01*
X116547619Y-111333333D01*
X116547619Y-111714285D02*
X116500000Y-111761904D01*
X116452380Y-111857142D01*
X116452380Y-112095238D01*
X116500000Y-112190476D01*
X116547619Y-112238095D01*
X116642857Y-112285714D01*
X116738095Y-112285714D01*
X116880952Y-112238095D01*
X117452380Y-111666666D01*
X117452380Y-112285714D01*
X132452380Y-111857142D02*
X131976190Y-111523809D01*
X132452380Y-111285714D02*
X131452380Y-111285714D01*
X131452380Y-111666666D01*
X131500000Y-111761904D01*
X131547619Y-111809523D01*
X131642857Y-111857142D01*
X131785714Y-111857142D01*
X131880952Y-111809523D01*
X131928571Y-111761904D01*
X131976190Y-111666666D01*
X131976190Y-111285714D01*
X131785714Y-112714285D02*
X132452380Y-112714285D01*
X131404761Y-112476190D02*
X132119047Y-112238095D01*
X132119047Y-112857142D01*
X131452380Y-113142857D02*
X131452380Y-113761904D01*
X131833333Y-113428571D01*
X131833333Y-113571428D01*
X131880952Y-113666666D01*
X131928571Y-113714285D01*
X132023809Y-113761904D01*
X132261904Y-113761904D01*
X132357142Y-113714285D01*
X132404761Y-113666666D01*
X132452380Y-113571428D01*
X132452380Y-113285714D01*
X132404761Y-113190476D01*
X132357142Y-113142857D01*
X129595238Y-63547619D02*
X129690476Y-63500000D01*
X129785714Y-63404761D01*
X129928571Y-63261904D01*
X130023809Y-63214285D01*
X130119047Y-63214285D01*
X130071428Y-63452380D02*
X130166666Y-63404761D01*
X130261904Y-63309523D01*
X130309523Y-63119047D01*
X130309523Y-62785714D01*
X130261904Y-62595238D01*
X130166666Y-62500000D01*
X130071428Y-62452380D01*
X129880952Y-62452380D01*
X129785714Y-62500000D01*
X129690476Y-62595238D01*
X129642857Y-62785714D01*
X129642857Y-63119047D01*
X129690476Y-63309523D01*
X129785714Y-63404761D01*
X129880952Y-63452380D01*
X130071428Y-63452380D01*
X128738095Y-62452380D02*
X129214285Y-62452380D01*
X129261904Y-62928571D01*
X129214285Y-62880952D01*
X129119047Y-62833333D01*
X128880952Y-62833333D01*
X128785714Y-62880952D01*
X128738095Y-62928571D01*
X128690476Y-63023809D01*
X128690476Y-63261904D01*
X128738095Y-63357142D01*
X128785714Y-63404761D01*
X128880952Y-63452380D01*
X129119047Y-63452380D01*
X129214285Y-63404761D01*
X129261904Y-63357142D01*
X149642857Y-104857142D02*
X149690476Y-104904761D01*
X149833333Y-104952380D01*
X149928571Y-104952380D01*
X150071428Y-104904761D01*
X150166666Y-104809523D01*
X150214285Y-104714285D01*
X150261904Y-104523809D01*
X150261904Y-104380952D01*
X150214285Y-104190476D01*
X150166666Y-104095238D01*
X150071428Y-104000000D01*
X149928571Y-103952380D01*
X149833333Y-103952380D01*
X149690476Y-104000000D01*
X149642857Y-104047619D01*
X148690476Y-104952380D02*
X149261904Y-104952380D01*
X148976190Y-104952380D02*
X148976190Y-103952380D01*
X149071428Y-104095238D01*
X149166666Y-104190476D01*
X149261904Y-104238095D01*
X148309523Y-104047619D02*
X148261904Y-104000000D01*
X148166666Y-103952380D01*
X147928571Y-103952380D01*
X147833333Y-104000000D01*
X147785714Y-104047619D01*
X147738095Y-104142857D01*
X147738095Y-104238095D01*
X147785714Y-104380952D01*
X148357142Y-104952380D01*
X147738095Y-104952380D01*
X112007142Y-76357142D02*
X112054761Y-76309523D01*
X112102380Y-76166666D01*
X112102380Y-76071428D01*
X112054761Y-75928571D01*
X111959523Y-75833333D01*
X111864285Y-75785714D01*
X111673809Y-75738095D01*
X111530952Y-75738095D01*
X111340476Y-75785714D01*
X111245238Y-75833333D01*
X111150000Y-75928571D01*
X111102380Y-76071428D01*
X111102380Y-76166666D01*
X111150000Y-76309523D01*
X111197619Y-76357142D01*
X112102380Y-77309523D02*
X112102380Y-76738095D01*
X112102380Y-77023809D02*
X111102380Y-77023809D01*
X111245238Y-76928571D01*
X111340476Y-76833333D01*
X111388095Y-76738095D01*
X111530952Y-77880952D02*
X111483333Y-77785714D01*
X111435714Y-77738095D01*
X111340476Y-77690476D01*
X111292857Y-77690476D01*
X111197619Y-77738095D01*
X111150000Y-77785714D01*
X111102380Y-77880952D01*
X111102380Y-78071428D01*
X111150000Y-78166666D01*
X111197619Y-78214285D01*
X111292857Y-78261904D01*
X111340476Y-78261904D01*
X111435714Y-78214285D01*
X111483333Y-78166666D01*
X111530952Y-78071428D01*
X111530952Y-77880952D01*
X111578571Y-77785714D01*
X111626190Y-77738095D01*
X111721428Y-77690476D01*
X111911904Y-77690476D01*
X112007142Y-77738095D01*
X112054761Y-77785714D01*
X112102380Y-77880952D01*
X112102380Y-78071428D01*
X112054761Y-78166666D01*
X112007142Y-78214285D01*
X111911904Y-78261904D01*
X111721428Y-78261904D01*
X111626190Y-78214285D01*
X111578571Y-78166666D01*
X111530952Y-78071428D01*
X125452380Y-141285714D02*
X124452380Y-141285714D01*
X124452380Y-141523809D01*
X124500000Y-141666666D01*
X124595238Y-141761904D01*
X124690476Y-141809523D01*
X124880952Y-141857142D01*
X125023809Y-141857142D01*
X125214285Y-141809523D01*
X125309523Y-141761904D01*
X125404761Y-141666666D01*
X125452380Y-141523809D01*
X125452380Y-141285714D01*
X125452380Y-142809523D02*
X125452380Y-142238095D01*
X125452380Y-142523809D02*
X124452380Y-142523809D01*
X124595238Y-142428571D01*
X124690476Y-142333333D01*
X124738095Y-142238095D01*
X124547619Y-143190476D02*
X124500000Y-143238095D01*
X124452380Y-143333333D01*
X124452380Y-143571428D01*
X124500000Y-143666666D01*
X124547619Y-143714285D01*
X124642857Y-143761904D01*
X124738095Y-143761904D01*
X124880952Y-143714285D01*
X125452380Y-143142857D01*
X125452380Y-143761904D01*
X159738095Y-69752380D02*
X159738095Y-68752380D01*
X159357142Y-68752380D01*
X159261904Y-68800000D01*
X159214285Y-68847619D01*
X159166666Y-68942857D01*
X159166666Y-69085714D01*
X159214285Y-69180952D01*
X159261904Y-69228571D01*
X159357142Y-69276190D01*
X159738095Y-69276190D01*
X158833333Y-68752380D02*
X158214285Y-68752380D01*
X158547619Y-69133333D01*
X158404761Y-69133333D01*
X158309523Y-69180952D01*
X158261904Y-69228571D01*
X158214285Y-69323809D01*
X158214285Y-69561904D01*
X158261904Y-69657142D01*
X158309523Y-69704761D01*
X158404761Y-69752380D01*
X158690476Y-69752380D01*
X158785714Y-69704761D01*
X158833333Y-69657142D01*
X129142857Y-127357142D02*
X129190476Y-127404761D01*
X129333333Y-127452380D01*
X129428571Y-127452380D01*
X129571428Y-127404761D01*
X129666666Y-127309523D01*
X129714285Y-127214285D01*
X129761904Y-127023809D01*
X129761904Y-126880952D01*
X129714285Y-126690476D01*
X129666666Y-126595238D01*
X129571428Y-126500000D01*
X129428571Y-126452380D01*
X129333333Y-126452380D01*
X129190476Y-126500000D01*
X129142857Y-126547619D01*
X128190476Y-127452380D02*
X128761904Y-127452380D01*
X128476190Y-127452380D02*
X128476190Y-126452380D01*
X128571428Y-126595238D01*
X128666666Y-126690476D01*
X128761904Y-126738095D01*
X127333333Y-126452380D02*
X127523809Y-126452380D01*
X127619047Y-126500000D01*
X127666666Y-126547619D01*
X127761904Y-126690476D01*
X127809523Y-126880952D01*
X127809523Y-127261904D01*
X127761904Y-127357142D01*
X127714285Y-127404761D01*
X127619047Y-127452380D01*
X127428571Y-127452380D01*
X127333333Y-127404761D01*
X127285714Y-127357142D01*
X127238095Y-127261904D01*
X127238095Y-127023809D01*
X127285714Y-126928571D01*
X127333333Y-126880952D01*
X127428571Y-126833333D01*
X127619047Y-126833333D01*
X127714285Y-126880952D01*
X127761904Y-126928571D01*
X127809523Y-127023809D01*
X121678511Y-155461251D02*
X120971404Y-154754145D01*
X120803045Y-154922503D01*
X120735702Y-155057190D01*
X120735702Y-155191877D01*
X120769374Y-155292893D01*
X120870389Y-155461251D01*
X120971404Y-155562267D01*
X121139763Y-155663282D01*
X121240778Y-155696954D01*
X121375465Y-155696954D01*
X121510152Y-155629610D01*
X121678511Y-155461251D01*
X120601015Y-156538748D02*
X121005076Y-156134687D01*
X120803045Y-156336717D02*
X120095938Y-155629610D01*
X120264297Y-155663282D01*
X120398984Y-155663282D01*
X120499999Y-155629610D01*
X119658206Y-156067343D02*
X119220473Y-156505076D01*
X119725549Y-156538748D01*
X119624534Y-156639763D01*
X119590862Y-156740778D01*
X119590862Y-156808122D01*
X119624534Y-156909137D01*
X119792893Y-157077496D01*
X119893908Y-157111167D01*
X119961251Y-157111167D01*
X120062267Y-157077496D01*
X120264297Y-156875465D01*
X120297969Y-156774450D01*
X120297969Y-156707106D01*
X115452380Y-103857142D02*
X114976190Y-103523809D01*
X115452380Y-103285714D02*
X114452380Y-103285714D01*
X114452380Y-103666666D01*
X114500000Y-103761904D01*
X114547619Y-103809523D01*
X114642857Y-103857142D01*
X114785714Y-103857142D01*
X114880952Y-103809523D01*
X114928571Y-103761904D01*
X114976190Y-103666666D01*
X114976190Y-103285714D01*
X114547619Y-104238095D02*
X114500000Y-104285714D01*
X114452380Y-104380952D01*
X114452380Y-104619047D01*
X114500000Y-104714285D01*
X114547619Y-104761904D01*
X114642857Y-104809523D01*
X114738095Y-104809523D01*
X114880952Y-104761904D01*
X115452380Y-104190476D01*
X115452380Y-104809523D01*
X114785714Y-105666666D02*
X115452380Y-105666666D01*
X114404761Y-105428571D02*
X115119047Y-105190476D01*
X115119047Y-105809523D01*
X105952380Y-72594400D02*
X105476190Y-72261067D01*
X105952380Y-72022972D02*
X104952380Y-72022972D01*
X104952380Y-72403924D01*
X105000000Y-72499162D01*
X105047619Y-72546781D01*
X105142857Y-72594400D01*
X105285714Y-72594400D01*
X105380952Y-72546781D01*
X105428571Y-72499162D01*
X105476190Y-72403924D01*
X105476190Y-72022972D01*
X105047619Y-72975353D02*
X105000000Y-73022972D01*
X104952380Y-73118210D01*
X104952380Y-73356305D01*
X105000000Y-73451543D01*
X105047619Y-73499162D01*
X105142857Y-73546781D01*
X105238095Y-73546781D01*
X105380952Y-73499162D01*
X105952380Y-72927734D01*
X105952380Y-73546781D01*
X104952380Y-73880115D02*
X104952380Y-74546781D01*
X105952380Y-74118210D01*
X109857142Y-93857142D02*
X109904761Y-93809523D01*
X109952380Y-93666666D01*
X109952380Y-93571428D01*
X109904761Y-93428571D01*
X109809523Y-93333333D01*
X109714285Y-93285714D01*
X109523809Y-93238095D01*
X109380952Y-93238095D01*
X109190476Y-93285714D01*
X109095238Y-93333333D01*
X109000000Y-93428571D01*
X108952380Y-93571428D01*
X108952380Y-93666666D01*
X109000000Y-93809523D01*
X109047619Y-93857142D01*
X108952380Y-94190476D02*
X108952380Y-94809523D01*
X109333333Y-94476190D01*
X109333333Y-94619047D01*
X109380952Y-94714285D01*
X109428571Y-94761904D01*
X109523809Y-94809523D01*
X109761904Y-94809523D01*
X109857142Y-94761904D01*
X109904761Y-94714285D01*
X109952380Y-94619047D01*
X109952380Y-94333333D01*
X109904761Y-94238095D01*
X109857142Y-94190476D01*
X109952380Y-95761904D02*
X109952380Y-95190476D01*
X109952380Y-95476190D02*
X108952380Y-95476190D01*
X109095238Y-95380952D01*
X109190476Y-95285714D01*
X109238095Y-95190476D01*
X112357142Y-89357142D02*
X112404761Y-89309523D01*
X112452380Y-89166666D01*
X112452380Y-89071428D01*
X112404761Y-88928571D01*
X112309523Y-88833333D01*
X112214285Y-88785714D01*
X112023809Y-88738095D01*
X111880952Y-88738095D01*
X111690476Y-88785714D01*
X111595238Y-88833333D01*
X111500000Y-88928571D01*
X111452380Y-89071428D01*
X111452380Y-89166666D01*
X111500000Y-89309523D01*
X111547619Y-89357142D01*
X111547619Y-89738095D02*
X111500000Y-89785714D01*
X111452380Y-89880952D01*
X111452380Y-90119047D01*
X111500000Y-90214285D01*
X111547619Y-90261904D01*
X111642857Y-90309523D01*
X111738095Y-90309523D01*
X111880952Y-90261904D01*
X112452380Y-89690476D01*
X112452380Y-90309523D01*
X112452380Y-90785714D02*
X112452380Y-90976190D01*
X112404761Y-91071428D01*
X112357142Y-91119047D01*
X112214285Y-91214285D01*
X112023809Y-91261904D01*
X111642857Y-91261904D01*
X111547619Y-91214285D01*
X111500000Y-91166666D01*
X111452380Y-91071428D01*
X111452380Y-90880952D01*
X111500000Y-90785714D01*
X111547619Y-90738095D01*
X111642857Y-90690476D01*
X111880952Y-90690476D01*
X111976190Y-90738095D01*
X112023809Y-90785714D01*
X112071428Y-90880952D01*
X112071428Y-91071428D01*
X112023809Y-91166666D01*
X111976190Y-91214285D01*
X111880952Y-91261904D01*
X144717380Y-96661904D02*
X143717380Y-96661904D01*
X143717380Y-97042857D01*
X143765000Y-97138095D01*
X143812619Y-97185714D01*
X143907857Y-97233333D01*
X144050714Y-97233333D01*
X144145952Y-97185714D01*
X144193571Y-97138095D01*
X144241190Y-97042857D01*
X144241190Y-96661904D01*
X144622142Y-98233333D02*
X144669761Y-98185714D01*
X144717380Y-98042857D01*
X144717380Y-97947619D01*
X144669761Y-97804761D01*
X144574523Y-97709523D01*
X144479285Y-97661904D01*
X144288809Y-97614285D01*
X144145952Y-97614285D01*
X143955476Y-97661904D01*
X143860238Y-97709523D01*
X143765000Y-97804761D01*
X143717380Y-97947619D01*
X143717380Y-98042857D01*
X143765000Y-98185714D01*
X143812619Y-98233333D01*
X143717380Y-98566666D02*
X143717380Y-99185714D01*
X144098333Y-98852380D01*
X144098333Y-98995238D01*
X144145952Y-99090476D01*
X144193571Y-99138095D01*
X144288809Y-99185714D01*
X144526904Y-99185714D01*
X144622142Y-99138095D01*
X144669761Y-99090476D01*
X144717380Y-98995238D01*
X144717380Y-98709523D01*
X144669761Y-98614285D01*
X144622142Y-98566666D01*
X113238095Y-136952380D02*
X113238095Y-135952380D01*
X113000000Y-135952380D01*
X112857142Y-136000000D01*
X112761904Y-136095238D01*
X112714285Y-136190476D01*
X112666666Y-136380952D01*
X112666666Y-136523809D01*
X112714285Y-136714285D01*
X112761904Y-136809523D01*
X112857142Y-136904761D01*
X113000000Y-136952380D01*
X113238095Y-136952380D01*
X112333333Y-135952380D02*
X111666666Y-135952380D01*
X112095238Y-136952380D01*
X128427142Y-111857142D02*
X128474761Y-111809523D01*
X128522380Y-111666666D01*
X128522380Y-111571428D01*
X128474761Y-111428571D01*
X128379523Y-111333333D01*
X128284285Y-111285714D01*
X128093809Y-111238095D01*
X127950952Y-111238095D01*
X127760476Y-111285714D01*
X127665238Y-111333333D01*
X127570000Y-111428571D01*
X127522380Y-111571428D01*
X127522380Y-111666666D01*
X127570000Y-111809523D01*
X127617619Y-111857142D01*
X127522380Y-112190476D02*
X127522380Y-112809523D01*
X127903333Y-112476190D01*
X127903333Y-112619047D01*
X127950952Y-112714285D01*
X127998571Y-112761904D01*
X128093809Y-112809523D01*
X128331904Y-112809523D01*
X128427142Y-112761904D01*
X128474761Y-112714285D01*
X128522380Y-112619047D01*
X128522380Y-112333333D01*
X128474761Y-112238095D01*
X128427142Y-112190476D01*
X127855714Y-113666666D02*
X128522380Y-113666666D01*
X127474761Y-113428571D02*
X128189047Y-113190476D01*
X128189047Y-113809523D01*
X105952380Y-58857142D02*
X105476190Y-58523809D01*
X105952380Y-58285714D02*
X104952380Y-58285714D01*
X104952380Y-58666666D01*
X105000000Y-58761904D01*
X105047619Y-58809523D01*
X105142857Y-58857142D01*
X105285714Y-58857142D01*
X105380952Y-58809523D01*
X105428571Y-58761904D01*
X105476190Y-58666666D01*
X105476190Y-58285714D01*
X104952380Y-59190476D02*
X104952380Y-59809523D01*
X105333333Y-59476190D01*
X105333333Y-59619047D01*
X105380952Y-59714285D01*
X105428571Y-59761904D01*
X105523809Y-59809523D01*
X105761904Y-59809523D01*
X105857142Y-59761904D01*
X105904761Y-59714285D01*
X105952380Y-59619047D01*
X105952380Y-59333333D01*
X105904761Y-59238095D01*
X105857142Y-59190476D01*
X104952380Y-60142857D02*
X104952380Y-60761904D01*
X105333333Y-60428571D01*
X105333333Y-60571428D01*
X105380952Y-60666666D01*
X105428571Y-60714285D01*
X105523809Y-60761904D01*
X105761904Y-60761904D01*
X105857142Y-60714285D01*
X105904761Y-60666666D01*
X105952380Y-60571428D01*
X105952380Y-60285714D01*
X105904761Y-60190476D01*
X105857142Y-60142857D01*
X124142857Y-80357142D02*
X124190476Y-80404761D01*
X124333333Y-80452380D01*
X124428571Y-80452380D01*
X124571428Y-80404761D01*
X124666666Y-80309523D01*
X124714285Y-80214285D01*
X124761904Y-80023809D01*
X124761904Y-79880952D01*
X124714285Y-79690476D01*
X124666666Y-79595238D01*
X124571428Y-79500000D01*
X124428571Y-79452380D01*
X124333333Y-79452380D01*
X124190476Y-79500000D01*
X124142857Y-79547619D01*
X123761904Y-79547619D02*
X123714285Y-79500000D01*
X123619047Y-79452380D01*
X123380952Y-79452380D01*
X123285714Y-79500000D01*
X123238095Y-79547619D01*
X123190476Y-79642857D01*
X123190476Y-79738095D01*
X123238095Y-79880952D01*
X123809523Y-80452380D01*
X123190476Y-80452380D01*
X122857142Y-79452380D02*
X122238095Y-79452380D01*
X122571428Y-79833333D01*
X122428571Y-79833333D01*
X122333333Y-79880952D01*
X122285714Y-79928571D01*
X122238095Y-80023809D01*
X122238095Y-80261904D01*
X122285714Y-80357142D01*
X122333333Y-80404761D01*
X122428571Y-80452380D01*
X122714285Y-80452380D01*
X122809523Y-80404761D01*
X122857142Y-80357142D01*
X115642857Y-53357142D02*
X115690476Y-53404761D01*
X115833333Y-53452380D01*
X115928571Y-53452380D01*
X116071428Y-53404761D01*
X116166666Y-53309523D01*
X116214285Y-53214285D01*
X116261904Y-53023809D01*
X116261904Y-52880952D01*
X116214285Y-52690476D01*
X116166666Y-52595238D01*
X116071428Y-52500000D01*
X115928571Y-52452380D01*
X115833333Y-52452380D01*
X115690476Y-52500000D01*
X115642857Y-52547619D01*
X115261904Y-52547619D02*
X115214285Y-52500000D01*
X115119047Y-52452380D01*
X114880952Y-52452380D01*
X114785714Y-52500000D01*
X114738095Y-52547619D01*
X114690476Y-52642857D01*
X114690476Y-52738095D01*
X114738095Y-52880952D01*
X115309523Y-53452380D01*
X114690476Y-53452380D01*
X114119047Y-52880952D02*
X114214285Y-52833333D01*
X114261904Y-52785714D01*
X114309523Y-52690476D01*
X114309523Y-52642857D01*
X114261904Y-52547619D01*
X114214285Y-52500000D01*
X114119047Y-52452380D01*
X113928571Y-52452380D01*
X113833333Y-52500000D01*
X113785714Y-52547619D01*
X113738095Y-52642857D01*
X113738095Y-52690476D01*
X113785714Y-52785714D01*
X113833333Y-52833333D01*
X113928571Y-52880952D01*
X114119047Y-52880952D01*
X114214285Y-52928571D01*
X114261904Y-52976190D01*
X114309523Y-53071428D01*
X114309523Y-53261904D01*
X114261904Y-53357142D01*
X114214285Y-53404761D01*
X114119047Y-53452380D01*
X113928571Y-53452380D01*
X113833333Y-53404761D01*
X113785714Y-53357142D01*
X113738095Y-53261904D01*
X113738095Y-53071428D01*
X113785714Y-52976190D01*
X113833333Y-52928571D01*
X113928571Y-52880952D01*
X130147619Y-140928571D02*
X130100000Y-140833333D01*
X130004761Y-140738095D01*
X129861904Y-140595238D01*
X129814285Y-140500000D01*
X129814285Y-140404761D01*
X130052380Y-140452380D02*
X130004761Y-140357142D01*
X129909523Y-140261904D01*
X129719047Y-140214285D01*
X129385714Y-140214285D01*
X129195238Y-140261904D01*
X129100000Y-140357142D01*
X129052380Y-140452380D01*
X129052380Y-140642857D01*
X129100000Y-140738095D01*
X129195238Y-140833333D01*
X129385714Y-140880952D01*
X129719047Y-140880952D01*
X129909523Y-140833333D01*
X130004761Y-140738095D01*
X130052380Y-140642857D01*
X130052380Y-140452380D01*
X130052380Y-141833333D02*
X130052380Y-141261904D01*
X130052380Y-141547619D02*
X129052380Y-141547619D01*
X129195238Y-141452380D01*
X129290476Y-141357142D01*
X129338095Y-141261904D01*
X129052380Y-142452380D02*
X129052380Y-142547619D01*
X129100000Y-142642857D01*
X129147619Y-142690476D01*
X129242857Y-142738095D01*
X129433333Y-142785714D01*
X129671428Y-142785714D01*
X129861904Y-142738095D01*
X129957142Y-142690476D01*
X130004761Y-142642857D01*
X130052380Y-142547619D01*
X130052380Y-142452380D01*
X130004761Y-142357142D01*
X129957142Y-142309523D01*
X129861904Y-142261904D01*
X129671428Y-142214285D01*
X129433333Y-142214285D01*
X129242857Y-142261904D01*
X129147619Y-142309523D01*
X129100000Y-142357142D01*
X129052380Y-142452380D01*
X144452380Y-99857142D02*
X143976190Y-99523809D01*
X144452380Y-99285714D02*
X143452380Y-99285714D01*
X143452380Y-99666666D01*
X143500000Y-99761904D01*
X143547619Y-99809523D01*
X143642857Y-99857142D01*
X143785714Y-99857142D01*
X143880952Y-99809523D01*
X143928571Y-99761904D01*
X143976190Y-99666666D01*
X143976190Y-99285714D01*
X144452380Y-100809523D02*
X144452380Y-100238095D01*
X144452380Y-100523809D02*
X143452380Y-100523809D01*
X143595238Y-100428571D01*
X143690476Y-100333333D01*
X143738095Y-100238095D01*
X143452380Y-101666666D02*
X143452380Y-101476190D01*
X143500000Y-101380952D01*
X143547619Y-101333333D01*
X143690476Y-101238095D01*
X143880952Y-101190476D01*
X144261904Y-101190476D01*
X144357142Y-101238095D01*
X144404761Y-101285714D01*
X144452380Y-101380952D01*
X144452380Y-101571428D01*
X144404761Y-101666666D01*
X144357142Y-101714285D01*
X144261904Y-101761904D01*
X144023809Y-101761904D01*
X143928571Y-101714285D01*
X143880952Y-101666666D01*
X143833333Y-101571428D01*
X143833333Y-101380952D01*
X143880952Y-101285714D01*
X143928571Y-101238095D01*
X144023809Y-101190476D01*
X123166666Y-107357142D02*
X123214285Y-107404761D01*
X123357142Y-107452380D01*
X123452380Y-107452380D01*
X123595238Y-107404761D01*
X123690476Y-107309523D01*
X123738095Y-107214285D01*
X123785714Y-107023809D01*
X123785714Y-106880952D01*
X123738095Y-106690476D01*
X123690476Y-106595238D01*
X123595238Y-106500000D01*
X123452380Y-106452380D01*
X123357142Y-106452380D01*
X123214285Y-106500000D01*
X123166666Y-106547619D01*
X122261904Y-106452380D02*
X122738095Y-106452380D01*
X122785714Y-106928571D01*
X122738095Y-106880952D01*
X122642857Y-106833333D01*
X122404761Y-106833333D01*
X122309523Y-106880952D01*
X122261904Y-106928571D01*
X122214285Y-107023809D01*
X122214285Y-107261904D01*
X122261904Y-107357142D01*
X122309523Y-107404761D01*
X122404761Y-107452380D01*
X122642857Y-107452380D01*
X122738095Y-107404761D01*
X122785714Y-107357142D01*
X121002277Y-114357142D02*
X121049896Y-114404761D01*
X121192753Y-114452380D01*
X121287991Y-114452380D01*
X121430848Y-114404761D01*
X121526086Y-114309523D01*
X121573705Y-114214285D01*
X121621324Y-114023809D01*
X121621324Y-113880952D01*
X121573705Y-113690476D01*
X121526086Y-113595238D01*
X121430848Y-113500000D01*
X121287991Y-113452380D01*
X121192753Y-113452380D01*
X121049896Y-113500000D01*
X121002277Y-113547619D01*
X120668943Y-113452380D02*
X120049896Y-113452380D01*
X120383229Y-113833333D01*
X120240372Y-113833333D01*
X120145134Y-113880952D01*
X120097515Y-113928571D01*
X120049896Y-114023809D01*
X120049896Y-114261904D01*
X120097515Y-114357142D01*
X120145134Y-114404761D01*
X120240372Y-114452380D01*
X120526086Y-114452380D01*
X120621324Y-114404761D01*
X120668943Y-114357142D01*
X119145134Y-113452380D02*
X119621324Y-113452380D01*
X119668943Y-113928571D01*
X119621324Y-113880952D01*
X119526086Y-113833333D01*
X119287991Y-113833333D01*
X119192753Y-113880952D01*
X119145134Y-113928571D01*
X119097515Y-114023809D01*
X119097515Y-114261904D01*
X119145134Y-114357142D01*
X119192753Y-114404761D01*
X119287991Y-114452380D01*
X119526086Y-114452380D01*
X119621324Y-114404761D01*
X119668943Y-114357142D01*
X103833333Y-113452380D02*
X103833333Y-114166666D01*
X103880952Y-114309523D01*
X103976190Y-114404761D01*
X104119047Y-114452380D01*
X104214285Y-114452380D01*
X103357142Y-114452380D02*
X103357142Y-113452380D01*
X102976190Y-113452380D01*
X102880952Y-113500000D01*
X102833333Y-113547619D01*
X102785714Y-113642857D01*
X102785714Y-113785714D01*
X102833333Y-113880952D01*
X102880952Y-113928571D01*
X102976190Y-113976190D01*
X103357142Y-113976190D01*
X101833333Y-114452380D02*
X102404761Y-114452380D01*
X102119047Y-114452380D02*
X102119047Y-113452380D01*
X102214285Y-113595238D01*
X102309523Y-113690476D01*
X102404761Y-113738095D01*
X148047619Y-72904761D02*
X148000000Y-72809523D01*
X147904761Y-72714285D01*
X147761904Y-72571428D01*
X147714285Y-72476190D01*
X147714285Y-72380952D01*
X147952380Y-72428571D02*
X147904761Y-72333333D01*
X147809523Y-72238095D01*
X147619047Y-72190476D01*
X147285714Y-72190476D01*
X147095238Y-72238095D01*
X147000000Y-72333333D01*
X146952380Y-72428571D01*
X146952380Y-72619047D01*
X147000000Y-72714285D01*
X147095238Y-72809523D01*
X147285714Y-72857142D01*
X147619047Y-72857142D01*
X147809523Y-72809523D01*
X147904761Y-72714285D01*
X147952380Y-72619047D01*
X147952380Y-72428571D01*
X147047619Y-73238095D02*
X147000000Y-73285714D01*
X146952380Y-73380952D01*
X146952380Y-73619047D01*
X147000000Y-73714285D01*
X147047619Y-73761904D01*
X147142857Y-73809523D01*
X147238095Y-73809523D01*
X147380952Y-73761904D01*
X147952380Y-73190476D01*
X147952380Y-73809523D01*
X134952380Y-138357142D02*
X134476190Y-138023809D01*
X134952380Y-137785714D02*
X133952380Y-137785714D01*
X133952380Y-138166666D01*
X134000000Y-138261904D01*
X134047619Y-138309523D01*
X134142857Y-138357142D01*
X134285714Y-138357142D01*
X134380952Y-138309523D01*
X134428571Y-138261904D01*
X134476190Y-138166666D01*
X134476190Y-137785714D01*
X134285714Y-139214285D02*
X134952380Y-139214285D01*
X133904761Y-138976190D02*
X134619047Y-138738095D01*
X134619047Y-139357142D01*
X134047619Y-139690476D02*
X134000000Y-139738095D01*
X133952380Y-139833333D01*
X133952380Y-140071428D01*
X134000000Y-140166666D01*
X134047619Y-140214285D01*
X134142857Y-140261904D01*
X134238095Y-140261904D01*
X134380952Y-140214285D01*
X134952380Y-139642857D01*
X134952380Y-140261904D01*
X126214285Y-44952380D02*
X126214285Y-43952380D01*
X125976190Y-43952380D01*
X125833333Y-44000000D01*
X125738095Y-44095238D01*
X125690476Y-44190476D01*
X125642857Y-44380952D01*
X125642857Y-44523809D01*
X125690476Y-44714285D01*
X125738095Y-44809523D01*
X125833333Y-44904761D01*
X125976190Y-44952380D01*
X126214285Y-44952380D01*
X124690476Y-44952380D02*
X125261904Y-44952380D01*
X124976190Y-44952380D02*
X124976190Y-43952380D01*
X125071428Y-44095238D01*
X125166666Y-44190476D01*
X125261904Y-44238095D01*
X124214285Y-44952380D02*
X124023809Y-44952380D01*
X123928571Y-44904761D01*
X123880952Y-44857142D01*
X123785714Y-44714285D01*
X123738095Y-44523809D01*
X123738095Y-44142857D01*
X123785714Y-44047619D01*
X123833333Y-44000000D01*
X123928571Y-43952380D01*
X124119047Y-43952380D01*
X124214285Y-44000000D01*
X124261904Y-44047619D01*
X124309523Y-44142857D01*
X124309523Y-44380952D01*
X124261904Y-44476190D01*
X124214285Y-44523809D01*
X124119047Y-44571428D01*
X123928571Y-44571428D01*
X123833333Y-44523809D01*
X123785714Y-44476190D01*
X123738095Y-44380952D01*
X114357142Y-96857142D02*
X114404761Y-96809523D01*
X114452380Y-96666666D01*
X114452380Y-96571428D01*
X114404761Y-96428571D01*
X114309523Y-96333333D01*
X114214285Y-96285714D01*
X114023809Y-96238095D01*
X113880952Y-96238095D01*
X113690476Y-96285714D01*
X113595238Y-96333333D01*
X113500000Y-96428571D01*
X113452380Y-96571428D01*
X113452380Y-96666666D01*
X113500000Y-96809523D01*
X113547619Y-96857142D01*
X113452380Y-97190476D02*
X113452380Y-97809523D01*
X113833333Y-97476190D01*
X113833333Y-97619047D01*
X113880952Y-97714285D01*
X113928571Y-97761904D01*
X114023809Y-97809523D01*
X114261904Y-97809523D01*
X114357142Y-97761904D01*
X114404761Y-97714285D01*
X114452380Y-97619047D01*
X114452380Y-97333333D01*
X114404761Y-97238095D01*
X114357142Y-97190476D01*
X113452380Y-98428571D02*
X113452380Y-98523809D01*
X113500000Y-98619047D01*
X113547619Y-98666666D01*
X113642857Y-98714285D01*
X113833333Y-98761904D01*
X114071428Y-98761904D01*
X114261904Y-98714285D01*
X114357142Y-98666666D01*
X114404761Y-98619047D01*
X114452380Y-98523809D01*
X114452380Y-98428571D01*
X114404761Y-98333333D01*
X114357142Y-98285714D01*
X114261904Y-98238095D01*
X114071428Y-98190476D01*
X113833333Y-98190476D01*
X113642857Y-98238095D01*
X113547619Y-98285714D01*
X113500000Y-98333333D01*
X113452380Y-98428571D01*
X144952380Y-65357142D02*
X144476190Y-65023809D01*
X144952380Y-64785714D02*
X143952380Y-64785714D01*
X143952380Y-65166666D01*
X144000000Y-65261904D01*
X144047619Y-65309523D01*
X144142857Y-65357142D01*
X144285714Y-65357142D01*
X144380952Y-65309523D01*
X144428571Y-65261904D01*
X144476190Y-65166666D01*
X144476190Y-64785714D01*
X143952380Y-65690476D02*
X143952380Y-66309523D01*
X144333333Y-65976190D01*
X144333333Y-66119047D01*
X144380952Y-66214285D01*
X144428571Y-66261904D01*
X144523809Y-66309523D01*
X144761904Y-66309523D01*
X144857142Y-66261904D01*
X144904761Y-66214285D01*
X144952380Y-66119047D01*
X144952380Y-65833333D01*
X144904761Y-65738095D01*
X144857142Y-65690476D01*
X144285714Y-67166666D02*
X144952380Y-67166666D01*
X143904761Y-66928571D02*
X144619047Y-66690476D01*
X144619047Y-67309523D01*
X94642857Y-96452380D02*
X94976190Y-95976190D01*
X95214285Y-96452380D02*
X95214285Y-95452380D01*
X94833333Y-95452380D01*
X94738095Y-95500000D01*
X94690476Y-95547619D01*
X94642857Y-95642857D01*
X94642857Y-95785714D01*
X94690476Y-95880952D01*
X94738095Y-95928571D01*
X94833333Y-95976190D01*
X95214285Y-95976190D01*
X93690476Y-96452380D02*
X94261904Y-96452380D01*
X93976190Y-96452380D02*
X93976190Y-95452380D01*
X94071428Y-95595238D01*
X94166666Y-95690476D01*
X94261904Y-95738095D01*
X93357142Y-95452380D02*
X92690476Y-95452380D01*
X93119047Y-96452380D01*
X144452380Y-105666666D02*
X145166666Y-105666666D01*
X145309523Y-105619047D01*
X145404761Y-105523809D01*
X145452380Y-105380952D01*
X145452380Y-105285714D01*
X144880952Y-106285714D02*
X144833333Y-106190476D01*
X144785714Y-106142857D01*
X144690476Y-106095238D01*
X144642857Y-106095238D01*
X144547619Y-106142857D01*
X144500000Y-106190476D01*
X144452380Y-106285714D01*
X144452380Y-106476190D01*
X144500000Y-106571428D01*
X144547619Y-106619047D01*
X144642857Y-106666666D01*
X144690476Y-106666666D01*
X144785714Y-106619047D01*
X144833333Y-106571428D01*
X144880952Y-106476190D01*
X144880952Y-106285714D01*
X144928571Y-106190476D01*
X144976190Y-106142857D01*
X145071428Y-106095238D01*
X145261904Y-106095238D01*
X145357142Y-106142857D01*
X145404761Y-106190476D01*
X145452380Y-106285714D01*
X145452380Y-106476190D01*
X145404761Y-106571428D01*
X145357142Y-106619047D01*
X145261904Y-106666666D01*
X145071428Y-106666666D01*
X144976190Y-106619047D01*
X144928571Y-106571428D01*
X144880952Y-106476190D01*
X131452380Y-107357142D02*
X130976190Y-107023809D01*
X131452380Y-106785714D02*
X130452380Y-106785714D01*
X130452380Y-107166666D01*
X130500000Y-107261904D01*
X130547619Y-107309523D01*
X130642857Y-107357142D01*
X130785714Y-107357142D01*
X130880952Y-107309523D01*
X130928571Y-107261904D01*
X130976190Y-107166666D01*
X130976190Y-106785714D01*
X130452380Y-107690476D02*
X130452380Y-108309523D01*
X130833333Y-107976190D01*
X130833333Y-108119047D01*
X130880952Y-108214285D01*
X130928571Y-108261904D01*
X131023809Y-108309523D01*
X131261904Y-108309523D01*
X131357142Y-108261904D01*
X131404761Y-108214285D01*
X131452380Y-108119047D01*
X131452380Y-107833333D01*
X131404761Y-107738095D01*
X131357142Y-107690476D01*
X131452380Y-109261904D02*
X131452380Y-108690476D01*
X131452380Y-108976190D02*
X130452380Y-108976190D01*
X130595238Y-108880952D01*
X130690476Y-108785714D01*
X130738095Y-108690476D01*
X148047619Y-66404761D02*
X148000000Y-66309523D01*
X147904761Y-66214285D01*
X147761904Y-66071428D01*
X147714285Y-65976190D01*
X147714285Y-65880952D01*
X147952380Y-65928571D02*
X147904761Y-65833333D01*
X147809523Y-65738095D01*
X147619047Y-65690476D01*
X147285714Y-65690476D01*
X147095238Y-65738095D01*
X147000000Y-65833333D01*
X146952380Y-65928571D01*
X146952380Y-66119047D01*
X147000000Y-66214285D01*
X147095238Y-66309523D01*
X147285714Y-66357142D01*
X147619047Y-66357142D01*
X147809523Y-66309523D01*
X147904761Y-66214285D01*
X147952380Y-66119047D01*
X147952380Y-65928571D01*
X146952380Y-66690476D02*
X146952380Y-67357142D01*
X147952380Y-66928571D01*
X152952380Y-102285714D02*
X151952380Y-102285714D01*
X151952380Y-102523809D01*
X152000000Y-102666666D01*
X152095238Y-102761904D01*
X152190476Y-102809523D01*
X152380952Y-102857142D01*
X152523809Y-102857142D01*
X152714285Y-102809523D01*
X152809523Y-102761904D01*
X152904761Y-102666666D01*
X152952380Y-102523809D01*
X152952380Y-102285714D01*
X152952380Y-103809523D02*
X152952380Y-103238095D01*
X152952380Y-103523809D02*
X151952380Y-103523809D01*
X152095238Y-103428571D01*
X152190476Y-103333333D01*
X152238095Y-103238095D01*
X151952380Y-104714285D02*
X151952380Y-104238095D01*
X152428571Y-104190476D01*
X152380952Y-104238095D01*
X152333333Y-104333333D01*
X152333333Y-104571428D01*
X152380952Y-104666666D01*
X152428571Y-104714285D01*
X152523809Y-104761904D01*
X152761904Y-104761904D01*
X152857142Y-104714285D01*
X152904761Y-104666666D01*
X152952380Y-104571428D01*
X152952380Y-104333333D01*
X152904761Y-104238095D01*
X152857142Y-104190476D01*
X151452380Y-103069642D02*
X150976190Y-102736309D01*
X151452380Y-102498214D02*
X150452380Y-102498214D01*
X150452380Y-102879166D01*
X150500000Y-102974404D01*
X150547619Y-103022023D01*
X150642857Y-103069642D01*
X150785714Y-103069642D01*
X150880952Y-103022023D01*
X150928571Y-102974404D01*
X150976190Y-102879166D01*
X150976190Y-102498214D01*
X151452380Y-104022023D02*
X151452380Y-103450595D01*
X151452380Y-103736309D02*
X150452380Y-103736309D01*
X150595238Y-103641071D01*
X150690476Y-103545833D01*
X150738095Y-103450595D01*
X150452380Y-104926785D02*
X150452380Y-104450595D01*
X150928571Y-104402976D01*
X150880952Y-104450595D01*
X150833333Y-104545833D01*
X150833333Y-104783928D01*
X150880952Y-104879166D01*
X150928571Y-104926785D01*
X151023809Y-104974404D01*
X151261904Y-104974404D01*
X151357142Y-104926785D01*
X151404761Y-104879166D01*
X151452380Y-104783928D01*
X151452380Y-104545833D01*
X151404761Y-104450595D01*
X151357142Y-104402976D01*
X151952380Y-99357142D02*
X151476190Y-99023809D01*
X151952380Y-98785714D02*
X150952380Y-98785714D01*
X150952380Y-99166666D01*
X151000000Y-99261904D01*
X151047619Y-99309523D01*
X151142857Y-99357142D01*
X151285714Y-99357142D01*
X151380952Y-99309523D01*
X151428571Y-99261904D01*
X151476190Y-99166666D01*
X151476190Y-98785714D01*
X151952380Y-100309523D02*
X151952380Y-99738095D01*
X151952380Y-100023809D02*
X150952380Y-100023809D01*
X151095238Y-99928571D01*
X151190476Y-99833333D01*
X151238095Y-99738095D01*
X150952380Y-100642857D02*
X150952380Y-101261904D01*
X151333333Y-100928571D01*
X151333333Y-101071428D01*
X151380952Y-101166666D01*
X151428571Y-101214285D01*
X151523809Y-101261904D01*
X151761904Y-101261904D01*
X151857142Y-101214285D01*
X151904761Y-101166666D01*
X151952380Y-101071428D01*
X151952380Y-100785714D01*
X151904761Y-100690476D01*
X151857142Y-100642857D01*
X120666666Y-119382380D02*
X121000000Y-118906190D01*
X121238095Y-119382380D02*
X121238095Y-118382380D01*
X120857142Y-118382380D01*
X120761904Y-118430000D01*
X120714285Y-118477619D01*
X120666666Y-118572857D01*
X120666666Y-118715714D01*
X120714285Y-118810952D01*
X120761904Y-118858571D01*
X120857142Y-118906190D01*
X121238095Y-118906190D01*
X120333333Y-118382380D02*
X119666666Y-118382380D01*
X120095238Y-119382380D01*
X112389285Y-101802380D02*
X112389285Y-100802380D01*
X112151190Y-100802380D01*
X112008333Y-100850000D01*
X111913095Y-100945238D01*
X111865476Y-101040476D01*
X111817857Y-101230952D01*
X111817857Y-101373809D01*
X111865476Y-101564285D01*
X111913095Y-101659523D01*
X112008333Y-101754761D01*
X112151190Y-101802380D01*
X112389285Y-101802380D01*
X111436904Y-100897619D02*
X111389285Y-100850000D01*
X111294047Y-100802380D01*
X111055952Y-100802380D01*
X110960714Y-100850000D01*
X110913095Y-100897619D01*
X110865476Y-100992857D01*
X110865476Y-101088095D01*
X110913095Y-101230952D01*
X111484523Y-101802380D01*
X110865476Y-101802380D01*
X110532142Y-100802380D02*
X109913095Y-100802380D01*
X110246428Y-101183333D01*
X110103571Y-101183333D01*
X110008333Y-101230952D01*
X109960714Y-101278571D01*
X109913095Y-101373809D01*
X109913095Y-101611904D01*
X109960714Y-101707142D01*
X110008333Y-101754761D01*
X110103571Y-101802380D01*
X110389285Y-101802380D01*
X110484523Y-101754761D01*
X110532142Y-101707142D01*
X94666666Y-98452380D02*
X95000000Y-97976190D01*
X95238095Y-98452380D02*
X95238095Y-97452380D01*
X94857142Y-97452380D01*
X94761904Y-97500000D01*
X94714285Y-97547619D01*
X94666666Y-97642857D01*
X94666666Y-97785714D01*
X94714285Y-97880952D01*
X94761904Y-97928571D01*
X94857142Y-97976190D01*
X95238095Y-97976190D01*
X93809523Y-97452380D02*
X94000000Y-97452380D01*
X94095238Y-97500000D01*
X94142857Y-97547619D01*
X94238095Y-97690476D01*
X94285714Y-97880952D01*
X94285714Y-98261904D01*
X94238095Y-98357142D01*
X94190476Y-98404761D01*
X94095238Y-98452380D01*
X93904761Y-98452380D01*
X93809523Y-98404761D01*
X93761904Y-98357142D01*
X93714285Y-98261904D01*
X93714285Y-98023809D01*
X93761904Y-97928571D01*
X93809523Y-97880952D01*
X93904761Y-97833333D01*
X94095238Y-97833333D01*
X94190476Y-97880952D01*
X94238095Y-97928571D01*
X94285714Y-98023809D01*
D11*
X88331651Y-92635000D02*
X88331651Y-94960000D01*
X87891651Y-97040000D02*
X87891651Y-99019000D01*
X90132651Y-91952000D02*
X90132651Y-100048000D01*
X88051651Y-92844000D02*
X88051651Y-94960000D01*
X87171651Y-93834000D02*
X87171651Y-98166000D01*
X88251651Y-97040000D02*
X88251651Y-99309000D01*
X87331651Y-93600000D02*
X87331651Y-98400000D01*
X90092651Y-91958000D02*
X90092651Y-100042000D01*
X89171651Y-92195000D02*
X89171651Y-94960000D01*
X89851651Y-97040000D02*
X89851651Y-100002000D01*
X90292651Y-91935000D02*
X90292651Y-100065000D01*
X89531651Y-92075000D02*
X89531651Y-94960000D01*
X87091651Y-93966000D02*
X87091651Y-98034000D01*
X88811651Y-92353000D02*
X88811651Y-94960000D01*
X88611651Y-97040000D02*
X88611651Y-99540000D01*
X89011651Y-92260000D02*
X89011651Y-94960000D01*
X87771651Y-93093000D02*
X87771651Y-98907000D01*
X87411651Y-93495000D02*
X87411651Y-98505000D01*
X90612651Y-91920000D02*
X90612651Y-100080000D01*
X89931651Y-91983000D02*
X89931651Y-94960000D01*
X87131651Y-93898000D02*
X87131651Y-98102000D01*
X88451651Y-92556000D02*
X88451651Y-94960000D01*
X86891651Y-94355000D02*
X86891651Y-97645000D01*
X88291651Y-97040000D02*
X88291651Y-99338000D01*
X89851651Y-91998000D02*
X89851651Y-94960000D01*
X89251651Y-97040000D02*
X89251651Y-99835000D01*
X87531651Y-93349000D02*
X87531651Y-98651000D01*
X88171651Y-97040000D02*
X88171651Y-99250000D01*
X89811651Y-92006000D02*
X89811651Y-94960000D01*
X88731651Y-92394000D02*
X88731651Y-94960000D01*
X88651651Y-97040000D02*
X88651651Y-99562000D01*
X88491651Y-97040000D02*
X88491651Y-99469000D01*
X89491651Y-92086000D02*
X89491651Y-94960000D01*
X89451651Y-92098000D02*
X89451651Y-94960000D01*
X90212651Y-91943000D02*
X90212651Y-100057000D01*
X86571651Y-95467000D02*
X86571651Y-96533000D01*
X90052651Y-91963000D02*
X90052651Y-100037000D01*
X89331651Y-92137000D02*
X89331651Y-94960000D01*
X89771651Y-92015000D02*
X89771651Y-94960000D01*
X86851651Y-94448000D02*
X86851651Y-97552000D01*
X88891651Y-97040000D02*
X88891651Y-99686000D01*
X89131651Y-92210000D02*
X89131651Y-94960000D01*
X88371651Y-97040000D02*
X88371651Y-99392000D01*
X89651651Y-92043000D02*
X89651651Y-94960000D01*
X87291651Y-93655000D02*
X87291651Y-98345000D01*
X89251651Y-92165000D02*
X89251651Y-94960000D01*
X88931651Y-92296000D02*
X88931651Y-94960000D01*
X90652651Y-91920000D02*
X90652651Y-100080000D01*
X89891651Y-97040000D02*
X89891651Y-100010000D01*
X89291651Y-92150000D02*
X89291651Y-94960000D01*
X89331651Y-97040000D02*
X89331651Y-99863000D01*
X89891651Y-91990000D02*
X89891651Y-94960000D01*
X88771651Y-97040000D02*
X88771651Y-99627000D01*
X89011651Y-97040000D02*
X89011651Y-99740000D01*
X87851651Y-93017000D02*
X87851651Y-98983000D01*
X89411651Y-97040000D02*
X89411651Y-99889000D01*
X86771651Y-94654000D02*
X86771651Y-97346000D01*
X90452651Y-91924000D02*
X90452651Y-100076000D01*
X87051651Y-94036000D02*
X87051651Y-97964000D01*
X89691651Y-97040000D02*
X89691651Y-99967000D01*
X88171651Y-92750000D02*
X88171651Y-94960000D01*
X87651651Y-93216000D02*
X87651651Y-98784000D01*
X88211651Y-92720000D02*
X88211651Y-94960000D01*
X88091651Y-97040000D02*
X88091651Y-99189000D01*
X89091651Y-97040000D02*
X89091651Y-99774000D01*
X89651651Y-97040000D02*
X89651651Y-99957000D01*
X90532651Y-91921000D02*
X90532651Y-100079000D01*
X88731651Y-97040000D02*
X88731651Y-99606000D01*
X90412651Y-91926000D02*
X90412651Y-100074000D01*
X87371651Y-93546000D02*
X87371651Y-98454000D01*
X90172651Y-91948000D02*
X90172651Y-100052000D01*
X88411651Y-92582000D02*
X88411651Y-94960000D01*
X89972651Y-91976000D02*
X89972651Y-100024000D01*
X87251651Y-93713000D02*
X87251651Y-98287000D01*
X88371651Y-92608000D02*
X88371651Y-94960000D01*
X87811651Y-93055000D02*
X87811651Y-98945000D01*
X87931651Y-97040000D02*
X87931651Y-99055000D01*
X88691651Y-97040000D02*
X88691651Y-99584000D01*
X86931651Y-94269000D02*
X86931651Y-97731000D01*
X87451651Y-93444000D02*
X87451651Y-98556000D01*
X88571651Y-97040000D02*
X88571651Y-99517000D01*
X89371651Y-97040000D02*
X89371651Y-99877000D01*
X89571651Y-92064000D02*
X89571651Y-94960000D01*
X88451651Y-97040000D02*
X88451651Y-99444000D01*
X90012651Y-91970000D02*
X90012651Y-100030000D01*
X90252651Y-91939000D02*
X90252651Y-100061000D01*
X87971651Y-97040000D02*
X87971651Y-99090000D01*
X87491651Y-93396000D02*
X87491651Y-98604000D01*
X88771651Y-92373000D02*
X88771651Y-94960000D01*
X89051651Y-92243000D02*
X89051651Y-94960000D01*
X88531651Y-92507000D02*
X88531651Y-94960000D01*
X89771651Y-97040000D02*
X89771651Y-99985000D01*
X86691651Y-94902000D02*
X86691651Y-97098000D01*
X89171651Y-97040000D02*
X89171651Y-99805000D01*
X89291651Y-97040000D02*
X89291651Y-99850000D01*
X88531651Y-97040000D02*
X88531651Y-99493000D01*
X90332651Y-91932000D02*
X90332651Y-100068000D01*
X87211651Y-93772000D02*
X87211651Y-98228000D01*
X89731651Y-97040000D02*
X89731651Y-99976000D01*
X86731651Y-94771000D02*
X86731651Y-97229000D01*
X89811651Y-97040000D02*
X89811651Y-99994000D01*
X86971651Y-94187000D02*
X86971651Y-97813000D01*
X88211651Y-97040000D02*
X88211651Y-99280000D01*
X88571651Y-92483000D02*
X88571651Y-94960000D01*
X90572651Y-91920000D02*
X90572651Y-100080000D01*
X87691651Y-93174000D02*
X87691651Y-98826000D01*
X88691651Y-92416000D02*
X88691651Y-94960000D01*
X88931651Y-97040000D02*
X88931651Y-99704000D01*
X95062349Y-93685000D02*
X94262349Y-93685000D01*
X87891651Y-92981000D02*
X87891651Y-94960000D01*
X89091651Y-92226000D02*
X89091651Y-94960000D01*
X88971651Y-92278000D02*
X88971651Y-94960000D01*
X86811651Y-94547000D02*
X86811651Y-97453000D01*
X88051651Y-97040000D02*
X88051651Y-99156000D01*
X88331651Y-97040000D02*
X88331651Y-99365000D01*
X89611651Y-92053000D02*
X89611651Y-94960000D01*
X88851651Y-92334000D02*
X88851651Y-94960000D01*
X88251651Y-92691000D02*
X88251651Y-94960000D01*
X89051651Y-97040000D02*
X89051651Y-99757000D01*
X88131651Y-97040000D02*
X88131651Y-99220000D01*
X90372651Y-91929000D02*
X90372651Y-100071000D01*
X89691651Y-92033000D02*
X89691651Y-94960000D01*
X87931651Y-92945000D02*
X87931651Y-94960000D01*
X87971651Y-92910000D02*
X87971651Y-94960000D01*
X89371651Y-92123000D02*
X89371651Y-94960000D01*
X88091651Y-92811000D02*
X88091651Y-94960000D01*
X88971651Y-97040000D02*
X88971651Y-99722000D01*
X90492651Y-91923000D02*
X90492651Y-100077000D01*
X88131651Y-92780000D02*
X88131651Y-94960000D01*
X88411651Y-97040000D02*
X88411651Y-99418000D01*
X87011651Y-94110000D02*
X87011651Y-97890000D01*
X89411651Y-92111000D02*
X89411651Y-94960000D01*
X94662349Y-93285000D02*
X94662349Y-94085000D01*
X88811651Y-97040000D02*
X88811651Y-99647000D01*
X86611651Y-95232000D02*
X86611651Y-96768000D01*
X88011651Y-97040000D02*
X88011651Y-99124000D01*
X88491651Y-92531000D02*
X88491651Y-94960000D01*
X88851651Y-97040000D02*
X88851651Y-99666000D01*
X87731651Y-93133000D02*
X87731651Y-98867000D01*
X89531651Y-97040000D02*
X89531651Y-99925000D01*
X88011651Y-92876000D02*
X88011651Y-94960000D01*
X89211651Y-92179000D02*
X89211651Y-94960000D01*
X88291651Y-92662000D02*
X88291651Y-94960000D01*
X88611651Y-92460000D02*
X88611651Y-94960000D01*
X89211651Y-97040000D02*
X89211651Y-99821000D01*
X86651651Y-95052000D02*
X86651651Y-96948000D01*
X89131651Y-97040000D02*
X89131651Y-99790000D01*
X87611651Y-93259000D02*
X87611651Y-98741000D01*
X89731651Y-92024000D02*
X89731651Y-94960000D01*
X89451651Y-97040000D02*
X89451651Y-99902000D01*
X89611651Y-97040000D02*
X89611651Y-99947000D01*
X88651651Y-92438000D02*
X88651651Y-94960000D01*
X87571651Y-93303000D02*
X87571651Y-98697000D01*
X89571651Y-97040000D02*
X89571651Y-99936000D01*
X89491651Y-97040000D02*
X89491651Y-99914000D01*
X89931651Y-97040000D02*
X89931651Y-100017000D01*
X88891651Y-92314000D02*
X88891651Y-94960000D01*
X94772651Y-96000000D02*
G75*
G03*
X94772651Y-96000000I-4120000J0D01*
G01*
X104762742Y-109522500D02*
X105237258Y-109522500D01*
X104762742Y-108477500D02*
X105237258Y-108477500D01*
X130150000Y-118400000D02*
X130150000Y-115250000D01*
X131850000Y-118400000D02*
X130150000Y-118400000D01*
X131850000Y-118400000D02*
X131850000Y-115250000D01*
X109090000Y-55172936D02*
X109090000Y-56627064D01*
X110910000Y-55172936D02*
X110910000Y-56627064D01*
X108315000Y-105740000D02*
X107060000Y-105740000D01*
X107060000Y-105440000D02*
X102940000Y-105440000D01*
X107060000Y-107560000D02*
X102940000Y-107560000D01*
X107060000Y-105440000D02*
X107060000Y-105740000D01*
X102940000Y-107260000D02*
X102940000Y-107560000D01*
X102940000Y-105440000D02*
X102940000Y-105740000D01*
X107060000Y-107260000D02*
X107060000Y-107560000D01*
X102970000Y-76450000D02*
X102970000Y-76180000D01*
X101470000Y-76450000D02*
X102970000Y-76450000D01*
X102970000Y-69820000D02*
X105800000Y-69820000D01*
X102970000Y-69550000D02*
X102970000Y-69820000D01*
X102970000Y-76180000D02*
X104070000Y-76180000D01*
X101470000Y-69550000D02*
X102970000Y-69550000D01*
X112550000Y-116300000D02*
X112550000Y-115700000D01*
X108450000Y-115700000D02*
X108450000Y-116300000D01*
X109300000Y-114800000D02*
X109000000Y-114500000D01*
X109100000Y-117000000D02*
X111900000Y-117000000D01*
X111900000Y-115000000D02*
X109100000Y-115000000D01*
X109000000Y-114500000D02*
X109600000Y-114500000D01*
X109300000Y-114800000D02*
X109600000Y-114500000D01*
X108450000Y-116300000D02*
G75*
G03*
X109150000Y-117000000I699999J-1D01*
G01*
X111850000Y-117000000D02*
G75*
G03*
X112550000Y-116300000I0J700000D01*
G01*
X112550000Y-115700000D02*
G75*
G03*
X111850000Y-115000000I-700000J0D01*
G01*
X109150000Y-115000000D02*
G75*
G03*
X108450000Y-115700000I-1J-699999D01*
G01*
X97237258Y-104522500D02*
X96762742Y-104522500D01*
X97237258Y-103477500D02*
X96762742Y-103477500D01*
X117859420Y-95510000D02*
X118140580Y-95510000D01*
X117859420Y-94490000D02*
X118140580Y-94490000D01*
X161748349Y-94960000D02*
X161748349Y-92691000D01*
X160828349Y-94960000D02*
X160828349Y-92195000D01*
X159747349Y-100061000D02*
X159747349Y-91939000D01*
X162788349Y-98228000D02*
X162788349Y-93772000D01*
X160068349Y-100017000D02*
X160068349Y-97040000D01*
X161708349Y-94960000D02*
X161708349Y-92662000D01*
X162868349Y-98102000D02*
X162868349Y-93898000D01*
X161908349Y-94960000D02*
X161908349Y-92811000D01*
X159507349Y-100077000D02*
X159507349Y-91923000D01*
X160188349Y-94960000D02*
X160188349Y-92006000D01*
X162108349Y-94960000D02*
X162108349Y-92981000D01*
X160268349Y-94960000D02*
X160268349Y-92024000D01*
X154937651Y-98315000D02*
X155737651Y-98315000D01*
X160988349Y-94960000D02*
X160988349Y-92260000D01*
X161868349Y-99220000D02*
X161868349Y-97040000D01*
X163028349Y-97813000D02*
X163028349Y-94187000D01*
X160388349Y-94960000D02*
X160388349Y-92053000D01*
X160468349Y-94960000D02*
X160468349Y-92075000D01*
X162108349Y-99019000D02*
X162108349Y-97040000D01*
X161548349Y-94960000D02*
X161548349Y-92556000D01*
X161508349Y-99469000D02*
X161508349Y-97040000D01*
X161028349Y-94960000D02*
X161028349Y-92278000D01*
X163228349Y-97346000D02*
X163228349Y-94654000D01*
X159987349Y-100030000D02*
X159987349Y-91970000D01*
X160588349Y-99889000D02*
X160588349Y-97040000D01*
X162028349Y-94960000D02*
X162028349Y-92910000D01*
X161948349Y-99156000D02*
X161948349Y-97040000D01*
X160348349Y-99957000D02*
X160348349Y-97040000D01*
X162828349Y-98166000D02*
X162828349Y-93834000D01*
X159547349Y-100076000D02*
X159547349Y-91924000D01*
X161428349Y-94960000D02*
X161428349Y-92483000D01*
X160308349Y-99967000D02*
X160308349Y-97040000D01*
X162388349Y-98741000D02*
X162388349Y-93259000D01*
X160988349Y-99740000D02*
X160988349Y-97040000D01*
X160628349Y-99877000D02*
X160628349Y-97040000D01*
X161268349Y-94960000D02*
X161268349Y-92394000D01*
X162228349Y-98907000D02*
X162228349Y-93093000D01*
X162948349Y-97964000D02*
X162948349Y-94036000D01*
X161668349Y-94960000D02*
X161668349Y-92635000D01*
X161148349Y-94960000D02*
X161148349Y-92334000D01*
X162068349Y-94960000D02*
X162068349Y-92945000D01*
X160508349Y-99914000D02*
X160508349Y-97040000D01*
X161028349Y-99722000D02*
X161028349Y-97040000D01*
X162068349Y-99055000D02*
X162068349Y-97040000D01*
X160828349Y-99805000D02*
X160828349Y-97040000D01*
X161468349Y-94960000D02*
X161468349Y-92507000D01*
X159787349Y-100057000D02*
X159787349Y-91943000D01*
X160188349Y-99994000D02*
X160188349Y-97040000D01*
X160868349Y-99790000D02*
X160868349Y-97040000D01*
X159667349Y-100068000D02*
X159667349Y-91932000D01*
X161708349Y-99338000D02*
X161708349Y-97040000D01*
X159587349Y-100074000D02*
X159587349Y-91926000D01*
X160148349Y-100002000D02*
X160148349Y-97040000D01*
X162028349Y-99090000D02*
X162028349Y-97040000D01*
X163188349Y-97453000D02*
X163188349Y-94547000D01*
X162268349Y-98867000D02*
X162268349Y-93133000D01*
X160308349Y-94960000D02*
X160308349Y-92033000D01*
X160588349Y-94960000D02*
X160588349Y-92111000D01*
X159347349Y-100080000D02*
X159347349Y-91920000D01*
X160908349Y-94960000D02*
X160908349Y-92226000D01*
X161188349Y-99647000D02*
X161188349Y-97040000D01*
X159467349Y-100079000D02*
X159467349Y-91921000D01*
X162428349Y-98697000D02*
X162428349Y-93303000D01*
X160708349Y-94960000D02*
X160708349Y-92150000D01*
X163388349Y-96768000D02*
X163388349Y-95232000D01*
X163068349Y-97731000D02*
X163068349Y-94269000D01*
X161348349Y-99562000D02*
X161348349Y-97040000D01*
X163108349Y-97645000D02*
X163108349Y-94355000D01*
X161108349Y-99686000D02*
X161108349Y-97040000D01*
X161428349Y-99517000D02*
X161428349Y-97040000D01*
X160108349Y-94960000D02*
X160108349Y-91990000D01*
X160148349Y-94960000D02*
X160148349Y-91998000D01*
X160708349Y-99850000D02*
X160708349Y-97040000D01*
X161508349Y-94960000D02*
X161508349Y-92531000D01*
X162148349Y-98983000D02*
X162148349Y-93017000D01*
X161108349Y-94960000D02*
X161108349Y-92314000D01*
X161828349Y-94960000D02*
X161828349Y-92750000D01*
X162468349Y-98651000D02*
X162468349Y-93349000D01*
X161308349Y-99584000D02*
X161308349Y-97040000D01*
X161388349Y-94960000D02*
X161388349Y-92460000D01*
X162988349Y-97890000D02*
X162988349Y-94110000D01*
X160468349Y-99925000D02*
X160468349Y-97040000D01*
X161868349Y-94960000D02*
X161868349Y-92780000D01*
X161788349Y-94960000D02*
X161788349Y-92720000D01*
X160948349Y-94960000D02*
X160948349Y-92243000D01*
X160508349Y-94960000D02*
X160508349Y-92086000D01*
X162628349Y-98454000D02*
X162628349Y-93546000D01*
X162508349Y-98604000D02*
X162508349Y-93396000D01*
X159947349Y-100037000D02*
X159947349Y-91963000D01*
X159907349Y-100042000D02*
X159907349Y-91958000D01*
X161348349Y-94960000D02*
X161348349Y-92438000D01*
X162908349Y-98034000D02*
X162908349Y-93966000D01*
X160668349Y-99863000D02*
X160668349Y-97040000D01*
X160228349Y-99985000D02*
X160228349Y-97040000D01*
X159827349Y-100052000D02*
X159827349Y-91948000D01*
X159707349Y-100065000D02*
X159707349Y-91935000D01*
X159387349Y-100080000D02*
X159387349Y-91920000D01*
X159427349Y-100080000D02*
X159427349Y-91920000D01*
X161268349Y-99606000D02*
X161268349Y-97040000D01*
X162548349Y-98556000D02*
X162548349Y-93444000D01*
X155337651Y-98715000D02*
X155337651Y-97915000D01*
X159627349Y-100071000D02*
X159627349Y-91929000D01*
X161668349Y-99365000D02*
X161668349Y-97040000D01*
X162708349Y-98345000D02*
X162708349Y-93655000D01*
X160428349Y-99936000D02*
X160428349Y-97040000D01*
X161068349Y-99704000D02*
X161068349Y-97040000D01*
X160948349Y-99757000D02*
X160948349Y-97040000D01*
X161908349Y-99189000D02*
X161908349Y-97040000D01*
X161748349Y-99309000D02*
X161748349Y-97040000D01*
X160068349Y-94960000D02*
X160068349Y-91983000D01*
X161228349Y-99627000D02*
X161228349Y-97040000D01*
X161628349Y-99392000D02*
X161628349Y-97040000D01*
X163148349Y-97552000D02*
X163148349Y-94448000D01*
X161548349Y-99444000D02*
X161548349Y-97040000D01*
X161588349Y-99418000D02*
X161588349Y-97040000D01*
X160108349Y-100010000D02*
X160108349Y-97040000D01*
X160348349Y-94960000D02*
X160348349Y-92043000D01*
X160228349Y-94960000D02*
X160228349Y-92015000D01*
X160428349Y-94960000D02*
X160428349Y-92064000D01*
X160388349Y-99947000D02*
X160388349Y-97040000D01*
X161828349Y-99250000D02*
X161828349Y-97040000D01*
X163308349Y-97098000D02*
X163308349Y-94902000D01*
X160788349Y-99821000D02*
X160788349Y-97040000D01*
X162748349Y-98287000D02*
X162748349Y-93713000D01*
X160908349Y-99774000D02*
X160908349Y-97040000D01*
X161308349Y-94960000D02*
X161308349Y-92416000D01*
X162668349Y-98400000D02*
X162668349Y-93600000D01*
X160668349Y-94960000D02*
X160668349Y-92137000D01*
X160628349Y-94960000D02*
X160628349Y-92123000D01*
X161388349Y-99540000D02*
X161388349Y-97040000D01*
X159867349Y-100048000D02*
X159867349Y-91952000D01*
X161988349Y-94960000D02*
X161988349Y-92876000D01*
X160268349Y-99976000D02*
X160268349Y-97040000D01*
X160788349Y-94960000D02*
X160788349Y-92179000D01*
X162188349Y-98945000D02*
X162188349Y-93055000D01*
X163348349Y-96948000D02*
X163348349Y-95052000D01*
X161628349Y-94960000D02*
X161628349Y-92608000D01*
X161788349Y-99280000D02*
X161788349Y-97040000D01*
X160868349Y-94960000D02*
X160868349Y-92210000D01*
X161948349Y-94960000D02*
X161948349Y-92844000D01*
X160748349Y-99835000D02*
X160748349Y-97040000D01*
X163428349Y-96533000D02*
X163428349Y-95467000D01*
X160027349Y-100024000D02*
X160027349Y-91976000D01*
X160748349Y-94960000D02*
X160748349Y-92165000D01*
X162308349Y-98826000D02*
X162308349Y-93174000D01*
X163268349Y-97229000D02*
X163268349Y-94771000D01*
X160548349Y-94960000D02*
X160548349Y-92098000D01*
X161148349Y-99666000D02*
X161148349Y-97040000D01*
X161068349Y-94960000D02*
X161068349Y-92296000D01*
X161468349Y-99493000D02*
X161468349Y-97040000D01*
X161188349Y-94960000D02*
X161188349Y-92353000D01*
X162348349Y-98784000D02*
X162348349Y-93216000D01*
X161988349Y-99124000D02*
X161988349Y-97040000D01*
X161228349Y-94960000D02*
X161228349Y-92373000D01*
X160548349Y-99902000D02*
X160548349Y-97040000D01*
X161588349Y-94960000D02*
X161588349Y-92582000D01*
X162588349Y-98505000D02*
X162588349Y-93495000D01*
X163467349Y-96000000D02*
G75*
G03*
X163467349Y-96000000I-4120000J0D01*
G01*
X137477500Y-106237258D02*
X137477500Y-105762742D01*
X138522500Y-106237258D02*
X138522500Y-105762742D01*
X104455000Y-102737258D02*
X104455000Y-102262742D01*
X105500000Y-102737258D02*
X105500000Y-102262742D01*
X112735000Y-102500000D02*
X112735000Y-101700000D01*
X109615000Y-102500000D02*
X109615000Y-101700000D01*
X112735000Y-102500000D02*
X112735000Y-104300000D01*
X109615000Y-102500000D02*
X109615000Y-103300000D01*
X107522500Y-100262742D02*
X107522500Y-100737258D01*
X106477500Y-100262742D02*
X106477500Y-100737258D01*
X97237258Y-101477500D02*
X96762742Y-101477500D01*
X97237258Y-102522500D02*
X96762742Y-102522500D01*
X111412258Y-105477500D02*
X110937742Y-105477500D01*
X111412258Y-106522500D02*
X110937742Y-106522500D01*
X132490000Y-102359420D02*
X132490000Y-102640580D01*
X133510000Y-102359420D02*
X133510000Y-102640580D01*
X94020000Y-70390000D02*
X94020000Y-71340000D01*
X86560000Y-70390000D02*
X87980000Y-70390000D01*
X86560000Y-78610000D02*
X86560000Y-70390000D01*
X91000000Y-78610000D02*
X86560000Y-78610000D01*
X91000000Y-78610000D02*
X95440000Y-78610000D01*
X95440000Y-78610000D02*
X95440000Y-70390000D01*
X95440000Y-70390000D02*
X94020000Y-70390000D01*
X94020000Y-71340000D02*
X91000000Y-71340000D01*
X87980000Y-71340000D02*
X91000000Y-71340000D01*
X87980000Y-70390000D02*
X87980000Y-71340000D01*
X93230000Y-70700000D02*
G75*
G03*
X93230000Y-70700000I-250000J0D01*
G01*
X107629703Y-139842947D02*
X107519394Y-139732638D01*
X109267362Y-141480606D02*
X109157053Y-141370297D01*
X109916293Y-137558323D02*
G75*
G03*
X107519736Y-139732980I-419828J-1945212D01*
G01*
X109267020Y-141480262D02*
G75*
G03*
X111441675Y-139083707I229445J1976727D01*
G01*
X109524069Y-141003281D02*
G75*
G03*
X110996215Y-139530905I-27604J1499746D01*
G01*
X109469095Y-138003785D02*
G75*
G03*
X107996719Y-139475931I27370J-1499750D01*
G01*
X124410000Y-127711252D02*
X124410000Y-126288748D01*
X122590000Y-127711252D02*
X122590000Y-126288748D01*
X148022500Y-108737258D02*
X148022500Y-108262742D01*
X146977500Y-108737258D02*
X146977500Y-108262742D01*
X124480606Y-139732638D02*
X124370297Y-139842947D01*
X122842947Y-141370297D02*
X122732638Y-141480606D01*
X120558323Y-139083707D02*
G75*
G03*
X122732980Y-141480264I1945212J-419828D01*
G01*
X121003785Y-139530905D02*
G75*
G03*
X122475931Y-141003281I1499750J27370D01*
G01*
X124480262Y-139732980D02*
G75*
G03*
X122083707Y-137558325I-1976727J229445D01*
G01*
X124003281Y-139475931D02*
G75*
G03*
X122530905Y-138003785I-1499746J-27604D01*
G01*
X139490000Y-105859420D02*
X139490000Y-106140580D01*
X140510000Y-105859420D02*
X140510000Y-106140580D01*
X125640580Y-116510000D02*
X125359420Y-116510000D01*
X125640580Y-115490000D02*
X125359420Y-115490000D01*
X147030000Y-55550000D02*
X147030000Y-55820000D01*
X147030000Y-62180000D02*
X144200000Y-62180000D01*
X148530000Y-62450000D02*
X147030000Y-62450000D01*
X148530000Y-55550000D02*
X147030000Y-55550000D01*
X147030000Y-55820000D02*
X145930000Y-55820000D01*
X147030000Y-62450000D02*
X147030000Y-62180000D01*
X127477500Y-90262742D02*
X127477500Y-90737258D01*
X128522500Y-90262742D02*
X128522500Y-90737258D01*
X130359420Y-91990000D02*
X130640580Y-91990000D01*
X130359420Y-93010000D02*
X130640580Y-93010000D01*
X132762742Y-107022500D02*
X133237258Y-107022500D01*
X132762742Y-105977500D02*
X133237258Y-105977500D01*
X104522500Y-65762742D02*
X104522500Y-66237258D01*
X103477500Y-65762742D02*
X103477500Y-66237258D01*
X133522500Y-114262742D02*
X133522500Y-114737258D01*
X132477500Y-114262742D02*
X132477500Y-114737258D01*
X126010000Y-76640580D02*
X126010000Y-76359420D01*
X124990000Y-76640580D02*
X124990000Y-76359420D01*
X124000000Y-121060000D02*
X124800000Y-121060000D01*
X124000000Y-117940000D02*
X123200000Y-117940000D01*
X124000000Y-121060000D02*
X123200000Y-121060000D01*
X124000000Y-117940000D02*
X125800000Y-117940000D01*
X133000000Y-143800000D02*
X133000000Y-147000000D01*
X133000000Y-143800000D02*
X131000000Y-143800000D01*
X131000000Y-147000000D02*
X131000000Y-143800000D01*
X97237258Y-99477500D02*
X96762742Y-99477500D01*
X97237258Y-100522500D02*
X96762742Y-100522500D01*
X128477500Y-116262742D02*
X128477500Y-116737258D01*
X129522500Y-116262742D02*
X129522500Y-116737258D01*
X145477500Y-72762742D02*
X145477500Y-73237258D01*
X146522500Y-72762742D02*
X146522500Y-73237258D01*
X141022500Y-89762742D02*
X141022500Y-90237258D01*
X139977500Y-89762742D02*
X139977500Y-90237258D01*
X105140580Y-109990000D02*
X104859420Y-109990000D01*
X105140580Y-111010000D02*
X104859420Y-111010000D01*
X119410000Y-76288748D02*
X119410000Y-77711252D01*
X117590000Y-76288748D02*
X117590000Y-77711252D01*
X102970000Y-62950000D02*
X102970000Y-62680000D01*
X102970000Y-62680000D02*
X104070000Y-62680000D01*
X102970000Y-56320000D02*
X105800000Y-56320000D01*
X101470000Y-62950000D02*
X102970000Y-62950000D01*
X102970000Y-56050000D02*
X102970000Y-56320000D01*
X101470000Y-56050000D02*
X102970000Y-56050000D01*
X120490000Y-103640580D02*
X120490000Y-103359420D01*
X121510000Y-103640580D02*
X121510000Y-103359420D01*
X101470000Y-62550000D02*
X102970000Y-62550000D01*
X102970000Y-62550000D02*
X102970000Y-62820000D01*
X102970000Y-69450000D02*
X102970000Y-69180000D01*
X101470000Y-69450000D02*
X102970000Y-69450000D01*
X102970000Y-62820000D02*
X105800000Y-62820000D01*
X102970000Y-69180000D02*
X104070000Y-69180000D01*
X107010000Y-94640580D02*
X107010000Y-94359420D01*
X105990000Y-94640580D02*
X105990000Y-94359420D01*
X97237258Y-93477500D02*
X96762742Y-93477500D01*
X97237258Y-94522500D02*
X96762742Y-94522500D01*
X119200000Y-98700000D02*
X119600000Y-98700000D01*
X119200000Y-98700000D02*
X119200000Y-97700000D01*
X118800000Y-97700000D02*
X116800000Y-97700000D01*
X116800000Y-97700000D02*
X116800000Y-98700000D01*
X118800000Y-97500000D02*
X119200000Y-97500000D01*
X116800000Y-97500000D02*
X118800000Y-97500000D01*
X118800000Y-101300000D02*
X119200000Y-101300000D01*
X116800000Y-101300000D02*
X118800000Y-101300000D01*
X118800000Y-97700000D02*
X119200000Y-97700000D01*
X116800000Y-100500000D02*
X116800000Y-101300000D01*
X119200000Y-101300000D02*
X119200000Y-100500000D01*
X132522500Y-136737258D02*
X132522500Y-136262742D01*
X131477500Y-136737258D02*
X131477500Y-136262742D01*
X146870000Y-50380000D02*
X130130000Y-50380000D01*
X146870000Y-50380000D02*
X146870000Y-51896000D01*
X130130000Y-54104000D02*
X130130000Y-55620000D01*
X146870000Y-55620000D02*
X130130000Y-55620000D01*
X146870000Y-54104000D02*
X146870000Y-55620000D01*
X130130000Y-50380000D02*
X130130000Y-51896000D01*
X146065000Y-101500000D02*
X146065000Y-94450000D01*
X150300000Y-101550000D02*
X150300000Y-104250000D01*
X150965000Y-94500000D02*
X150965000Y-101550000D01*
X146715000Y-101500000D02*
X146065000Y-101500000D01*
X146715000Y-94450000D02*
X146065000Y-94450000D01*
X150965000Y-101550000D02*
X150315000Y-101550000D01*
X150965000Y-94500000D02*
X150315000Y-94500000D01*
X147262742Y-90022500D02*
X147737258Y-90022500D01*
X147262742Y-88977500D02*
X147737258Y-88977500D01*
X118237258Y-95977500D02*
X117762742Y-95977500D01*
X118237258Y-97022500D02*
X117762742Y-97022500D01*
X142490000Y-90140580D02*
X142490000Y-89859420D01*
X143510000Y-90140580D02*
X143510000Y-89859420D01*
X136490000Y-91640580D02*
X136490000Y-91359420D01*
X137510000Y-91640580D02*
X137510000Y-91359420D01*
X127010000Y-90640580D02*
X127010000Y-90359420D01*
X125990000Y-90640580D02*
X125990000Y-90359420D01*
X107522500Y-103262742D02*
X107522500Y-103737258D01*
X106477500Y-103262742D02*
X106477500Y-103737258D01*
X111000000Y-108940000D02*
X114450000Y-108940000D01*
X111000000Y-114060000D02*
X112950000Y-114060000D01*
X111000000Y-108940000D02*
X109050000Y-108940000D01*
X111000000Y-114060000D02*
X109050000Y-114060000D01*
X107736000Y-147565000D02*
X107580000Y-147565000D01*
X105420000Y-147565000D02*
X105264000Y-147565000D01*
X107580000Y-147045961D02*
G75*
G03*
X107579837Y-144963870I-1080000J1040961D01*
G01*
X105421392Y-144332665D02*
G75*
G03*
X105264484Y-147565000I1078608J-1672335D01*
G01*
X107735516Y-147565000D02*
G75*
G03*
X107578608Y-144332665I-1235516J1560000D01*
G01*
X105420163Y-144963870D02*
G75*
G03*
X105420000Y-147045961I1079837J-1041130D01*
G01*
X136010000Y-155140580D02*
X136010000Y-154859420D01*
X134990000Y-155140580D02*
X134990000Y-154859420D01*
X109477500Y-92762742D02*
X109477500Y-93237258D01*
X110522500Y-92762742D02*
X110522500Y-93237258D01*
X134560000Y-111000000D02*
X134560000Y-111650000D01*
X134560000Y-111000000D02*
X134560000Y-110350000D01*
X131440000Y-111000000D02*
X131440000Y-111650000D01*
X131440000Y-111000000D02*
X131440000Y-109325000D01*
X138320000Y-119470000D02*
X138320000Y-120570000D01*
X138050000Y-117970000D02*
X138050000Y-119470000D01*
X144950000Y-117970000D02*
X144950000Y-119470000D01*
X138050000Y-119470000D02*
X138320000Y-119470000D01*
X144680000Y-119470000D02*
X144680000Y-122300000D01*
X144950000Y-119470000D02*
X144680000Y-119470000D01*
X137490000Y-95859420D02*
X137490000Y-96140580D01*
X138510000Y-95859420D02*
X138510000Y-96140580D01*
X146522500Y-58762742D02*
X146522500Y-59237258D01*
X145477500Y-58762742D02*
X145477500Y-59237258D01*
X110350000Y-120100000D02*
X113650000Y-120100000D01*
X110350000Y-120100000D02*
X110350000Y-125500000D01*
X113650000Y-120100000D02*
X113650000Y-125500000D01*
X113075000Y-96650000D02*
X109925000Y-96650000D01*
X113075000Y-98350000D02*
X109925000Y-98350000D01*
X113075000Y-96650000D02*
X113075000Y-98350000D01*
X106237258Y-112977500D02*
X105762742Y-112977500D01*
X106237258Y-114022500D02*
X105762742Y-114022500D01*
X152522500Y-97237258D02*
X152522500Y-96762742D01*
X151477500Y-97237258D02*
X151477500Y-96762742D01*
X145510000Y-94859420D02*
X145510000Y-95140580D01*
X144490000Y-94859420D02*
X144490000Y-95140580D01*
X126910000Y-127711252D02*
X126910000Y-126288748D01*
X125090000Y-127711252D02*
X125090000Y-126288748D01*
X136890000Y-124361252D02*
X136890000Y-123638748D01*
X142110000Y-124361252D02*
X142110000Y-123638748D01*
X97237258Y-106522500D02*
X96762742Y-106522500D01*
X97237258Y-105477500D02*
X96762742Y-105477500D01*
X114435000Y-154420000D02*
X114435000Y-154264000D01*
X114435000Y-156736000D02*
X114435000Y-156580000D01*
X117036130Y-154420163D02*
G75*
G03*
X114954039Y-154420000I-1041130J-1079837D01*
G01*
X114954039Y-156580000D02*
G75*
G03*
X117036130Y-156579837I1040961J1080000D01*
G01*
X117667335Y-154421392D02*
G75*
G03*
X114435000Y-154264484I-1672335J-1078608D01*
G01*
X114435000Y-156735516D02*
G75*
G03*
X117667335Y-156578608I1560000J1235516D01*
G01*
X114850000Y-120100000D02*
X114850000Y-125500000D01*
X118150000Y-120100000D02*
X118150000Y-125500000D01*
X114850000Y-120100000D02*
X118150000Y-120100000D01*
X120090000Y-76288748D02*
X120090000Y-77711252D01*
X121910000Y-76288748D02*
X121910000Y-77711252D01*
X101262742Y-90022500D02*
X101737258Y-90022500D01*
X101262742Y-88977500D02*
X101737258Y-88977500D01*
X100215000Y-100500000D02*
X99565000Y-100500000D01*
X104465000Y-100550000D02*
X103815000Y-100550000D01*
X104465000Y-93500000D02*
X103815000Y-93500000D01*
X103800000Y-100550000D02*
X103800000Y-103250000D01*
X99565000Y-100500000D02*
X99565000Y-93450000D01*
X100215000Y-93450000D02*
X99565000Y-93450000D01*
X104465000Y-93500000D02*
X104465000Y-100550000D01*
X126477500Y-78237258D02*
X126477500Y-77762742D01*
X127522500Y-78237258D02*
X127522500Y-77762742D01*
X116910000Y-76288748D02*
X116910000Y-77711252D01*
X115090000Y-76288748D02*
X115090000Y-77711252D01*
X109941386Y-154968736D02*
X109831077Y-155079045D01*
X111579045Y-153331077D02*
X111468736Y-153441386D01*
X111101720Y-153074370D02*
G75*
G03*
X109629344Y-151602224I-1499746J-27604D01*
G01*
X108102224Y-153129344D02*
G75*
G03*
X109574370Y-154601720I1499750J27370D01*
G01*
X111578701Y-153331419D02*
G75*
G03*
X109182146Y-151156764I-1976727J229445D01*
G01*
X107656762Y-152682146D02*
G75*
G03*
X109831419Y-155078703I1945212J-419828D01*
G01*
X122890000Y-102610000D02*
X122890000Y-102160000D01*
X130110000Y-95390000D02*
X130110000Y-95840000D01*
X129660000Y-102610000D02*
X130110000Y-102610000D01*
X123340000Y-102610000D02*
X122890000Y-102610000D01*
X129660000Y-95390000D02*
X130110000Y-95390000D01*
X122890000Y-102160000D02*
X121600000Y-102160000D01*
X130110000Y-102610000D02*
X130110000Y-102160000D01*
X122890000Y-95390000D02*
X122890000Y-95840000D01*
X123340000Y-95390000D02*
X122890000Y-95390000D01*
X106477500Y-97262742D02*
X106477500Y-97737258D01*
X107522500Y-97262742D02*
X107522500Y-97737258D01*
X127700000Y-56930000D02*
X125950000Y-56930000D01*
X113050000Y-56930000D02*
X111300000Y-56930000D01*
X127700000Y-74070000D02*
X125950000Y-74070000D01*
X113050000Y-74070000D02*
X111300000Y-74070000D01*
X128070000Y-73700000D02*
X128070000Y-57300000D01*
X110930000Y-57300000D02*
X110930000Y-73700000D01*
X127700000Y-74070000D02*
G75*
G03*
X128070000Y-73700000I2J369998D01*
G01*
X111300000Y-56929865D02*
G75*
G03*
X110930000Y-57310000I0J-370135D01*
G01*
X128069884Y-57290752D02*
G75*
G03*
X127700000Y-56930000I-369884J-9248D01*
G01*
X110928786Y-73700000D02*
G75*
G03*
X111270000Y-74070000I371215J1D01*
G01*
X116010000Y-111359420D02*
X116010000Y-111640580D01*
X114990000Y-111359420D02*
X114990000Y-111640580D01*
X130477500Y-112262742D02*
X130477500Y-112737258D01*
X131522500Y-112262742D02*
X131522500Y-112737258D01*
X128250000Y-79937500D02*
X128250000Y-63827500D01*
X138750000Y-79937500D02*
X138750000Y-63827500D01*
X128250000Y-79937500D02*
X138750000Y-79937500D01*
X128250000Y-63827500D02*
X138750000Y-63827500D01*
X136040000Y-63827500D02*
X136040000Y-58177500D01*
X133500000Y-63827500D02*
X133500000Y-61987500D01*
X130960000Y-63827500D02*
X130960000Y-58177500D01*
X150010000Y-106359420D02*
X150010000Y-106640580D01*
X148990000Y-106359420D02*
X148990000Y-106640580D01*
X112590000Y-76288748D02*
X112590000Y-77711252D01*
X114410000Y-76288748D02*
X114410000Y-77711252D01*
X126736000Y-147565000D02*
X126580000Y-147565000D01*
X124420000Y-147565000D02*
X124264000Y-147565000D01*
X124421392Y-144332665D02*
G75*
G03*
X124264484Y-147565000I1078608J-1672335D01*
G01*
X124420163Y-144963870D02*
G75*
G03*
X124420000Y-147045961I1079837J-1041130D01*
G01*
X126580000Y-147045961D02*
G75*
G03*
X126579837Y-144963870I-1080000J1040961D01*
G01*
X126735516Y-147565000D02*
G75*
G03*
X126578608Y-144332665I-1235516J1560000D01*
G01*
X155980000Y-70390000D02*
X155980000Y-71340000D01*
X154560000Y-78610000D02*
X154560000Y-70390000D01*
X162020000Y-71340000D02*
X159000000Y-71340000D01*
X162020000Y-70390000D02*
X162020000Y-71340000D01*
X155980000Y-71340000D02*
X159000000Y-71340000D01*
X154560000Y-70390000D02*
X155980000Y-70390000D01*
X159000000Y-78610000D02*
X163440000Y-78610000D01*
X163440000Y-70390000D02*
X162020000Y-70390000D01*
X163440000Y-78610000D02*
X163440000Y-70390000D01*
X159000000Y-78610000D02*
X154560000Y-78610000D01*
X161230000Y-70700000D02*
G75*
G03*
X161230000Y-70700000I-250000J0D01*
G01*
X127590000Y-127711252D02*
X127590000Y-126288748D01*
X129410000Y-127711252D02*
X129410000Y-126288748D01*
X121129703Y-152842947D02*
X121019394Y-152732638D01*
X122767362Y-154480606D02*
X122657053Y-154370297D01*
X122767020Y-154480262D02*
G75*
G03*
X124941675Y-152083707I229445J1976727D01*
G01*
X123024069Y-154003281D02*
G75*
G03*
X124496215Y-152530905I-27604J1499746D01*
G01*
X123416293Y-150558323D02*
G75*
G03*
X121019736Y-152732980I-419828J-1945212D01*
G01*
X122969095Y-151003785D02*
G75*
G03*
X121496719Y-152475931I27370J-1499750D01*
G01*
X114022500Y-104262742D02*
X114022500Y-104737258D01*
X112977500Y-104262742D02*
X112977500Y-104737258D01*
X103477500Y-72762742D02*
X103477500Y-73237258D01*
X104522500Y-72762742D02*
X104522500Y-73237258D01*
X109185000Y-97640580D02*
X109185000Y-97359420D01*
X108165000Y-97640580D02*
X108165000Y-97359420D01*
X111490000Y-93140580D02*
X111490000Y-92859420D01*
X112510000Y-93140580D02*
X112510000Y-92859420D01*
X142800000Y-101550000D02*
X142800000Y-104250000D01*
X139215000Y-94450000D02*
X138565000Y-94450000D01*
X138565000Y-101500000D02*
X138565000Y-94450000D01*
X143465000Y-101550000D02*
X142815000Y-101550000D01*
X143465000Y-94500000D02*
X143465000Y-101550000D01*
X139215000Y-101500000D02*
X138565000Y-101500000D01*
X143465000Y-94500000D02*
X142815000Y-94500000D01*
X114435000Y-138236000D02*
X114435000Y-138080000D01*
X114435000Y-135920000D02*
X114435000Y-135764000D01*
X114954039Y-138080000D02*
G75*
G03*
X117036130Y-138079837I1040961J1080000D01*
G01*
X117667335Y-135921392D02*
G75*
G03*
X114435000Y-135764484I-1672335J-1078608D01*
G01*
X117036130Y-135920163D02*
G75*
G03*
X114954039Y-135920000I-1041130J-1079837D01*
G01*
X114435000Y-138235516D02*
G75*
G03*
X117667335Y-138078608I1560000J1235516D01*
G01*
X130010000Y-112359420D02*
X130010000Y-112640580D01*
X128990000Y-112359420D02*
X128990000Y-112640580D01*
X103477500Y-59262742D02*
X103477500Y-59737258D01*
X104522500Y-59262742D02*
X104522500Y-59737258D01*
X124410000Y-76288748D02*
X124410000Y-77711252D01*
X122590000Y-76288748D02*
X122590000Y-77711252D01*
X102630000Y-51896000D02*
X102630000Y-50380000D01*
X102630000Y-55620000D02*
X119370000Y-55620000D01*
X119370000Y-55620000D02*
X119370000Y-54104000D01*
X102630000Y-55620000D02*
X102630000Y-54104000D01*
X119370000Y-51896000D02*
X119370000Y-50380000D01*
X102630000Y-50380000D02*
X119370000Y-50380000D01*
X133560000Y-141500000D02*
X133560000Y-142150000D01*
X130440000Y-141500000D02*
X130440000Y-139825000D01*
X130440000Y-141500000D02*
X130440000Y-142150000D01*
X133560000Y-141500000D02*
X133560000Y-140850000D01*
X144522500Y-103737258D02*
X144522500Y-103262742D01*
X143477500Y-103737258D02*
X143477500Y-103262742D01*
X123140580Y-106010000D02*
X122859420Y-106010000D01*
X123140580Y-104990000D02*
X122859420Y-104990000D01*
X120359420Y-116010000D02*
X120640580Y-116010000D01*
X120359420Y-114990000D02*
X120640580Y-114990000D01*
X104800000Y-114800000D02*
X105100000Y-114500000D01*
X104600000Y-117000000D02*
X107400000Y-117000000D01*
X104800000Y-114800000D02*
X104500000Y-114500000D01*
X107400000Y-115000000D02*
X104600000Y-115000000D01*
X103950000Y-115700000D02*
X103950000Y-116300000D01*
X104500000Y-114500000D02*
X105100000Y-114500000D01*
X108050000Y-116300000D02*
X108050000Y-115700000D01*
X107350000Y-117000000D02*
G75*
G03*
X108050000Y-116300000I0J700000D01*
G01*
X103950000Y-116300000D02*
G75*
G03*
X104650000Y-117000000I699999J-1D01*
G01*
X108050000Y-115700000D02*
G75*
G03*
X107350000Y-115000000I-700000J0D01*
G01*
X104650000Y-115000000D02*
G75*
G03*
X103950000Y-115700000I-1J-699999D01*
G01*
X147030000Y-76180000D02*
X144200000Y-76180000D01*
X148530000Y-69550000D02*
X147030000Y-69550000D01*
X148530000Y-76450000D02*
X147030000Y-76450000D01*
X147030000Y-69820000D02*
X145930000Y-69820000D01*
X147030000Y-69550000D02*
X147030000Y-69820000D01*
X147030000Y-76450000D02*
X147030000Y-76180000D01*
X132237258Y-139522500D02*
X131762742Y-139522500D01*
X132237258Y-138477500D02*
X131762742Y-138477500D01*
X121550000Y-53470000D02*
X121820000Y-53470000D01*
X128450000Y-51970000D02*
X128450000Y-53470000D01*
X121550000Y-51970000D02*
X121550000Y-53470000D01*
X128180000Y-53470000D02*
X128180000Y-56300000D01*
X128450000Y-53470000D02*
X128180000Y-53470000D01*
X121820000Y-53470000D02*
X121820000Y-54570000D01*
X113490000Y-100640580D02*
X113490000Y-100359420D01*
X114510000Y-100640580D02*
X114510000Y-100359420D01*
X145477500Y-65762742D02*
X145477500Y-66237258D01*
X146522500Y-65762742D02*
X146522500Y-66237258D01*
X97237258Y-95477500D02*
X96762742Y-95477500D01*
X97237258Y-96522500D02*
X96762742Y-96522500D01*
X147060000Y-107060000D02*
X142940000Y-107060000D01*
X147060000Y-104940000D02*
X142940000Y-104940000D01*
X147060000Y-104940000D02*
X147060000Y-105240000D01*
X142940000Y-104940000D02*
X142940000Y-105240000D01*
X147060000Y-106760000D02*
X147060000Y-107060000D01*
X142940000Y-106760000D02*
X142940000Y-107060000D01*
X148315000Y-105240000D02*
X147060000Y-105240000D01*
X133237258Y-108522500D02*
X132762742Y-108522500D01*
X133237258Y-107477500D02*
X132762742Y-107477500D01*
X147030000Y-62820000D02*
X145930000Y-62820000D01*
X148530000Y-62550000D02*
X147030000Y-62550000D01*
X148530000Y-69450000D02*
X147030000Y-69450000D01*
X147030000Y-69450000D02*
X147030000Y-69180000D01*
X147030000Y-69180000D02*
X144200000Y-69180000D01*
X147030000Y-62550000D02*
X147030000Y-62820000D01*
X153850000Y-108687500D02*
X152150000Y-108687500D01*
X152150000Y-108687500D02*
X152150000Y-105537500D01*
X153850000Y-108687500D02*
X153850000Y-105537500D01*
X150477500Y-106737258D02*
X150477500Y-106262742D01*
X151522500Y-106737258D02*
X151522500Y-106262742D01*
X150977500Y-103237258D02*
X150977500Y-102762742D01*
X152022500Y-103237258D02*
X152022500Y-102762742D01*
X120262742Y-116977500D02*
X120737258Y-116977500D01*
X120262742Y-118022500D02*
X120737258Y-118022500D01*
X109275000Y-100350000D02*
X112425000Y-100350000D01*
X109275000Y-100350000D02*
X109275000Y-98650000D01*
X109275000Y-98650000D02*
X112425000Y-98650000D01*
X97237258Y-98522500D02*
X96762742Y-98522500D01*
X97237258Y-97477500D02*
X96762742Y-97477500D01*
M02*
