G04 #@! TF.GenerationSoftware,KiCad,Pcbnew,(6.0.8)*
G04 #@! TF.CreationDate,2022-11-30T08:40:48+09:00*
G04 #@! TF.ProjectId,ORION_boost_v3,4f52494f-4e5f-4626-9f6f-73745f76332e,rev?*
G04 #@! TF.SameCoordinates,Original*
G04 #@! TF.FileFunction,Soldermask,Bot*
G04 #@! TF.FilePolarity,Negative*
%FSLAX46Y46*%
G04 Gerber Fmt 4.6, Leading zero omitted, Abs format (unit mm)*
G04 Created by KiCad (PCBNEW (6.0.8)) date 2022-11-30 08:40:48*
%MOMM*%
%LPD*%
G01*
G04 APERTURE LIST*
G04 Aperture macros list*
%AMRoundRect*
0 Rectangle with rounded corners*
0 $1 Rounding radius*
0 $2 $3 $4 $5 $6 $7 $8 $9 X,Y pos of 4 corners*
0 Add a 4 corners polygon primitive as box body*
4,1,4,$2,$3,$4,$5,$6,$7,$8,$9,$2,$3,0*
0 Add four circle primitives for the rounded corners*
1,1,$1+$1,$2,$3*
1,1,$1+$1,$4,$5*
1,1,$1+$1,$6,$7*
1,1,$1+$1,$8,$9*
0 Add four rect primitives between the rounded corners*
20,1,$1+$1,$2,$3,$4,$5,0*
20,1,$1+$1,$4,$5,$6,$7,0*
20,1,$1+$1,$6,$7,$8,$9,0*
20,1,$1+$1,$8,$9,$2,$3,0*%
%AMRotRect*
0 Rectangle, with rotation*
0 The origin of the aperture is its center*
0 $1 length*
0 $2 width*
0 $3 Rotation angle, in degrees counterclockwise*
0 Add horizontal line*
21,1,$1,$2,0,0,$3*%
%AMFreePoly0*
4,1,22,0.550000,-0.750000,0.000000,-0.750000,0.000000,-0.745033,-0.079941,-0.743568,-0.215256,-0.701293,-0.333266,-0.622738,-0.424486,-0.514219,-0.481581,-0.384460,-0.499164,-0.250000,-0.500000,-0.250000,-0.500000,0.250000,-0.499164,0.250000,-0.499963,0.256109,-0.478152,0.396186,-0.417904,0.524511,-0.324060,0.630769,-0.204165,0.706417,-0.067858,0.745374,0.000000,0.744959,0.000000,0.750000,
0.550000,0.750000,0.550000,-0.750000,0.550000,-0.750000,$1*%
%AMFreePoly1*
4,1,20,0.000000,0.744959,0.073905,0.744508,0.209726,0.703889,0.328688,0.626782,0.421226,0.519385,0.479903,0.390333,0.500000,0.250000,0.500000,-0.250000,0.499851,-0.262216,0.476331,-0.402017,0.414519,-0.529596,0.319384,-0.634700,0.198574,-0.708877,0.061801,-0.746166,0.000000,-0.745033,0.000000,-0.750000,-0.550000,-0.750000,-0.550000,0.750000,0.000000,0.750000,0.000000,0.744959,
0.000000,0.744959,$1*%
G04 Aperture macros list end*
%ADD10R,0.650000X0.400000*%
%ADD11RoundRect,0.250000X-0.980000X-1.150000X0.980000X-1.150000X0.980000X1.150000X-0.980000X1.150000X0*%
%ADD12O,2.460000X2.800000*%
%ADD13R,3.800000X3.800000*%
%ADD14C,3.800000*%
%ADD15C,1.524000*%
%ADD16RoundRect,0.250000X-0.575000X0.350000X-0.575000X-0.350000X0.575000X-0.350000X0.575000X0.350000X0*%
%ADD17O,1.650000X1.200000*%
%ADD18C,1.600000*%
%ADD19R,1.700000X1.700000*%
%ADD20O,1.700000X1.700000*%
%ADD21C,5.000000*%
%ADD22RoundRect,0.500000X-0.500000X2.000000X-0.500000X-2.000000X0.500000X-2.000000X0.500000X2.000000X0*%
%ADD23R,2.000000X2.000000*%
%ADD24C,2.000000*%
%ADD25RoundRect,0.250000X0.980000X1.150000X-0.980000X1.150000X-0.980000X-1.150000X0.980000X-1.150000X0*%
%ADD26RoundRect,0.225000X0.575000X-0.225000X0.575000X0.225000X-0.575000X0.225000X-0.575000X-0.225000X0*%
%ADD27RoundRect,0.250000X0.625000X-0.350000X0.625000X0.350000X-0.625000X0.350000X-0.625000X-0.350000X0*%
%ADD28O,1.750000X1.200000*%
%ADD29RoundRect,0.218750X-0.256250X0.218750X-0.256250X-0.218750X0.256250X-0.218750X0.256250X0.218750X0*%
%ADD30RoundRect,0.200000X0.200000X0.275000X-0.200000X0.275000X-0.200000X-0.275000X0.200000X-0.275000X0*%
%ADD31RotRect,1.800000X1.800000X45.000000*%
%ADD32C,1.800000*%
%ADD33RoundRect,0.250000X-0.650000X0.325000X-0.650000X-0.325000X0.650000X-0.325000X0.650000X0.325000X0*%
%ADD34RoundRect,0.200000X-0.200000X-0.275000X0.200000X-0.275000X0.200000X0.275000X-0.200000X0.275000X0*%
%ADD35RoundRect,0.250000X0.650000X-0.325000X0.650000X0.325000X-0.650000X0.325000X-0.650000X-0.325000X0*%
%ADD36R,1.200000X2.200000*%
%ADD37R,5.800000X6.400000*%
%ADD38R,1.200000X1.200000*%
%ADD39R,1.200000X1.000000*%
%ADD40FreePoly0,0.000000*%
%ADD41R,1.000000X1.500000*%
%ADD42FreePoly1,0.000000*%
%ADD43RoundRect,0.200000X-0.275000X0.200000X-0.275000X-0.200000X0.275000X-0.200000X0.275000X0.200000X0*%
%ADD44RoundRect,0.225000X-0.250000X0.225000X-0.250000X-0.225000X0.250000X-0.225000X0.250000X0.225000X0*%
%ADD45RoundRect,0.200000X0.275000X-0.200000X0.275000X0.200000X-0.275000X0.200000X-0.275000X-0.200000X0*%
%ADD46RoundRect,0.237500X-0.237500X0.250000X-0.237500X-0.250000X0.237500X-0.250000X0.237500X0.250000X0*%
%ADD47RoundRect,0.150000X0.150000X-0.512500X0.150000X0.512500X-0.150000X0.512500X-0.150000X-0.512500X0*%
%ADD48RoundRect,0.250000X-0.625000X0.312500X-0.625000X-0.312500X0.625000X-0.312500X0.625000X0.312500X0*%
%ADD49R,1.800000X1.800000*%
%ADD50RoundRect,0.218750X0.256250X-0.218750X0.256250X0.218750X-0.256250X0.218750X-0.256250X-0.218750X0*%
%ADD51RoundRect,0.225000X-0.225000X-0.250000X0.225000X-0.250000X0.225000X0.250000X-0.225000X0.250000X0*%
%ADD52RoundRect,0.237500X0.250000X0.237500X-0.250000X0.237500X-0.250000X-0.237500X0.250000X-0.237500X0*%
%ADD53RoundRect,0.225000X0.250000X-0.225000X0.250000X0.225000X-0.250000X0.225000X-0.250000X-0.225000X0*%
%ADD54RoundRect,0.075000X-0.415425X-0.521491X0.521491X0.415425X0.415425X0.521491X-0.521491X-0.415425X0*%
%ADD55RoundRect,0.075000X0.415425X-0.521491X0.521491X-0.415425X-0.415425X0.521491X-0.521491X0.415425X0*%
%ADD56RoundRect,0.225000X0.225000X0.250000X-0.225000X0.250000X-0.225000X-0.250000X0.225000X-0.250000X0*%
%ADD57RotRect,0.400000X1.900000X315.000000*%
%ADD58RoundRect,0.218750X-0.218750X-0.256250X0.218750X-0.256250X0.218750X0.256250X-0.218750X0.256250X0*%
%ADD59R,0.800000X1.200000*%
%ADD60RoundRect,0.250000X-1.075000X0.312500X-1.075000X-0.312500X1.075000X-0.312500X1.075000X0.312500X0*%
%ADD61RoundRect,0.237500X0.287500X0.237500X-0.287500X0.237500X-0.287500X-0.237500X0.287500X-0.237500X0*%
%ADD62R,1.905000X2.000000*%
%ADD63O,1.905000X2.000000*%
%ADD64R,1.000000X1.000000*%
%ADD65RoundRect,0.150000X-0.150000X0.587500X-0.150000X-0.587500X0.150000X-0.587500X0.150000X0.587500X0*%
%ADD66R,1.000000X0.900000*%
%ADD67RoundRect,0.250000X0.325000X0.650000X-0.325000X0.650000X-0.325000X-0.650000X0.325000X-0.650000X0*%
%ADD68C,2.200000*%
%ADD69R,3.150000X12.500000*%
%ADD70RotRect,1.800000X1.800000X135.000000*%
%ADD71RoundRect,0.250000X2.350000X-0.325000X2.350000X0.325000X-2.350000X0.325000X-2.350000X-0.325000X0*%
%ADD72RoundRect,0.237500X0.237500X-0.250000X0.237500X0.250000X-0.237500X0.250000X-0.237500X-0.250000X0*%
%ADD73FreePoly0,180.000000*%
%ADD74FreePoly1,180.000000*%
%ADD75RoundRect,0.150000X-0.150000X0.825000X-0.150000X-0.825000X0.150000X-0.825000X0.150000X0.825000X0*%
%ADD76R,1.300000X1.700000*%
%ADD77RoundRect,0.150000X0.150000X-0.587500X0.150000X0.587500X-0.150000X0.587500X-0.150000X-0.587500X0*%
G04 APERTURE END LIST*
D10*
X143450000Y-110350000D03*
X143450000Y-111000000D03*
X143450000Y-111650000D03*
X141550000Y-111650000D03*
X141550000Y-111000000D03*
X141550000Y-110350000D03*
D11*
X158520000Y-74950000D03*
D12*
X162480000Y-74950000D03*
D13*
X88000000Y-88000000D03*
D14*
X93000000Y-88000000D03*
D15*
X121540000Y-130951000D03*
X119000000Y-130951000D03*
X116460000Y-130951000D03*
D16*
X108000000Y-123000000D03*
D17*
X106000000Y-123000000D03*
X108000000Y-125000000D03*
X106000000Y-125000000D03*
X108000000Y-127000000D03*
X106000000Y-127000000D03*
X108000000Y-129000000D03*
X106000000Y-129000000D03*
D18*
X133500000Y-131500000D03*
X138500000Y-131500000D03*
D19*
X137500000Y-157500000D03*
D20*
X137500000Y-154960000D03*
X137500000Y-152420000D03*
X137500000Y-149880000D03*
X137500000Y-147340000D03*
X137500000Y-144800000D03*
X137500000Y-142260000D03*
X137500000Y-139720000D03*
X137500000Y-137180000D03*
X137500000Y-134640000D03*
D21*
X142500000Y-149000000D03*
D13*
X162000000Y-92500000D03*
D14*
X157000000Y-92500000D03*
D22*
X142500000Y-135750000D03*
X142500000Y-143250000D03*
D21*
X135500000Y-125000000D03*
D23*
X157132323Y-84500000D03*
D24*
X162132323Y-84500000D03*
D25*
X91480000Y-75050000D03*
D12*
X87520000Y-75050000D03*
D23*
X93000000Y-96000000D03*
D24*
X88000000Y-96000000D03*
D26*
X154050000Y-104500000D03*
X154050000Y-103000000D03*
X154050000Y-101500000D03*
X154050000Y-100000000D03*
X154050000Y-98500000D03*
X154050000Y-97000000D03*
D15*
X116460000Y-129049000D03*
X119000000Y-129049000D03*
X121540000Y-129049000D03*
D27*
X111950000Y-130000000D03*
D28*
X111950000Y-128000000D03*
D29*
X111100000Y-92712500D03*
X111100000Y-94287500D03*
D30*
X128825000Y-115500000D03*
X127175000Y-115500000D03*
D31*
X108598439Y-140401561D03*
D32*
X110394490Y-138605510D03*
D33*
X109000000Y-69525000D03*
X109000000Y-72475000D03*
D25*
X91480000Y-68950000D03*
D12*
X87520000Y-68950000D03*
D34*
X141175000Y-82500000D03*
X142825000Y-82500000D03*
D35*
X128000000Y-87450000D03*
X128000000Y-84500000D03*
D36*
X154780000Y-74700000D03*
D37*
X152500000Y-68400000D03*
D38*
X150220000Y-75200000D03*
D39*
X150220000Y-74106800D03*
D40*
X114400000Y-115000000D03*
D41*
X115700000Y-115000000D03*
D42*
X117000000Y-115000000D03*
D43*
X115500000Y-82850000D03*
X115500000Y-84500000D03*
D44*
X145500000Y-110725000D03*
X145500000Y-112275000D03*
D45*
X131500000Y-93325000D03*
X131500000Y-91675000D03*
D46*
X143500000Y-97087500D03*
X143500000Y-98912500D03*
D47*
X110450000Y-101137500D03*
X109500000Y-101137500D03*
X108550000Y-101137500D03*
X108550000Y-98862500D03*
X110450000Y-98862500D03*
D48*
X107000000Y-59537500D03*
X107000000Y-62462500D03*
D43*
X114000000Y-82850000D03*
X114000000Y-84500000D03*
X114510000Y-96175000D03*
X114510000Y-97825000D03*
D49*
X106500000Y-147775000D03*
D32*
X106500000Y-145235000D03*
D35*
X126000000Y-131975000D03*
X126000000Y-129025000D03*
D44*
X139000000Y-94725000D03*
X139000000Y-96275000D03*
D43*
X146000000Y-85675000D03*
X146000000Y-87325000D03*
D35*
X130000000Y-131975000D03*
X130000000Y-129025000D03*
D50*
X112500000Y-97787500D03*
X112500000Y-96212500D03*
D45*
X107000000Y-100325000D03*
X107000000Y-98675000D03*
D44*
X130000000Y-91725000D03*
X130000000Y-93275000D03*
X139000000Y-88225000D03*
X139000000Y-89775000D03*
D30*
X125325000Y-113500000D03*
X123675000Y-113500000D03*
D51*
X127725000Y-95000000D03*
X129275000Y-95000000D03*
D52*
X128412500Y-117500000D03*
X126587500Y-117500000D03*
D36*
X99280000Y-74700000D03*
D37*
X97000000Y-68400000D03*
D38*
X94720000Y-75200000D03*
D39*
X94720000Y-74106800D03*
D30*
X134825000Y-115000000D03*
X133175000Y-115000000D03*
D31*
X122098439Y-153401561D03*
D32*
X123894490Y-151605510D03*
D43*
X112500000Y-82850000D03*
X112500000Y-84500000D03*
X116000000Y-99675000D03*
X116000000Y-101325000D03*
D51*
X123725000Y-115500000D03*
X125275000Y-115500000D03*
D53*
X139500000Y-86275000D03*
X139500000Y-84725000D03*
D54*
X129606212Y-106387876D03*
X129252658Y-106034322D03*
X128899105Y-105680769D03*
X128545551Y-105327215D03*
X128191998Y-104973662D03*
X127838445Y-104620109D03*
X127484891Y-104266555D03*
X127131338Y-103913002D03*
X126777785Y-103559449D03*
X126424231Y-103205895D03*
X126070678Y-102852342D03*
X125717124Y-102498788D03*
D55*
X125717124Y-100501212D03*
X126070678Y-100147658D03*
X126424231Y-99794105D03*
X126777785Y-99440551D03*
X127131338Y-99086998D03*
X127484891Y-98733445D03*
X127838445Y-98379891D03*
X128191998Y-98026338D03*
X128545551Y-97672785D03*
X128899105Y-97319231D03*
X129252658Y-96965678D03*
X129606212Y-96612124D03*
D54*
X131603788Y-96612124D03*
X131957342Y-96965678D03*
X132310895Y-97319231D03*
X132664449Y-97672785D03*
X133018002Y-98026338D03*
X133371555Y-98379891D03*
X133725109Y-98733445D03*
X134078662Y-99086998D03*
X134432215Y-99440551D03*
X134785769Y-99794105D03*
X135139322Y-100147658D03*
X135492876Y-100501212D03*
D55*
X135492876Y-102498788D03*
X135139322Y-102852342D03*
X134785769Y-103205895D03*
X134432215Y-103559449D03*
X134078662Y-103913002D03*
X133725109Y-104266555D03*
X133371555Y-104620109D03*
X133018002Y-104973662D03*
X132664449Y-105327215D03*
X132310895Y-105680769D03*
X131957342Y-106034322D03*
X131603788Y-106387876D03*
D56*
X130705000Y-108000000D03*
X129155000Y-108000000D03*
D57*
X123756472Y-107651472D03*
X124605000Y-108500000D03*
X125453528Y-109348528D03*
D47*
X134450000Y-148637500D03*
X133500000Y-148637500D03*
X132550000Y-148637500D03*
X132550000Y-146362500D03*
X134450000Y-146362500D03*
D58*
X150212500Y-103000000D03*
X151787500Y-103000000D03*
D35*
X140500000Y-104475000D03*
X140500000Y-101525000D03*
D59*
X105270000Y-101650000D03*
X102730000Y-101650000D03*
X102730000Y-95350000D03*
X104000000Y-95350000D03*
X105270000Y-95350000D03*
D43*
X114500000Y-99675000D03*
X114500000Y-101325000D03*
D60*
X130000000Y-143037500D03*
X130000000Y-145962500D03*
D53*
X118125000Y-92775000D03*
X118125000Y-91225000D03*
D30*
X134325000Y-144500000D03*
X132675000Y-144500000D03*
D35*
X144000000Y-105500000D03*
X144000000Y-102550000D03*
D30*
X105325000Y-90500000D03*
X103675000Y-90500000D03*
D61*
X140375000Y-114000000D03*
X138625000Y-114000000D03*
D44*
X133000000Y-91725000D03*
X133000000Y-93275000D03*
D62*
X146540000Y-73310000D03*
D63*
X144000000Y-69500000D03*
D62*
X141460000Y-73310000D03*
D64*
X142882400Y-72802000D03*
D65*
X135550000Y-111562500D03*
X137450000Y-111562500D03*
X136500000Y-113437500D03*
D49*
X114725000Y-137000000D03*
D32*
X117265000Y-137000000D03*
D45*
X128500000Y-93325000D03*
X128500000Y-91675000D03*
D34*
X119605000Y-108000000D03*
X121255000Y-108000000D03*
D56*
X139775000Y-106500000D03*
X138225000Y-106500000D03*
X133705000Y-108000000D03*
X132155000Y-108000000D03*
D43*
X115980000Y-96185000D03*
X115980000Y-97835000D03*
D46*
X109100000Y-92500000D03*
X109100000Y-94325000D03*
D44*
X106500000Y-90225000D03*
X106500000Y-91775000D03*
X124500000Y-91225000D03*
X124500000Y-92775000D03*
D46*
X111000000Y-107087500D03*
X111000000Y-108912500D03*
D59*
X148770000Y-96650000D03*
X146230000Y-96650000D03*
X146230000Y-90350000D03*
X147500000Y-90350000D03*
X148770000Y-90350000D03*
D66*
X119300000Y-79950000D03*
X119300000Y-84050000D03*
X117700000Y-79950000D03*
X117700000Y-84050000D03*
D49*
X125500000Y-147275000D03*
D32*
X125500000Y-144735000D03*
D35*
X128000000Y-131975000D03*
X128000000Y-129025000D03*
D30*
X146325000Y-77000000D03*
X144675000Y-77000000D03*
D29*
X115500000Y-79887500D03*
X115500000Y-81462500D03*
D67*
X91975000Y-94000000D03*
X89025000Y-94000000D03*
D68*
X111000000Y-51000000D03*
X111000000Y-66000000D03*
D25*
X162480000Y-68950000D03*
D12*
X158520000Y-68950000D03*
D43*
X120125000Y-91175000D03*
X120125000Y-92825000D03*
D69*
X114825000Y-65500000D03*
X130175000Y-65500000D03*
D53*
X121430000Y-106275000D03*
X121430000Y-104725000D03*
D29*
X114000000Y-79887500D03*
X114000000Y-81462500D03*
D70*
X123401561Y-140401561D03*
D32*
X121605510Y-138605510D03*
D36*
X144780000Y-128700000D03*
D37*
X142500000Y-122400000D03*
D36*
X140220000Y-128700000D03*
D58*
X108712500Y-97000000D03*
X110287500Y-97000000D03*
D53*
X112500000Y-101775000D03*
X112500000Y-100225000D03*
D37*
X135000000Y-54400000D03*
D36*
X137280000Y-60700000D03*
X132720000Y-60700000D03*
D43*
X114500000Y-92675000D03*
X114500000Y-94325000D03*
D71*
X143000000Y-133125000D03*
X143000000Y-130875000D03*
D44*
X105500000Y-92225000D03*
X105500000Y-93775000D03*
D33*
X106500000Y-69525000D03*
X106500000Y-72475000D03*
D59*
X143270000Y-95150000D03*
X140730000Y-95150000D03*
X140730000Y-88850000D03*
X142000000Y-88850000D03*
X143270000Y-88850000D03*
D58*
X127212500Y-113500000D03*
X128787500Y-113500000D03*
D72*
X136000000Y-132412500D03*
X136000000Y-130587500D03*
D53*
X142000000Y-86775000D03*
X142000000Y-85225000D03*
D33*
X104000000Y-69525000D03*
X104000000Y-72475000D03*
D35*
X124000000Y-131975000D03*
X124000000Y-129025000D03*
D45*
X103500000Y-93825000D03*
X103500000Y-92175000D03*
D44*
X133500000Y-150225000D03*
X133500000Y-151775000D03*
D73*
X121800000Y-115000000D03*
D41*
X120500000Y-115000000D03*
D74*
X119200000Y-115000000D03*
D70*
X110401561Y-153901561D03*
D32*
X108605510Y-152105510D03*
D67*
X91975000Y-91500000D03*
X89025000Y-91500000D03*
D66*
X122800000Y-79950000D03*
X122800000Y-84050000D03*
X121200000Y-84050000D03*
X121200000Y-79950000D03*
D45*
X144500000Y-115325000D03*
X144500000Y-113675000D03*
D34*
X133175000Y-113000000D03*
X134825000Y-113000000D03*
D75*
X112595000Y-105525000D03*
X113865000Y-105525000D03*
X115135000Y-105525000D03*
X116405000Y-105525000D03*
X116405000Y-110475000D03*
X115135000Y-110475000D03*
X113865000Y-110475000D03*
X112595000Y-110475000D03*
D76*
X126750000Y-126500000D03*
X130250000Y-126500000D03*
D45*
X147500000Y-88825000D03*
X147500000Y-87175000D03*
D43*
X150500000Y-98175000D03*
X150500000Y-99825000D03*
D30*
X115325000Y-112500000D03*
X113675000Y-112500000D03*
D77*
X134450000Y-141937500D03*
X132550000Y-141937500D03*
X133500000Y-140062500D03*
D49*
X114725000Y-155500000D03*
D32*
X117265000Y-155500000D03*
D45*
X122787142Y-92825000D03*
X122787142Y-91175000D03*
D33*
X111500000Y-69525000D03*
X111500000Y-72475000D03*
G36*
X140015931Y-74520002D02*
G01*
X140036905Y-74536905D01*
X156410905Y-90910905D01*
X156444931Y-90973217D01*
X156439866Y-91044032D01*
X156410905Y-91089095D01*
X155589095Y-91910905D01*
X155526783Y-91944931D01*
X155455968Y-91939866D01*
X155410905Y-91910905D01*
X139512812Y-76012812D01*
X139489350Y-76000000D01*
X107018115Y-76000000D01*
X106992470Y-76007530D01*
X95512812Y-87487188D01*
X95500000Y-87510650D01*
X95500000Y-98981885D01*
X95507530Y-99007530D01*
X116487188Y-119987188D01*
X116510650Y-120000000D01*
X139874000Y-120000000D01*
X139942121Y-120020002D01*
X139988614Y-120073658D01*
X140000000Y-120126000D01*
X140000000Y-121374000D01*
X139979998Y-121442121D01*
X139926342Y-121488614D01*
X139874000Y-121500000D01*
X116052190Y-121500000D01*
X115984069Y-121479998D01*
X115963095Y-121463095D01*
X94036905Y-99536905D01*
X94002879Y-99474593D01*
X94000000Y-99447810D01*
X94000000Y-87052190D01*
X94020002Y-86984069D01*
X94036905Y-86963095D01*
X106463095Y-74536905D01*
X106525407Y-74502879D01*
X106552190Y-74500000D01*
X139947810Y-74500000D01*
X140015931Y-74520002D01*
G37*
G36*
X94544032Y-75060134D02*
G01*
X94589095Y-75089095D01*
X95410905Y-75910905D01*
X95444931Y-75973217D01*
X95439866Y-76044032D01*
X95410905Y-76089095D01*
X86512812Y-84987188D01*
X86500000Y-85010650D01*
X86500000Y-96481885D01*
X86507530Y-96507530D01*
X112487188Y-122487188D01*
X112510650Y-122500000D01*
X135374000Y-122500000D01*
X135442121Y-122520002D01*
X135488614Y-122573658D01*
X135500000Y-122626000D01*
X135500000Y-123874000D01*
X135479998Y-123942121D01*
X135426342Y-123988614D01*
X135374000Y-124000000D01*
X112052190Y-124000000D01*
X111984069Y-123979998D01*
X111963095Y-123963095D01*
X85036905Y-97036905D01*
X85002879Y-96974593D01*
X85000000Y-96947810D01*
X85000000Y-84552190D01*
X85020002Y-84484069D01*
X85036905Y-84463095D01*
X94410905Y-75089095D01*
X94473217Y-75055069D01*
X94544032Y-75060134D01*
G37*
G36*
X156044032Y-75560134D02*
G01*
X156089095Y-75589095D01*
X160963095Y-80463095D01*
X160997121Y-80525407D01*
X161000000Y-80552190D01*
X161000000Y-90374000D01*
X160979998Y-90442121D01*
X160926342Y-90488614D01*
X160874000Y-90500000D01*
X159626000Y-90500000D01*
X159557879Y-90479998D01*
X159511386Y-90426342D01*
X159500000Y-90374000D01*
X159500000Y-81018115D01*
X159492470Y-80992470D01*
X155089095Y-76589095D01*
X155055069Y-76526783D01*
X155060134Y-76455968D01*
X155089095Y-76410905D01*
X155910905Y-75589095D01*
X155973217Y-75555069D01*
X156044032Y-75560134D01*
G37*
G36*
X147026121Y-53020002D02*
G01*
X147033600Y-53025200D01*
X162949600Y-64962200D01*
X162992095Y-65019074D01*
X163000000Y-65063000D01*
X163000000Y-65374000D01*
X162979998Y-65442121D01*
X162926342Y-65488614D01*
X162874000Y-65500000D01*
X161542385Y-65500000D01*
X161474264Y-65479998D01*
X161466232Y-65474383D01*
X147014431Y-54510948D01*
X146985643Y-54500000D01*
X103518115Y-54500000D01*
X103487903Y-54508871D01*
X88533263Y-65475607D01*
X88466501Y-65499761D01*
X88458751Y-65500000D01*
X87126000Y-65500000D01*
X87057879Y-65479998D01*
X87011386Y-65426342D01*
X87000000Y-65374000D01*
X87000000Y-65063000D01*
X87020002Y-64994879D01*
X87050400Y-64962200D01*
X102966400Y-53025200D01*
X103032898Y-53000329D01*
X103042000Y-53000000D01*
X146958000Y-53000000D01*
X147026121Y-53020002D01*
G37*
M02*
