G04 #@! TF.GenerationSoftware,KiCad,Pcbnew,(6.0.8)*
G04 #@! TF.CreationDate,2022-11-30T08:40:48+09:00*
G04 #@! TF.ProjectId,ORION_boost_v3,4f52494f-4e5f-4626-9f6f-73745f76332e,rev?*
G04 #@! TF.SameCoordinates,Original*
G04 #@! TF.FileFunction,Soldermask,Top*
G04 #@! TF.FilePolarity,Negative*
%FSLAX46Y46*%
G04 Gerber Fmt 4.6, Leading zero omitted, Abs format (unit mm)*
G04 Created by KiCad (PCBNEW (6.0.8)) date 2022-11-30 08:40:48*
%MOMM*%
%LPD*%
G01*
G04 APERTURE LIST*
G04 Aperture macros list*
%AMRoundRect*
0 Rectangle with rounded corners*
0 $1 Rounding radius*
0 $2 $3 $4 $5 $6 $7 $8 $9 X,Y pos of 4 corners*
0 Add a 4 corners polygon primitive as box body*
4,1,4,$2,$3,$4,$5,$6,$7,$8,$9,$2,$3,0*
0 Add four circle primitives for the rounded corners*
1,1,$1+$1,$2,$3*
1,1,$1+$1,$4,$5*
1,1,$1+$1,$6,$7*
1,1,$1+$1,$8,$9*
0 Add four rect primitives between the rounded corners*
20,1,$1+$1,$2,$3,$4,$5,0*
20,1,$1+$1,$4,$5,$6,$7,0*
20,1,$1+$1,$6,$7,$8,$9,0*
20,1,$1+$1,$8,$9,$2,$3,0*%
%AMRotRect*
0 Rectangle, with rotation*
0 The origin of the aperture is its center*
0 $1 length*
0 $2 width*
0 $3 Rotation angle, in degrees counterclockwise*
0 Add horizontal line*
21,1,$1,$2,0,0,$3*%
G04 Aperture macros list end*
%ADD10RoundRect,0.250000X-0.980000X-1.150000X0.980000X-1.150000X0.980000X1.150000X-0.980000X1.150000X0*%
%ADD11O,2.460000X2.800000*%
%ADD12R,3.800000X3.800000*%
%ADD13C,3.800000*%
%ADD14C,1.524000*%
%ADD15RoundRect,0.250000X-0.575000X0.350000X-0.575000X-0.350000X0.575000X-0.350000X0.575000X0.350000X0*%
%ADD16O,1.650000X1.200000*%
%ADD17R,5.800000X6.400000*%
%ADD18R,1.200000X2.200000*%
%ADD19RoundRect,0.200000X-0.275000X0.200000X-0.275000X-0.200000X0.275000X-0.200000X0.275000X0.200000X0*%
%ADD20C,1.600000*%
%ADD21R,1.700000X1.700000*%
%ADD22O,1.700000X1.700000*%
%ADD23RoundRect,0.250000X1.075000X-0.375000X1.075000X0.375000X-1.075000X0.375000X-1.075000X-0.375000X0*%
%ADD24C,5.000000*%
%ADD25RoundRect,0.218750X0.218750X0.256250X-0.218750X0.256250X-0.218750X-0.256250X0.218750X-0.256250X0*%
%ADD26RoundRect,0.218750X-0.218750X-0.256250X0.218750X-0.256250X0.218750X0.256250X-0.218750X0.256250X0*%
%ADD27RoundRect,0.500000X-0.500000X2.000000X-0.500000X-2.000000X0.500000X-2.000000X0.500000X2.000000X0*%
%ADD28R,2.000000X2.000000*%
%ADD29C,2.000000*%
%ADD30RoundRect,0.250000X0.980000X1.150000X-0.980000X1.150000X-0.980000X-1.150000X0.980000X-1.150000X0*%
%ADD31RoundRect,0.225000X0.575000X-0.225000X0.575000X0.225000X-0.575000X0.225000X-0.575000X-0.225000X0*%
%ADD32RoundRect,0.250000X0.625000X-0.350000X0.625000X0.350000X-0.625000X0.350000X-0.625000X-0.350000X0*%
%ADD33O,1.750000X1.200000*%
%ADD34R,0.900000X1.000000*%
%ADD35RotRect,1.800000X1.800000X45.000000*%
%ADD36C,1.800000*%
%ADD37R,1.800000X1.800000*%
%ADD38R,1.905000X2.000000*%
%ADD39O,1.905000X2.000000*%
%ADD40R,1.000000X1.000000*%
%ADD41C,2.200000*%
%ADD42RotRect,1.800000X1.800000X135.000000*%
G04 APERTURE END LIST*
D10*
X158520000Y-74950000D03*
D11*
X162480000Y-74950000D03*
D12*
X88000000Y-88000000D03*
D13*
X93000000Y-88000000D03*
D14*
X121540000Y-130951000D03*
X119000000Y-130951000D03*
X116460000Y-130951000D03*
D15*
X108000000Y-123000000D03*
D16*
X106000000Y-123000000D03*
X108000000Y-125000000D03*
X106000000Y-125000000D03*
X108000000Y-127000000D03*
X106000000Y-127000000D03*
X108000000Y-129000000D03*
X106000000Y-129000000D03*
D17*
X153000000Y-59900000D03*
D18*
X155280000Y-66200000D03*
X150720000Y-66200000D03*
D19*
X143000000Y-125675000D03*
X143000000Y-127325000D03*
X143000000Y-128675000D03*
X143000000Y-130325000D03*
D20*
X133500000Y-131500000D03*
X138500000Y-131500000D03*
D21*
X137500000Y-157500000D03*
D22*
X137500000Y-154960000D03*
X137500000Y-152420000D03*
X137500000Y-149880000D03*
X137500000Y-147340000D03*
X137500000Y-144800000D03*
X137500000Y-142260000D03*
X137500000Y-139720000D03*
X137500000Y-137180000D03*
X137500000Y-134640000D03*
D23*
X140500000Y-127900000D03*
X140500000Y-125100000D03*
D24*
X142500000Y-149000000D03*
D25*
X137787500Y-129000000D03*
X136212500Y-129000000D03*
D12*
X162000000Y-92500000D03*
D13*
X157000000Y-92500000D03*
D26*
X157212500Y-99500000D03*
X158787500Y-99500000D03*
D27*
X142500000Y-135750000D03*
X142500000Y-143250000D03*
D26*
X132712500Y-129000000D03*
X134287500Y-129000000D03*
D24*
X135500000Y-125000000D03*
D28*
X157132323Y-84500000D03*
D29*
X162132323Y-84500000D03*
D30*
X91480000Y-75050000D03*
D11*
X87520000Y-75050000D03*
D28*
X93000000Y-96000000D03*
D29*
X88000000Y-96000000D03*
D17*
X97000000Y-59900000D03*
D18*
X99280000Y-66200000D03*
X94720000Y-66200000D03*
D31*
X154050000Y-104500000D03*
X154050000Y-103000000D03*
X154050000Y-101500000D03*
X154050000Y-100000000D03*
X154050000Y-98500000D03*
X154050000Y-97000000D03*
D14*
X116460000Y-129049000D03*
X119000000Y-129049000D03*
X121540000Y-129049000D03*
D32*
X111950000Y-130000000D03*
D33*
X111950000Y-128000000D03*
D34*
X163550000Y-96200000D03*
X159450000Y-96200000D03*
X163550000Y-97800000D03*
X159450000Y-97800000D03*
D35*
X108598439Y-140401561D03*
D36*
X110394490Y-138605510D03*
D30*
X91480000Y-68950000D03*
D11*
X87520000Y-68950000D03*
D37*
X106500000Y-147775000D03*
D36*
X106500000Y-145235000D03*
D35*
X122098439Y-153401561D03*
D36*
X123894490Y-151605510D03*
D38*
X146540000Y-73310000D03*
D39*
X144000000Y-69500000D03*
D38*
X141460000Y-73310000D03*
D40*
X142882400Y-72802000D03*
D37*
X114725000Y-137000000D03*
D36*
X117265000Y-137000000D03*
D37*
X125500000Y-147275000D03*
D36*
X125500000Y-144735000D03*
D41*
X111000000Y-51000000D03*
X111000000Y-66000000D03*
D30*
X162480000Y-68950000D03*
D11*
X158520000Y-68950000D03*
D42*
X123401561Y-140401561D03*
D36*
X121605510Y-138605510D03*
D42*
X110401561Y-153901561D03*
D36*
X108605510Y-152105510D03*
D37*
X114725000Y-155500000D03*
D36*
X117265000Y-155500000D03*
G36*
X155942121Y-74520002D02*
G01*
X155988614Y-74573658D01*
X156000000Y-74626000D01*
X156000000Y-75874000D01*
X155979998Y-75942121D01*
X155926342Y-75988614D01*
X155874000Y-76000000D01*
X94126000Y-76000000D01*
X94057879Y-75979998D01*
X94011386Y-75926342D01*
X94000000Y-75874000D01*
X94000000Y-74626000D01*
X94020002Y-74557879D01*
X94073658Y-74511386D01*
X94126000Y-74500000D01*
X155874000Y-74500000D01*
X155942121Y-74520002D01*
G37*
M02*
