M48
; DRILL file {KiCad (6.0.8)} date Wed Nov 30 08:36:59 2022
; FORMAT={-:-/ absolute / inch / decimal}
; #@! TF.CreationDate,2022-11-30T08:36:59+09:00
; #@! TF.GenerationSoftware,Kicad,Pcbnew,(6.0.8)
; #@! TF.FileFunction,Plated,1,4,PTH
FMAT,2
INCH
; #@! TA.AperFunction,Plated,PTH,ViaDrill
T1C0.0236
; #@! TA.AperFunction,Plated,PTH,ComponentDrill
T2C0.0276
; #@! TA.AperFunction,Plated,PTH,ComponentDrill
T3C0.0295
; #@! TA.AperFunction,Plated,PTH,ComponentDrill
T4C0.0315
; #@! TA.AperFunction,Plated,PTH,ComponentDrill
T5C0.0335
; #@! TA.AperFunction,Plated,PTH,ComponentDrill
T6C0.0354
; #@! TA.AperFunction,Plated,PTH,ComponentDrill
T7C0.0394
; #@! TA.AperFunction,Plated,PTH,ComponentDrill
T8C0.0433
; #@! TA.AperFunction,Plated,PTH,ComponentDrill
T9C0.0472
; #@! TA.AperFunction,Plated,PTH,ComponentDrill
T10C0.0709
; #@! TA.AperFunction,Plated,PTH,ViaDrill
T11C0.0866
; #@! TA.AperFunction,Plated,PTH,ComponentDrill
T12C0.1063
; #@! TA.AperFunction,Plated,PTH,ViaDrill
T13C0.1260
; #@! TA.AperFunction,Plated,PTH,ComponentDrill
T14C0.1575
%
G90
G05
T1
X3.7795Y-2.9134
X3.8464Y-2.9134
X4.0748Y-2.6772
X4.0748Y-2.7953
X4.1142Y-2.6772
X4.1142Y-2.7953
X4.1535Y-2.6772
X4.1535Y-2.7953
X4.1929Y-2.6772
X4.1929Y-2.7953
X4.2323Y-2.6772
X4.2323Y-2.7953
X4.2717Y-2.6772
X4.2717Y-2.7953
X4.311Y-2.6772
X4.311Y-2.7953
X4.3504Y-2.6772
X4.3504Y-2.7953
X4.3898Y-2.6772
X4.3898Y-2.7953
X4.4094Y-2.3819
X4.4094Y-2.4213
X4.4094Y-2.4606
X4.4094Y-2.5
X4.4094Y-2.5394
X4.4291Y-2.6772
X4.4882Y-2.8543
X4.5472Y-2.8543
X4.6063Y-2.8543
X4.6654Y-2.8543
X4.7244Y-2.8543
X4.7835Y-2.8543
X4.8425Y-2.8543
X4.9016Y-2.8543
X5.0197Y-2.3622
X5.0197Y-2.4213
X5.0197Y-2.4803
X5.0197Y-2.5394
X5.0197Y-2.5984
X5.0197Y-2.6575
X5.0197Y-2.7165
X5.2165Y-2.7559
X5.2756Y-2.7559
X5.3346Y-2.7559
X5.3937Y-2.7559
X5.4528Y-2.7559
X5.4921Y-2.4606
X5.5118Y-2.7559
X5.5512Y-3.189
X5.5709Y-2.4803
X5.5709Y-2.7559
X5.5955Y-3.2101
X5.6299Y-2.5197
X5.6496Y-2.874
X5.6693Y-3.2874
X5.689Y-2.5394
X5.689Y-2.5984
X5.689Y-2.6575
X5.6968Y-2.874
X5.8465Y-3.4646
X5.9646Y-2.9134
X6.0236Y-2.9134
T2
X6.065Y-3.8189
X6.065Y-3.878
X6.065Y-3.937
X6.065Y-3.9961
X6.065Y-4.0551
X6.065Y-4.1142
T3
X4.4075Y-5.0394
X4.4075Y-5.1181
T4
X5.2559Y-5.1772
X5.4528Y-5.1772
T5
X4.1732Y-4.8425
X4.1732Y-4.9213
X4.1732Y-5.0
X4.1732Y-5.0787
X4.252Y-4.8425
X4.252Y-4.9213
X4.252Y-5.0
X4.252Y-5.0787
T6
X4.1929Y-5.7179
X4.1929Y-5.8179
X4.2755Y-5.5276
X4.2758Y-5.9884
X4.3462Y-5.4569
X4.3465Y-6.0591
X4.5167Y-5.3937
X4.5167Y-6.122
X4.585Y-5.0807
X4.585Y-5.1556
X4.6167Y-5.3937
X4.6167Y-6.122
X4.685Y-5.0807
X4.685Y-5.1556
X4.785Y-5.0807
X4.785Y-5.1556
X4.7876Y-5.4569
X4.807Y-6.0394
X4.8583Y-5.5276
X4.8777Y-5.9687
X4.9409Y-5.6982
X4.9409Y-5.7982
T7
X3.4646Y-3.7795
X3.6614Y-3.7795
X5.4134Y-5.3008
X5.4134Y-5.4008
X5.4134Y-5.5008
X5.4134Y-5.6008
X5.4134Y-5.7008
X5.4134Y-5.8008
X5.4134Y-5.9008
X5.4134Y-6.0008
X5.4134Y-6.1008
X5.4134Y-6.2008
X6.1863Y-3.3268
X6.3832Y-3.3268
T8
X4.3701Y-2.0079
X4.3701Y-2.5984
T9
X5.5693Y-2.8862
X5.6693Y-2.7362
X5.7693Y-2.8862
T10
X3.4457Y-2.7146
X3.4457Y-2.9547
X3.6016Y-2.7146
X3.6016Y-2.9547
X6.2409Y-2.7146
X6.2409Y-2.9508
X6.3969Y-2.7146
X6.3969Y-2.9508
T11
X3.2283Y-3.5827
X3.8386Y-2.0866
X3.8386Y-3.1102
X4.1929Y-5.374
X4.9606Y-6.122
X6.0039Y-2.0866
X6.0039Y-3.1102
X6.6142Y-3.5827
T12
X3.4646Y-3.4646
X3.6614Y-3.4646
X6.1811Y-3.6417
X6.378Y-3.6417
T13
X3.2283Y-3.3858
X4.2126Y-6.1417
X5.0394Y-5.374
X5.0394Y-5.9449
X5.6299Y-6.1417
X6.6142Y-3.3858
T14
X5.3346Y-4.9213
X5.6102Y-5.8661
T7
G00X5.6102Y-5.2953
M15
G01X5.6102Y-5.3937
M16
G05
G00X5.6102Y-5.5906
M15
G01X5.6102Y-5.689
M16
G05
T0
M30
