G04 #@! TF.GenerationSoftware,KiCad,Pcbnew,(6.0.8)*
G04 #@! TF.CreationDate,2022-12-09T11:51:08+09:00*
G04 #@! TF.ProjectId,ORION_boost_v3,4f52494f-4e5f-4626-9f6f-73745f76332e,rev?*
G04 #@! TF.SameCoordinates,Original*
G04 #@! TF.FileFunction,Soldermask,Bot*
G04 #@! TF.FilePolarity,Negative*
%FSLAX46Y46*%
G04 Gerber Fmt 4.6, Leading zero omitted, Abs format (unit mm)*
G04 Created by KiCad (PCBNEW (6.0.8)) date 2022-12-09 11:51:08*
%MOMM*%
%LPD*%
G01*
G04 APERTURE LIST*
G04 Aperture macros list*
%AMRoundRect*
0 Rectangle with rounded corners*
0 $1 Rounding radius*
0 $2 $3 $4 $5 $6 $7 $8 $9 X,Y pos of 4 corners*
0 Add a 4 corners polygon primitive as box body*
4,1,4,$2,$3,$4,$5,$6,$7,$8,$9,$2,$3,0*
0 Add four circle primitives for the rounded corners*
1,1,$1+$1,$2,$3*
1,1,$1+$1,$4,$5*
1,1,$1+$1,$6,$7*
1,1,$1+$1,$8,$9*
0 Add four rect primitives between the rounded corners*
20,1,$1+$1,$2,$3,$4,$5,0*
20,1,$1+$1,$4,$5,$6,$7,0*
20,1,$1+$1,$6,$7,$8,$9,0*
20,1,$1+$1,$8,$9,$2,$3,0*%
%AMRotRect*
0 Rectangle, with rotation*
0 The origin of the aperture is its center*
0 $1 length*
0 $2 width*
0 $3 Rotation angle, in degrees counterclockwise*
0 Add horizontal line*
21,1,$1,$2,0,0,$3*%
%AMFreePoly0*
4,1,22,0.550000,-0.750000,0.000000,-0.750000,0.000000,-0.745033,-0.079941,-0.743568,-0.215256,-0.701293,-0.333266,-0.622738,-0.424486,-0.514219,-0.481581,-0.384460,-0.499164,-0.250000,-0.500000,-0.250000,-0.500000,0.250000,-0.499164,0.250000,-0.499963,0.256109,-0.478152,0.396186,-0.417904,0.524511,-0.324060,0.630769,-0.204165,0.706417,-0.067858,0.745374,0.000000,0.744959,0.000000,0.750000,
0.550000,0.750000,0.550000,-0.750000,0.550000,-0.750000,$1*%
%AMFreePoly1*
4,1,20,0.000000,0.744959,0.073905,0.744508,0.209726,0.703889,0.328688,0.626782,0.421226,0.519385,0.479903,0.390333,0.500000,0.250000,0.500000,-0.250000,0.499851,-0.262216,0.476331,-0.402017,0.414519,-0.529596,0.319384,-0.634700,0.198574,-0.708877,0.061801,-0.746166,0.000000,-0.745033,0.000000,-0.750000,-0.550000,-0.750000,-0.550000,0.750000,0.000000,0.750000,0.000000,0.744959,
0.000000,0.744959,$1*%
G04 Aperture macros list end*
%ADD10O,2.800000X2.460000*%
%ADD11R,3.800000X3.800000*%
%ADD12C,3.800000*%
%ADD13RoundRect,0.250000X0.625000X-0.350000X0.625000X0.350000X-0.625000X0.350000X-0.625000X-0.350000X0*%
%ADD14O,1.750000X1.200000*%
%ADD15C,1.524000*%
%ADD16RoundRect,0.250000X-0.575000X0.350000X-0.575000X-0.350000X0.575000X-0.350000X0.575000X0.350000X0*%
%ADD17O,1.650000X1.200000*%
%ADD18R,1.700000X1.700000*%
%ADD19O,1.700000X1.700000*%
%ADD20RoundRect,0.500000X-0.500000X2.000000X-0.500000X-2.000000X0.500000X-2.000000X0.500000X2.000000X0*%
%ADD21RoundRect,0.250000X1.150000X-0.980000X1.150000X0.980000X-1.150000X0.980000X-1.150000X-0.980000X0*%
%ADD22C,5.000000*%
%ADD23RoundRect,0.225000X0.575000X-0.225000X0.575000X0.225000X-0.575000X0.225000X-0.575000X-0.225000X0*%
%ADD24R,1.600000X1.600000*%
%ADD25C,1.600000*%
%ADD26RoundRect,0.200000X-0.200000X-0.275000X0.200000X-0.275000X0.200000X0.275000X-0.200000X0.275000X0*%
%ADD27RoundRect,0.250000X-0.625000X0.312500X-0.625000X-0.312500X0.625000X-0.312500X0.625000X0.312500X0*%
%ADD28R,2.580000X1.000000*%
%ADD29R,2.200000X1.200000*%
%ADD30R,6.400000X5.800000*%
%ADD31R,1.200000X1.200000*%
%ADD32R,1.000000X1.200000*%
%ADD33FreePoly0,0.000000*%
%ADD34R,1.000000X1.500000*%
%ADD35FreePoly1,0.000000*%
%ADD36RoundRect,0.200000X0.200000X0.275000X-0.200000X0.275000X-0.200000X-0.275000X0.200000X-0.275000X0*%
%ADD37RoundRect,0.225000X-0.225000X-0.250000X0.225000X-0.250000X0.225000X0.250000X-0.225000X0.250000X0*%
%ADD38RoundRect,0.200000X0.275000X-0.200000X0.275000X0.200000X-0.275000X0.200000X-0.275000X-0.200000X0*%
%ADD39RoundRect,0.150000X0.150000X-0.512500X0.150000X0.512500X-0.150000X0.512500X-0.150000X-0.512500X0*%
%ADD40RoundRect,0.200000X-0.275000X0.200000X-0.275000X-0.200000X0.275000X-0.200000X0.275000X0.200000X0*%
%ADD41RoundRect,0.225000X-0.250000X0.225000X-0.250000X-0.225000X0.250000X-0.225000X0.250000X0.225000X0*%
%ADD42RoundRect,0.250000X0.980000X1.150000X-0.980000X1.150000X-0.980000X-1.150000X0.980000X-1.150000X0*%
%ADD43O,2.460000X2.800000*%
%ADD44RotRect,1.800000X1.800000X45.000000*%
%ADD45C,1.800000*%
%ADD46RoundRect,0.250000X0.650000X-0.325000X0.650000X0.325000X-0.650000X0.325000X-0.650000X-0.325000X0*%
%ADD47RotRect,1.800000X1.800000X135.000000*%
%ADD48RoundRect,0.225000X0.250000X-0.225000X0.250000X0.225000X-0.250000X0.225000X-0.250000X-0.225000X0*%
%ADD49R,1.500000X1.050000*%
%ADD50R,1.500000X2.400000*%
%ADD51R,0.400000X0.650000*%
%ADD52RoundRect,0.225000X0.225000X0.250000X-0.225000X0.250000X-0.225000X-0.250000X0.225000X-0.250000X0*%
%ADD53RoundRect,0.250000X-0.650000X0.325000X-0.650000X-0.325000X0.650000X-0.325000X0.650000X0.325000X0*%
%ADD54R,1.900000X0.400000*%
%ADD55C,2.200000*%
%ADD56R,0.800000X1.200000*%
%ADD57RoundRect,0.150000X-0.150000X0.825000X-0.150000X-0.825000X0.150000X-0.825000X0.150000X0.825000X0*%
%ADD58R,1.800000X1.800000*%
%ADD59RoundRect,0.150000X-0.150000X0.587500X-0.150000X-0.587500X0.150000X-0.587500X0.150000X0.587500X0*%
%ADD60R,1.200000X2.200000*%
%ADD61R,5.800000X6.400000*%
%ADD62R,1.300000X1.700000*%
%ADD63RoundRect,0.218750X0.218750X0.256250X-0.218750X0.256250X-0.218750X-0.256250X0.218750X-0.256250X0*%
%ADD64RoundRect,0.250000X2.350000X-0.325000X2.350000X0.325000X-2.350000X0.325000X-2.350000X-0.325000X0*%
%ADD65RoundRect,0.075000X-0.662500X-0.075000X0.662500X-0.075000X0.662500X0.075000X-0.662500X0.075000X0*%
%ADD66RoundRect,0.075000X-0.075000X-0.662500X0.075000X-0.662500X0.075000X0.662500X-0.075000X0.662500X0*%
%ADD67R,12.500000X3.150000*%
%ADD68C,1.905000*%
%ADD69O,1.905000X2.000000*%
%ADD70R,1.905000X2.000000*%
%ADD71RoundRect,0.218750X0.256250X-0.218750X0.256250X0.218750X-0.256250X0.218750X-0.256250X-0.218750X0*%
%ADD72RoundRect,0.218750X-0.218750X-0.256250X0.218750X-0.256250X0.218750X0.256250X-0.218750X0.256250X0*%
G04 APERTURE END LIST*
D10*
X165450000Y-78480000D03*
X165450000Y-74520000D03*
D11*
X88000000Y-89000000D03*
D12*
X93000000Y-89000000D03*
D13*
X112000000Y-130000000D03*
D14*
X112000000Y-128000000D03*
D15*
X121540000Y-130951000D03*
X119000000Y-130951000D03*
X116460000Y-130951000D03*
D16*
X108000000Y-123000000D03*
D17*
X106000000Y-123000000D03*
X108000000Y-125000000D03*
X106000000Y-125000000D03*
X108000000Y-127000000D03*
X106000000Y-127000000D03*
X108000000Y-129000000D03*
X106000000Y-129000000D03*
D18*
X137500000Y-157500000D03*
D19*
X137500000Y-154960000D03*
X137500000Y-152420000D03*
X137500000Y-149880000D03*
X137500000Y-147340000D03*
X137500000Y-144800000D03*
X137500000Y-142260000D03*
X137500000Y-139720000D03*
X137500000Y-137180000D03*
X137500000Y-134640000D03*
D20*
X142500000Y-127250000D03*
X142500000Y-134750000D03*
D21*
X84550000Y-78480000D03*
D10*
X84550000Y-74520000D03*
D15*
X116460000Y-129049000D03*
X119000000Y-129049000D03*
X121540000Y-129049000D03*
D11*
X161500000Y-89000000D03*
D12*
X156500000Y-89000000D03*
D22*
X142500000Y-140000000D03*
D23*
X154500000Y-104500000D03*
X154500000Y-103000000D03*
X154500000Y-101500000D03*
X154500000Y-100000000D03*
X154500000Y-98500000D03*
X154500000Y-97000000D03*
D22*
X135000000Y-130500000D03*
D24*
X92402651Y-96000000D03*
D25*
X87402651Y-96000000D03*
D26*
X109675000Y-110000000D03*
X111325000Y-110000000D03*
D27*
X108000000Y-54037500D03*
X108000000Y-56962500D03*
D28*
X102915000Y-106000000D03*
X107085000Y-106000000D03*
D29*
X104700000Y-70720000D03*
D30*
X98400000Y-73000000D03*
D31*
X105200000Y-75280000D03*
D32*
X104106800Y-75280000D03*
D33*
X109700000Y-120500000D03*
D34*
X111000000Y-120500000D03*
D35*
X112300000Y-120500000D03*
D36*
X97825000Y-104000000D03*
X96175000Y-104000000D03*
D37*
X117225000Y-95000000D03*
X118775000Y-95000000D03*
D24*
X157597349Y-96000000D03*
D25*
X162597349Y-96000000D03*
D38*
X138000000Y-104175000D03*
X138000000Y-105825000D03*
D36*
X104325000Y-102000000D03*
X102675000Y-102000000D03*
D39*
X112125000Y-103637500D03*
X111175000Y-103637500D03*
X110225000Y-103637500D03*
X110225000Y-101362500D03*
X112125000Y-101362500D03*
D40*
X107000000Y-99675000D03*
X107000000Y-101325000D03*
D36*
X97825000Y-102000000D03*
X96175000Y-102000000D03*
X112000000Y-106000000D03*
X110350000Y-106000000D03*
D41*
X133000000Y-101725000D03*
X133000000Y-103275000D03*
D26*
X128175000Y-113000000D03*
X129825000Y-113000000D03*
D42*
X91980000Y-74450000D03*
D43*
X88020000Y-74450000D03*
D44*
X108598439Y-140401561D03*
D45*
X110394490Y-138605510D03*
D46*
X124000000Y-128525000D03*
X124000000Y-131475000D03*
D38*
X147500000Y-109325000D03*
X147500000Y-107675000D03*
D47*
X123401561Y-140401561D03*
D45*
X121605510Y-138605510D03*
D41*
X140000000Y-105775000D03*
X140000000Y-104225000D03*
D37*
X129225000Y-115000000D03*
X130775000Y-115000000D03*
D29*
X145300000Y-61280000D03*
D30*
X151600000Y-59000000D03*
D29*
X145300000Y-56720000D03*
D40*
X128000000Y-92325000D03*
X128000000Y-90675000D03*
D37*
X129725000Y-92500000D03*
X131275000Y-92500000D03*
D26*
X132175000Y-111000000D03*
X133825000Y-111000000D03*
D40*
X104000000Y-65175000D03*
X104000000Y-66825000D03*
X133000000Y-118175000D03*
X133000000Y-119825000D03*
D48*
X125500000Y-77275000D03*
X125500000Y-75725000D03*
D49*
X132000000Y-147525000D03*
D50*
X132000000Y-145150000D03*
D36*
X97825000Y-100000000D03*
X96175000Y-100000000D03*
D51*
X128850000Y-117050000D03*
X129500000Y-117050000D03*
X130150000Y-117050000D03*
X130150000Y-118950000D03*
X129500000Y-118950000D03*
X128850000Y-118950000D03*
D40*
X146000000Y-72175000D03*
X146000000Y-73825000D03*
X140500000Y-90675000D03*
X140500000Y-92325000D03*
D52*
X111275000Y-112000000D03*
X109725000Y-112000000D03*
D53*
X118500000Y-75525000D03*
X118500000Y-78475000D03*
D29*
X104700000Y-57220000D03*
D30*
X98400000Y-59500000D03*
D29*
X104700000Y-61780000D03*
D48*
X121000000Y-104275000D03*
X121000000Y-102725000D03*
D29*
X104700000Y-63720000D03*
D30*
X98400000Y-66000000D03*
D29*
X104700000Y-68280000D03*
D48*
X106500000Y-95275000D03*
X106500000Y-93725000D03*
D54*
X118000000Y-98300000D03*
X118000000Y-99500000D03*
X118000000Y-100700000D03*
D38*
X132000000Y-135675000D03*
X132000000Y-137325000D03*
D55*
X146000000Y-53000000D03*
X131000000Y-53000000D03*
D56*
X149770000Y-100650000D03*
X147230000Y-100650000D03*
X147230000Y-94350000D03*
X148500000Y-94350000D03*
X149770000Y-94350000D03*
D26*
X146675000Y-92000000D03*
X148325000Y-92000000D03*
D25*
X132500000Y-128000000D03*
X137500000Y-128000000D03*
D36*
X118825000Y-96500000D03*
X117175000Y-96500000D03*
D48*
X143000000Y-92275000D03*
X143000000Y-90725000D03*
X138000000Y-92275000D03*
X138000000Y-90725000D03*
X126500000Y-90725000D03*
X126500000Y-92275000D03*
D40*
X107000000Y-102675000D03*
X107000000Y-104325000D03*
D57*
X114320000Y-110525000D03*
X115590000Y-110525000D03*
X116860000Y-110525000D03*
X118130000Y-110525000D03*
X118130000Y-115475000D03*
X116860000Y-115475000D03*
X115590000Y-115475000D03*
X114320000Y-115475000D03*
D58*
X106500000Y-147275000D03*
D45*
X106500000Y-144735000D03*
D48*
X135500000Y-155775000D03*
X135500000Y-154225000D03*
D40*
X110000000Y-91175000D03*
X110000000Y-92825000D03*
D59*
X132050000Y-114562500D03*
X133950000Y-114562500D03*
X133000000Y-116437500D03*
D60*
X144780000Y-121200000D03*
D61*
X142500000Y-114900000D03*
D60*
X140220000Y-121200000D03*
D41*
X138000000Y-95225000D03*
X138000000Y-96775000D03*
D40*
X146000000Y-58175000D03*
X146000000Y-59825000D03*
D62*
X126750000Y-126500000D03*
X130250000Y-126500000D03*
D63*
X111962500Y-97500000D03*
X110387500Y-97500000D03*
D36*
X117050000Y-118000000D03*
X115400000Y-118000000D03*
D38*
X152000000Y-97825000D03*
X152000000Y-96175000D03*
D41*
X145500000Y-94225000D03*
X145500000Y-95775000D03*
D46*
X126500000Y-131475000D03*
X126500000Y-128525000D03*
D64*
X139500000Y-125125000D03*
X139500000Y-122875000D03*
D36*
X97825000Y-106000000D03*
X96175000Y-106000000D03*
D58*
X114725000Y-155500000D03*
D45*
X117265000Y-155500000D03*
D53*
X121000000Y-75525000D03*
X121000000Y-78475000D03*
D26*
X102175000Y-91500000D03*
X103825000Y-91500000D03*
D56*
X104770000Y-100150000D03*
X102230000Y-100150000D03*
X102230000Y-93850000D03*
X103500000Y-93850000D03*
X104770000Y-93850000D03*
D38*
X127000000Y-78825000D03*
X127000000Y-77175000D03*
D53*
X116000000Y-75525000D03*
X116000000Y-78475000D03*
D47*
X110500000Y-154000000D03*
D45*
X108703949Y-152203949D03*
D65*
X122337500Y-101750000D03*
X122337500Y-101250000D03*
X122337500Y-100750000D03*
X122337500Y-100250000D03*
X122337500Y-99750000D03*
X122337500Y-99250000D03*
X122337500Y-98750000D03*
X122337500Y-98250000D03*
X122337500Y-97750000D03*
X122337500Y-97250000D03*
X122337500Y-96750000D03*
X122337500Y-96250000D03*
D66*
X123750000Y-94837500D03*
X124250000Y-94837500D03*
X124750000Y-94837500D03*
X125250000Y-94837500D03*
X125750000Y-94837500D03*
X126250000Y-94837500D03*
X126750000Y-94837500D03*
X127250000Y-94837500D03*
X127750000Y-94837500D03*
X128250000Y-94837500D03*
X128750000Y-94837500D03*
X129250000Y-94837500D03*
D65*
X130662500Y-96250000D03*
X130662500Y-96750000D03*
X130662500Y-97250000D03*
X130662500Y-97750000D03*
X130662500Y-98250000D03*
X130662500Y-98750000D03*
X130662500Y-99250000D03*
X130662500Y-99750000D03*
X130662500Y-100250000D03*
X130662500Y-100750000D03*
X130662500Y-101250000D03*
X130662500Y-101750000D03*
D66*
X129250000Y-103162500D03*
X128750000Y-103162500D03*
X128250000Y-103162500D03*
X127750000Y-103162500D03*
X127250000Y-103162500D03*
X126750000Y-103162500D03*
X126250000Y-103162500D03*
X125750000Y-103162500D03*
X125250000Y-103162500D03*
X124750000Y-103162500D03*
X124250000Y-103162500D03*
X123750000Y-103162500D03*
D40*
X107000000Y-96675000D03*
X107000000Y-98325000D03*
D67*
X119500000Y-73175000D03*
X119500000Y-57825000D03*
D37*
X115450000Y-108000000D03*
X117000000Y-108000000D03*
D68*
X130960000Y-56907500D03*
D69*
X133500000Y-60717500D03*
D70*
X136040000Y-56907500D03*
D41*
X149500000Y-106012500D03*
X149500000Y-107562500D03*
D53*
X113500000Y-75525000D03*
X113500000Y-78475000D03*
D58*
X125500000Y-147275000D03*
D45*
X125500000Y-144735000D03*
D42*
X161980000Y-74450000D03*
D43*
X158020000Y-74450000D03*
D46*
X129000000Y-131475000D03*
X129000000Y-128525000D03*
D44*
X122098439Y-153401561D03*
D45*
X123894490Y-151605510D03*
D40*
X113500000Y-103675000D03*
X113500000Y-105325000D03*
X104000000Y-72175000D03*
X104000000Y-73825000D03*
D48*
X108675000Y-98275000D03*
X108675000Y-96725000D03*
X112000000Y-92775000D03*
X112000000Y-91225000D03*
D56*
X142270000Y-100650000D03*
X139730000Y-100650000D03*
X139730000Y-94350000D03*
X141000000Y-94350000D03*
X142270000Y-94350000D03*
D58*
X114725000Y-137000000D03*
D45*
X117265000Y-137000000D03*
D40*
X104000000Y-58675000D03*
X104000000Y-60325000D03*
D53*
X123500000Y-75525000D03*
X123500000Y-78475000D03*
D55*
X103500000Y-53000000D03*
X118500000Y-53000000D03*
D59*
X132000000Y-142437500D03*
X132950000Y-140562500D03*
X131050000Y-140562500D03*
D36*
X141825000Y-102500000D03*
X140175000Y-102500000D03*
D52*
X123775000Y-105500000D03*
X122225000Y-105500000D03*
D33*
X115700000Y-120500000D03*
D34*
X117000000Y-120500000D03*
D35*
X118300000Y-120500000D03*
D29*
X145300000Y-75280000D03*
D30*
X151600000Y-73000000D03*
D31*
X144800000Y-70720000D03*
D32*
X145893200Y-70720000D03*
D36*
X131175000Y-139000000D03*
X132825000Y-139000000D03*
D61*
X125000000Y-48900000D03*
D60*
X122720000Y-55200000D03*
X127280000Y-55200000D03*
D48*
X113500000Y-101275000D03*
X113500000Y-99725000D03*
D40*
X146000000Y-65175000D03*
X146000000Y-66825000D03*
D28*
X147085000Y-106000000D03*
X142915000Y-106000000D03*
D36*
X133825000Y-112500000D03*
X132175000Y-112500000D03*
D29*
X145300000Y-68280000D03*
D30*
X151600000Y-66000000D03*
D29*
X145300000Y-63720000D03*
D71*
X153500000Y-107575000D03*
X153500000Y-106000000D03*
D38*
X151500000Y-107612500D03*
X151500000Y-105962500D03*
D36*
X149325000Y-102500000D03*
X147675000Y-102500000D03*
D40*
X113000000Y-112175000D03*
X113000000Y-113825000D03*
D72*
X110387500Y-99500000D03*
X111962500Y-99500000D03*
D36*
X97825000Y-98000000D03*
X96175000Y-98000000D03*
G36*
X143942121Y-132020002D02*
G01*
X143988614Y-132073658D01*
X144000000Y-132126000D01*
X144000000Y-138374000D01*
X143979998Y-138442121D01*
X143926342Y-138488614D01*
X143874000Y-138500000D01*
X141126000Y-138500000D01*
X141057879Y-138479998D01*
X141011386Y-138426342D01*
X141000000Y-138374000D01*
X141000000Y-132126000D01*
X141020002Y-132057879D01*
X141073658Y-132011386D01*
X141126000Y-132000000D01*
X143874000Y-132000000D01*
X143942121Y-132020002D01*
G37*
G36*
X166942121Y-81020002D02*
G01*
X166988614Y-81073658D01*
X167000000Y-81126000D01*
X167000000Y-82374000D01*
X166979998Y-82442121D01*
X166926342Y-82488614D01*
X166874000Y-82500000D01*
X136018115Y-82500000D01*
X136002876Y-82504475D01*
X136001671Y-82505865D01*
X136000000Y-82513548D01*
X136000000Y-128874000D01*
X135979998Y-128942121D01*
X135926342Y-128988614D01*
X135874000Y-129000000D01*
X134626000Y-129000000D01*
X134557879Y-128979998D01*
X134511386Y-128926342D01*
X134500000Y-128874000D01*
X134500000Y-82518115D01*
X134495525Y-82502876D01*
X134494135Y-82501671D01*
X134486452Y-82500000D01*
X83626000Y-82500000D01*
X83557879Y-82479998D01*
X83511386Y-82426342D01*
X83500000Y-82374000D01*
X83500000Y-81126000D01*
X83520002Y-81057879D01*
X83573658Y-81011386D01*
X83626000Y-81000000D01*
X166874000Y-81000000D01*
X166942121Y-81020002D01*
G37*
G36*
X141942121Y-120020002D02*
G01*
X141988614Y-120073658D01*
X142000000Y-120126000D01*
X142000000Y-122874000D01*
X141979998Y-122942121D01*
X141926342Y-122988614D01*
X141874000Y-123000000D01*
X140626000Y-123000000D01*
X140557879Y-122979998D01*
X140511386Y-122926342D01*
X140500000Y-122874000D01*
X140500000Y-120126000D01*
X140520002Y-120057879D01*
X140573658Y-120011386D01*
X140626000Y-120000000D01*
X141874000Y-120000000D01*
X141942121Y-120020002D01*
G37*
G36*
X143942121Y-124520002D02*
G01*
X143988614Y-124573658D01*
X144000000Y-124626000D01*
X144000000Y-129874000D01*
X143979998Y-129942121D01*
X143926342Y-129988614D01*
X143874000Y-130000000D01*
X141052190Y-130000000D01*
X140984069Y-129979998D01*
X140963095Y-129963095D01*
X139036905Y-128036905D01*
X139002879Y-127974593D01*
X139000000Y-127947810D01*
X139000000Y-124626000D01*
X139020002Y-124557879D01*
X139073658Y-124511386D01*
X139126000Y-124500000D01*
X143874000Y-124500000D01*
X143942121Y-124520002D01*
G37*
M02*
