G04 #@! TF.GenerationSoftware,KiCad,Pcbnew,(6.0.8)*
G04 #@! TF.CreationDate,2022-12-10T09:46:59+09:00*
G04 #@! TF.ProjectId,ORION_boost_v3,4f52494f-4e5f-4626-9f6f-73745f76332e,rev?*
G04 #@! TF.SameCoordinates,Original*
G04 #@! TF.FileFunction,Legend,Bot*
G04 #@! TF.FilePolarity,Positive*
%FSLAX46Y46*%
G04 Gerber Fmt 4.6, Leading zero omitted, Abs format (unit mm)*
G04 Created by KiCad (PCBNEW (6.0.8)) date 2022-12-10 09:46:59*
%MOMM*%
%LPD*%
G01*
G04 APERTURE LIST*
%ADD10C,0.150000*%
%ADD11C,0.120000*%
G04 APERTURE END LIST*
D10*
X131000000Y-136000000D02*
G75*
G03*
X131000000Y-136000000I-3000000J0D01*
G01*
X131000000Y-151000000D02*
G75*
G03*
X131000000Y-151000000I-3000000J0D01*
G01*
X155000000Y-79000000D02*
G75*
G03*
X155000000Y-79000000I-2500000J0D01*
G01*
X100000000Y-79000000D02*
G75*
G03*
X100000000Y-79000000I-2500000J0D01*
G01*
X155000000Y-53000000D02*
G75*
G03*
X155000000Y-53000000I-2500000J0D01*
G01*
X100000000Y-53000000D02*
G75*
G03*
X100000000Y-53000000I-2500000J0D01*
G01*
X106714285Y-108357142D02*
X106761904Y-108404761D01*
X106904761Y-108452380D01*
X107000000Y-108452380D01*
X107142857Y-108404761D01*
X107238095Y-108309523D01*
X107285714Y-108214285D01*
X107333333Y-108023809D01*
X107333333Y-107880952D01*
X107285714Y-107690476D01*
X107238095Y-107595238D01*
X107142857Y-107500000D01*
X107000000Y-107452380D01*
X106904761Y-107452380D01*
X106761904Y-107500000D01*
X106714285Y-107547619D01*
X106095238Y-107452380D02*
X105904761Y-107452380D01*
X105809523Y-107500000D01*
X105714285Y-107595238D01*
X105666666Y-107785714D01*
X105666666Y-108119047D01*
X105714285Y-108309523D01*
X105809523Y-108404761D01*
X105904761Y-108452380D01*
X106095238Y-108452380D01*
X106190476Y-108404761D01*
X106285714Y-108309523D01*
X106333333Y-108119047D01*
X106333333Y-107785714D01*
X106285714Y-107595238D01*
X106190476Y-107500000D01*
X106095238Y-107452380D01*
X105238095Y-108452380D02*
X105238095Y-107452380D01*
X104285714Y-108452380D02*
X104761904Y-108452380D01*
X104761904Y-107452380D01*
X104190476Y-108547619D02*
X103428571Y-108547619D01*
X103238095Y-107547619D02*
X103190476Y-107500000D01*
X103095238Y-107452380D01*
X102857142Y-107452380D01*
X102761904Y-107500000D01*
X102714285Y-107547619D01*
X102666666Y-107642857D01*
X102666666Y-107738095D01*
X102714285Y-107880952D01*
X103285714Y-108452380D01*
X102666666Y-108452380D01*
X165976190Y-69952380D02*
X165976190Y-68952380D01*
X165404761Y-69952380D02*
X165833333Y-69380952D01*
X165404761Y-68952380D02*
X165976190Y-69523809D01*
X164976190Y-69952380D02*
X164976190Y-68952380D01*
X163928571Y-69857142D02*
X163976190Y-69904761D01*
X164119047Y-69952380D01*
X164214285Y-69952380D01*
X164357142Y-69904761D01*
X164452380Y-69809523D01*
X164500000Y-69714285D01*
X164547619Y-69523809D01*
X164547619Y-69380952D01*
X164500000Y-69190476D01*
X164452380Y-69095238D01*
X164357142Y-69000000D01*
X164214285Y-68952380D01*
X164119047Y-68952380D01*
X163976190Y-69000000D01*
X163928571Y-69047619D01*
X163500000Y-69952380D02*
X163500000Y-68952380D01*
X162928571Y-69952380D02*
X163357142Y-69380952D01*
X162928571Y-68952380D02*
X163500000Y-69523809D01*
X161976190Y-69952380D02*
X162547619Y-69952380D01*
X162261904Y-69952380D02*
X162261904Y-68952380D01*
X162357142Y-69095238D01*
X162452380Y-69190476D01*
X162547619Y-69238095D01*
X146214285Y-108357142D02*
X146261904Y-108404761D01*
X146404761Y-108452380D01*
X146500000Y-108452380D01*
X146642857Y-108404761D01*
X146738095Y-108309523D01*
X146785714Y-108214285D01*
X146833333Y-108023809D01*
X146833333Y-107880952D01*
X146785714Y-107690476D01*
X146738095Y-107595238D01*
X146642857Y-107500000D01*
X146500000Y-107452380D01*
X146404761Y-107452380D01*
X146261904Y-107500000D01*
X146214285Y-107547619D01*
X145595238Y-107452380D02*
X145404761Y-107452380D01*
X145309523Y-107500000D01*
X145214285Y-107595238D01*
X145166666Y-107785714D01*
X145166666Y-108119047D01*
X145214285Y-108309523D01*
X145309523Y-108404761D01*
X145404761Y-108452380D01*
X145595238Y-108452380D01*
X145690476Y-108404761D01*
X145785714Y-108309523D01*
X145833333Y-108119047D01*
X145833333Y-107785714D01*
X145785714Y-107595238D01*
X145690476Y-107500000D01*
X145595238Y-107452380D01*
X144738095Y-108452380D02*
X144738095Y-107452380D01*
X143785714Y-108452380D02*
X144261904Y-108452380D01*
X144261904Y-107452380D01*
X143690476Y-108547619D02*
X142928571Y-108547619D01*
X142166666Y-108452380D02*
X142738095Y-108452380D01*
X142452380Y-108452380D02*
X142452380Y-107452380D01*
X142547619Y-107595238D01*
X142642857Y-107690476D01*
X142738095Y-107738095D01*
X110238095Y-123047619D02*
X110333333Y-123047619D01*
X110428571Y-123000000D01*
X110476190Y-122952380D01*
X110523809Y-122857142D01*
X110571428Y-122666666D01*
X110571428Y-122428571D01*
X110523809Y-122238095D01*
X110476190Y-122142857D01*
X110428571Y-122095238D01*
X110333333Y-122047619D01*
X110238095Y-122047619D01*
X110142857Y-122095238D01*
X110095238Y-122142857D01*
X110047619Y-122238095D01*
X110000000Y-122428571D01*
X110000000Y-122666666D01*
X110047619Y-122857142D01*
X110095238Y-122952380D01*
X110142857Y-123000000D01*
X110238095Y-123047619D01*
X112285714Y-122047619D02*
X111714285Y-122047619D01*
X112000000Y-122047619D02*
X112000000Y-123047619D01*
X111904761Y-122904761D01*
X111809523Y-122809523D01*
X111714285Y-122761904D01*
X115952380Y-123047619D02*
X116047619Y-123047619D01*
X116142857Y-123000000D01*
X116190476Y-122952380D01*
X116238095Y-122857142D01*
X116285714Y-122666666D01*
X116285714Y-122428571D01*
X116238095Y-122238095D01*
X116190476Y-122142857D01*
X116142857Y-122095238D01*
X116047619Y-122047619D01*
X115952380Y-122047619D01*
X115857142Y-122095238D01*
X115809523Y-122142857D01*
X115761904Y-122238095D01*
X115714285Y-122428571D01*
X115714285Y-122666666D01*
X115761904Y-122857142D01*
X115809523Y-122952380D01*
X115857142Y-123000000D01*
X115952380Y-123047619D01*
X118000000Y-122047619D02*
X117428571Y-122047619D01*
X117714285Y-122047619D02*
X117714285Y-123047619D01*
X117619047Y-122904761D01*
X117523809Y-122809523D01*
X117428571Y-122761904D01*
X87976190Y-69952380D02*
X87976190Y-68952380D01*
X87404761Y-69952380D02*
X87833333Y-69380952D01*
X87404761Y-68952380D02*
X87976190Y-69523809D01*
X86976190Y-69952380D02*
X86976190Y-68952380D01*
X85928571Y-69857142D02*
X85976190Y-69904761D01*
X86119047Y-69952380D01*
X86214285Y-69952380D01*
X86357142Y-69904761D01*
X86452380Y-69809523D01*
X86500000Y-69714285D01*
X86547619Y-69523809D01*
X86547619Y-69380952D01*
X86500000Y-69190476D01*
X86452380Y-69095238D01*
X86357142Y-69000000D01*
X86214285Y-68952380D01*
X86119047Y-68952380D01*
X85976190Y-69000000D01*
X85928571Y-69047619D01*
X85500000Y-69952380D02*
X85500000Y-68952380D01*
X84928571Y-69952380D02*
X85357142Y-69380952D01*
X84928571Y-68952380D02*
X85500000Y-69523809D01*
X84547619Y-69047619D02*
X84500000Y-69000000D01*
X84404761Y-68952380D01*
X84166666Y-68952380D01*
X84071428Y-69000000D01*
X84023809Y-69047619D01*
X83976190Y-69142857D01*
X83976190Y-69238095D01*
X84023809Y-69380952D01*
X84595238Y-69952380D01*
X83976190Y-69952380D01*
X91357142Y-95357142D02*
X91404761Y-95309523D01*
X91452380Y-95166666D01*
X91452380Y-95071428D01*
X91404761Y-94928571D01*
X91309523Y-94833333D01*
X91214285Y-94785714D01*
X91023809Y-94738095D01*
X90880952Y-94738095D01*
X90690476Y-94785714D01*
X90595238Y-94833333D01*
X90500000Y-94928571D01*
X90452380Y-95071428D01*
X90452380Y-95166666D01*
X90500000Y-95309523D01*
X90547619Y-95357142D01*
X90547619Y-95738095D02*
X90500000Y-95785714D01*
X90452380Y-95880952D01*
X90452380Y-96119047D01*
X90500000Y-96214285D01*
X90547619Y-96261904D01*
X90642857Y-96309523D01*
X90738095Y-96309523D01*
X90880952Y-96261904D01*
X91452380Y-95690476D01*
X91452380Y-96309523D01*
X90452380Y-96928571D02*
X90452380Y-97023809D01*
X90500000Y-97119047D01*
X90547619Y-97166666D01*
X90642857Y-97214285D01*
X90833333Y-97261904D01*
X91071428Y-97261904D01*
X91261904Y-97214285D01*
X91357142Y-97166666D01*
X91404761Y-97119047D01*
X91452380Y-97023809D01*
X91452380Y-96928571D01*
X91404761Y-96833333D01*
X91357142Y-96785714D01*
X91261904Y-96738095D01*
X91071428Y-96690476D01*
X90833333Y-96690476D01*
X90642857Y-96738095D01*
X90547619Y-96785714D01*
X90500000Y-96833333D01*
X90452380Y-96928571D01*
X108142857Y-110452380D02*
X108476190Y-109976190D01*
X108714285Y-110452380D02*
X108714285Y-109452380D01*
X108333333Y-109452380D01*
X108238095Y-109500000D01*
X108190476Y-109547619D01*
X108142857Y-109642857D01*
X108142857Y-109785714D01*
X108190476Y-109880952D01*
X108238095Y-109928571D01*
X108333333Y-109976190D01*
X108714285Y-109976190D01*
X107190476Y-110452380D02*
X107761904Y-110452380D01*
X107476190Y-110452380D02*
X107476190Y-109452380D01*
X107571428Y-109595238D01*
X107666666Y-109690476D01*
X107761904Y-109738095D01*
X106571428Y-109452380D02*
X106476190Y-109452380D01*
X106380952Y-109500000D01*
X106333333Y-109547619D01*
X106285714Y-109642857D01*
X106238095Y-109833333D01*
X106238095Y-110071428D01*
X106285714Y-110261904D01*
X106333333Y-110357142D01*
X106380952Y-110404761D01*
X106476190Y-110452380D01*
X106571428Y-110452380D01*
X106666666Y-110404761D01*
X106714285Y-110357142D01*
X106761904Y-110261904D01*
X106809523Y-110071428D01*
X106809523Y-109833333D01*
X106761904Y-109642857D01*
X106714285Y-109547619D01*
X106666666Y-109500000D01*
X106571428Y-109452380D01*
X108142857Y-57452380D02*
X108476190Y-56976190D01*
X108714285Y-57452380D02*
X108714285Y-56452380D01*
X108333333Y-56452380D01*
X108238095Y-56500000D01*
X108190476Y-56547619D01*
X108142857Y-56642857D01*
X108142857Y-56785714D01*
X108190476Y-56880952D01*
X108238095Y-56928571D01*
X108333333Y-56976190D01*
X108714285Y-56976190D01*
X107809523Y-56452380D02*
X107190476Y-56452380D01*
X107523809Y-56833333D01*
X107380952Y-56833333D01*
X107285714Y-56880952D01*
X107238095Y-56928571D01*
X107190476Y-57023809D01*
X107190476Y-57261904D01*
X107238095Y-57357142D01*
X107285714Y-57404761D01*
X107380952Y-57452380D01*
X107666666Y-57452380D01*
X107761904Y-57404761D01*
X107809523Y-57357142D01*
X106857142Y-56452380D02*
X106190476Y-56452380D01*
X106619047Y-57452380D01*
X104452380Y-105666666D02*
X105166666Y-105666666D01*
X105309523Y-105619047D01*
X105404761Y-105523809D01*
X105452380Y-105380952D01*
X105452380Y-105285714D01*
X105452380Y-106190476D02*
X105452380Y-106380952D01*
X105404761Y-106476190D01*
X105357142Y-106523809D01*
X105214285Y-106619047D01*
X105023809Y-106666666D01*
X104642857Y-106666666D01*
X104547619Y-106619047D01*
X104500000Y-106571428D01*
X104452380Y-106476190D01*
X104452380Y-106285714D01*
X104500000Y-106190476D01*
X104547619Y-106142857D01*
X104642857Y-106095238D01*
X104880952Y-106095238D01*
X104976190Y-106142857D01*
X105023809Y-106190476D01*
X105071428Y-106285714D01*
X105071428Y-106476190D01*
X105023809Y-106571428D01*
X104976190Y-106619047D01*
X104880952Y-106666666D01*
X103047619Y-72904761D02*
X103000000Y-72809523D01*
X102904761Y-72714285D01*
X102761904Y-72571428D01*
X102714285Y-72476190D01*
X102714285Y-72380952D01*
X102952380Y-72428571D02*
X102904761Y-72333333D01*
X102809523Y-72238095D01*
X102619047Y-72190476D01*
X102285714Y-72190476D01*
X102095238Y-72238095D01*
X102000000Y-72333333D01*
X101952380Y-72428571D01*
X101952380Y-72619047D01*
X102000000Y-72714285D01*
X102095238Y-72809523D01*
X102285714Y-72857142D01*
X102619047Y-72857142D01*
X102809523Y-72809523D01*
X102904761Y-72714285D01*
X102952380Y-72619047D01*
X102952380Y-72428571D01*
X102952380Y-73809523D02*
X102952380Y-73238095D01*
X102952380Y-73523809D02*
X101952380Y-73523809D01*
X102095238Y-73428571D01*
X102190476Y-73333333D01*
X102238095Y-73238095D01*
X113833333Y-119952380D02*
X113833333Y-120666666D01*
X113880952Y-120809523D01*
X113976190Y-120904761D01*
X114119047Y-120952380D01*
X114214285Y-120952380D01*
X113357142Y-120952380D02*
X113357142Y-119952380D01*
X112976190Y-119952380D01*
X112880952Y-120000000D01*
X112833333Y-120047619D01*
X112785714Y-120142857D01*
X112785714Y-120285714D01*
X112833333Y-120380952D01*
X112880952Y-120428571D01*
X112976190Y-120476190D01*
X113357142Y-120476190D01*
X112404761Y-120047619D02*
X112357142Y-120000000D01*
X112261904Y-119952380D01*
X112023809Y-119952380D01*
X111928571Y-120000000D01*
X111880952Y-120047619D01*
X111833333Y-120142857D01*
X111833333Y-120238095D01*
X111880952Y-120380952D01*
X112452380Y-120952380D01*
X111833333Y-120952380D01*
X94666666Y-104452380D02*
X95000000Y-103976190D01*
X95238095Y-104452380D02*
X95238095Y-103452380D01*
X94857142Y-103452380D01*
X94761904Y-103500000D01*
X94714285Y-103547619D01*
X94666666Y-103642857D01*
X94666666Y-103785714D01*
X94714285Y-103880952D01*
X94761904Y-103928571D01*
X94857142Y-103976190D01*
X95238095Y-103976190D01*
X94333333Y-103452380D02*
X93714285Y-103452380D01*
X94047619Y-103833333D01*
X93904761Y-103833333D01*
X93809523Y-103880952D01*
X93761904Y-103928571D01*
X93714285Y-104023809D01*
X93714285Y-104261904D01*
X93761904Y-104357142D01*
X93809523Y-104404761D01*
X93904761Y-104452380D01*
X94190476Y-104452380D01*
X94285714Y-104404761D01*
X94333333Y-104357142D01*
X120666666Y-95357142D02*
X120714285Y-95404761D01*
X120857142Y-95452380D01*
X120952380Y-95452380D01*
X121095238Y-95404761D01*
X121190476Y-95309523D01*
X121238095Y-95214285D01*
X121285714Y-95023809D01*
X121285714Y-94880952D01*
X121238095Y-94690476D01*
X121190476Y-94595238D01*
X121095238Y-94500000D01*
X120952380Y-94452380D01*
X120857142Y-94452380D01*
X120714285Y-94500000D01*
X120666666Y-94547619D01*
X119714285Y-95452380D02*
X120285714Y-95452380D01*
X120000000Y-95452380D02*
X120000000Y-94452380D01*
X120095238Y-94595238D01*
X120190476Y-94690476D01*
X120285714Y-94738095D01*
X159857142Y-95357142D02*
X159904761Y-95309523D01*
X159952380Y-95166666D01*
X159952380Y-95071428D01*
X159904761Y-94928571D01*
X159809523Y-94833333D01*
X159714285Y-94785714D01*
X159523809Y-94738095D01*
X159380952Y-94738095D01*
X159190476Y-94785714D01*
X159095238Y-94833333D01*
X159000000Y-94928571D01*
X158952380Y-95071428D01*
X158952380Y-95166666D01*
X159000000Y-95309523D01*
X159047619Y-95357142D01*
X158952380Y-95690476D02*
X158952380Y-96309523D01*
X159333333Y-95976190D01*
X159333333Y-96119047D01*
X159380952Y-96214285D01*
X159428571Y-96261904D01*
X159523809Y-96309523D01*
X159761904Y-96309523D01*
X159857142Y-96261904D01*
X159904761Y-96214285D01*
X159952380Y-96119047D01*
X159952380Y-95833333D01*
X159904761Y-95738095D01*
X159857142Y-95690476D01*
X158952380Y-96642857D02*
X158952380Y-97261904D01*
X159333333Y-96928571D01*
X159333333Y-97071428D01*
X159380952Y-97166666D01*
X159428571Y-97214285D01*
X159523809Y-97261904D01*
X159761904Y-97261904D01*
X159857142Y-97214285D01*
X159904761Y-97166666D01*
X159952380Y-97071428D01*
X159952380Y-96785714D01*
X159904761Y-96690476D01*
X159857142Y-96642857D01*
X138452380Y-107333333D02*
X137976190Y-107000000D01*
X138452380Y-106761904D02*
X137452380Y-106761904D01*
X137452380Y-107142857D01*
X137500000Y-107238095D01*
X137547619Y-107285714D01*
X137642857Y-107333333D01*
X137785714Y-107333333D01*
X137880952Y-107285714D01*
X137928571Y-107238095D01*
X137976190Y-107142857D01*
X137976190Y-106761904D01*
X138452380Y-107809523D02*
X138452380Y-108000000D01*
X138404761Y-108095238D01*
X138357142Y-108142857D01*
X138214285Y-108238095D01*
X138023809Y-108285714D01*
X137642857Y-108285714D01*
X137547619Y-108238095D01*
X137500000Y-108190476D01*
X137452380Y-108095238D01*
X137452380Y-107904761D01*
X137500000Y-107809523D01*
X137547619Y-107761904D01*
X137642857Y-107714285D01*
X137880952Y-107714285D01*
X137976190Y-107761904D01*
X138023809Y-107809523D01*
X138071428Y-107904761D01*
X138071428Y-108095238D01*
X138023809Y-108190476D01*
X137976190Y-108238095D01*
X137880952Y-108285714D01*
X104142857Y-103952380D02*
X104476190Y-103476190D01*
X104714285Y-103952380D02*
X104714285Y-102952380D01*
X104333333Y-102952380D01*
X104238095Y-103000000D01*
X104190476Y-103047619D01*
X104142857Y-103142857D01*
X104142857Y-103285714D01*
X104190476Y-103380952D01*
X104238095Y-103428571D01*
X104333333Y-103476190D01*
X104714285Y-103476190D01*
X103190476Y-103952380D02*
X103761904Y-103952380D01*
X103476190Y-103952380D02*
X103476190Y-102952380D01*
X103571428Y-103095238D01*
X103666666Y-103190476D01*
X103761904Y-103238095D01*
X102809523Y-103047619D02*
X102761904Y-103000000D01*
X102666666Y-102952380D01*
X102428571Y-102952380D01*
X102333333Y-103000000D01*
X102285714Y-103047619D01*
X102238095Y-103142857D01*
X102238095Y-103238095D01*
X102285714Y-103380952D01*
X102857142Y-103952380D01*
X102238095Y-103952380D01*
X114714285Y-102000000D02*
X114809523Y-101952380D01*
X114952380Y-101952380D01*
X115095238Y-102000000D01*
X115190476Y-102095238D01*
X115238095Y-102190476D01*
X115285714Y-102380952D01*
X115285714Y-102523809D01*
X115238095Y-102714285D01*
X115190476Y-102809523D01*
X115095238Y-102904761D01*
X114952380Y-102952380D01*
X114857142Y-102952380D01*
X114714285Y-102904761D01*
X114666666Y-102857142D01*
X114666666Y-102523809D01*
X114857142Y-102523809D01*
X114238095Y-102952380D02*
X114238095Y-101952380D01*
X114000000Y-101952380D01*
X113857142Y-102000000D01*
X113761904Y-102095238D01*
X113714285Y-102190476D01*
X113666666Y-102380952D01*
X113666666Y-102523809D01*
X113714285Y-102714285D01*
X113761904Y-102809523D01*
X113857142Y-102904761D01*
X114000000Y-102952380D01*
X114238095Y-102952380D01*
X112714285Y-102952380D02*
X113285714Y-102952380D01*
X113000000Y-102952380D02*
X113000000Y-101952380D01*
X113095238Y-102095238D01*
X113190476Y-102190476D01*
X113285714Y-102238095D01*
X108452380Y-99857142D02*
X107976190Y-99523809D01*
X108452380Y-99285714D02*
X107452380Y-99285714D01*
X107452380Y-99666666D01*
X107500000Y-99761904D01*
X107547619Y-99809523D01*
X107642857Y-99857142D01*
X107785714Y-99857142D01*
X107880952Y-99809523D01*
X107928571Y-99761904D01*
X107976190Y-99666666D01*
X107976190Y-99285714D01*
X108452380Y-100809523D02*
X108452380Y-100238095D01*
X108452380Y-100523809D02*
X107452380Y-100523809D01*
X107595238Y-100428571D01*
X107690476Y-100333333D01*
X107738095Y-100238095D01*
X108452380Y-101285714D02*
X108452380Y-101476190D01*
X108404761Y-101571428D01*
X108357142Y-101619047D01*
X108214285Y-101714285D01*
X108023809Y-101761904D01*
X107642857Y-101761904D01*
X107547619Y-101714285D01*
X107500000Y-101666666D01*
X107452380Y-101571428D01*
X107452380Y-101380952D01*
X107500000Y-101285714D01*
X107547619Y-101238095D01*
X107642857Y-101190476D01*
X107880952Y-101190476D01*
X107976190Y-101238095D01*
X108023809Y-101285714D01*
X108071428Y-101380952D01*
X108071428Y-101571428D01*
X108023809Y-101666666D01*
X107976190Y-101714285D01*
X107880952Y-101761904D01*
X94841666Y-102452380D02*
X95175000Y-101976190D01*
X95413095Y-102452380D02*
X95413095Y-101452380D01*
X95032142Y-101452380D01*
X94936904Y-101500000D01*
X94889285Y-101547619D01*
X94841666Y-101642857D01*
X94841666Y-101785714D01*
X94889285Y-101880952D01*
X94936904Y-101928571D01*
X95032142Y-101976190D01*
X95413095Y-101976190D01*
X93984523Y-101785714D02*
X93984523Y-102452380D01*
X94222619Y-101404761D02*
X94460714Y-102119047D01*
X93841666Y-102119047D01*
X111842857Y-107952380D02*
X112176190Y-107476190D01*
X112414285Y-107952380D02*
X112414285Y-106952380D01*
X112033333Y-106952380D01*
X111938095Y-107000000D01*
X111890476Y-107047619D01*
X111842857Y-107142857D01*
X111842857Y-107285714D01*
X111890476Y-107380952D01*
X111938095Y-107428571D01*
X112033333Y-107476190D01*
X112414285Y-107476190D01*
X111461904Y-107047619D02*
X111414285Y-107000000D01*
X111319047Y-106952380D01*
X111080952Y-106952380D01*
X110985714Y-107000000D01*
X110938095Y-107047619D01*
X110890476Y-107142857D01*
X110890476Y-107238095D01*
X110938095Y-107380952D01*
X111509523Y-107952380D01*
X110890476Y-107952380D01*
X110557142Y-106952380D02*
X109938095Y-106952380D01*
X110271428Y-107333333D01*
X110128571Y-107333333D01*
X110033333Y-107380952D01*
X109985714Y-107428571D01*
X109938095Y-107523809D01*
X109938095Y-107761904D01*
X109985714Y-107857142D01*
X110033333Y-107904761D01*
X110128571Y-107952380D01*
X110414285Y-107952380D01*
X110509523Y-107904761D01*
X110557142Y-107857142D01*
X133357142Y-104833333D02*
X133404761Y-104785714D01*
X133452380Y-104642857D01*
X133452380Y-104547619D01*
X133404761Y-104404761D01*
X133309523Y-104309523D01*
X133214285Y-104261904D01*
X133023809Y-104214285D01*
X132880952Y-104214285D01*
X132690476Y-104261904D01*
X132595238Y-104309523D01*
X132500000Y-104404761D01*
X132452380Y-104547619D01*
X132452380Y-104642857D01*
X132500000Y-104785714D01*
X132547619Y-104833333D01*
X132452380Y-105690476D02*
X132452380Y-105500000D01*
X132500000Y-105404761D01*
X132547619Y-105357142D01*
X132690476Y-105261904D01*
X132880952Y-105214285D01*
X133261904Y-105214285D01*
X133357142Y-105261904D01*
X133404761Y-105309523D01*
X133452380Y-105404761D01*
X133452380Y-105595238D01*
X133404761Y-105690476D01*
X133357142Y-105738095D01*
X133261904Y-105785714D01*
X133023809Y-105785714D01*
X132928571Y-105738095D01*
X132880952Y-105690476D01*
X132833333Y-105595238D01*
X132833333Y-105404761D01*
X132880952Y-105309523D01*
X132928571Y-105261904D01*
X133023809Y-105214285D01*
X126642857Y-113452380D02*
X126976190Y-112976190D01*
X127214285Y-113452380D02*
X127214285Y-112452380D01*
X126833333Y-112452380D01*
X126738095Y-112500000D01*
X126690476Y-112547619D01*
X126642857Y-112642857D01*
X126642857Y-112785714D01*
X126690476Y-112880952D01*
X126738095Y-112928571D01*
X126833333Y-112976190D01*
X127214285Y-112976190D01*
X125690476Y-113452380D02*
X126261904Y-113452380D01*
X125976190Y-113452380D02*
X125976190Y-112452380D01*
X126071428Y-112595238D01*
X126166666Y-112690476D01*
X126261904Y-112738095D01*
X125357142Y-112452380D02*
X124690476Y-112452380D01*
X125119047Y-113452380D01*
X90738095Y-70952380D02*
X90738095Y-69952380D01*
X90357142Y-69952380D01*
X90261904Y-70000000D01*
X90214285Y-70047619D01*
X90166666Y-70142857D01*
X90166666Y-70285714D01*
X90214285Y-70380952D01*
X90261904Y-70428571D01*
X90357142Y-70476190D01*
X90738095Y-70476190D01*
X89785714Y-70047619D02*
X89738095Y-70000000D01*
X89642857Y-69952380D01*
X89404761Y-69952380D01*
X89309523Y-70000000D01*
X89261904Y-70047619D01*
X89214285Y-70142857D01*
X89214285Y-70238095D01*
X89261904Y-70380952D01*
X89833333Y-70952380D01*
X89214285Y-70952380D01*
X106841793Y-139797969D02*
X106134687Y-139090862D01*
X105966328Y-139259221D01*
X105898984Y-139393908D01*
X105898984Y-139528595D01*
X105932656Y-139629610D01*
X106033671Y-139797969D01*
X106134687Y-139898984D01*
X106303045Y-140000000D01*
X106404061Y-140033671D01*
X106538748Y-140033671D01*
X106673435Y-139966328D01*
X106841793Y-139797969D01*
X105629610Y-140202030D02*
X105663282Y-140101015D01*
X105663282Y-140033671D01*
X105629610Y-139932656D01*
X105595938Y-139898984D01*
X105494923Y-139865312D01*
X105427580Y-139865312D01*
X105326564Y-139898984D01*
X105191877Y-140033671D01*
X105158206Y-140134687D01*
X105158206Y-140202030D01*
X105191877Y-140303045D01*
X105225549Y-140336717D01*
X105326564Y-140370389D01*
X105393908Y-140370389D01*
X105494923Y-140336717D01*
X105629610Y-140202030D01*
X105730625Y-140168358D01*
X105797969Y-140168358D01*
X105898984Y-140202030D01*
X106033671Y-140336717D01*
X106067343Y-140437732D01*
X106067343Y-140505076D01*
X106033671Y-140606091D01*
X105898984Y-140740778D01*
X105797969Y-140774450D01*
X105730625Y-140774450D01*
X105629610Y-140740778D01*
X105494923Y-140606091D01*
X105461251Y-140505076D01*
X105461251Y-140437732D01*
X105494923Y-140336717D01*
X124642857Y-130357142D02*
X124690476Y-130404761D01*
X124833333Y-130452380D01*
X124928571Y-130452380D01*
X125071428Y-130404761D01*
X125166666Y-130309523D01*
X125214285Y-130214285D01*
X125261904Y-130023809D01*
X125261904Y-129880952D01*
X125214285Y-129690476D01*
X125166666Y-129595238D01*
X125071428Y-129500000D01*
X124928571Y-129452380D01*
X124833333Y-129452380D01*
X124690476Y-129500000D01*
X124642857Y-129547619D01*
X123690476Y-130452380D02*
X124261904Y-130452380D01*
X123976190Y-130452380D02*
X123976190Y-129452380D01*
X124071428Y-129595238D01*
X124166666Y-129690476D01*
X124261904Y-129738095D01*
X122785714Y-129452380D02*
X123261904Y-129452380D01*
X123309523Y-129928571D01*
X123261904Y-129880952D01*
X123166666Y-129833333D01*
X122928571Y-129833333D01*
X122833333Y-129880952D01*
X122785714Y-129928571D01*
X122738095Y-130023809D01*
X122738095Y-130261904D01*
X122785714Y-130357142D01*
X122833333Y-130404761D01*
X122928571Y-130452380D01*
X123166666Y-130452380D01*
X123261904Y-130404761D01*
X123309523Y-130357142D01*
X147952380Y-110357142D02*
X147476190Y-110023809D01*
X147952380Y-109785714D02*
X146952380Y-109785714D01*
X146952380Y-110166666D01*
X147000000Y-110261904D01*
X147047619Y-110309523D01*
X147142857Y-110357142D01*
X147285714Y-110357142D01*
X147380952Y-110309523D01*
X147428571Y-110261904D01*
X147476190Y-110166666D01*
X147476190Y-109785714D01*
X147952380Y-111309523D02*
X147952380Y-110738095D01*
X147952380Y-111023809D02*
X146952380Y-111023809D01*
X147095238Y-110928571D01*
X147190476Y-110833333D01*
X147238095Y-110738095D01*
X147285714Y-112166666D02*
X147952380Y-112166666D01*
X146904761Y-111928571D02*
X147619047Y-111690476D01*
X147619047Y-112309523D01*
X119461251Y-135321488D02*
X118754145Y-136028595D01*
X118922503Y-136196954D01*
X119057190Y-136264297D01*
X119191877Y-136264297D01*
X119292893Y-136230625D01*
X119461251Y-136129610D01*
X119562267Y-136028595D01*
X119663282Y-135860236D01*
X119696954Y-135759221D01*
X119696954Y-135624534D01*
X119629610Y-135489847D01*
X119461251Y-135321488D01*
X120538748Y-136398984D02*
X120134687Y-135994923D01*
X120336717Y-136196954D02*
X119629610Y-136904061D01*
X119663282Y-136735702D01*
X119663282Y-136601015D01*
X119629610Y-136500000D01*
X121212183Y-137072419D02*
X120808122Y-136668358D01*
X121010152Y-136870389D02*
X120303045Y-137577496D01*
X120336717Y-137409137D01*
X120336717Y-137274450D01*
X120303045Y-137173435D01*
X140357142Y-107333333D02*
X140404761Y-107285714D01*
X140452380Y-107142857D01*
X140452380Y-107047619D01*
X140404761Y-106904761D01*
X140309523Y-106809523D01*
X140214285Y-106761904D01*
X140023809Y-106714285D01*
X139880952Y-106714285D01*
X139690476Y-106761904D01*
X139595238Y-106809523D01*
X139500000Y-106904761D01*
X139452380Y-107047619D01*
X139452380Y-107142857D01*
X139500000Y-107285714D01*
X139547619Y-107333333D01*
X139452380Y-107666666D02*
X139452380Y-108333333D01*
X140452380Y-107904761D01*
X127642857Y-115357142D02*
X127690476Y-115404761D01*
X127833333Y-115452380D01*
X127928571Y-115452380D01*
X128071428Y-115404761D01*
X128166666Y-115309523D01*
X128214285Y-115214285D01*
X128261904Y-115023809D01*
X128261904Y-114880952D01*
X128214285Y-114690476D01*
X128166666Y-114595238D01*
X128071428Y-114500000D01*
X127928571Y-114452380D01*
X127833333Y-114452380D01*
X127690476Y-114500000D01*
X127642857Y-114547619D01*
X126690476Y-115452380D02*
X127261904Y-115452380D01*
X126976190Y-115452380D02*
X126976190Y-114452380D01*
X127071428Y-114595238D01*
X127166666Y-114690476D01*
X127261904Y-114738095D01*
X125738095Y-115452380D02*
X126309523Y-115452380D01*
X126023809Y-115452380D02*
X126023809Y-114452380D01*
X126119047Y-114595238D01*
X126214285Y-114690476D01*
X126309523Y-114738095D01*
X148047619Y-58904761D02*
X148000000Y-58809523D01*
X147904761Y-58714285D01*
X147761904Y-58571428D01*
X147714285Y-58476190D01*
X147714285Y-58380952D01*
X147952380Y-58428571D02*
X147904761Y-58333333D01*
X147809523Y-58238095D01*
X147619047Y-58190476D01*
X147285714Y-58190476D01*
X147095238Y-58238095D01*
X147000000Y-58333333D01*
X146952380Y-58428571D01*
X146952380Y-58619047D01*
X147000000Y-58714285D01*
X147095238Y-58809523D01*
X147285714Y-58857142D01*
X147619047Y-58857142D01*
X147809523Y-58809523D01*
X147904761Y-58714285D01*
X147952380Y-58619047D01*
X147952380Y-58428571D01*
X147952380Y-59333333D02*
X147952380Y-59523809D01*
X147904761Y-59619047D01*
X147857142Y-59666666D01*
X147714285Y-59761904D01*
X147523809Y-59809523D01*
X147142857Y-59809523D01*
X147047619Y-59761904D01*
X147000000Y-59714285D01*
X146952380Y-59619047D01*
X146952380Y-59428571D01*
X147000000Y-59333333D01*
X147047619Y-59285714D01*
X147142857Y-59238095D01*
X147380952Y-59238095D01*
X147476190Y-59285714D01*
X147523809Y-59333333D01*
X147571428Y-59428571D01*
X147571428Y-59619047D01*
X147523809Y-59714285D01*
X147476190Y-59761904D01*
X147380952Y-59809523D01*
X128452380Y-88357142D02*
X127976190Y-88023809D01*
X128452380Y-87785714D02*
X127452380Y-87785714D01*
X127452380Y-88166666D01*
X127500000Y-88261904D01*
X127547619Y-88309523D01*
X127642857Y-88357142D01*
X127785714Y-88357142D01*
X127880952Y-88309523D01*
X127928571Y-88261904D01*
X127976190Y-88166666D01*
X127976190Y-87785714D01*
X128452380Y-89309523D02*
X128452380Y-88738095D01*
X128452380Y-89023809D02*
X127452380Y-89023809D01*
X127595238Y-88928571D01*
X127690476Y-88833333D01*
X127738095Y-88738095D01*
X128452380Y-90261904D02*
X128452380Y-89690476D01*
X128452380Y-89976190D02*
X127452380Y-89976190D01*
X127595238Y-89880952D01*
X127690476Y-89785714D01*
X127738095Y-89690476D01*
X130666666Y-91357142D02*
X130714285Y-91404761D01*
X130857142Y-91452380D01*
X130952380Y-91452380D01*
X131095238Y-91404761D01*
X131190476Y-91309523D01*
X131238095Y-91214285D01*
X131285714Y-91023809D01*
X131285714Y-90880952D01*
X131238095Y-90690476D01*
X131190476Y-90595238D01*
X131095238Y-90500000D01*
X130952380Y-90452380D01*
X130857142Y-90452380D01*
X130714285Y-90500000D01*
X130666666Y-90547619D01*
X130333333Y-90452380D02*
X129714285Y-90452380D01*
X130047619Y-90833333D01*
X129904761Y-90833333D01*
X129809523Y-90880952D01*
X129761904Y-90928571D01*
X129714285Y-91023809D01*
X129714285Y-91261904D01*
X129761904Y-91357142D01*
X129809523Y-91404761D01*
X129904761Y-91452380D01*
X130190476Y-91452380D01*
X130285714Y-91404761D01*
X130333333Y-91357142D01*
X133642857Y-109952380D02*
X133976190Y-109476190D01*
X134214285Y-109952380D02*
X134214285Y-108952380D01*
X133833333Y-108952380D01*
X133738095Y-109000000D01*
X133690476Y-109047619D01*
X133642857Y-109142857D01*
X133642857Y-109285714D01*
X133690476Y-109380952D01*
X133738095Y-109428571D01*
X133833333Y-109476190D01*
X134214285Y-109476190D01*
X133261904Y-109047619D02*
X133214285Y-109000000D01*
X133119047Y-108952380D01*
X132880952Y-108952380D01*
X132785714Y-109000000D01*
X132738095Y-109047619D01*
X132690476Y-109142857D01*
X132690476Y-109238095D01*
X132738095Y-109380952D01*
X133309523Y-109952380D01*
X132690476Y-109952380D01*
X132119047Y-109380952D02*
X132214285Y-109333333D01*
X132261904Y-109285714D01*
X132309523Y-109190476D01*
X132309523Y-109142857D01*
X132261904Y-109047619D01*
X132214285Y-109000000D01*
X132119047Y-108952380D01*
X131928571Y-108952380D01*
X131833333Y-109000000D01*
X131785714Y-109047619D01*
X131738095Y-109142857D01*
X131738095Y-109190476D01*
X131785714Y-109285714D01*
X131833333Y-109333333D01*
X131928571Y-109380952D01*
X132119047Y-109380952D01*
X132214285Y-109428571D01*
X132261904Y-109476190D01*
X132309523Y-109571428D01*
X132309523Y-109761904D01*
X132261904Y-109857142D01*
X132214285Y-109904761D01*
X132119047Y-109952380D01*
X131928571Y-109952380D01*
X131833333Y-109904761D01*
X131785714Y-109857142D01*
X131738095Y-109761904D01*
X131738095Y-109571428D01*
X131785714Y-109476190D01*
X131833333Y-109428571D01*
X131928571Y-109380952D01*
X105952380Y-65594400D02*
X105476190Y-65261067D01*
X105952380Y-65022972D02*
X104952380Y-65022972D01*
X104952380Y-65403924D01*
X105000000Y-65499162D01*
X105047619Y-65546781D01*
X105142857Y-65594400D01*
X105285714Y-65594400D01*
X105380952Y-65546781D01*
X105428571Y-65499162D01*
X105476190Y-65403924D01*
X105476190Y-65022972D01*
X104952380Y-65927734D02*
X104952380Y-66546781D01*
X105333333Y-66213448D01*
X105333333Y-66356305D01*
X105380952Y-66451543D01*
X105428571Y-66499162D01*
X105523809Y-66546781D01*
X105761904Y-66546781D01*
X105857142Y-66499162D01*
X105904761Y-66451543D01*
X105952380Y-66356305D01*
X105952380Y-66070591D01*
X105904761Y-65975353D01*
X105857142Y-65927734D01*
X105952380Y-67022972D02*
X105952380Y-67213448D01*
X105904761Y-67308686D01*
X105857142Y-67356305D01*
X105714285Y-67451543D01*
X105523809Y-67499162D01*
X105142857Y-67499162D01*
X105047619Y-67451543D01*
X105000000Y-67403924D01*
X104952380Y-67308686D01*
X104952380Y-67118210D01*
X105000000Y-67022972D01*
X105047619Y-66975353D01*
X105142857Y-66927734D01*
X105380952Y-66927734D01*
X105476190Y-66975353D01*
X105523809Y-67022972D01*
X105571428Y-67118210D01*
X105571428Y-67308686D01*
X105523809Y-67403924D01*
X105476190Y-67451543D01*
X105380952Y-67499162D01*
X133452380Y-121357142D02*
X132976190Y-121023809D01*
X133452380Y-120785714D02*
X132452380Y-120785714D01*
X132452380Y-121166666D01*
X132500000Y-121261904D01*
X132547619Y-121309523D01*
X132642857Y-121357142D01*
X132785714Y-121357142D01*
X132880952Y-121309523D01*
X132928571Y-121261904D01*
X132976190Y-121166666D01*
X132976190Y-120785714D01*
X132452380Y-121690476D02*
X132452380Y-122309523D01*
X132833333Y-121976190D01*
X132833333Y-122119047D01*
X132880952Y-122214285D01*
X132928571Y-122261904D01*
X133023809Y-122309523D01*
X133261904Y-122309523D01*
X133357142Y-122261904D01*
X133404761Y-122214285D01*
X133452380Y-122119047D01*
X133452380Y-121833333D01*
X133404761Y-121738095D01*
X133357142Y-121690476D01*
X132547619Y-122690476D02*
X132500000Y-122738095D01*
X132452380Y-122833333D01*
X132452380Y-123071428D01*
X132500000Y-123166666D01*
X132547619Y-123214285D01*
X132642857Y-123261904D01*
X132738095Y-123261904D01*
X132880952Y-123214285D01*
X133452380Y-122642857D01*
X133452380Y-123261904D01*
X125857142Y-78857142D02*
X125904761Y-78809523D01*
X125952380Y-78666666D01*
X125952380Y-78571428D01*
X125904761Y-78428571D01*
X125809523Y-78333333D01*
X125714285Y-78285714D01*
X125523809Y-78238095D01*
X125380952Y-78238095D01*
X125190476Y-78285714D01*
X125095238Y-78333333D01*
X125000000Y-78428571D01*
X124952380Y-78571428D01*
X124952380Y-78666666D01*
X125000000Y-78809523D01*
X125047619Y-78857142D01*
X124952380Y-79190476D02*
X124952380Y-79809523D01*
X125333333Y-79476190D01*
X125333333Y-79619047D01*
X125380952Y-79714285D01*
X125428571Y-79761904D01*
X125523809Y-79809523D01*
X125761904Y-79809523D01*
X125857142Y-79761904D01*
X125904761Y-79714285D01*
X125952380Y-79619047D01*
X125952380Y-79333333D01*
X125904761Y-79238095D01*
X125857142Y-79190476D01*
X125047619Y-80190476D02*
X125000000Y-80238095D01*
X124952380Y-80333333D01*
X124952380Y-80571428D01*
X125000000Y-80666666D01*
X125047619Y-80714285D01*
X125142857Y-80761904D01*
X125238095Y-80761904D01*
X125380952Y-80714285D01*
X125952380Y-80142857D01*
X125952380Y-80761904D01*
X130452380Y-145261904D02*
X129452380Y-145261904D01*
X129452380Y-145500000D01*
X129500000Y-145642857D01*
X129595238Y-145738095D01*
X129690476Y-145785714D01*
X129880952Y-145833333D01*
X130023809Y-145833333D01*
X130214285Y-145785714D01*
X130309523Y-145738095D01*
X130404761Y-145642857D01*
X130452380Y-145500000D01*
X130452380Y-145261904D01*
X129452380Y-146690476D02*
X129452380Y-146500000D01*
X129500000Y-146404761D01*
X129547619Y-146357142D01*
X129690476Y-146261904D01*
X129880952Y-146214285D01*
X130261904Y-146214285D01*
X130357142Y-146261904D01*
X130404761Y-146309523D01*
X130452380Y-146404761D01*
X130452380Y-146595238D01*
X130404761Y-146690476D01*
X130357142Y-146738095D01*
X130261904Y-146785714D01*
X130023809Y-146785714D01*
X129928571Y-146738095D01*
X129880952Y-146690476D01*
X129833333Y-146595238D01*
X129833333Y-146404761D01*
X129880952Y-146309523D01*
X129928571Y-146261904D01*
X130023809Y-146214285D01*
X94666666Y-100452380D02*
X95000000Y-99976190D01*
X95238095Y-100452380D02*
X95238095Y-99452380D01*
X94857142Y-99452380D01*
X94761904Y-99500000D01*
X94714285Y-99547619D01*
X94666666Y-99642857D01*
X94666666Y-99785714D01*
X94714285Y-99880952D01*
X94761904Y-99928571D01*
X94857142Y-99976190D01*
X95238095Y-99976190D01*
X93761904Y-99452380D02*
X94238095Y-99452380D01*
X94285714Y-99928571D01*
X94238095Y-99880952D01*
X94142857Y-99833333D01*
X93904761Y-99833333D01*
X93809523Y-99880952D01*
X93761904Y-99928571D01*
X93714285Y-100023809D01*
X93714285Y-100261904D01*
X93761904Y-100357142D01*
X93809523Y-100404761D01*
X93904761Y-100452380D01*
X94142857Y-100452380D01*
X94238095Y-100404761D01*
X94285714Y-100357142D01*
X126952380Y-117238095D02*
X127761904Y-117238095D01*
X127857142Y-117285714D01*
X127904761Y-117333333D01*
X127952380Y-117428571D01*
X127952380Y-117619047D01*
X127904761Y-117714285D01*
X127857142Y-117761904D01*
X127761904Y-117809523D01*
X126952380Y-117809523D01*
X127285714Y-118714285D02*
X127952380Y-118714285D01*
X126904761Y-118476190D02*
X127619047Y-118238095D01*
X127619047Y-118857142D01*
X145022380Y-72357142D02*
X144546190Y-72023809D01*
X145022380Y-71785714D02*
X144022380Y-71785714D01*
X144022380Y-72166666D01*
X144070000Y-72261904D01*
X144117619Y-72309523D01*
X144212857Y-72357142D01*
X144355714Y-72357142D01*
X144450952Y-72309523D01*
X144498571Y-72261904D01*
X144546190Y-72166666D01*
X144546190Y-71785714D01*
X144117619Y-72738095D02*
X144070000Y-72785714D01*
X144022380Y-72880952D01*
X144022380Y-73119047D01*
X144070000Y-73214285D01*
X144117619Y-73261904D01*
X144212857Y-73309523D01*
X144308095Y-73309523D01*
X144450952Y-73261904D01*
X145022380Y-72690476D01*
X145022380Y-73309523D01*
X145022380Y-73785714D02*
X145022380Y-73976190D01*
X144974761Y-74071428D01*
X144927142Y-74119047D01*
X144784285Y-74214285D01*
X144593809Y-74261904D01*
X144212857Y-74261904D01*
X144117619Y-74214285D01*
X144070000Y-74166666D01*
X144022380Y-74071428D01*
X144022380Y-73880952D01*
X144070000Y-73785714D01*
X144117619Y-73738095D01*
X144212857Y-73690476D01*
X144450952Y-73690476D01*
X144546190Y-73738095D01*
X144593809Y-73785714D01*
X144641428Y-73880952D01*
X144641428Y-74071428D01*
X144593809Y-74166666D01*
X144546190Y-74214285D01*
X144450952Y-74261904D01*
X140952380Y-88357142D02*
X140476190Y-88023809D01*
X140952380Y-87785714D02*
X139952380Y-87785714D01*
X139952380Y-88166666D01*
X140000000Y-88261904D01*
X140047619Y-88309523D01*
X140142857Y-88357142D01*
X140285714Y-88357142D01*
X140380952Y-88309523D01*
X140428571Y-88261904D01*
X140476190Y-88166666D01*
X140476190Y-87785714D01*
X140047619Y-88738095D02*
X140000000Y-88785714D01*
X139952380Y-88880952D01*
X139952380Y-89119047D01*
X140000000Y-89214285D01*
X140047619Y-89261904D01*
X140142857Y-89309523D01*
X140238095Y-89309523D01*
X140380952Y-89261904D01*
X140952380Y-88690476D01*
X140952380Y-89309523D01*
X139952380Y-90214285D02*
X139952380Y-89738095D01*
X140428571Y-89690476D01*
X140380952Y-89738095D01*
X140333333Y-89833333D01*
X140333333Y-90071428D01*
X140380952Y-90166666D01*
X140428571Y-90214285D01*
X140523809Y-90261904D01*
X140761904Y-90261904D01*
X140857142Y-90214285D01*
X140904761Y-90166666D01*
X140952380Y-90071428D01*
X140952380Y-89833333D01*
X140904761Y-89738095D01*
X140857142Y-89690476D01*
X108166666Y-112357142D02*
X108214285Y-112404761D01*
X108357142Y-112452380D01*
X108452380Y-112452380D01*
X108595238Y-112404761D01*
X108690476Y-112309523D01*
X108738095Y-112214285D01*
X108785714Y-112023809D01*
X108785714Y-111880952D01*
X108738095Y-111690476D01*
X108690476Y-111595238D01*
X108595238Y-111500000D01*
X108452380Y-111452380D01*
X108357142Y-111452380D01*
X108214285Y-111500000D01*
X108166666Y-111547619D01*
X107690476Y-112452380D02*
X107500000Y-112452380D01*
X107404761Y-112404761D01*
X107357142Y-112357142D01*
X107261904Y-112214285D01*
X107214285Y-112023809D01*
X107214285Y-111642857D01*
X107261904Y-111547619D01*
X107309523Y-111500000D01*
X107404761Y-111452380D01*
X107595238Y-111452380D01*
X107690476Y-111500000D01*
X107738095Y-111547619D01*
X107785714Y-111642857D01*
X107785714Y-111880952D01*
X107738095Y-111976190D01*
X107690476Y-112023809D01*
X107595238Y-112071428D01*
X107404761Y-112071428D01*
X107309523Y-112023809D01*
X107261904Y-111976190D01*
X107214285Y-111880952D01*
X118642857Y-80357142D02*
X118690476Y-80404761D01*
X118833333Y-80452380D01*
X118928571Y-80452380D01*
X119071428Y-80404761D01*
X119166666Y-80309523D01*
X119214285Y-80214285D01*
X119261904Y-80023809D01*
X119261904Y-79880952D01*
X119214285Y-79690476D01*
X119166666Y-79595238D01*
X119071428Y-79500000D01*
X118928571Y-79452380D01*
X118833333Y-79452380D01*
X118690476Y-79500000D01*
X118642857Y-79547619D01*
X118261904Y-79547619D02*
X118214285Y-79500000D01*
X118119047Y-79452380D01*
X117880952Y-79452380D01*
X117785714Y-79500000D01*
X117738095Y-79547619D01*
X117690476Y-79642857D01*
X117690476Y-79738095D01*
X117738095Y-79880952D01*
X118309523Y-80452380D01*
X117690476Y-80452380D01*
X116785714Y-79452380D02*
X117261904Y-79452380D01*
X117309523Y-79928571D01*
X117261904Y-79880952D01*
X117166666Y-79833333D01*
X116928571Y-79833333D01*
X116833333Y-79880952D01*
X116785714Y-79928571D01*
X116738095Y-80023809D01*
X116738095Y-80261904D01*
X116785714Y-80357142D01*
X116833333Y-80404761D01*
X116928571Y-80452380D01*
X117166666Y-80452380D01*
X117261904Y-80404761D01*
X117309523Y-80357142D01*
X103047619Y-59404761D02*
X103000000Y-59309523D01*
X102904761Y-59214285D01*
X102761904Y-59071428D01*
X102714285Y-58976190D01*
X102714285Y-58880952D01*
X102952380Y-58928571D02*
X102904761Y-58833333D01*
X102809523Y-58738095D01*
X102619047Y-58690476D01*
X102285714Y-58690476D01*
X102095238Y-58738095D01*
X102000000Y-58833333D01*
X101952380Y-58928571D01*
X101952380Y-59119047D01*
X102000000Y-59214285D01*
X102095238Y-59309523D01*
X102285714Y-59357142D01*
X102619047Y-59357142D01*
X102809523Y-59309523D01*
X102904761Y-59214285D01*
X102952380Y-59119047D01*
X102952380Y-58928571D01*
X101952380Y-60214285D02*
X101952380Y-60023809D01*
X102000000Y-59928571D01*
X102047619Y-59880952D01*
X102190476Y-59785714D01*
X102380952Y-59738095D01*
X102761904Y-59738095D01*
X102857142Y-59785714D01*
X102904761Y-59833333D01*
X102952380Y-59928571D01*
X102952380Y-60119047D01*
X102904761Y-60214285D01*
X102857142Y-60261904D01*
X102761904Y-60309523D01*
X102523809Y-60309523D01*
X102428571Y-60261904D01*
X102380952Y-60214285D01*
X102333333Y-60119047D01*
X102333333Y-59928571D01*
X102380952Y-59833333D01*
X102428571Y-59785714D01*
X102523809Y-59738095D01*
X119857142Y-103333333D02*
X119904761Y-103285714D01*
X119952380Y-103142857D01*
X119952380Y-103047619D01*
X119904761Y-102904761D01*
X119809523Y-102809523D01*
X119714285Y-102761904D01*
X119523809Y-102714285D01*
X119380952Y-102714285D01*
X119190476Y-102761904D01*
X119095238Y-102809523D01*
X119000000Y-102904761D01*
X118952380Y-103047619D01*
X118952380Y-103142857D01*
X119000000Y-103285714D01*
X119047619Y-103333333D01*
X119285714Y-104190476D02*
X119952380Y-104190476D01*
X118904761Y-103952380D02*
X119619047Y-103714285D01*
X119619047Y-104333333D01*
X103047619Y-65904761D02*
X103000000Y-65809523D01*
X102904761Y-65714285D01*
X102761904Y-65571428D01*
X102714285Y-65476190D01*
X102714285Y-65380952D01*
X102952380Y-65428571D02*
X102904761Y-65333333D01*
X102809523Y-65238095D01*
X102619047Y-65190476D01*
X102285714Y-65190476D01*
X102095238Y-65238095D01*
X102000000Y-65333333D01*
X101952380Y-65428571D01*
X101952380Y-65619047D01*
X102000000Y-65714285D01*
X102095238Y-65809523D01*
X102285714Y-65857142D01*
X102619047Y-65857142D01*
X102809523Y-65809523D01*
X102904761Y-65714285D01*
X102952380Y-65619047D01*
X102952380Y-65428571D01*
X102380952Y-66428571D02*
X102333333Y-66333333D01*
X102285714Y-66285714D01*
X102190476Y-66238095D01*
X102142857Y-66238095D01*
X102047619Y-66285714D01*
X102000000Y-66333333D01*
X101952380Y-66428571D01*
X101952380Y-66619047D01*
X102000000Y-66714285D01*
X102047619Y-66761904D01*
X102142857Y-66809523D01*
X102190476Y-66809523D01*
X102285714Y-66761904D01*
X102333333Y-66714285D01*
X102380952Y-66619047D01*
X102380952Y-66428571D01*
X102428571Y-66333333D01*
X102476190Y-66285714D01*
X102571428Y-66238095D01*
X102761904Y-66238095D01*
X102857142Y-66285714D01*
X102904761Y-66333333D01*
X102952380Y-66428571D01*
X102952380Y-66619047D01*
X102904761Y-66714285D01*
X102857142Y-66761904D01*
X102761904Y-66809523D01*
X102571428Y-66809523D01*
X102476190Y-66761904D01*
X102428571Y-66714285D01*
X102380952Y-66619047D01*
X106857142Y-90857142D02*
X106904761Y-90809523D01*
X106952380Y-90666666D01*
X106952380Y-90571428D01*
X106904761Y-90428571D01*
X106809523Y-90333333D01*
X106714285Y-90285714D01*
X106523809Y-90238095D01*
X106380952Y-90238095D01*
X106190476Y-90285714D01*
X106095238Y-90333333D01*
X106000000Y-90428571D01*
X105952380Y-90571428D01*
X105952380Y-90666666D01*
X106000000Y-90809523D01*
X106047619Y-90857142D01*
X106952380Y-91809523D02*
X106952380Y-91238095D01*
X106952380Y-91523809D02*
X105952380Y-91523809D01*
X106095238Y-91428571D01*
X106190476Y-91333333D01*
X106238095Y-91238095D01*
X105952380Y-92142857D02*
X105952380Y-92761904D01*
X106333333Y-92428571D01*
X106333333Y-92571428D01*
X106380952Y-92666666D01*
X106428571Y-92714285D01*
X106523809Y-92761904D01*
X106761904Y-92761904D01*
X106857142Y-92714285D01*
X106904761Y-92666666D01*
X106952380Y-92571428D01*
X106952380Y-92285714D01*
X106904761Y-92190476D01*
X106857142Y-92142857D01*
X115295704Y-98655121D02*
X116295704Y-99321787D01*
X115295704Y-99321787D02*
X116295704Y-98655121D01*
X116295704Y-100226549D02*
X116295704Y-99655121D01*
X116295704Y-99940835D02*
X115295704Y-99940835D01*
X115438562Y-99845597D01*
X115533800Y-99750359D01*
X115581419Y-99655121D01*
X133952380Y-135357142D02*
X133476190Y-135023809D01*
X133952380Y-134785714D02*
X132952380Y-134785714D01*
X132952380Y-135166666D01*
X133000000Y-135261904D01*
X133047619Y-135309523D01*
X133142857Y-135357142D01*
X133285714Y-135357142D01*
X133380952Y-135309523D01*
X133428571Y-135261904D01*
X133476190Y-135166666D01*
X133476190Y-134785714D01*
X133285714Y-136214285D02*
X133952380Y-136214285D01*
X132904761Y-135976190D02*
X133619047Y-135738095D01*
X133619047Y-136357142D01*
X133952380Y-137261904D02*
X133952380Y-136690476D01*
X133952380Y-136976190D02*
X132952380Y-136976190D01*
X133095238Y-136880952D01*
X133190476Y-136785714D01*
X133238095Y-136690476D01*
X135142857Y-53357142D02*
X135190476Y-53404761D01*
X135333333Y-53452380D01*
X135428571Y-53452380D01*
X135571428Y-53404761D01*
X135666666Y-53309523D01*
X135714285Y-53214285D01*
X135761904Y-53023809D01*
X135761904Y-52880952D01*
X135714285Y-52690476D01*
X135666666Y-52595238D01*
X135571428Y-52500000D01*
X135428571Y-52452380D01*
X135333333Y-52452380D01*
X135190476Y-52500000D01*
X135142857Y-52547619D01*
X134761904Y-52547619D02*
X134714285Y-52500000D01*
X134619047Y-52452380D01*
X134380952Y-52452380D01*
X134285714Y-52500000D01*
X134238095Y-52547619D01*
X134190476Y-52642857D01*
X134190476Y-52738095D01*
X134238095Y-52880952D01*
X134809523Y-53452380D01*
X134190476Y-53452380D01*
X133857142Y-52452380D02*
X133190476Y-52452380D01*
X133619047Y-53452380D01*
X148952380Y-96261904D02*
X147952380Y-96261904D01*
X147952380Y-96642857D01*
X148000000Y-96738095D01*
X148047619Y-96785714D01*
X148142857Y-96833333D01*
X148285714Y-96833333D01*
X148380952Y-96785714D01*
X148428571Y-96738095D01*
X148476190Y-96642857D01*
X148476190Y-96261904D01*
X148857142Y-97833333D02*
X148904761Y-97785714D01*
X148952380Y-97642857D01*
X148952380Y-97547619D01*
X148904761Y-97404761D01*
X148809523Y-97309523D01*
X148714285Y-97261904D01*
X148523809Y-97214285D01*
X148380952Y-97214285D01*
X148190476Y-97261904D01*
X148095238Y-97309523D01*
X148000000Y-97404761D01*
X147952380Y-97547619D01*
X147952380Y-97642857D01*
X148000000Y-97785714D01*
X148047619Y-97833333D01*
X148047619Y-98214285D02*
X148000000Y-98261904D01*
X147952380Y-98357142D01*
X147952380Y-98595238D01*
X148000000Y-98690476D01*
X148047619Y-98738095D01*
X148142857Y-98785714D01*
X148238095Y-98785714D01*
X148380952Y-98738095D01*
X148952380Y-98166666D01*
X148952380Y-98785714D01*
X148142857Y-90952380D02*
X148476190Y-90476190D01*
X148714285Y-90952380D02*
X148714285Y-89952380D01*
X148333333Y-89952380D01*
X148238095Y-90000000D01*
X148190476Y-90047619D01*
X148142857Y-90142857D01*
X148142857Y-90285714D01*
X148190476Y-90380952D01*
X148238095Y-90428571D01*
X148333333Y-90476190D01*
X148714285Y-90476190D01*
X147761904Y-90047619D02*
X147714285Y-90000000D01*
X147619047Y-89952380D01*
X147380952Y-89952380D01*
X147285714Y-90000000D01*
X147238095Y-90047619D01*
X147190476Y-90142857D01*
X147190476Y-90238095D01*
X147238095Y-90380952D01*
X147809523Y-90952380D01*
X147190476Y-90952380D01*
X146809523Y-90047619D02*
X146761904Y-90000000D01*
X146666666Y-89952380D01*
X146428571Y-89952380D01*
X146333333Y-90000000D01*
X146285714Y-90047619D01*
X146238095Y-90142857D01*
X146238095Y-90238095D01*
X146285714Y-90380952D01*
X146857142Y-90952380D01*
X146238095Y-90952380D01*
X135333333Y-130428571D02*
X135666666Y-130428571D01*
X135666666Y-130952380D02*
X135666666Y-129952380D01*
X135190476Y-129952380D01*
X134857142Y-130047619D02*
X134809523Y-130000000D01*
X134714285Y-129952380D01*
X134476190Y-129952380D01*
X134380952Y-130000000D01*
X134333333Y-130047619D01*
X134285714Y-130142857D01*
X134285714Y-130238095D01*
X134333333Y-130380952D01*
X134904761Y-130952380D01*
X134285714Y-130952380D01*
X121333333Y-96428571D02*
X121666666Y-96428571D01*
X121666666Y-96952380D02*
X121666666Y-95952380D01*
X121190476Y-95952380D01*
X120476190Y-96428571D02*
X120333333Y-96476190D01*
X120285714Y-96523809D01*
X120238095Y-96619047D01*
X120238095Y-96761904D01*
X120285714Y-96857142D01*
X120333333Y-96904761D01*
X120428571Y-96952380D01*
X120809523Y-96952380D01*
X120809523Y-95952380D01*
X120476190Y-95952380D01*
X120380952Y-96000000D01*
X120333333Y-96047619D01*
X120285714Y-96142857D01*
X120285714Y-96238095D01*
X120333333Y-96333333D01*
X120380952Y-96380952D01*
X120476190Y-96428571D01*
X120809523Y-96428571D01*
X119285714Y-96952380D02*
X119857142Y-96952380D01*
X119571428Y-96952380D02*
X119571428Y-95952380D01*
X119666666Y-96095238D01*
X119761904Y-96190476D01*
X119857142Y-96238095D01*
X143357142Y-88357142D02*
X143404761Y-88309523D01*
X143452380Y-88166666D01*
X143452380Y-88071428D01*
X143404761Y-87928571D01*
X143309523Y-87833333D01*
X143214285Y-87785714D01*
X143023809Y-87738095D01*
X142880952Y-87738095D01*
X142690476Y-87785714D01*
X142595238Y-87833333D01*
X142500000Y-87928571D01*
X142452380Y-88071428D01*
X142452380Y-88166666D01*
X142500000Y-88309523D01*
X142547619Y-88357142D01*
X142547619Y-88738095D02*
X142500000Y-88785714D01*
X142452380Y-88880952D01*
X142452380Y-89119047D01*
X142500000Y-89214285D01*
X142547619Y-89261904D01*
X142642857Y-89309523D01*
X142738095Y-89309523D01*
X142880952Y-89261904D01*
X143452380Y-88690476D01*
X143452380Y-89309523D01*
X143452380Y-90261904D02*
X143452380Y-89690476D01*
X143452380Y-89976190D02*
X142452380Y-89976190D01*
X142595238Y-89880952D01*
X142690476Y-89785714D01*
X142738095Y-89690476D01*
X138357142Y-88357142D02*
X138404761Y-88309523D01*
X138452380Y-88166666D01*
X138452380Y-88071428D01*
X138404761Y-87928571D01*
X138309523Y-87833333D01*
X138214285Y-87785714D01*
X138023809Y-87738095D01*
X137880952Y-87738095D01*
X137690476Y-87785714D01*
X137595238Y-87833333D01*
X137500000Y-87928571D01*
X137452380Y-88071428D01*
X137452380Y-88166666D01*
X137500000Y-88309523D01*
X137547619Y-88357142D01*
X137547619Y-88738095D02*
X137500000Y-88785714D01*
X137452380Y-88880952D01*
X137452380Y-89119047D01*
X137500000Y-89214285D01*
X137547619Y-89261904D01*
X137642857Y-89309523D01*
X137738095Y-89309523D01*
X137880952Y-89261904D01*
X138452380Y-88690476D01*
X138452380Y-89309523D01*
X137547619Y-89690476D02*
X137500000Y-89738095D01*
X137452380Y-89833333D01*
X137452380Y-90071428D01*
X137500000Y-90166666D01*
X137547619Y-90214285D01*
X137642857Y-90261904D01*
X137738095Y-90261904D01*
X137880952Y-90214285D01*
X138452380Y-89642857D01*
X138452380Y-90261904D01*
X126857142Y-88357142D02*
X126904761Y-88309523D01*
X126952380Y-88166666D01*
X126952380Y-88071428D01*
X126904761Y-87928571D01*
X126809523Y-87833333D01*
X126714285Y-87785714D01*
X126523809Y-87738095D01*
X126380952Y-87738095D01*
X126190476Y-87785714D01*
X126095238Y-87833333D01*
X126000000Y-87928571D01*
X125952380Y-88071428D01*
X125952380Y-88166666D01*
X126000000Y-88309523D01*
X126047619Y-88357142D01*
X126952380Y-89309523D02*
X126952380Y-88738095D01*
X126952380Y-89023809D02*
X125952380Y-89023809D01*
X126095238Y-88928571D01*
X126190476Y-88833333D01*
X126238095Y-88738095D01*
X125952380Y-89928571D02*
X125952380Y-90023809D01*
X126000000Y-90119047D01*
X126047619Y-90166666D01*
X126142857Y-90214285D01*
X126333333Y-90261904D01*
X126571428Y-90261904D01*
X126761904Y-90214285D01*
X126857142Y-90166666D01*
X126904761Y-90119047D01*
X126952380Y-90023809D01*
X126952380Y-89928571D01*
X126904761Y-89833333D01*
X126857142Y-89785714D01*
X126761904Y-89738095D01*
X126571428Y-89690476D01*
X126333333Y-89690476D01*
X126142857Y-89738095D01*
X126047619Y-89785714D01*
X126000000Y-89833333D01*
X125952380Y-89928571D01*
X106022380Y-102857142D02*
X105546190Y-102523809D01*
X106022380Y-102285714D02*
X105022380Y-102285714D01*
X105022380Y-102666666D01*
X105070000Y-102761904D01*
X105117619Y-102809523D01*
X105212857Y-102857142D01*
X105355714Y-102857142D01*
X105450952Y-102809523D01*
X105498571Y-102761904D01*
X105546190Y-102666666D01*
X105546190Y-102285714D01*
X106022380Y-103809523D02*
X106022380Y-103238095D01*
X106022380Y-103523809D02*
X105022380Y-103523809D01*
X105165238Y-103428571D01*
X105260476Y-103333333D01*
X105308095Y-103238095D01*
X105450952Y-104380952D02*
X105403333Y-104285714D01*
X105355714Y-104238095D01*
X105260476Y-104190476D01*
X105212857Y-104190476D01*
X105117619Y-104238095D01*
X105070000Y-104285714D01*
X105022380Y-104380952D01*
X105022380Y-104571428D01*
X105070000Y-104666666D01*
X105117619Y-104714285D01*
X105212857Y-104761904D01*
X105260476Y-104761904D01*
X105355714Y-104714285D01*
X105403333Y-104666666D01*
X105450952Y-104571428D01*
X105450952Y-104380952D01*
X105498571Y-104285714D01*
X105546190Y-104238095D01*
X105641428Y-104190476D01*
X105831904Y-104190476D01*
X105927142Y-104238095D01*
X105974761Y-104285714D01*
X106022380Y-104380952D01*
X106022380Y-104571428D01*
X105974761Y-104666666D01*
X105927142Y-104714285D01*
X105831904Y-104761904D01*
X105641428Y-104761904D01*
X105546190Y-104714285D01*
X105498571Y-104666666D01*
X105450952Y-104571428D01*
X119452380Y-112238095D02*
X120261904Y-112238095D01*
X120357142Y-112285714D01*
X120404761Y-112333333D01*
X120452380Y-112428571D01*
X120452380Y-112619047D01*
X120404761Y-112714285D01*
X120357142Y-112761904D01*
X120261904Y-112809523D01*
X119452380Y-112809523D01*
X119547619Y-113238095D02*
X119500000Y-113285714D01*
X119452380Y-113380952D01*
X119452380Y-113619047D01*
X119500000Y-113714285D01*
X119547619Y-113761904D01*
X119642857Y-113809523D01*
X119738095Y-113809523D01*
X119880952Y-113761904D01*
X120452380Y-113190476D01*
X120452380Y-113809523D01*
X105452380Y-142261904D02*
X104452380Y-142261904D01*
X104452380Y-142500000D01*
X104500000Y-142642857D01*
X104595238Y-142738095D01*
X104690476Y-142785714D01*
X104880952Y-142833333D01*
X105023809Y-142833333D01*
X105214285Y-142785714D01*
X105309523Y-142738095D01*
X105404761Y-142642857D01*
X105452380Y-142500000D01*
X105452380Y-142261904D01*
X105452380Y-143309523D02*
X105452380Y-143500000D01*
X105404761Y-143595238D01*
X105357142Y-143642857D01*
X105214285Y-143738095D01*
X105023809Y-143785714D01*
X104642857Y-143785714D01*
X104547619Y-143738095D01*
X104500000Y-143690476D01*
X104452380Y-143595238D01*
X104452380Y-143404761D01*
X104500000Y-143309523D01*
X104547619Y-143261904D01*
X104642857Y-143214285D01*
X104880952Y-143214285D01*
X104976190Y-143261904D01*
X105023809Y-143309523D01*
X105071428Y-143404761D01*
X105071428Y-143595238D01*
X105023809Y-143690476D01*
X104976190Y-143738095D01*
X104880952Y-143785714D01*
X134357142Y-154833333D02*
X134404761Y-154785714D01*
X134452380Y-154642857D01*
X134452380Y-154547619D01*
X134404761Y-154404761D01*
X134309523Y-154309523D01*
X134214285Y-154261904D01*
X134023809Y-154214285D01*
X133880952Y-154214285D01*
X133690476Y-154261904D01*
X133595238Y-154309523D01*
X133500000Y-154404761D01*
X133452380Y-154547619D01*
X133452380Y-154642857D01*
X133500000Y-154785714D01*
X133547619Y-154833333D01*
X133880952Y-155404761D02*
X133833333Y-155309523D01*
X133785714Y-155261904D01*
X133690476Y-155214285D01*
X133642857Y-155214285D01*
X133547619Y-155261904D01*
X133500000Y-155309523D01*
X133452380Y-155404761D01*
X133452380Y-155595238D01*
X133500000Y-155690476D01*
X133547619Y-155738095D01*
X133642857Y-155785714D01*
X133690476Y-155785714D01*
X133785714Y-155738095D01*
X133833333Y-155690476D01*
X133880952Y-155595238D01*
X133880952Y-155404761D01*
X133928571Y-155309523D01*
X133976190Y-155261904D01*
X134071428Y-155214285D01*
X134261904Y-155214285D01*
X134357142Y-155261904D01*
X134404761Y-155309523D01*
X134452380Y-155404761D01*
X134452380Y-155595238D01*
X134404761Y-155690476D01*
X134357142Y-155738095D01*
X134261904Y-155785714D01*
X134071428Y-155785714D01*
X133976190Y-155738095D01*
X133928571Y-155690476D01*
X133880952Y-155595238D01*
X110452380Y-88357142D02*
X109976190Y-88023809D01*
X110452380Y-87785714D02*
X109452380Y-87785714D01*
X109452380Y-88166666D01*
X109500000Y-88261904D01*
X109547619Y-88309523D01*
X109642857Y-88357142D01*
X109785714Y-88357142D01*
X109880952Y-88309523D01*
X109928571Y-88261904D01*
X109976190Y-88166666D01*
X109976190Y-87785714D01*
X109452380Y-88690476D02*
X109452380Y-89309523D01*
X109833333Y-88976190D01*
X109833333Y-89119047D01*
X109880952Y-89214285D01*
X109928571Y-89261904D01*
X110023809Y-89309523D01*
X110261904Y-89309523D01*
X110357142Y-89261904D01*
X110404761Y-89214285D01*
X110452380Y-89119047D01*
X110452380Y-88833333D01*
X110404761Y-88738095D01*
X110357142Y-88690476D01*
X109880952Y-89880952D02*
X109833333Y-89785714D01*
X109785714Y-89738095D01*
X109690476Y-89690476D01*
X109642857Y-89690476D01*
X109547619Y-89738095D01*
X109500000Y-89785714D01*
X109452380Y-89880952D01*
X109452380Y-90071428D01*
X109500000Y-90166666D01*
X109547619Y-90214285D01*
X109642857Y-90261904D01*
X109690476Y-90261904D01*
X109785714Y-90214285D01*
X109833333Y-90166666D01*
X109880952Y-90071428D01*
X109880952Y-89880952D01*
X109928571Y-89785714D01*
X109976190Y-89738095D01*
X110071428Y-89690476D01*
X110261904Y-89690476D01*
X110357142Y-89738095D01*
X110404761Y-89785714D01*
X110452380Y-89880952D01*
X110452380Y-90071428D01*
X110404761Y-90166666D01*
X110357142Y-90214285D01*
X110261904Y-90261904D01*
X110071428Y-90261904D01*
X109976190Y-90214285D01*
X109928571Y-90166666D01*
X109880952Y-90071428D01*
X132547619Y-117404761D02*
X132500000Y-117309523D01*
X132404761Y-117214285D01*
X132261904Y-117071428D01*
X132214285Y-116976190D01*
X132214285Y-116880952D01*
X132452380Y-116928571D02*
X132404761Y-116833333D01*
X132309523Y-116738095D01*
X132119047Y-116690476D01*
X131785714Y-116690476D01*
X131595238Y-116738095D01*
X131500000Y-116833333D01*
X131452380Y-116928571D01*
X131452380Y-117119047D01*
X131500000Y-117214285D01*
X131595238Y-117309523D01*
X131785714Y-117357142D01*
X132119047Y-117357142D01*
X132309523Y-117309523D01*
X132404761Y-117214285D01*
X132452380Y-117119047D01*
X132452380Y-116928571D01*
X131452380Y-117690476D02*
X131452380Y-118309523D01*
X131833333Y-117976190D01*
X131833333Y-118119047D01*
X131880952Y-118214285D01*
X131928571Y-118261904D01*
X132023809Y-118309523D01*
X132261904Y-118309523D01*
X132357142Y-118261904D01*
X132404761Y-118214285D01*
X132452380Y-118119047D01*
X132452380Y-117833333D01*
X132404761Y-117738095D01*
X132357142Y-117690476D01*
X147047619Y-114404761D02*
X147000000Y-114309523D01*
X146904761Y-114214285D01*
X146761904Y-114071428D01*
X146714285Y-113976190D01*
X146714285Y-113880952D01*
X146952380Y-113928571D02*
X146904761Y-113833333D01*
X146809523Y-113738095D01*
X146619047Y-113690476D01*
X146285714Y-113690476D01*
X146095238Y-113738095D01*
X146000000Y-113833333D01*
X145952380Y-113928571D01*
X145952380Y-114119047D01*
X146000000Y-114214285D01*
X146095238Y-114309523D01*
X146285714Y-114357142D01*
X146619047Y-114357142D01*
X146809523Y-114309523D01*
X146904761Y-114214285D01*
X146952380Y-114119047D01*
X146952380Y-113928571D01*
X146285714Y-115214285D02*
X146952380Y-115214285D01*
X145904761Y-114976190D02*
X146619047Y-114738095D01*
X146619047Y-115357142D01*
X138357142Y-98357142D02*
X138404761Y-98309523D01*
X138452380Y-98166666D01*
X138452380Y-98071428D01*
X138404761Y-97928571D01*
X138309523Y-97833333D01*
X138214285Y-97785714D01*
X138023809Y-97738095D01*
X137880952Y-97738095D01*
X137690476Y-97785714D01*
X137595238Y-97833333D01*
X137500000Y-97928571D01*
X137452380Y-98071428D01*
X137452380Y-98166666D01*
X137500000Y-98309523D01*
X137547619Y-98357142D01*
X138452380Y-99309523D02*
X138452380Y-98738095D01*
X138452380Y-99023809D02*
X137452380Y-99023809D01*
X137595238Y-98928571D01*
X137690476Y-98833333D01*
X137738095Y-98738095D01*
X138452380Y-99785714D02*
X138452380Y-99976190D01*
X138404761Y-100071428D01*
X138357142Y-100119047D01*
X138214285Y-100214285D01*
X138023809Y-100261904D01*
X137642857Y-100261904D01*
X137547619Y-100214285D01*
X137500000Y-100166666D01*
X137452380Y-100071428D01*
X137452380Y-99880952D01*
X137500000Y-99785714D01*
X137547619Y-99738095D01*
X137642857Y-99690476D01*
X137880952Y-99690476D01*
X137976190Y-99738095D01*
X138023809Y-99785714D01*
X138071428Y-99880952D01*
X138071428Y-100071428D01*
X138023809Y-100166666D01*
X137976190Y-100214285D01*
X137880952Y-100261904D01*
X145022380Y-58357142D02*
X144546190Y-58023809D01*
X145022380Y-57785714D02*
X144022380Y-57785714D01*
X144022380Y-58166666D01*
X144070000Y-58261904D01*
X144117619Y-58309523D01*
X144212857Y-58357142D01*
X144355714Y-58357142D01*
X144450952Y-58309523D01*
X144498571Y-58261904D01*
X144546190Y-58166666D01*
X144546190Y-57785714D01*
X144355714Y-59214285D02*
X145022380Y-59214285D01*
X143974761Y-58976190D02*
X144689047Y-58738095D01*
X144689047Y-59357142D01*
X144022380Y-59928571D02*
X144022380Y-60023809D01*
X144070000Y-60119047D01*
X144117619Y-60166666D01*
X144212857Y-60214285D01*
X144403333Y-60261904D01*
X144641428Y-60261904D01*
X144831904Y-60214285D01*
X144927142Y-60166666D01*
X144974761Y-60119047D01*
X145022380Y-60023809D01*
X145022380Y-59928571D01*
X144974761Y-59833333D01*
X144927142Y-59785714D01*
X144831904Y-59738095D01*
X144641428Y-59690476D01*
X144403333Y-59690476D01*
X144212857Y-59738095D01*
X144117619Y-59785714D01*
X144070000Y-59833333D01*
X144022380Y-59928571D01*
X129714285Y-125452380D02*
X129714285Y-124452380D01*
X129476190Y-124452380D01*
X129333333Y-124500000D01*
X129238095Y-124595238D01*
X129190476Y-124690476D01*
X129142857Y-124880952D01*
X129142857Y-125023809D01*
X129190476Y-125214285D01*
X129238095Y-125309523D01*
X129333333Y-125404761D01*
X129476190Y-125452380D01*
X129714285Y-125452380D01*
X128190476Y-125452380D02*
X128761904Y-125452380D01*
X128476190Y-125452380D02*
X128476190Y-124452380D01*
X128571428Y-124595238D01*
X128666666Y-124690476D01*
X128761904Y-124738095D01*
X127333333Y-124452380D02*
X127523809Y-124452380D01*
X127619047Y-124500000D01*
X127666666Y-124547619D01*
X127761904Y-124690476D01*
X127809523Y-124880952D01*
X127809523Y-125261904D01*
X127761904Y-125357142D01*
X127714285Y-125404761D01*
X127619047Y-125452380D01*
X127428571Y-125452380D01*
X127333333Y-125404761D01*
X127285714Y-125357142D01*
X127238095Y-125261904D01*
X127238095Y-125023809D01*
X127285714Y-124928571D01*
X127333333Y-124880952D01*
X127428571Y-124833333D01*
X127619047Y-124833333D01*
X127714285Y-124880952D01*
X127761904Y-124928571D01*
X127809523Y-125023809D01*
X112389285Y-96522380D02*
X112389285Y-95522380D01*
X112151190Y-95522380D01*
X112008333Y-95570000D01*
X111913095Y-95665238D01*
X111865476Y-95760476D01*
X111817857Y-95950952D01*
X111817857Y-96093809D01*
X111865476Y-96284285D01*
X111913095Y-96379523D01*
X112008333Y-96474761D01*
X112151190Y-96522380D01*
X112389285Y-96522380D01*
X111436904Y-95617619D02*
X111389285Y-95570000D01*
X111294047Y-95522380D01*
X111055952Y-95522380D01*
X110960714Y-95570000D01*
X110913095Y-95617619D01*
X110865476Y-95712857D01*
X110865476Y-95808095D01*
X110913095Y-95950952D01*
X111484523Y-96522380D01*
X110865476Y-96522380D01*
X110008333Y-95855714D02*
X110008333Y-96522380D01*
X110246428Y-95474761D02*
X110484523Y-96189047D01*
X109865476Y-96189047D01*
X113891666Y-118452380D02*
X114225000Y-117976190D01*
X114463095Y-118452380D02*
X114463095Y-117452380D01*
X114082142Y-117452380D01*
X113986904Y-117500000D01*
X113939285Y-117547619D01*
X113891666Y-117642857D01*
X113891666Y-117785714D01*
X113939285Y-117880952D01*
X113986904Y-117928571D01*
X114082142Y-117976190D01*
X114463095Y-117976190D01*
X113320238Y-117880952D02*
X113415476Y-117833333D01*
X113463095Y-117785714D01*
X113510714Y-117690476D01*
X113510714Y-117642857D01*
X113463095Y-117547619D01*
X113415476Y-117500000D01*
X113320238Y-117452380D01*
X113129761Y-117452380D01*
X113034523Y-117500000D01*
X112986904Y-117547619D01*
X112939285Y-117642857D01*
X112939285Y-117690476D01*
X112986904Y-117785714D01*
X113034523Y-117833333D01*
X113129761Y-117880952D01*
X113320238Y-117880952D01*
X113415476Y-117928571D01*
X113463095Y-117976190D01*
X113510714Y-118071428D01*
X113510714Y-118261904D01*
X113463095Y-118357142D01*
X113415476Y-118404761D01*
X113320238Y-118452380D01*
X113129761Y-118452380D01*
X113034523Y-118404761D01*
X112986904Y-118357142D01*
X112939285Y-118261904D01*
X112939285Y-118071428D01*
X112986904Y-117976190D01*
X113034523Y-117928571D01*
X113129761Y-117880952D01*
X152452380Y-99333333D02*
X151976190Y-99000000D01*
X152452380Y-98761904D02*
X151452380Y-98761904D01*
X151452380Y-99142857D01*
X151500000Y-99238095D01*
X151547619Y-99285714D01*
X151642857Y-99333333D01*
X151785714Y-99333333D01*
X151880952Y-99285714D01*
X151928571Y-99238095D01*
X151976190Y-99142857D01*
X151976190Y-98761904D01*
X152452380Y-100285714D02*
X152452380Y-99714285D01*
X152452380Y-100000000D02*
X151452380Y-100000000D01*
X151595238Y-99904761D01*
X151690476Y-99809523D01*
X151738095Y-99714285D01*
X144427142Y-94357142D02*
X144474761Y-94309523D01*
X144522380Y-94166666D01*
X144522380Y-94071428D01*
X144474761Y-93928571D01*
X144379523Y-93833333D01*
X144284285Y-93785714D01*
X144093809Y-93738095D01*
X143950952Y-93738095D01*
X143760476Y-93785714D01*
X143665238Y-93833333D01*
X143570000Y-93928571D01*
X143522380Y-94071428D01*
X143522380Y-94166666D01*
X143570000Y-94309523D01*
X143617619Y-94357142D01*
X144522380Y-95309523D02*
X144522380Y-94738095D01*
X144522380Y-95023809D02*
X143522380Y-95023809D01*
X143665238Y-94928571D01*
X143760476Y-94833333D01*
X143808095Y-94738095D01*
X143855714Y-96166666D02*
X144522380Y-96166666D01*
X143474761Y-95928571D02*
X144189047Y-95690476D01*
X144189047Y-96309523D01*
X127142857Y-130357142D02*
X127190476Y-130404761D01*
X127333333Y-130452380D01*
X127428571Y-130452380D01*
X127571428Y-130404761D01*
X127666666Y-130309523D01*
X127714285Y-130214285D01*
X127761904Y-130023809D01*
X127761904Y-129880952D01*
X127714285Y-129690476D01*
X127666666Y-129595238D01*
X127571428Y-129500000D01*
X127428571Y-129452380D01*
X127333333Y-129452380D01*
X127190476Y-129500000D01*
X127142857Y-129547619D01*
X126190476Y-130452380D02*
X126761904Y-130452380D01*
X126476190Y-130452380D02*
X126476190Y-129452380D01*
X126571428Y-129595238D01*
X126666666Y-129690476D01*
X126761904Y-129738095D01*
X125857142Y-129452380D02*
X125190476Y-129452380D01*
X125619047Y-130452380D01*
X136452380Y-123357142D02*
X135976190Y-123023809D01*
X136452380Y-122785714D02*
X135452380Y-122785714D01*
X135452380Y-123166666D01*
X135500000Y-123261904D01*
X135547619Y-123309523D01*
X135642857Y-123357142D01*
X135785714Y-123357142D01*
X135880952Y-123309523D01*
X135928571Y-123261904D01*
X135976190Y-123166666D01*
X135976190Y-122785714D01*
X135547619Y-123738095D02*
X135500000Y-123785714D01*
X135452380Y-123880952D01*
X135452380Y-124119047D01*
X135500000Y-124214285D01*
X135547619Y-124261904D01*
X135642857Y-124309523D01*
X135738095Y-124309523D01*
X135880952Y-124261904D01*
X136452380Y-123690476D01*
X136452380Y-124309523D01*
X135452380Y-125166666D02*
X135452380Y-124976190D01*
X135500000Y-124880952D01*
X135547619Y-124833333D01*
X135690476Y-124738095D01*
X135880952Y-124690476D01*
X136261904Y-124690476D01*
X136357142Y-124738095D01*
X136404761Y-124785714D01*
X136452380Y-124880952D01*
X136452380Y-125071428D01*
X136404761Y-125166666D01*
X136357142Y-125214285D01*
X136261904Y-125261904D01*
X136023809Y-125261904D01*
X135928571Y-125214285D01*
X135880952Y-125166666D01*
X135833333Y-125071428D01*
X135833333Y-124880952D01*
X135880952Y-124785714D01*
X135928571Y-124738095D01*
X136023809Y-124690476D01*
X94666666Y-106452380D02*
X95000000Y-105976190D01*
X95238095Y-106452380D02*
X95238095Y-105452380D01*
X94857142Y-105452380D01*
X94761904Y-105500000D01*
X94714285Y-105547619D01*
X94666666Y-105642857D01*
X94666666Y-105785714D01*
X94714285Y-105880952D01*
X94761904Y-105928571D01*
X94857142Y-105976190D01*
X95238095Y-105976190D01*
X94285714Y-105547619D02*
X94238095Y-105500000D01*
X94142857Y-105452380D01*
X93904761Y-105452380D01*
X93809523Y-105500000D01*
X93761904Y-105547619D01*
X93714285Y-105642857D01*
X93714285Y-105738095D01*
X93761904Y-105880952D01*
X94333333Y-106452380D01*
X93714285Y-106452380D01*
X117209285Y-158912380D02*
X117209285Y-157912380D01*
X116971190Y-157912380D01*
X116828333Y-157960000D01*
X116733095Y-158055238D01*
X116685476Y-158150476D01*
X116637857Y-158340952D01*
X116637857Y-158483809D01*
X116685476Y-158674285D01*
X116733095Y-158769523D01*
X116828333Y-158864761D01*
X116971190Y-158912380D01*
X117209285Y-158912380D01*
X115685476Y-158912380D02*
X116256904Y-158912380D01*
X115971190Y-158912380D02*
X115971190Y-157912380D01*
X116066428Y-158055238D01*
X116161666Y-158150476D01*
X116256904Y-158198095D01*
X114828333Y-158245714D02*
X114828333Y-158912380D01*
X115066428Y-157864761D02*
X115304523Y-158579047D01*
X114685476Y-158579047D01*
X121642857Y-80357142D02*
X121690476Y-80404761D01*
X121833333Y-80452380D01*
X121928571Y-80452380D01*
X122071428Y-80404761D01*
X122166666Y-80309523D01*
X122214285Y-80214285D01*
X122261904Y-80023809D01*
X122261904Y-79880952D01*
X122214285Y-79690476D01*
X122166666Y-79595238D01*
X122071428Y-79500000D01*
X121928571Y-79452380D01*
X121833333Y-79452380D01*
X121690476Y-79500000D01*
X121642857Y-79547619D01*
X121261904Y-79547619D02*
X121214285Y-79500000D01*
X121119047Y-79452380D01*
X120880952Y-79452380D01*
X120785714Y-79500000D01*
X120738095Y-79547619D01*
X120690476Y-79642857D01*
X120690476Y-79738095D01*
X120738095Y-79880952D01*
X121309523Y-80452380D01*
X120690476Y-80452380D01*
X119833333Y-79785714D02*
X119833333Y-80452380D01*
X120071428Y-79404761D02*
X120309523Y-80119047D01*
X119690476Y-80119047D01*
X103880115Y-90452380D02*
X104213448Y-89976190D01*
X104451543Y-90452380D02*
X104451543Y-89452380D01*
X104070591Y-89452380D01*
X103975353Y-89500000D01*
X103927734Y-89547619D01*
X103880115Y-89642857D01*
X103880115Y-89785714D01*
X103927734Y-89880952D01*
X103975353Y-89928571D01*
X104070591Y-89976190D01*
X104451543Y-89976190D01*
X103499162Y-89547619D02*
X103451543Y-89500000D01*
X103356305Y-89452380D01*
X103118210Y-89452380D01*
X103022972Y-89500000D01*
X102975353Y-89547619D01*
X102927734Y-89642857D01*
X102927734Y-89738095D01*
X102975353Y-89880952D01*
X103546781Y-90452380D01*
X102927734Y-90452380D01*
X101975353Y-90452380D02*
X102546781Y-90452380D01*
X102261067Y-90452380D02*
X102261067Y-89452380D01*
X102356305Y-89595238D01*
X102451543Y-89690476D01*
X102546781Y-89738095D01*
X103952380Y-96261904D02*
X102952380Y-96261904D01*
X102952380Y-96642857D01*
X103000000Y-96738095D01*
X103047619Y-96785714D01*
X103142857Y-96833333D01*
X103285714Y-96833333D01*
X103380952Y-96785714D01*
X103428571Y-96738095D01*
X103476190Y-96642857D01*
X103476190Y-96261904D01*
X103857142Y-97833333D02*
X103904761Y-97785714D01*
X103952380Y-97642857D01*
X103952380Y-97547619D01*
X103904761Y-97404761D01*
X103809523Y-97309523D01*
X103714285Y-97261904D01*
X103523809Y-97214285D01*
X103380952Y-97214285D01*
X103190476Y-97261904D01*
X103095238Y-97309523D01*
X103000000Y-97404761D01*
X102952380Y-97547619D01*
X102952380Y-97642857D01*
X103000000Y-97785714D01*
X103047619Y-97833333D01*
X103952380Y-98785714D02*
X103952380Y-98214285D01*
X103952380Y-98500000D02*
X102952380Y-98500000D01*
X103095238Y-98404761D01*
X103190476Y-98309523D01*
X103238095Y-98214285D01*
X126452380Y-74214285D02*
X126452380Y-74785714D01*
X127452380Y-74500000D02*
X126452380Y-74500000D01*
X127452380Y-75119047D02*
X126452380Y-75119047D01*
X126928571Y-75119047D02*
X126928571Y-75690476D01*
X127452380Y-75690476D02*
X126452380Y-75690476D01*
X127452380Y-76690476D02*
X127452380Y-76119047D01*
X127452380Y-76404761D02*
X126452380Y-76404761D01*
X126595238Y-76309523D01*
X126690476Y-76214285D01*
X126738095Y-76119047D01*
X115642857Y-80357142D02*
X115690476Y-80404761D01*
X115833333Y-80452380D01*
X115928571Y-80452380D01*
X116071428Y-80404761D01*
X116166666Y-80309523D01*
X116214285Y-80214285D01*
X116261904Y-80023809D01*
X116261904Y-79880952D01*
X116214285Y-79690476D01*
X116166666Y-79595238D01*
X116071428Y-79500000D01*
X115928571Y-79452380D01*
X115833333Y-79452380D01*
X115690476Y-79500000D01*
X115642857Y-79547619D01*
X115261904Y-79547619D02*
X115214285Y-79500000D01*
X115119047Y-79452380D01*
X114880952Y-79452380D01*
X114785714Y-79500000D01*
X114738095Y-79547619D01*
X114690476Y-79642857D01*
X114690476Y-79738095D01*
X114738095Y-79880952D01*
X115309523Y-80452380D01*
X114690476Y-80452380D01*
X113833333Y-79452380D02*
X114023809Y-79452380D01*
X114119047Y-79500000D01*
X114166666Y-79547619D01*
X114261904Y-79690476D01*
X114309523Y-79880952D01*
X114309523Y-80261904D01*
X114261904Y-80357142D01*
X114214285Y-80404761D01*
X114119047Y-80452380D01*
X113928571Y-80452380D01*
X113833333Y-80404761D01*
X113785714Y-80357142D01*
X113738095Y-80261904D01*
X113738095Y-80023809D01*
X113785714Y-79928571D01*
X113833333Y-79880952D01*
X113928571Y-79833333D01*
X114119047Y-79833333D01*
X114214285Y-79880952D01*
X114261904Y-79928571D01*
X114309523Y-80023809D01*
X111461251Y-155321488D02*
X110754145Y-156028595D01*
X110922503Y-156196954D01*
X111057190Y-156264297D01*
X111191877Y-156264297D01*
X111292893Y-156230625D01*
X111461251Y-156129610D01*
X111562267Y-156028595D01*
X111663282Y-155860236D01*
X111696954Y-155759221D01*
X111696954Y-155624534D01*
X111629610Y-155489847D01*
X111461251Y-155321488D01*
X112538748Y-156398984D02*
X112134687Y-155994923D01*
X112336717Y-156196954D02*
X111629610Y-156904061D01*
X111663282Y-156735702D01*
X111663282Y-156601015D01*
X111629610Y-156500000D01*
X112269374Y-157543824D02*
X112336717Y-157611167D01*
X112437732Y-157644839D01*
X112505076Y-157644839D01*
X112606091Y-157611167D01*
X112774450Y-157510152D01*
X112942809Y-157341793D01*
X113043824Y-157173435D01*
X113077496Y-157072419D01*
X113077496Y-157005076D01*
X113043824Y-156904061D01*
X112976480Y-156836717D01*
X112875465Y-156803045D01*
X112808122Y-156803045D01*
X112707106Y-156836717D01*
X112538748Y-156937732D01*
X112370389Y-157106091D01*
X112269374Y-157274450D01*
X112235702Y-157375465D01*
X112235702Y-157442809D01*
X112269374Y-157543824D01*
X127261904Y-104302380D02*
X127261904Y-105111904D01*
X127214285Y-105207142D01*
X127166666Y-105254761D01*
X127071428Y-105302380D01*
X126880952Y-105302380D01*
X126785714Y-105254761D01*
X126738095Y-105207142D01*
X126690476Y-105111904D01*
X126690476Y-104302380D01*
X125690476Y-105302380D02*
X126261904Y-105302380D01*
X125976190Y-105302380D02*
X125976190Y-104302380D01*
X126071428Y-104445238D01*
X126166666Y-104540476D01*
X126261904Y-104588095D01*
X108452380Y-93857142D02*
X107976190Y-93523809D01*
X108452380Y-93285714D02*
X107452380Y-93285714D01*
X107452380Y-93666666D01*
X107500000Y-93761904D01*
X107547619Y-93809523D01*
X107642857Y-93857142D01*
X107785714Y-93857142D01*
X107880952Y-93809523D01*
X107928571Y-93761904D01*
X107976190Y-93666666D01*
X107976190Y-93285714D01*
X107547619Y-94238095D02*
X107500000Y-94285714D01*
X107452380Y-94380952D01*
X107452380Y-94619047D01*
X107500000Y-94714285D01*
X107547619Y-94761904D01*
X107642857Y-94809523D01*
X107738095Y-94809523D01*
X107880952Y-94761904D01*
X108452380Y-94190476D01*
X108452380Y-94809523D01*
X107452380Y-95428571D02*
X107452380Y-95523809D01*
X107500000Y-95619047D01*
X107547619Y-95666666D01*
X107642857Y-95714285D01*
X107833333Y-95761904D01*
X108071428Y-95761904D01*
X108261904Y-95714285D01*
X108357142Y-95666666D01*
X108404761Y-95619047D01*
X108452380Y-95523809D01*
X108452380Y-95428571D01*
X108404761Y-95333333D01*
X108357142Y-95285714D01*
X108261904Y-95238095D01*
X108071428Y-95190476D01*
X107833333Y-95190476D01*
X107642857Y-95238095D01*
X107547619Y-95285714D01*
X107500000Y-95333333D01*
X107452380Y-95428571D01*
X110452380Y-65333333D02*
X110452380Y-64857142D01*
X109452380Y-64857142D01*
X110452380Y-66190476D02*
X110452380Y-65619047D01*
X110452380Y-65904761D02*
X109452380Y-65904761D01*
X109595238Y-65809523D01*
X109690476Y-65714285D01*
X109738095Y-65619047D01*
X118666666Y-108357142D02*
X118714285Y-108404761D01*
X118857142Y-108452380D01*
X118952380Y-108452380D01*
X119095238Y-108404761D01*
X119190476Y-108309523D01*
X119238095Y-108214285D01*
X119285714Y-108023809D01*
X119285714Y-107880952D01*
X119238095Y-107690476D01*
X119190476Y-107595238D01*
X119095238Y-107500000D01*
X118952380Y-107452380D01*
X118857142Y-107452380D01*
X118714285Y-107500000D01*
X118666666Y-107547619D01*
X118285714Y-107547619D02*
X118238095Y-107500000D01*
X118142857Y-107452380D01*
X117904761Y-107452380D01*
X117809523Y-107500000D01*
X117761904Y-107547619D01*
X117714285Y-107642857D01*
X117714285Y-107738095D01*
X117761904Y-107880952D01*
X118333333Y-108452380D01*
X117714285Y-108452380D01*
X129595238Y-63547619D02*
X129690476Y-63500000D01*
X129785714Y-63404761D01*
X129928571Y-63261904D01*
X130023809Y-63214285D01*
X130119047Y-63214285D01*
X130071428Y-63452380D02*
X130166666Y-63404761D01*
X130261904Y-63309523D01*
X130309523Y-63119047D01*
X130309523Y-62785714D01*
X130261904Y-62595238D01*
X130166666Y-62500000D01*
X130071428Y-62452380D01*
X129880952Y-62452380D01*
X129785714Y-62500000D01*
X129690476Y-62595238D01*
X129642857Y-62785714D01*
X129642857Y-63119047D01*
X129690476Y-63309523D01*
X129785714Y-63404761D01*
X129880952Y-63452380D01*
X130071428Y-63452380D01*
X128738095Y-62452380D02*
X129214285Y-62452380D01*
X129261904Y-62928571D01*
X129214285Y-62880952D01*
X129119047Y-62833333D01*
X128880952Y-62833333D01*
X128785714Y-62880952D01*
X128738095Y-62928571D01*
X128690476Y-63023809D01*
X128690476Y-63261904D01*
X128738095Y-63357142D01*
X128785714Y-63404761D01*
X128880952Y-63452380D01*
X129119047Y-63452380D01*
X129214285Y-63404761D01*
X129261904Y-63357142D01*
X149857142Y-103357142D02*
X149904761Y-103309523D01*
X149952380Y-103166666D01*
X149952380Y-103071428D01*
X149904761Y-102928571D01*
X149809523Y-102833333D01*
X149714285Y-102785714D01*
X149523809Y-102738095D01*
X149380952Y-102738095D01*
X149190476Y-102785714D01*
X149095238Y-102833333D01*
X149000000Y-102928571D01*
X148952380Y-103071428D01*
X148952380Y-103166666D01*
X149000000Y-103309523D01*
X149047619Y-103357142D01*
X149952380Y-104309523D02*
X149952380Y-103738095D01*
X149952380Y-104023809D02*
X148952380Y-104023809D01*
X149095238Y-103928571D01*
X149190476Y-103833333D01*
X149238095Y-103738095D01*
X149047619Y-104690476D02*
X149000000Y-104738095D01*
X148952380Y-104833333D01*
X148952380Y-105071428D01*
X149000000Y-105166666D01*
X149047619Y-105214285D01*
X149142857Y-105261904D01*
X149238095Y-105261904D01*
X149380952Y-105214285D01*
X149952380Y-104642857D01*
X149952380Y-105261904D01*
X112007142Y-76357142D02*
X112054761Y-76309523D01*
X112102380Y-76166666D01*
X112102380Y-76071428D01*
X112054761Y-75928571D01*
X111959523Y-75833333D01*
X111864285Y-75785714D01*
X111673809Y-75738095D01*
X111530952Y-75738095D01*
X111340476Y-75785714D01*
X111245238Y-75833333D01*
X111150000Y-75928571D01*
X111102380Y-76071428D01*
X111102380Y-76166666D01*
X111150000Y-76309523D01*
X111197619Y-76357142D01*
X112102380Y-77309523D02*
X112102380Y-76738095D01*
X112102380Y-77023809D02*
X111102380Y-77023809D01*
X111245238Y-76928571D01*
X111340476Y-76833333D01*
X111388095Y-76738095D01*
X111530952Y-77880952D02*
X111483333Y-77785714D01*
X111435714Y-77738095D01*
X111340476Y-77690476D01*
X111292857Y-77690476D01*
X111197619Y-77738095D01*
X111150000Y-77785714D01*
X111102380Y-77880952D01*
X111102380Y-78071428D01*
X111150000Y-78166666D01*
X111197619Y-78214285D01*
X111292857Y-78261904D01*
X111340476Y-78261904D01*
X111435714Y-78214285D01*
X111483333Y-78166666D01*
X111530952Y-78071428D01*
X111530952Y-77880952D01*
X111578571Y-77785714D01*
X111626190Y-77738095D01*
X111721428Y-77690476D01*
X111911904Y-77690476D01*
X112007142Y-77738095D01*
X112054761Y-77785714D01*
X112102380Y-77880952D01*
X112102380Y-78071428D01*
X112054761Y-78166666D01*
X112007142Y-78214285D01*
X111911904Y-78261904D01*
X111721428Y-78261904D01*
X111626190Y-78214285D01*
X111578571Y-78166666D01*
X111530952Y-78071428D01*
X125452380Y-141285714D02*
X124452380Y-141285714D01*
X124452380Y-141523809D01*
X124500000Y-141666666D01*
X124595238Y-141761904D01*
X124690476Y-141809523D01*
X124880952Y-141857142D01*
X125023809Y-141857142D01*
X125214285Y-141809523D01*
X125309523Y-141761904D01*
X125404761Y-141666666D01*
X125452380Y-141523809D01*
X125452380Y-141285714D01*
X125452380Y-142809523D02*
X125452380Y-142238095D01*
X125452380Y-142523809D02*
X124452380Y-142523809D01*
X124595238Y-142428571D01*
X124690476Y-142333333D01*
X124738095Y-142238095D01*
X124547619Y-143190476D02*
X124500000Y-143238095D01*
X124452380Y-143333333D01*
X124452380Y-143571428D01*
X124500000Y-143666666D01*
X124547619Y-143714285D01*
X124642857Y-143761904D01*
X124738095Y-143761904D01*
X124880952Y-143714285D01*
X125452380Y-143142857D01*
X125452380Y-143761904D01*
X160738095Y-69752380D02*
X160738095Y-68752380D01*
X160357142Y-68752380D01*
X160261904Y-68800000D01*
X160214285Y-68847619D01*
X160166666Y-68942857D01*
X160166666Y-69085714D01*
X160214285Y-69180952D01*
X160261904Y-69228571D01*
X160357142Y-69276190D01*
X160738095Y-69276190D01*
X159833333Y-68752380D02*
X159214285Y-68752380D01*
X159547619Y-69133333D01*
X159404761Y-69133333D01*
X159309523Y-69180952D01*
X159261904Y-69228571D01*
X159214285Y-69323809D01*
X159214285Y-69561904D01*
X159261904Y-69657142D01*
X159309523Y-69704761D01*
X159404761Y-69752380D01*
X159690476Y-69752380D01*
X159785714Y-69704761D01*
X159833333Y-69657142D01*
X129642857Y-130357142D02*
X129690476Y-130404761D01*
X129833333Y-130452380D01*
X129928571Y-130452380D01*
X130071428Y-130404761D01*
X130166666Y-130309523D01*
X130214285Y-130214285D01*
X130261904Y-130023809D01*
X130261904Y-129880952D01*
X130214285Y-129690476D01*
X130166666Y-129595238D01*
X130071428Y-129500000D01*
X129928571Y-129452380D01*
X129833333Y-129452380D01*
X129690476Y-129500000D01*
X129642857Y-129547619D01*
X128690476Y-130452380D02*
X129261904Y-130452380D01*
X128976190Y-130452380D02*
X128976190Y-129452380D01*
X129071428Y-129595238D01*
X129166666Y-129690476D01*
X129261904Y-129738095D01*
X127833333Y-129452380D02*
X128023809Y-129452380D01*
X128119047Y-129500000D01*
X128166666Y-129547619D01*
X128261904Y-129690476D01*
X128309523Y-129880952D01*
X128309523Y-130261904D01*
X128261904Y-130357142D01*
X128214285Y-130404761D01*
X128119047Y-130452380D01*
X127928571Y-130452380D01*
X127833333Y-130404761D01*
X127785714Y-130357142D01*
X127738095Y-130261904D01*
X127738095Y-130023809D01*
X127785714Y-129928571D01*
X127833333Y-129880952D01*
X127928571Y-129833333D01*
X128119047Y-129833333D01*
X128214285Y-129880952D01*
X128261904Y-129928571D01*
X128309523Y-130023809D01*
X121678511Y-155461251D02*
X120971404Y-154754145D01*
X120803045Y-154922503D01*
X120735702Y-155057190D01*
X120735702Y-155191877D01*
X120769374Y-155292893D01*
X120870389Y-155461251D01*
X120971404Y-155562267D01*
X121139763Y-155663282D01*
X121240778Y-155696954D01*
X121375465Y-155696954D01*
X121510152Y-155629610D01*
X121678511Y-155461251D01*
X120601015Y-156538748D02*
X121005076Y-156134687D01*
X120803045Y-156336717D02*
X120095938Y-155629610D01*
X120264297Y-155663282D01*
X120398984Y-155663282D01*
X120499999Y-155629610D01*
X119658206Y-156067343D02*
X119220473Y-156505076D01*
X119725549Y-156538748D01*
X119624534Y-156639763D01*
X119590862Y-156740778D01*
X119590862Y-156808122D01*
X119624534Y-156909137D01*
X119792893Y-157077496D01*
X119893908Y-157111167D01*
X119961251Y-157111167D01*
X120062267Y-157077496D01*
X120264297Y-156875465D01*
X120297969Y-156774450D01*
X120297969Y-156707106D01*
X115452380Y-103857142D02*
X114976190Y-103523809D01*
X115452380Y-103285714D02*
X114452380Y-103285714D01*
X114452380Y-103666666D01*
X114500000Y-103761904D01*
X114547619Y-103809523D01*
X114642857Y-103857142D01*
X114785714Y-103857142D01*
X114880952Y-103809523D01*
X114928571Y-103761904D01*
X114976190Y-103666666D01*
X114976190Y-103285714D01*
X114547619Y-104238095D02*
X114500000Y-104285714D01*
X114452380Y-104380952D01*
X114452380Y-104619047D01*
X114500000Y-104714285D01*
X114547619Y-104761904D01*
X114642857Y-104809523D01*
X114738095Y-104809523D01*
X114880952Y-104761904D01*
X115452380Y-104190476D01*
X115452380Y-104809523D01*
X114785714Y-105666666D02*
X115452380Y-105666666D01*
X114404761Y-105428571D02*
X115119047Y-105190476D01*
X115119047Y-105809523D01*
X105952380Y-72594400D02*
X105476190Y-72261067D01*
X105952380Y-72022972D02*
X104952380Y-72022972D01*
X104952380Y-72403924D01*
X105000000Y-72499162D01*
X105047619Y-72546781D01*
X105142857Y-72594400D01*
X105285714Y-72594400D01*
X105380952Y-72546781D01*
X105428571Y-72499162D01*
X105476190Y-72403924D01*
X105476190Y-72022972D01*
X105047619Y-72975353D02*
X105000000Y-73022972D01*
X104952380Y-73118210D01*
X104952380Y-73356305D01*
X105000000Y-73451543D01*
X105047619Y-73499162D01*
X105142857Y-73546781D01*
X105238095Y-73546781D01*
X105380952Y-73499162D01*
X105952380Y-72927734D01*
X105952380Y-73546781D01*
X104952380Y-73880115D02*
X104952380Y-74546781D01*
X105952380Y-74118210D01*
X109857142Y-93857142D02*
X109904761Y-93809523D01*
X109952380Y-93666666D01*
X109952380Y-93571428D01*
X109904761Y-93428571D01*
X109809523Y-93333333D01*
X109714285Y-93285714D01*
X109523809Y-93238095D01*
X109380952Y-93238095D01*
X109190476Y-93285714D01*
X109095238Y-93333333D01*
X109000000Y-93428571D01*
X108952380Y-93571428D01*
X108952380Y-93666666D01*
X109000000Y-93809523D01*
X109047619Y-93857142D01*
X108952380Y-94190476D02*
X108952380Y-94809523D01*
X109333333Y-94476190D01*
X109333333Y-94619047D01*
X109380952Y-94714285D01*
X109428571Y-94761904D01*
X109523809Y-94809523D01*
X109761904Y-94809523D01*
X109857142Y-94761904D01*
X109904761Y-94714285D01*
X109952380Y-94619047D01*
X109952380Y-94333333D01*
X109904761Y-94238095D01*
X109857142Y-94190476D01*
X109952380Y-95761904D02*
X109952380Y-95190476D01*
X109952380Y-95476190D02*
X108952380Y-95476190D01*
X109095238Y-95380952D01*
X109190476Y-95285714D01*
X109238095Y-95190476D01*
X112357142Y-88357142D02*
X112404761Y-88309523D01*
X112452380Y-88166666D01*
X112452380Y-88071428D01*
X112404761Y-87928571D01*
X112309523Y-87833333D01*
X112214285Y-87785714D01*
X112023809Y-87738095D01*
X111880952Y-87738095D01*
X111690476Y-87785714D01*
X111595238Y-87833333D01*
X111500000Y-87928571D01*
X111452380Y-88071428D01*
X111452380Y-88166666D01*
X111500000Y-88309523D01*
X111547619Y-88357142D01*
X111547619Y-88738095D02*
X111500000Y-88785714D01*
X111452380Y-88880952D01*
X111452380Y-89119047D01*
X111500000Y-89214285D01*
X111547619Y-89261904D01*
X111642857Y-89309523D01*
X111738095Y-89309523D01*
X111880952Y-89261904D01*
X112452380Y-88690476D01*
X112452380Y-89309523D01*
X112452380Y-89785714D02*
X112452380Y-89976190D01*
X112404761Y-90071428D01*
X112357142Y-90119047D01*
X112214285Y-90214285D01*
X112023809Y-90261904D01*
X111642857Y-90261904D01*
X111547619Y-90214285D01*
X111500000Y-90166666D01*
X111452380Y-90071428D01*
X111452380Y-89880952D01*
X111500000Y-89785714D01*
X111547619Y-89738095D01*
X111642857Y-89690476D01*
X111880952Y-89690476D01*
X111976190Y-89738095D01*
X112023809Y-89785714D01*
X112071428Y-89880952D01*
X112071428Y-90071428D01*
X112023809Y-90166666D01*
X111976190Y-90214285D01*
X111880952Y-90261904D01*
X141452380Y-96761904D02*
X140452380Y-96761904D01*
X140452380Y-97142857D01*
X140500000Y-97238095D01*
X140547619Y-97285714D01*
X140642857Y-97333333D01*
X140785714Y-97333333D01*
X140880952Y-97285714D01*
X140928571Y-97238095D01*
X140976190Y-97142857D01*
X140976190Y-96761904D01*
X141357142Y-98333333D02*
X141404761Y-98285714D01*
X141452380Y-98142857D01*
X141452380Y-98047619D01*
X141404761Y-97904761D01*
X141309523Y-97809523D01*
X141214285Y-97761904D01*
X141023809Y-97714285D01*
X140880952Y-97714285D01*
X140690476Y-97761904D01*
X140595238Y-97809523D01*
X140500000Y-97904761D01*
X140452380Y-98047619D01*
X140452380Y-98142857D01*
X140500000Y-98285714D01*
X140547619Y-98333333D01*
X140452380Y-98666666D02*
X140452380Y-99285714D01*
X140833333Y-98952380D01*
X140833333Y-99095238D01*
X140880952Y-99190476D01*
X140928571Y-99238095D01*
X141023809Y-99285714D01*
X141261904Y-99285714D01*
X141357142Y-99238095D01*
X141404761Y-99190476D01*
X141452380Y-99095238D01*
X141452380Y-98809523D01*
X141404761Y-98714285D01*
X141357142Y-98666666D01*
X113238095Y-136952380D02*
X113238095Y-135952380D01*
X113000000Y-135952380D01*
X112857142Y-136000000D01*
X112761904Y-136095238D01*
X112714285Y-136190476D01*
X112666666Y-136380952D01*
X112666666Y-136523809D01*
X112714285Y-136714285D01*
X112761904Y-136809523D01*
X112857142Y-136904761D01*
X113000000Y-136952380D01*
X113238095Y-136952380D01*
X112333333Y-135952380D02*
X111666666Y-135952380D01*
X112095238Y-136952380D01*
X105952380Y-58857142D02*
X105476190Y-58523809D01*
X105952380Y-58285714D02*
X104952380Y-58285714D01*
X104952380Y-58666666D01*
X105000000Y-58761904D01*
X105047619Y-58809523D01*
X105142857Y-58857142D01*
X105285714Y-58857142D01*
X105380952Y-58809523D01*
X105428571Y-58761904D01*
X105476190Y-58666666D01*
X105476190Y-58285714D01*
X104952380Y-59190476D02*
X104952380Y-59809523D01*
X105333333Y-59476190D01*
X105333333Y-59619047D01*
X105380952Y-59714285D01*
X105428571Y-59761904D01*
X105523809Y-59809523D01*
X105761904Y-59809523D01*
X105857142Y-59761904D01*
X105904761Y-59714285D01*
X105952380Y-59619047D01*
X105952380Y-59333333D01*
X105904761Y-59238095D01*
X105857142Y-59190476D01*
X104952380Y-60142857D02*
X104952380Y-60761904D01*
X105333333Y-60428571D01*
X105333333Y-60571428D01*
X105380952Y-60666666D01*
X105428571Y-60714285D01*
X105523809Y-60761904D01*
X105761904Y-60761904D01*
X105857142Y-60714285D01*
X105904761Y-60666666D01*
X105952380Y-60571428D01*
X105952380Y-60285714D01*
X105904761Y-60190476D01*
X105857142Y-60142857D01*
X124142857Y-80357142D02*
X124190476Y-80404761D01*
X124333333Y-80452380D01*
X124428571Y-80452380D01*
X124571428Y-80404761D01*
X124666666Y-80309523D01*
X124714285Y-80214285D01*
X124761904Y-80023809D01*
X124761904Y-79880952D01*
X124714285Y-79690476D01*
X124666666Y-79595238D01*
X124571428Y-79500000D01*
X124428571Y-79452380D01*
X124333333Y-79452380D01*
X124190476Y-79500000D01*
X124142857Y-79547619D01*
X123761904Y-79547619D02*
X123714285Y-79500000D01*
X123619047Y-79452380D01*
X123380952Y-79452380D01*
X123285714Y-79500000D01*
X123238095Y-79547619D01*
X123190476Y-79642857D01*
X123190476Y-79738095D01*
X123238095Y-79880952D01*
X123809523Y-80452380D01*
X123190476Y-80452380D01*
X122857142Y-79452380D02*
X122238095Y-79452380D01*
X122571428Y-79833333D01*
X122428571Y-79833333D01*
X122333333Y-79880952D01*
X122285714Y-79928571D01*
X122238095Y-80023809D01*
X122238095Y-80261904D01*
X122285714Y-80357142D01*
X122333333Y-80404761D01*
X122428571Y-80452380D01*
X122714285Y-80452380D01*
X122809523Y-80404761D01*
X122857142Y-80357142D01*
X115642857Y-53357142D02*
X115690476Y-53404761D01*
X115833333Y-53452380D01*
X115928571Y-53452380D01*
X116071428Y-53404761D01*
X116166666Y-53309523D01*
X116214285Y-53214285D01*
X116261904Y-53023809D01*
X116261904Y-52880952D01*
X116214285Y-52690476D01*
X116166666Y-52595238D01*
X116071428Y-52500000D01*
X115928571Y-52452380D01*
X115833333Y-52452380D01*
X115690476Y-52500000D01*
X115642857Y-52547619D01*
X115261904Y-52547619D02*
X115214285Y-52500000D01*
X115119047Y-52452380D01*
X114880952Y-52452380D01*
X114785714Y-52500000D01*
X114738095Y-52547619D01*
X114690476Y-52642857D01*
X114690476Y-52738095D01*
X114738095Y-52880952D01*
X115309523Y-53452380D01*
X114690476Y-53452380D01*
X114119047Y-52880952D02*
X114214285Y-52833333D01*
X114261904Y-52785714D01*
X114309523Y-52690476D01*
X114309523Y-52642857D01*
X114261904Y-52547619D01*
X114214285Y-52500000D01*
X114119047Y-52452380D01*
X113928571Y-52452380D01*
X113833333Y-52500000D01*
X113785714Y-52547619D01*
X113738095Y-52642857D01*
X113738095Y-52690476D01*
X113785714Y-52785714D01*
X113833333Y-52833333D01*
X113928571Y-52880952D01*
X114119047Y-52880952D01*
X114214285Y-52928571D01*
X114261904Y-52976190D01*
X114309523Y-53071428D01*
X114309523Y-53261904D01*
X114261904Y-53357142D01*
X114214285Y-53404761D01*
X114119047Y-53452380D01*
X113928571Y-53452380D01*
X113833333Y-53404761D01*
X113785714Y-53357142D01*
X113738095Y-53261904D01*
X113738095Y-53071428D01*
X113785714Y-52976190D01*
X113833333Y-52928571D01*
X113928571Y-52880952D01*
X130147619Y-140928571D02*
X130100000Y-140833333D01*
X130004761Y-140738095D01*
X129861904Y-140595238D01*
X129814285Y-140500000D01*
X129814285Y-140404761D01*
X130052380Y-140452380D02*
X130004761Y-140357142D01*
X129909523Y-140261904D01*
X129719047Y-140214285D01*
X129385714Y-140214285D01*
X129195238Y-140261904D01*
X129100000Y-140357142D01*
X129052380Y-140452380D01*
X129052380Y-140642857D01*
X129100000Y-140738095D01*
X129195238Y-140833333D01*
X129385714Y-140880952D01*
X129719047Y-140880952D01*
X129909523Y-140833333D01*
X130004761Y-140738095D01*
X130052380Y-140642857D01*
X130052380Y-140452380D01*
X130052380Y-141833333D02*
X130052380Y-141261904D01*
X130052380Y-141547619D02*
X129052380Y-141547619D01*
X129195238Y-141452380D01*
X129290476Y-141357142D01*
X129338095Y-141261904D01*
X129052380Y-142452380D02*
X129052380Y-142547619D01*
X129100000Y-142642857D01*
X129147619Y-142690476D01*
X129242857Y-142738095D01*
X129433333Y-142785714D01*
X129671428Y-142785714D01*
X129861904Y-142738095D01*
X129957142Y-142690476D01*
X130004761Y-142642857D01*
X130052380Y-142547619D01*
X130052380Y-142452380D01*
X130004761Y-142357142D01*
X129957142Y-142309523D01*
X129861904Y-142261904D01*
X129671428Y-142214285D01*
X129433333Y-142214285D01*
X129242857Y-142261904D01*
X129147619Y-142309523D01*
X129100000Y-142357142D01*
X129052380Y-142452380D01*
X138642857Y-102952380D02*
X138976190Y-102476190D01*
X139214285Y-102952380D02*
X139214285Y-101952380D01*
X138833333Y-101952380D01*
X138738095Y-102000000D01*
X138690476Y-102047619D01*
X138642857Y-102142857D01*
X138642857Y-102285714D01*
X138690476Y-102380952D01*
X138738095Y-102428571D01*
X138833333Y-102476190D01*
X139214285Y-102476190D01*
X137690476Y-102952380D02*
X138261904Y-102952380D01*
X137976190Y-102952380D02*
X137976190Y-101952380D01*
X138071428Y-102095238D01*
X138166666Y-102190476D01*
X138261904Y-102238095D01*
X136833333Y-101952380D02*
X137023809Y-101952380D01*
X137119047Y-102000000D01*
X137166666Y-102047619D01*
X137261904Y-102190476D01*
X137309523Y-102380952D01*
X137309523Y-102761904D01*
X137261904Y-102857142D01*
X137214285Y-102904761D01*
X137119047Y-102952380D01*
X136928571Y-102952380D01*
X136833333Y-102904761D01*
X136785714Y-102857142D01*
X136738095Y-102761904D01*
X136738095Y-102523809D01*
X136785714Y-102428571D01*
X136833333Y-102380952D01*
X136928571Y-102333333D01*
X137119047Y-102333333D01*
X137214285Y-102380952D01*
X137261904Y-102428571D01*
X137309523Y-102523809D01*
X123166666Y-107357142D02*
X123214285Y-107404761D01*
X123357142Y-107452380D01*
X123452380Y-107452380D01*
X123595238Y-107404761D01*
X123690476Y-107309523D01*
X123738095Y-107214285D01*
X123785714Y-107023809D01*
X123785714Y-106880952D01*
X123738095Y-106690476D01*
X123690476Y-106595238D01*
X123595238Y-106500000D01*
X123452380Y-106452380D01*
X123357142Y-106452380D01*
X123214285Y-106500000D01*
X123166666Y-106547619D01*
X122261904Y-106452380D02*
X122738095Y-106452380D01*
X122785714Y-106928571D01*
X122738095Y-106880952D01*
X122642857Y-106833333D01*
X122404761Y-106833333D01*
X122309523Y-106880952D01*
X122261904Y-106928571D01*
X122214285Y-107023809D01*
X122214285Y-107261904D01*
X122261904Y-107357142D01*
X122309523Y-107404761D01*
X122404761Y-107452380D01*
X122642857Y-107452380D01*
X122738095Y-107404761D01*
X122785714Y-107357142D01*
X116333333Y-119952380D02*
X116333333Y-120666666D01*
X116380952Y-120809523D01*
X116476190Y-120904761D01*
X116619047Y-120952380D01*
X116714285Y-120952380D01*
X115857142Y-120952380D02*
X115857142Y-119952380D01*
X115476190Y-119952380D01*
X115380952Y-120000000D01*
X115333333Y-120047619D01*
X115285714Y-120142857D01*
X115285714Y-120285714D01*
X115333333Y-120380952D01*
X115380952Y-120428571D01*
X115476190Y-120476190D01*
X115857142Y-120476190D01*
X114333333Y-120952380D02*
X114904761Y-120952380D01*
X114619047Y-120952380D02*
X114619047Y-119952380D01*
X114714285Y-120095238D01*
X114809523Y-120190476D01*
X114904761Y-120238095D01*
X148047619Y-72904761D02*
X148000000Y-72809523D01*
X147904761Y-72714285D01*
X147761904Y-72571428D01*
X147714285Y-72476190D01*
X147714285Y-72380952D01*
X147952380Y-72428571D02*
X147904761Y-72333333D01*
X147809523Y-72238095D01*
X147619047Y-72190476D01*
X147285714Y-72190476D01*
X147095238Y-72238095D01*
X147000000Y-72333333D01*
X146952380Y-72428571D01*
X146952380Y-72619047D01*
X147000000Y-72714285D01*
X147095238Y-72809523D01*
X147285714Y-72857142D01*
X147619047Y-72857142D01*
X147809523Y-72809523D01*
X147904761Y-72714285D01*
X147952380Y-72619047D01*
X147952380Y-72428571D01*
X147047619Y-73238095D02*
X147000000Y-73285714D01*
X146952380Y-73380952D01*
X146952380Y-73619047D01*
X147000000Y-73714285D01*
X147047619Y-73761904D01*
X147142857Y-73809523D01*
X147238095Y-73809523D01*
X147380952Y-73761904D01*
X147952380Y-73190476D01*
X147952380Y-73809523D01*
X134952380Y-138357142D02*
X134476190Y-138023809D01*
X134952380Y-137785714D02*
X133952380Y-137785714D01*
X133952380Y-138166666D01*
X134000000Y-138261904D01*
X134047619Y-138309523D01*
X134142857Y-138357142D01*
X134285714Y-138357142D01*
X134380952Y-138309523D01*
X134428571Y-138261904D01*
X134476190Y-138166666D01*
X134476190Y-137785714D01*
X134285714Y-139214285D02*
X134952380Y-139214285D01*
X133904761Y-138976190D02*
X134619047Y-138738095D01*
X134619047Y-139357142D01*
X134047619Y-139690476D02*
X134000000Y-139738095D01*
X133952380Y-139833333D01*
X133952380Y-140071428D01*
X134000000Y-140166666D01*
X134047619Y-140214285D01*
X134142857Y-140261904D01*
X134238095Y-140261904D01*
X134380952Y-140214285D01*
X134952380Y-139642857D01*
X134952380Y-140261904D01*
X126214285Y-44952380D02*
X126214285Y-43952380D01*
X125976190Y-43952380D01*
X125833333Y-44000000D01*
X125738095Y-44095238D01*
X125690476Y-44190476D01*
X125642857Y-44380952D01*
X125642857Y-44523809D01*
X125690476Y-44714285D01*
X125738095Y-44809523D01*
X125833333Y-44904761D01*
X125976190Y-44952380D01*
X126214285Y-44952380D01*
X124690476Y-44952380D02*
X125261904Y-44952380D01*
X124976190Y-44952380D02*
X124976190Y-43952380D01*
X125071428Y-44095238D01*
X125166666Y-44190476D01*
X125261904Y-44238095D01*
X124214285Y-44952380D02*
X124023809Y-44952380D01*
X123928571Y-44904761D01*
X123880952Y-44857142D01*
X123785714Y-44714285D01*
X123738095Y-44523809D01*
X123738095Y-44142857D01*
X123785714Y-44047619D01*
X123833333Y-44000000D01*
X123928571Y-43952380D01*
X124119047Y-43952380D01*
X124214285Y-44000000D01*
X124261904Y-44047619D01*
X124309523Y-44142857D01*
X124309523Y-44380952D01*
X124261904Y-44476190D01*
X124214285Y-44523809D01*
X124119047Y-44571428D01*
X123928571Y-44571428D01*
X123833333Y-44523809D01*
X123785714Y-44476190D01*
X123738095Y-44380952D01*
X113857142Y-96857142D02*
X113904761Y-96809523D01*
X113952380Y-96666666D01*
X113952380Y-96571428D01*
X113904761Y-96428571D01*
X113809523Y-96333333D01*
X113714285Y-96285714D01*
X113523809Y-96238095D01*
X113380952Y-96238095D01*
X113190476Y-96285714D01*
X113095238Y-96333333D01*
X113000000Y-96428571D01*
X112952380Y-96571428D01*
X112952380Y-96666666D01*
X113000000Y-96809523D01*
X113047619Y-96857142D01*
X112952380Y-97190476D02*
X112952380Y-97809523D01*
X113333333Y-97476190D01*
X113333333Y-97619047D01*
X113380952Y-97714285D01*
X113428571Y-97761904D01*
X113523809Y-97809523D01*
X113761904Y-97809523D01*
X113857142Y-97761904D01*
X113904761Y-97714285D01*
X113952380Y-97619047D01*
X113952380Y-97333333D01*
X113904761Y-97238095D01*
X113857142Y-97190476D01*
X112952380Y-98428571D02*
X112952380Y-98523809D01*
X113000000Y-98619047D01*
X113047619Y-98666666D01*
X113142857Y-98714285D01*
X113333333Y-98761904D01*
X113571428Y-98761904D01*
X113761904Y-98714285D01*
X113857142Y-98666666D01*
X113904761Y-98619047D01*
X113952380Y-98523809D01*
X113952380Y-98428571D01*
X113904761Y-98333333D01*
X113857142Y-98285714D01*
X113761904Y-98238095D01*
X113571428Y-98190476D01*
X113333333Y-98190476D01*
X113142857Y-98238095D01*
X113047619Y-98285714D01*
X113000000Y-98333333D01*
X112952380Y-98428571D01*
X144952380Y-65357142D02*
X144476190Y-65023809D01*
X144952380Y-64785714D02*
X143952380Y-64785714D01*
X143952380Y-65166666D01*
X144000000Y-65261904D01*
X144047619Y-65309523D01*
X144142857Y-65357142D01*
X144285714Y-65357142D01*
X144380952Y-65309523D01*
X144428571Y-65261904D01*
X144476190Y-65166666D01*
X144476190Y-64785714D01*
X143952380Y-65690476D02*
X143952380Y-66309523D01*
X144333333Y-65976190D01*
X144333333Y-66119047D01*
X144380952Y-66214285D01*
X144428571Y-66261904D01*
X144523809Y-66309523D01*
X144761904Y-66309523D01*
X144857142Y-66261904D01*
X144904761Y-66214285D01*
X144952380Y-66119047D01*
X144952380Y-65833333D01*
X144904761Y-65738095D01*
X144857142Y-65690476D01*
X144285714Y-67166666D02*
X144952380Y-67166666D01*
X143904761Y-66928571D02*
X144619047Y-66690476D01*
X144619047Y-67309523D01*
X144452380Y-105666666D02*
X145166666Y-105666666D01*
X145309523Y-105619047D01*
X145404761Y-105523809D01*
X145452380Y-105380952D01*
X145452380Y-105285714D01*
X144880952Y-106285714D02*
X144833333Y-106190476D01*
X144785714Y-106142857D01*
X144690476Y-106095238D01*
X144642857Y-106095238D01*
X144547619Y-106142857D01*
X144500000Y-106190476D01*
X144452380Y-106285714D01*
X144452380Y-106476190D01*
X144500000Y-106571428D01*
X144547619Y-106619047D01*
X144642857Y-106666666D01*
X144690476Y-106666666D01*
X144785714Y-106619047D01*
X144833333Y-106571428D01*
X144880952Y-106476190D01*
X144880952Y-106285714D01*
X144928571Y-106190476D01*
X144976190Y-106142857D01*
X145071428Y-106095238D01*
X145261904Y-106095238D01*
X145357142Y-106142857D01*
X145404761Y-106190476D01*
X145452380Y-106285714D01*
X145452380Y-106476190D01*
X145404761Y-106571428D01*
X145357142Y-106619047D01*
X145261904Y-106666666D01*
X145071428Y-106666666D01*
X144976190Y-106619047D01*
X144928571Y-106571428D01*
X144880952Y-106476190D01*
X131452380Y-111857142D02*
X130976190Y-111523809D01*
X131452380Y-111285714D02*
X130452380Y-111285714D01*
X130452380Y-111666666D01*
X130500000Y-111761904D01*
X130547619Y-111809523D01*
X130642857Y-111857142D01*
X130785714Y-111857142D01*
X130880952Y-111809523D01*
X130928571Y-111761904D01*
X130976190Y-111666666D01*
X130976190Y-111285714D01*
X130452380Y-112190476D02*
X130452380Y-112809523D01*
X130833333Y-112476190D01*
X130833333Y-112619047D01*
X130880952Y-112714285D01*
X130928571Y-112761904D01*
X131023809Y-112809523D01*
X131261904Y-112809523D01*
X131357142Y-112761904D01*
X131404761Y-112714285D01*
X131452380Y-112619047D01*
X131452380Y-112333333D01*
X131404761Y-112238095D01*
X131357142Y-112190476D01*
X131452380Y-113761904D02*
X131452380Y-113190476D01*
X131452380Y-113476190D02*
X130452380Y-113476190D01*
X130595238Y-113380952D01*
X130690476Y-113285714D01*
X130738095Y-113190476D01*
X148047619Y-66404761D02*
X148000000Y-66309523D01*
X147904761Y-66214285D01*
X147761904Y-66071428D01*
X147714285Y-65976190D01*
X147714285Y-65880952D01*
X147952380Y-65928571D02*
X147904761Y-65833333D01*
X147809523Y-65738095D01*
X147619047Y-65690476D01*
X147285714Y-65690476D01*
X147095238Y-65738095D01*
X147000000Y-65833333D01*
X146952380Y-65928571D01*
X146952380Y-66119047D01*
X147000000Y-66214285D01*
X147095238Y-66309523D01*
X147285714Y-66357142D01*
X147619047Y-66357142D01*
X147809523Y-66309523D01*
X147904761Y-66214285D01*
X147952380Y-66119047D01*
X147952380Y-65928571D01*
X146952380Y-66690476D02*
X146952380Y-67357142D01*
X147952380Y-66928571D01*
X153452380Y-102785714D02*
X152452380Y-102785714D01*
X152452380Y-103023809D01*
X152500000Y-103166666D01*
X152595238Y-103261904D01*
X152690476Y-103309523D01*
X152880952Y-103357142D01*
X153023809Y-103357142D01*
X153214285Y-103309523D01*
X153309523Y-103261904D01*
X153404761Y-103166666D01*
X153452380Y-103023809D01*
X153452380Y-102785714D01*
X153452380Y-104309523D02*
X153452380Y-103738095D01*
X153452380Y-104023809D02*
X152452380Y-104023809D01*
X152595238Y-103928571D01*
X152690476Y-103833333D01*
X152738095Y-103738095D01*
X152452380Y-105214285D02*
X152452380Y-104738095D01*
X152928571Y-104690476D01*
X152880952Y-104738095D01*
X152833333Y-104833333D01*
X152833333Y-105071428D01*
X152880952Y-105166666D01*
X152928571Y-105214285D01*
X153023809Y-105261904D01*
X153261904Y-105261904D01*
X153357142Y-105214285D01*
X153404761Y-105166666D01*
X153452380Y-105071428D01*
X153452380Y-104833333D01*
X153404761Y-104738095D01*
X153357142Y-104690476D01*
X151952380Y-103357142D02*
X151476190Y-103023809D01*
X151952380Y-102785714D02*
X150952380Y-102785714D01*
X150952380Y-103166666D01*
X151000000Y-103261904D01*
X151047619Y-103309523D01*
X151142857Y-103357142D01*
X151285714Y-103357142D01*
X151380952Y-103309523D01*
X151428571Y-103261904D01*
X151476190Y-103166666D01*
X151476190Y-102785714D01*
X151952380Y-104309523D02*
X151952380Y-103738095D01*
X151952380Y-104023809D02*
X150952380Y-104023809D01*
X151095238Y-103928571D01*
X151190476Y-103833333D01*
X151238095Y-103738095D01*
X150952380Y-105214285D02*
X150952380Y-104738095D01*
X151428571Y-104690476D01*
X151380952Y-104738095D01*
X151333333Y-104833333D01*
X151333333Y-105071428D01*
X151380952Y-105166666D01*
X151428571Y-105214285D01*
X151523809Y-105261904D01*
X151761904Y-105261904D01*
X151857142Y-105214285D01*
X151904761Y-105166666D01*
X151952380Y-105071428D01*
X151952380Y-104833333D01*
X151904761Y-104738095D01*
X151857142Y-104690476D01*
X146142857Y-102952380D02*
X146476190Y-102476190D01*
X146714285Y-102952380D02*
X146714285Y-101952380D01*
X146333333Y-101952380D01*
X146238095Y-102000000D01*
X146190476Y-102047619D01*
X146142857Y-102142857D01*
X146142857Y-102285714D01*
X146190476Y-102380952D01*
X146238095Y-102428571D01*
X146333333Y-102476190D01*
X146714285Y-102476190D01*
X145190476Y-102952380D02*
X145761904Y-102952380D01*
X145476190Y-102952380D02*
X145476190Y-101952380D01*
X145571428Y-102095238D01*
X145666666Y-102190476D01*
X145761904Y-102238095D01*
X144857142Y-101952380D02*
X144238095Y-101952380D01*
X144571428Y-102333333D01*
X144428571Y-102333333D01*
X144333333Y-102380952D01*
X144285714Y-102428571D01*
X144238095Y-102523809D01*
X144238095Y-102761904D01*
X144285714Y-102857142D01*
X144333333Y-102904761D01*
X144428571Y-102952380D01*
X144714285Y-102952380D01*
X144809523Y-102904761D01*
X144857142Y-102857142D01*
X113452380Y-115333333D02*
X112976190Y-115000000D01*
X113452380Y-114761904D02*
X112452380Y-114761904D01*
X112452380Y-115142857D01*
X112500000Y-115238095D01*
X112547619Y-115285714D01*
X112642857Y-115333333D01*
X112785714Y-115333333D01*
X112880952Y-115285714D01*
X112928571Y-115238095D01*
X112976190Y-115142857D01*
X112976190Y-114761904D01*
X112452380Y-115666666D02*
X112452380Y-116333333D01*
X113452380Y-115904761D01*
X109452380Y-99785714D02*
X108452380Y-99785714D01*
X108452380Y-100023809D01*
X108500000Y-100166666D01*
X108595238Y-100261904D01*
X108690476Y-100309523D01*
X108880952Y-100357142D01*
X109023809Y-100357142D01*
X109214285Y-100309523D01*
X109309523Y-100261904D01*
X109404761Y-100166666D01*
X109452380Y-100023809D01*
X109452380Y-99785714D01*
X108547619Y-100738095D02*
X108500000Y-100785714D01*
X108452380Y-100880952D01*
X108452380Y-101119047D01*
X108500000Y-101214285D01*
X108547619Y-101261904D01*
X108642857Y-101309523D01*
X108738095Y-101309523D01*
X108880952Y-101261904D01*
X109452380Y-100690476D01*
X109452380Y-101309523D01*
X108452380Y-101642857D02*
X108452380Y-102261904D01*
X108833333Y-101928571D01*
X108833333Y-102071428D01*
X108880952Y-102166666D01*
X108928571Y-102214285D01*
X109023809Y-102261904D01*
X109261904Y-102261904D01*
X109357142Y-102214285D01*
X109404761Y-102166666D01*
X109452380Y-102071428D01*
X109452380Y-101785714D01*
X109404761Y-101690476D01*
X109357142Y-101642857D01*
X94666666Y-98452380D02*
X95000000Y-97976190D01*
X95238095Y-98452380D02*
X95238095Y-97452380D01*
X94857142Y-97452380D01*
X94761904Y-97500000D01*
X94714285Y-97547619D01*
X94666666Y-97642857D01*
X94666666Y-97785714D01*
X94714285Y-97880952D01*
X94761904Y-97928571D01*
X94857142Y-97976190D01*
X95238095Y-97976190D01*
X93809523Y-97452380D02*
X94000000Y-97452380D01*
X94095238Y-97500000D01*
X94142857Y-97547619D01*
X94238095Y-97690476D01*
X94285714Y-97880952D01*
X94285714Y-98261904D01*
X94238095Y-98357142D01*
X94190476Y-98404761D01*
X94095238Y-98452380D01*
X93904761Y-98452380D01*
X93809523Y-98404761D01*
X93761904Y-98357142D01*
X93714285Y-98261904D01*
X93714285Y-98023809D01*
X93761904Y-97928571D01*
X93809523Y-97880952D01*
X93904761Y-97833333D01*
X94095238Y-97833333D01*
X94190476Y-97880952D01*
X94238095Y-97928571D01*
X94285714Y-98023809D01*
D11*
X87901651Y-97040000D02*
X87901651Y-99562000D01*
X88021651Y-92373000D02*
X88021651Y-94960000D01*
X88381651Y-92210000D02*
X88381651Y-94960000D01*
X88621651Y-92123000D02*
X88621651Y-99877000D01*
X87541651Y-97040000D02*
X87541651Y-99338000D01*
X85981651Y-94771000D02*
X85981651Y-97229000D01*
X86981651Y-97040000D02*
X86981651Y-98867000D01*
X88781651Y-92075000D02*
X88781651Y-99925000D01*
X88421651Y-92195000D02*
X88421651Y-94960000D01*
X86021651Y-94654000D02*
X86021651Y-97346000D01*
X88501651Y-92165000D02*
X88501651Y-99835000D01*
X87221651Y-97040000D02*
X87221651Y-99090000D01*
X86541651Y-93655000D02*
X86541651Y-94960000D01*
X85821651Y-95467000D02*
X85821651Y-96533000D01*
X87341651Y-92811000D02*
X87341651Y-94960000D01*
X87021651Y-97040000D02*
X87021651Y-98907000D01*
X86701651Y-97040000D02*
X86701651Y-98556000D01*
X87421651Y-92750000D02*
X87421651Y-94960000D01*
X88461651Y-92179000D02*
X88461651Y-99821000D01*
X86501651Y-93713000D02*
X86501651Y-94960000D01*
X87941651Y-92416000D02*
X87941651Y-94960000D01*
X87821651Y-92483000D02*
X87821651Y-94960000D01*
X89822651Y-91920000D02*
X89822651Y-100080000D01*
X87581651Y-97040000D02*
X87581651Y-99365000D01*
X89662651Y-91926000D02*
X89662651Y-100074000D01*
X87981651Y-97040000D02*
X87981651Y-99606000D01*
X94312349Y-93685000D02*
X93512349Y-93685000D01*
X87821651Y-97040000D02*
X87821651Y-99517000D01*
X88701651Y-92098000D02*
X88701651Y-99902000D01*
X87421651Y-97040000D02*
X87421651Y-99250000D01*
X89181651Y-91983000D02*
X89181651Y-100017000D01*
X87381651Y-97040000D02*
X87381651Y-99220000D01*
X87221651Y-92910000D02*
X87221651Y-94960000D01*
X88221651Y-97040000D02*
X88221651Y-99722000D01*
X87901651Y-92438000D02*
X87901651Y-94960000D01*
X85941651Y-94902000D02*
X85941651Y-97098000D01*
X88421651Y-97040000D02*
X88421651Y-99805000D01*
X88381651Y-97040000D02*
X88381651Y-99790000D01*
X87981651Y-92394000D02*
X87981651Y-94960000D01*
X86781651Y-97040000D02*
X86781651Y-98651000D01*
X86101651Y-94448000D02*
X86101651Y-97552000D01*
X88981651Y-92024000D02*
X88981651Y-99976000D01*
X87781651Y-92507000D02*
X87781651Y-94960000D01*
X88021651Y-97040000D02*
X88021651Y-99627000D01*
X86661651Y-93495000D02*
X86661651Y-94960000D01*
X86141651Y-94355000D02*
X86141651Y-97645000D01*
X87501651Y-97040000D02*
X87501651Y-99309000D01*
X89262651Y-91970000D02*
X89262651Y-100030000D01*
X87621651Y-92608000D02*
X87621651Y-94960000D01*
X86981651Y-93133000D02*
X86981651Y-94960000D01*
X86541651Y-97040000D02*
X86541651Y-98345000D01*
X88661651Y-92111000D02*
X88661651Y-99889000D01*
X86741651Y-93396000D02*
X86741651Y-94960000D01*
X86181651Y-94269000D02*
X86181651Y-97731000D01*
X86341651Y-93966000D02*
X86341651Y-98034000D01*
X86421651Y-97040000D02*
X86421651Y-98166000D01*
X89542651Y-91935000D02*
X89542651Y-100065000D01*
X87061651Y-97040000D02*
X87061651Y-98945000D01*
X87461651Y-92720000D02*
X87461651Y-94960000D01*
X87101651Y-97040000D02*
X87101651Y-98983000D01*
X86381651Y-97040000D02*
X86381651Y-98102000D01*
X86941651Y-97040000D02*
X86941651Y-98826000D01*
X89382651Y-91952000D02*
X89382651Y-100048000D01*
X88141651Y-92314000D02*
X88141651Y-94960000D01*
X87381651Y-92780000D02*
X87381651Y-94960000D01*
X88301651Y-92243000D02*
X88301651Y-94960000D01*
X88101651Y-97040000D02*
X88101651Y-99666000D01*
X87781651Y-97040000D02*
X87781651Y-99493000D01*
X88741651Y-92086000D02*
X88741651Y-99914000D01*
X87861651Y-92460000D02*
X87861651Y-94960000D01*
X87341651Y-97040000D02*
X87341651Y-99189000D01*
X88221651Y-92278000D02*
X88221651Y-94960000D01*
X87581651Y-92635000D02*
X87581651Y-94960000D01*
X87501651Y-92691000D02*
X87501651Y-94960000D01*
X88341651Y-92226000D02*
X88341651Y-94960000D01*
X89622651Y-91929000D02*
X89622651Y-100071000D01*
X87701651Y-97040000D02*
X87701651Y-99444000D01*
X87301651Y-92844000D02*
X87301651Y-94960000D01*
X87181651Y-97040000D02*
X87181651Y-99055000D01*
X87261651Y-97040000D02*
X87261651Y-99124000D01*
X86901651Y-93216000D02*
X86901651Y-94960000D01*
X89101651Y-91998000D02*
X89101651Y-100002000D01*
X86781651Y-93349000D02*
X86781651Y-94960000D01*
X89061651Y-92006000D02*
X89061651Y-99994000D01*
X89782651Y-91921000D02*
X89782651Y-100079000D01*
X88821651Y-92064000D02*
X88821651Y-99936000D01*
X93912349Y-93285000D02*
X93912349Y-94085000D01*
X86821651Y-93303000D02*
X86821651Y-94960000D01*
X88181651Y-92296000D02*
X88181651Y-94960000D01*
X86621651Y-93546000D02*
X86621651Y-94960000D01*
X85901651Y-95052000D02*
X85901651Y-96948000D01*
X88141651Y-97040000D02*
X88141651Y-99686000D01*
X89742651Y-91923000D02*
X89742651Y-100077000D01*
X86941651Y-93174000D02*
X86941651Y-94960000D01*
X89222651Y-91976000D02*
X89222651Y-100024000D01*
X87861651Y-97040000D02*
X87861651Y-99540000D01*
X87741651Y-92531000D02*
X87741651Y-94960000D01*
X88181651Y-97040000D02*
X88181651Y-99704000D01*
X88941651Y-92033000D02*
X88941651Y-99967000D01*
X86821651Y-97040000D02*
X86821651Y-98697000D01*
X86621651Y-97040000D02*
X86621651Y-98454000D01*
X86701651Y-93444000D02*
X86701651Y-94960000D01*
X88261651Y-97040000D02*
X88261651Y-99740000D01*
X86461651Y-97040000D02*
X86461651Y-98228000D01*
X86581651Y-93600000D02*
X86581651Y-94960000D01*
X88341651Y-97040000D02*
X88341651Y-99774000D01*
X89702651Y-91924000D02*
X89702651Y-100076000D01*
X87661651Y-92582000D02*
X87661651Y-94960000D01*
X86301651Y-94036000D02*
X86301651Y-97964000D01*
X86421651Y-93834000D02*
X86421651Y-94960000D01*
X89302651Y-91963000D02*
X89302651Y-100037000D01*
X86221651Y-94187000D02*
X86221651Y-97813000D01*
X87181651Y-92945000D02*
X87181651Y-94960000D01*
X86461651Y-93772000D02*
X86461651Y-94960000D01*
X88101651Y-92334000D02*
X88101651Y-94960000D01*
X89342651Y-91958000D02*
X89342651Y-100042000D01*
X87741651Y-97040000D02*
X87741651Y-99469000D01*
X88541651Y-92150000D02*
X88541651Y-99850000D01*
X88061651Y-97040000D02*
X88061651Y-99647000D01*
X89862651Y-91920000D02*
X89862651Y-100080000D01*
X87461651Y-97040000D02*
X87461651Y-99280000D01*
X87061651Y-93055000D02*
X87061651Y-94960000D01*
X88581651Y-92137000D02*
X88581651Y-99863000D01*
X86861651Y-97040000D02*
X86861651Y-98741000D01*
X89422651Y-91948000D02*
X89422651Y-100052000D01*
X88861651Y-92053000D02*
X88861651Y-99947000D01*
X87541651Y-92662000D02*
X87541651Y-94960000D01*
X88261651Y-92260000D02*
X88261651Y-94960000D01*
X86581651Y-97040000D02*
X86581651Y-98400000D01*
X89502651Y-91939000D02*
X89502651Y-100061000D01*
X89582651Y-91932000D02*
X89582651Y-100068000D01*
X86901651Y-97040000D02*
X86901651Y-98784000D01*
X88301651Y-97040000D02*
X88301651Y-99757000D01*
X86741651Y-97040000D02*
X86741651Y-98604000D01*
X87301651Y-97040000D02*
X87301651Y-99156000D01*
X87141651Y-92981000D02*
X87141651Y-94960000D01*
X86861651Y-93259000D02*
X86861651Y-94960000D01*
X88901651Y-92043000D02*
X88901651Y-99957000D01*
X89141651Y-91990000D02*
X89141651Y-100010000D01*
X87261651Y-92876000D02*
X87261651Y-94960000D01*
X86661651Y-97040000D02*
X86661651Y-98505000D01*
X89902651Y-91920000D02*
X89902651Y-100080000D01*
X87701651Y-92556000D02*
X87701651Y-94960000D01*
X89021651Y-92015000D02*
X89021651Y-99985000D01*
X86061651Y-94547000D02*
X86061651Y-97453000D01*
X86381651Y-93898000D02*
X86381651Y-94960000D01*
X87941651Y-97040000D02*
X87941651Y-99584000D01*
X87621651Y-97040000D02*
X87621651Y-99392000D01*
X87101651Y-93017000D02*
X87101651Y-94960000D01*
X87141651Y-97040000D02*
X87141651Y-99019000D01*
X87661651Y-97040000D02*
X87661651Y-99418000D01*
X86261651Y-94110000D02*
X86261651Y-97890000D01*
X87021651Y-93093000D02*
X87021651Y-94960000D01*
X88061651Y-92353000D02*
X88061651Y-94960000D01*
X86501651Y-97040000D02*
X86501651Y-98287000D01*
X85861651Y-95232000D02*
X85861651Y-96768000D01*
X89462651Y-91943000D02*
X89462651Y-100057000D01*
X94022651Y-96000000D02*
G75*
G03*
X94022651Y-96000000I-4120000J0D01*
G01*
X110262742Y-110522500D02*
X110737258Y-110522500D01*
X110262742Y-109477500D02*
X110737258Y-109477500D01*
X110910000Y-55172936D02*
X110910000Y-56627064D01*
X109090000Y-55172936D02*
X109090000Y-56627064D01*
X101685000Y-106760000D02*
X102940000Y-106760000D01*
X102940000Y-107060000D02*
X107060000Y-107060000D01*
X102940000Y-104940000D02*
X107060000Y-104940000D01*
X102940000Y-107060000D02*
X102940000Y-106760000D01*
X107060000Y-105240000D02*
X107060000Y-104940000D01*
X107060000Y-107060000D02*
X107060000Y-106760000D01*
X102940000Y-105240000D02*
X102940000Y-104940000D01*
X102970000Y-76450000D02*
X102970000Y-76180000D01*
X101470000Y-76450000D02*
X102970000Y-76450000D01*
X102970000Y-69820000D02*
X105800000Y-69820000D01*
X102970000Y-69550000D02*
X102970000Y-69820000D01*
X102970000Y-76180000D02*
X104070000Y-76180000D01*
X101470000Y-69550000D02*
X102970000Y-69550000D01*
X118550000Y-120800000D02*
X118550000Y-120200000D01*
X114450000Y-120200000D02*
X114450000Y-120800000D01*
X115300000Y-119300000D02*
X115000000Y-119000000D01*
X115100000Y-121500000D02*
X117900000Y-121500000D01*
X117900000Y-119500000D02*
X115100000Y-119500000D01*
X115000000Y-119000000D02*
X115600000Y-119000000D01*
X115300000Y-119300000D02*
X115600000Y-119000000D01*
X114450000Y-120800000D02*
G75*
G03*
X115150000Y-121500000I699999J-1D01*
G01*
X117850000Y-121500000D02*
G75*
G03*
X118550000Y-120800000I0J700000D01*
G01*
X118550000Y-120200000D02*
G75*
G03*
X117850000Y-119500000I-700000J0D01*
G01*
X115150000Y-119500000D02*
G75*
G03*
X114450000Y-120200000I-1J-699999D01*
G01*
X97237258Y-104522500D02*
X96762742Y-104522500D01*
X97237258Y-103477500D02*
X96762742Y-103477500D01*
X117859420Y-95510000D02*
X118140580Y-95510000D01*
X117859420Y-94490000D02*
X118140580Y-94490000D01*
X162178349Y-94960000D02*
X162178349Y-92483000D01*
X161818349Y-94960000D02*
X161818349Y-92296000D01*
X161298349Y-99902000D02*
X161298349Y-92098000D01*
X162298349Y-94960000D02*
X162298349Y-92556000D01*
X162978349Y-98907000D02*
X162978349Y-97040000D01*
X162858349Y-99019000D02*
X162858349Y-97040000D01*
X161338349Y-99889000D02*
X161338349Y-92111000D01*
X160217349Y-100079000D02*
X160217349Y-91921000D01*
X160818349Y-100017000D02*
X160818349Y-91983000D01*
X162378349Y-94960000D02*
X162378349Y-92608000D01*
X160377349Y-100071000D02*
X160377349Y-91929000D01*
X162658349Y-94960000D02*
X162658349Y-92811000D01*
X160898349Y-100002000D02*
X160898349Y-91998000D01*
X162938349Y-98945000D02*
X162938349Y-97040000D01*
X161378349Y-99877000D02*
X161378349Y-92123000D01*
X163858349Y-97645000D02*
X163858349Y-94355000D01*
X163418349Y-94960000D02*
X163418349Y-93600000D01*
X160177349Y-100080000D02*
X160177349Y-91920000D01*
X162738349Y-99124000D02*
X162738349Y-97040000D01*
X162018349Y-99606000D02*
X162018349Y-97040000D01*
X163178349Y-94960000D02*
X163178349Y-93303000D01*
X160297349Y-100076000D02*
X160297349Y-91924000D01*
X162978349Y-94960000D02*
X162978349Y-93093000D01*
X162218349Y-99493000D02*
X162218349Y-97040000D01*
X163018349Y-98867000D02*
X163018349Y-97040000D01*
X160657349Y-100042000D02*
X160657349Y-91958000D01*
X163218349Y-94960000D02*
X163218349Y-93349000D01*
X163458349Y-98345000D02*
X163458349Y-97040000D01*
X160938349Y-99994000D02*
X160938349Y-92006000D01*
X162538349Y-94960000D02*
X162538349Y-92720000D01*
X163258349Y-94960000D02*
X163258349Y-93396000D01*
X155687651Y-98315000D02*
X156487651Y-98315000D01*
X160978349Y-99985000D02*
X160978349Y-92015000D01*
X163338349Y-94960000D02*
X163338349Y-93495000D01*
X160777349Y-100024000D02*
X160777349Y-91976000D01*
X162818349Y-94960000D02*
X162818349Y-92945000D01*
X162578349Y-94960000D02*
X162578349Y-92750000D01*
X161618349Y-99790000D02*
X161618349Y-97040000D01*
X163498349Y-98287000D02*
X163498349Y-97040000D01*
X163098349Y-94960000D02*
X163098349Y-93216000D01*
X161018349Y-99976000D02*
X161018349Y-92024000D01*
X163618349Y-94960000D02*
X163618349Y-93898000D01*
X162618349Y-99220000D02*
X162618349Y-97040000D01*
X162898349Y-98983000D02*
X162898349Y-97040000D01*
X162418349Y-99365000D02*
X162418349Y-97040000D01*
X163298349Y-98556000D02*
X163298349Y-97040000D01*
X161138349Y-99947000D02*
X161138349Y-92053000D01*
X163418349Y-98400000D02*
X163418349Y-97040000D01*
X161738349Y-99740000D02*
X161738349Y-97040000D01*
X161938349Y-99647000D02*
X161938349Y-97040000D01*
X162258349Y-99469000D02*
X162258349Y-97040000D01*
X161738349Y-94960000D02*
X161738349Y-92260000D01*
X164058349Y-97098000D02*
X164058349Y-94902000D01*
X163778349Y-97813000D02*
X163778349Y-94187000D01*
X160137349Y-100080000D02*
X160137349Y-91920000D01*
X162258349Y-94960000D02*
X162258349Y-92531000D01*
X161938349Y-94960000D02*
X161938349Y-92353000D01*
X163538349Y-94960000D02*
X163538349Y-93772000D01*
X163658349Y-98034000D02*
X163658349Y-93966000D01*
X161858349Y-99686000D02*
X161858349Y-97040000D01*
X162338349Y-99418000D02*
X162338349Y-97040000D01*
X160858349Y-100010000D02*
X160858349Y-91990000D01*
X161658349Y-99774000D02*
X161658349Y-97040000D01*
X160497349Y-100061000D02*
X160497349Y-91939000D01*
X163618349Y-98102000D02*
X163618349Y-97040000D01*
X162898349Y-94960000D02*
X162898349Y-93017000D01*
X163738349Y-97890000D02*
X163738349Y-94110000D01*
X162218349Y-94960000D02*
X162218349Y-92507000D01*
X163578349Y-94960000D02*
X163578349Y-93834000D01*
X160337349Y-100074000D02*
X160337349Y-91926000D01*
X162138349Y-94960000D02*
X162138349Y-92460000D01*
X160257349Y-100077000D02*
X160257349Y-91923000D01*
X163898349Y-97552000D02*
X163898349Y-94448000D01*
X160417349Y-100068000D02*
X160417349Y-91932000D01*
X160617349Y-100048000D02*
X160617349Y-91952000D01*
X163298349Y-94960000D02*
X163298349Y-93444000D01*
X161778349Y-94960000D02*
X161778349Y-92278000D01*
X163578349Y-98166000D02*
X163578349Y-97040000D01*
X163538349Y-98228000D02*
X163538349Y-97040000D01*
X161258349Y-99914000D02*
X161258349Y-92086000D01*
X162858349Y-94960000D02*
X162858349Y-92981000D01*
X161458349Y-99850000D02*
X161458349Y-92150000D01*
X161498349Y-99835000D02*
X161498349Y-92165000D01*
X162658349Y-99189000D02*
X162658349Y-97040000D01*
X162098349Y-94960000D02*
X162098349Y-92438000D01*
X162458349Y-99338000D02*
X162458349Y-97040000D01*
X163018349Y-94960000D02*
X163018349Y-93133000D01*
X163138349Y-98741000D02*
X163138349Y-97040000D01*
X163378349Y-94960000D02*
X163378349Y-93546000D01*
X161618349Y-94960000D02*
X161618349Y-92210000D01*
X163058349Y-98826000D02*
X163058349Y-97040000D01*
X161578349Y-94960000D02*
X161578349Y-92195000D01*
X162058349Y-99584000D02*
X162058349Y-97040000D01*
X163458349Y-94960000D02*
X163458349Y-93655000D01*
X161698349Y-94960000D02*
X161698349Y-92243000D01*
X162378349Y-99392000D02*
X162378349Y-97040000D01*
X162058349Y-94960000D02*
X162058349Y-92416000D01*
X163698349Y-97964000D02*
X163698349Y-94036000D01*
X161418349Y-99863000D02*
X161418349Y-92137000D01*
X161058349Y-99967000D02*
X161058349Y-92033000D01*
X160577349Y-100052000D02*
X160577349Y-91948000D01*
X162738349Y-94960000D02*
X162738349Y-92876000D01*
X162778349Y-94960000D02*
X162778349Y-92910000D01*
X161978349Y-99627000D02*
X161978349Y-97040000D01*
X162138349Y-99540000D02*
X162138349Y-97040000D01*
X162578349Y-99250000D02*
X162578349Y-97040000D01*
X163378349Y-98454000D02*
X163378349Y-97040000D01*
X163058349Y-94960000D02*
X163058349Y-93174000D01*
X164098349Y-96948000D02*
X164098349Y-95052000D01*
X163338349Y-98505000D02*
X163338349Y-97040000D01*
X161658349Y-94960000D02*
X161658349Y-92226000D01*
X163178349Y-98697000D02*
X163178349Y-97040000D01*
X161778349Y-99722000D02*
X161778349Y-97040000D01*
X161218349Y-99925000D02*
X161218349Y-92075000D01*
X160537349Y-100057000D02*
X160537349Y-91943000D01*
X161178349Y-99936000D02*
X161178349Y-92064000D01*
X164018349Y-97229000D02*
X164018349Y-94771000D01*
X164178349Y-96533000D02*
X164178349Y-95467000D01*
X163818349Y-97731000D02*
X163818349Y-94269000D01*
X160697349Y-100037000D02*
X160697349Y-91963000D01*
X162458349Y-94960000D02*
X162458349Y-92662000D01*
X164138349Y-96768000D02*
X164138349Y-95232000D01*
X160737349Y-100030000D02*
X160737349Y-91970000D01*
X162418349Y-94960000D02*
X162418349Y-92635000D01*
X162018349Y-94960000D02*
X162018349Y-92394000D01*
X163138349Y-94960000D02*
X163138349Y-93259000D01*
X161978349Y-94960000D02*
X161978349Y-92373000D01*
X162498349Y-94960000D02*
X162498349Y-92691000D01*
X162938349Y-94960000D02*
X162938349Y-93055000D01*
X162698349Y-99156000D02*
X162698349Y-97040000D01*
X160457349Y-100065000D02*
X160457349Y-91935000D01*
X161578349Y-99805000D02*
X161578349Y-97040000D01*
X156087651Y-98715000D02*
X156087651Y-97915000D01*
X162338349Y-94960000D02*
X162338349Y-92582000D01*
X162538349Y-99280000D02*
X162538349Y-97040000D01*
X161538349Y-99821000D02*
X161538349Y-92179000D01*
X161858349Y-94960000D02*
X161858349Y-92314000D01*
X163938349Y-97453000D02*
X163938349Y-94547000D01*
X161898349Y-94960000D02*
X161898349Y-92334000D01*
X162778349Y-99090000D02*
X162778349Y-97040000D01*
X161898349Y-99666000D02*
X161898349Y-97040000D01*
X161698349Y-99757000D02*
X161698349Y-97040000D01*
X161818349Y-99704000D02*
X161818349Y-97040000D01*
X162178349Y-99517000D02*
X162178349Y-97040000D01*
X162698349Y-94960000D02*
X162698349Y-92844000D01*
X162818349Y-99055000D02*
X162818349Y-97040000D01*
X163098349Y-98784000D02*
X163098349Y-97040000D01*
X163258349Y-98604000D02*
X163258349Y-97040000D01*
X162618349Y-94960000D02*
X162618349Y-92780000D01*
X161098349Y-99957000D02*
X161098349Y-92043000D01*
X162498349Y-99309000D02*
X162498349Y-97040000D01*
X163218349Y-98651000D02*
X163218349Y-97040000D01*
X162098349Y-99562000D02*
X162098349Y-97040000D01*
X162298349Y-99444000D02*
X162298349Y-97040000D01*
X160097349Y-100080000D02*
X160097349Y-91920000D01*
X163498349Y-94960000D02*
X163498349Y-93713000D01*
X163978349Y-97346000D02*
X163978349Y-94654000D01*
X164217349Y-96000000D02*
G75*
G03*
X164217349Y-96000000I-4120000J0D01*
G01*
X137477500Y-105237258D02*
X137477500Y-104762742D01*
X138522500Y-105237258D02*
X138522500Y-104762742D01*
X103737258Y-102522500D02*
X103262742Y-102522500D01*
X103737258Y-101477500D02*
X103262742Y-101477500D01*
X112735000Y-102500000D02*
X112735000Y-101700000D01*
X109615000Y-102500000D02*
X109615000Y-101700000D01*
X112735000Y-102500000D02*
X112735000Y-104300000D01*
X109615000Y-102500000D02*
X109615000Y-103300000D01*
X107522500Y-100262742D02*
X107522500Y-100737258D01*
X106477500Y-100262742D02*
X106477500Y-100737258D01*
X97237258Y-101477500D02*
X96762742Y-101477500D01*
X97237258Y-102522500D02*
X96762742Y-102522500D01*
X111412258Y-105477500D02*
X110937742Y-105477500D01*
X111412258Y-106522500D02*
X110937742Y-106522500D01*
X132490000Y-102359420D02*
X132490000Y-102640580D01*
X133510000Y-102359420D02*
X133510000Y-102640580D01*
X128762742Y-112477500D02*
X129237258Y-112477500D01*
X128762742Y-113522500D02*
X129237258Y-113522500D01*
X93020000Y-70390000D02*
X93020000Y-71340000D01*
X85560000Y-70390000D02*
X86980000Y-70390000D01*
X85560000Y-78610000D02*
X85560000Y-70390000D01*
X90000000Y-78610000D02*
X85560000Y-78610000D01*
X90000000Y-78610000D02*
X94440000Y-78610000D01*
X94440000Y-78610000D02*
X94440000Y-70390000D01*
X94440000Y-70390000D02*
X93020000Y-70390000D01*
X93020000Y-71340000D02*
X90000000Y-71340000D01*
X86980000Y-71340000D02*
X90000000Y-71340000D01*
X86980000Y-70390000D02*
X86980000Y-71340000D01*
X92230000Y-70700000D02*
G75*
G03*
X92230000Y-70700000I-250000J0D01*
G01*
X107629703Y-139842947D02*
X107519394Y-139732638D01*
X109267362Y-141480606D02*
X109157053Y-141370297D01*
X109916293Y-137558323D02*
G75*
G03*
X107519736Y-139732980I-419828J-1945212D01*
G01*
X109267020Y-141480262D02*
G75*
G03*
X111441675Y-139083707I229445J1976727D01*
G01*
X109524069Y-141003281D02*
G75*
G03*
X110996215Y-139530905I-27604J1499746D01*
G01*
X109469095Y-138003785D02*
G75*
G03*
X107996719Y-139475931I27370J-1499750D01*
G01*
X124910000Y-130711252D02*
X124910000Y-129288748D01*
X123090000Y-130711252D02*
X123090000Y-129288748D01*
X148022500Y-108737258D02*
X148022500Y-108262742D01*
X146977500Y-108737258D02*
X146977500Y-108262742D01*
X124480606Y-139732638D02*
X124370297Y-139842947D01*
X122842947Y-141370297D02*
X122732638Y-141480606D01*
X120558323Y-139083707D02*
G75*
G03*
X122732980Y-141480264I1945212J-419828D01*
G01*
X121003785Y-139530905D02*
G75*
G03*
X122475931Y-141003281I1499750J27370D01*
G01*
X124480262Y-139732980D02*
G75*
G03*
X122083707Y-137558325I-1976727J229445D01*
G01*
X124003281Y-139475931D02*
G75*
G03*
X122530905Y-138003785I-1499746J-27604D01*
G01*
X139490000Y-104859420D02*
X139490000Y-105140580D01*
X140510000Y-104859420D02*
X140510000Y-105140580D01*
X129859420Y-114490000D02*
X130140580Y-114490000D01*
X129859420Y-115510000D02*
X130140580Y-115510000D01*
X147030000Y-55550000D02*
X147030000Y-55820000D01*
X147030000Y-62180000D02*
X144200000Y-62180000D01*
X148530000Y-62450000D02*
X147030000Y-62450000D01*
X148530000Y-55550000D02*
X147030000Y-55550000D01*
X147030000Y-55820000D02*
X145930000Y-55820000D01*
X147030000Y-62450000D02*
X147030000Y-62180000D01*
X127477500Y-91262742D02*
X127477500Y-91737258D01*
X128522500Y-91262742D02*
X128522500Y-91737258D01*
X130359420Y-91990000D02*
X130640580Y-91990000D01*
X130359420Y-93010000D02*
X130640580Y-93010000D01*
X132762742Y-111522500D02*
X133237258Y-111522500D01*
X132762742Y-110477500D02*
X133237258Y-110477500D01*
X104522500Y-65762742D02*
X104522500Y-66237258D01*
X103477500Y-65762742D02*
X103477500Y-66237258D01*
X133522500Y-118762742D02*
X133522500Y-119237258D01*
X132477500Y-118762742D02*
X132477500Y-119237258D01*
X126010000Y-76640580D02*
X126010000Y-76359420D01*
X124990000Y-76640580D02*
X124990000Y-76359420D01*
X133000000Y-143800000D02*
X133000000Y-147000000D01*
X133000000Y-143800000D02*
X131000000Y-143800000D01*
X131000000Y-147000000D02*
X131000000Y-143800000D01*
X97237258Y-99477500D02*
X96762742Y-99477500D01*
X97237258Y-100522500D02*
X96762742Y-100522500D01*
X130660000Y-117300000D02*
X130660000Y-118700000D01*
X128340000Y-118700000D02*
X128340000Y-116800000D01*
X145477500Y-72762742D02*
X145477500Y-73237258D01*
X146522500Y-72762742D02*
X146522500Y-73237258D01*
X141022500Y-91262742D02*
X141022500Y-91737258D01*
X139977500Y-91262742D02*
X139977500Y-91737258D01*
X110640580Y-111490000D02*
X110359420Y-111490000D01*
X110640580Y-112510000D02*
X110359420Y-112510000D01*
X119410000Y-76288748D02*
X119410000Y-77711252D01*
X117590000Y-76288748D02*
X117590000Y-77711252D01*
X102970000Y-62950000D02*
X102970000Y-62680000D01*
X102970000Y-62680000D02*
X104070000Y-62680000D01*
X102970000Y-56320000D02*
X105800000Y-56320000D01*
X101470000Y-62950000D02*
X102970000Y-62950000D01*
X102970000Y-56050000D02*
X102970000Y-56320000D01*
X101470000Y-56050000D02*
X102970000Y-56050000D01*
X120490000Y-103640580D02*
X120490000Y-103359420D01*
X121510000Y-103640580D02*
X121510000Y-103359420D01*
X101470000Y-62550000D02*
X102970000Y-62550000D01*
X102970000Y-62550000D02*
X102970000Y-62820000D01*
X102970000Y-69450000D02*
X102970000Y-69180000D01*
X101470000Y-69450000D02*
X102970000Y-69450000D01*
X102970000Y-62820000D02*
X105800000Y-62820000D01*
X102970000Y-69180000D02*
X104070000Y-69180000D01*
X107010000Y-94640580D02*
X107010000Y-94359420D01*
X105990000Y-94640580D02*
X105990000Y-94359420D01*
X119200000Y-98700000D02*
X119600000Y-98700000D01*
X119200000Y-98700000D02*
X119200000Y-97700000D01*
X118800000Y-97700000D02*
X116800000Y-97700000D01*
X116800000Y-97700000D02*
X116800000Y-98700000D01*
X118800000Y-97500000D02*
X119200000Y-97500000D01*
X116800000Y-97500000D02*
X118800000Y-97500000D01*
X118800000Y-101300000D02*
X119200000Y-101300000D01*
X116800000Y-101300000D02*
X118800000Y-101300000D01*
X118800000Y-97700000D02*
X119200000Y-97700000D01*
X116800000Y-100500000D02*
X116800000Y-101300000D01*
X119200000Y-101300000D02*
X119200000Y-100500000D01*
X132522500Y-136737258D02*
X132522500Y-136262742D01*
X131477500Y-136737258D02*
X131477500Y-136262742D01*
X146870000Y-50380000D02*
X130130000Y-50380000D01*
X146870000Y-50380000D02*
X146870000Y-51896000D01*
X130130000Y-54104000D02*
X130130000Y-55620000D01*
X146870000Y-55620000D02*
X130130000Y-55620000D01*
X146870000Y-54104000D02*
X146870000Y-55620000D01*
X130130000Y-50380000D02*
X130130000Y-51896000D01*
X146580000Y-96000000D02*
X146580000Y-99000000D01*
X150420000Y-100500000D02*
X150420000Y-95500000D01*
X147262742Y-92522500D02*
X147737258Y-92522500D01*
X147262742Y-91477500D02*
X147737258Y-91477500D01*
X130880000Y-126630000D02*
X139120000Y-126630000D01*
X130880000Y-129370000D02*
X139120000Y-129370000D01*
X139120000Y-129370000D02*
X139120000Y-126630000D01*
X130880000Y-129370000D02*
X130880000Y-126630000D01*
X118237258Y-95977500D02*
X117762742Y-95977500D01*
X118237258Y-97022500D02*
X117762742Y-97022500D01*
X142490000Y-91640580D02*
X142490000Y-91359420D01*
X143510000Y-91640580D02*
X143510000Y-91359420D01*
X137490000Y-91640580D02*
X137490000Y-91359420D01*
X138510000Y-91640580D02*
X138510000Y-91359420D01*
X127010000Y-91640580D02*
X127010000Y-91359420D01*
X125990000Y-91640580D02*
X125990000Y-91359420D01*
X107522500Y-103262742D02*
X107522500Y-103737258D01*
X106477500Y-103262742D02*
X106477500Y-103737258D01*
X113665000Y-113000000D02*
X113665000Y-109550000D01*
X118785000Y-113000000D02*
X118785000Y-111050000D01*
X118785000Y-113000000D02*
X118785000Y-114950000D01*
X113665000Y-113000000D02*
X113665000Y-114950000D01*
X107736000Y-147565000D02*
X107580000Y-147565000D01*
X105420000Y-147565000D02*
X105264000Y-147565000D01*
X107580000Y-147045961D02*
G75*
G03*
X107579837Y-144963870I-1080000J1040961D01*
G01*
X105421392Y-144332665D02*
G75*
G03*
X105264484Y-147565000I1078608J-1672335D01*
G01*
X107735516Y-147565000D02*
G75*
G03*
X107578608Y-144332665I-1235516J1560000D01*
G01*
X105420163Y-144963870D02*
G75*
G03*
X105420000Y-147045961I1079837J-1041130D01*
G01*
X136010000Y-155140580D02*
X136010000Y-154859420D01*
X134990000Y-155140580D02*
X134990000Y-154859420D01*
X109477500Y-91762742D02*
X109477500Y-92237258D01*
X110522500Y-91762742D02*
X110522500Y-92237258D01*
X134560000Y-115500000D02*
X134560000Y-116150000D01*
X134560000Y-115500000D02*
X134560000Y-114850000D01*
X131440000Y-115500000D02*
X131440000Y-116150000D01*
X131440000Y-115500000D02*
X131440000Y-113825000D01*
X139320000Y-119470000D02*
X139320000Y-120570000D01*
X139050000Y-117970000D02*
X139050000Y-119470000D01*
X145950000Y-117970000D02*
X145950000Y-119470000D01*
X139050000Y-119470000D02*
X139320000Y-119470000D01*
X145680000Y-119470000D02*
X145680000Y-122300000D01*
X145950000Y-119470000D02*
X145680000Y-119470000D01*
X137490000Y-95859420D02*
X137490000Y-96140580D01*
X138510000Y-95859420D02*
X138510000Y-96140580D01*
X146522500Y-58762742D02*
X146522500Y-59237258D01*
X145477500Y-58762742D02*
X145477500Y-59237258D01*
X125950000Y-127500000D02*
X125950000Y-125500000D01*
X130250000Y-127500000D02*
X125950000Y-127500000D01*
X125950000Y-125500000D02*
X130250000Y-125500000D01*
X110375000Y-96765000D02*
X112660000Y-96765000D01*
X112660000Y-98235000D02*
X110375000Y-98235000D01*
X112660000Y-96765000D02*
X112660000Y-98235000D01*
X116462258Y-117477500D02*
X115987742Y-117477500D01*
X116462258Y-118522500D02*
X115987742Y-118522500D01*
X152522500Y-97237258D02*
X152522500Y-96762742D01*
X151477500Y-97237258D02*
X151477500Y-96762742D01*
X146010000Y-94859420D02*
X146010000Y-95140580D01*
X144990000Y-94859420D02*
X144990000Y-95140580D01*
X127410000Y-130711252D02*
X127410000Y-129288748D01*
X125590000Y-130711252D02*
X125590000Y-129288748D01*
X136890000Y-124361252D02*
X136890000Y-123638748D01*
X142110000Y-124361252D02*
X142110000Y-123638748D01*
X97237258Y-106522500D02*
X96762742Y-106522500D01*
X97237258Y-105477500D02*
X96762742Y-105477500D01*
X114435000Y-154420000D02*
X114435000Y-154264000D01*
X114435000Y-156736000D02*
X114435000Y-156580000D01*
X117036130Y-154420163D02*
G75*
G03*
X114954039Y-154420000I-1041130J-1079837D01*
G01*
X114954039Y-156580000D02*
G75*
G03*
X117036130Y-156579837I1040961J1080000D01*
G01*
X117667335Y-154421392D02*
G75*
G03*
X114435000Y-154264484I-1672335J-1078608D01*
G01*
X114435000Y-156735516D02*
G75*
G03*
X117667335Y-156578608I1560000J1235516D01*
G01*
X120090000Y-76288748D02*
X120090000Y-77711252D01*
X121910000Y-76288748D02*
X121910000Y-77711252D01*
X102762742Y-92022500D02*
X103237258Y-92022500D01*
X102762742Y-90977500D02*
X103237258Y-90977500D01*
X101580000Y-95500000D02*
X101580000Y-98500000D01*
X105420000Y-100000000D02*
X105420000Y-95000000D01*
X126477500Y-78237258D02*
X126477500Y-77762742D01*
X127522500Y-78237258D02*
X127522500Y-77762742D01*
X116910000Y-76288748D02*
X116910000Y-77711252D01*
X115090000Y-76288748D02*
X115090000Y-77711252D01*
X109941386Y-154968736D02*
X109831077Y-155079045D01*
X111579045Y-153331077D02*
X111468736Y-153441386D01*
X111101720Y-153074370D02*
G75*
G03*
X109629344Y-151602224I-1499746J-27604D01*
G01*
X108102224Y-153129344D02*
G75*
G03*
X109574370Y-154601720I1499750J27370D01*
G01*
X111578701Y-153331419D02*
G75*
G03*
X109182146Y-151156764I-1976727J229445D01*
G01*
X107656762Y-152682146D02*
G75*
G03*
X109831419Y-155078703I1945212J-419828D01*
G01*
X122890000Y-102610000D02*
X122890000Y-102160000D01*
X130110000Y-95390000D02*
X130110000Y-95840000D01*
X129660000Y-102610000D02*
X130110000Y-102610000D01*
X123340000Y-102610000D02*
X122890000Y-102610000D01*
X129660000Y-95390000D02*
X130110000Y-95390000D01*
X122890000Y-102160000D02*
X121600000Y-102160000D01*
X130110000Y-102610000D02*
X130110000Y-102160000D01*
X122890000Y-95390000D02*
X122890000Y-95840000D01*
X123340000Y-95390000D02*
X122890000Y-95390000D01*
X106477500Y-97262742D02*
X106477500Y-97737258D01*
X107522500Y-97262742D02*
X107522500Y-97737258D01*
X127700000Y-56930000D02*
X125950000Y-56930000D01*
X113050000Y-56930000D02*
X111300000Y-56930000D01*
X127700000Y-74070000D02*
X125950000Y-74070000D01*
X113050000Y-74070000D02*
X111300000Y-74070000D01*
X128070000Y-73700000D02*
X128070000Y-57300000D01*
X110930000Y-57300000D02*
X110930000Y-73700000D01*
X127700000Y-74070000D02*
G75*
G03*
X128070000Y-73700000I2J369998D01*
G01*
X111300000Y-56929865D02*
G75*
G03*
X110930000Y-57310000I0J-370135D01*
G01*
X128069884Y-57290752D02*
G75*
G03*
X127700000Y-56930000I-369884J-9248D01*
G01*
X110928786Y-73700000D02*
G75*
G03*
X111270000Y-74070000I371215J1D01*
G01*
X116084420Y-107490000D02*
X116365580Y-107490000D01*
X116084420Y-108510000D02*
X116365580Y-108510000D01*
X130960000Y-63827500D02*
X130960000Y-58177500D01*
X133500000Y-63827500D02*
X133500000Y-61987500D01*
X136040000Y-63827500D02*
X136040000Y-58177500D01*
X128250000Y-63827500D02*
X138750000Y-63827500D01*
X128250000Y-79937500D02*
X138750000Y-79937500D01*
X138750000Y-79937500D02*
X138750000Y-63827500D01*
X128250000Y-79937500D02*
X128250000Y-63827500D01*
X150010000Y-106646920D02*
X150010000Y-106928080D01*
X148990000Y-106646920D02*
X148990000Y-106928080D01*
X112590000Y-76288748D02*
X112590000Y-77711252D01*
X114410000Y-76288748D02*
X114410000Y-77711252D01*
X126736000Y-147565000D02*
X126580000Y-147565000D01*
X124420000Y-147565000D02*
X124264000Y-147565000D01*
X124421392Y-144332665D02*
G75*
G03*
X124264484Y-147565000I1078608J-1672335D01*
G01*
X124420163Y-144963870D02*
G75*
G03*
X124420000Y-147045961I1079837J-1041130D01*
G01*
X126580000Y-147045961D02*
G75*
G03*
X126579837Y-144963870I-1080000J1040961D01*
G01*
X126735516Y-147565000D02*
G75*
G03*
X126578608Y-144332665I-1235516J1560000D01*
G01*
X156980000Y-70390000D02*
X156980000Y-71340000D01*
X155560000Y-78610000D02*
X155560000Y-70390000D01*
X163020000Y-71340000D02*
X160000000Y-71340000D01*
X163020000Y-70390000D02*
X163020000Y-71340000D01*
X156980000Y-71340000D02*
X160000000Y-71340000D01*
X155560000Y-70390000D02*
X156980000Y-70390000D01*
X160000000Y-78610000D02*
X164440000Y-78610000D01*
X164440000Y-70390000D02*
X163020000Y-70390000D01*
X164440000Y-78610000D02*
X164440000Y-70390000D01*
X160000000Y-78610000D02*
X155560000Y-78610000D01*
X162230000Y-70700000D02*
G75*
G03*
X162230000Y-70700000I-250000J0D01*
G01*
X128090000Y-130711252D02*
X128090000Y-129288748D01*
X129910000Y-130711252D02*
X129910000Y-129288748D01*
X121129703Y-152842947D02*
X121019394Y-152732638D01*
X122767362Y-154480606D02*
X122657053Y-154370297D01*
X122767020Y-154480262D02*
G75*
G03*
X124941675Y-152083707I229445J1976727D01*
G01*
X123024069Y-154003281D02*
G75*
G03*
X124496215Y-152530905I-27604J1499746D01*
G01*
X123416293Y-150558323D02*
G75*
G03*
X121019736Y-152732980I-419828J-1945212D01*
G01*
X122969095Y-151003785D02*
G75*
G03*
X121496719Y-152475931I27370J-1499750D01*
G01*
X114022500Y-104262742D02*
X114022500Y-104737258D01*
X112977500Y-104262742D02*
X112977500Y-104737258D01*
X103477500Y-72762742D02*
X103477500Y-73237258D01*
X104522500Y-72762742D02*
X104522500Y-73237258D01*
X109185000Y-97640580D02*
X109185000Y-97359420D01*
X108165000Y-97640580D02*
X108165000Y-97359420D01*
X111490000Y-92140580D02*
X111490000Y-91859420D01*
X112510000Y-92140580D02*
X112510000Y-91859420D01*
X142920000Y-100500000D02*
X142920000Y-95500000D01*
X139080000Y-96000000D02*
X139080000Y-99000000D01*
X114435000Y-138236000D02*
X114435000Y-138080000D01*
X114435000Y-135920000D02*
X114435000Y-135764000D01*
X114954039Y-138080000D02*
G75*
G03*
X117036130Y-138079837I1040961J1080000D01*
G01*
X117667335Y-135921392D02*
G75*
G03*
X114435000Y-135764484I-1672335J-1078608D01*
G01*
X117036130Y-135920163D02*
G75*
G03*
X114954039Y-135920000I-1041130J-1079837D01*
G01*
X114435000Y-138235516D02*
G75*
G03*
X117667335Y-138078608I1560000J1235516D01*
G01*
X103477500Y-59262742D02*
X103477500Y-59737258D01*
X104522500Y-59262742D02*
X104522500Y-59737258D01*
X124410000Y-76288748D02*
X124410000Y-77711252D01*
X122590000Y-76288748D02*
X122590000Y-77711252D01*
X102630000Y-51896000D02*
X102630000Y-50380000D01*
X102630000Y-55620000D02*
X119370000Y-55620000D01*
X119370000Y-55620000D02*
X119370000Y-54104000D01*
X102630000Y-55620000D02*
X102630000Y-54104000D01*
X119370000Y-51896000D02*
X119370000Y-50380000D01*
X102630000Y-50380000D02*
X119370000Y-50380000D01*
X133560000Y-141500000D02*
X133560000Y-142150000D01*
X130440000Y-141500000D02*
X130440000Y-139825000D01*
X130440000Y-141500000D02*
X130440000Y-142150000D01*
X133560000Y-141500000D02*
X133560000Y-140850000D01*
X141237258Y-101977500D02*
X140762742Y-101977500D01*
X141237258Y-103022500D02*
X140762742Y-103022500D01*
X123140580Y-106010000D02*
X122859420Y-106010000D01*
X123140580Y-104990000D02*
X122859420Y-104990000D01*
X110800000Y-119300000D02*
X111100000Y-119000000D01*
X110600000Y-121500000D02*
X113400000Y-121500000D01*
X110800000Y-119300000D02*
X110500000Y-119000000D01*
X113400000Y-119500000D02*
X110600000Y-119500000D01*
X109950000Y-120200000D02*
X109950000Y-120800000D01*
X110500000Y-119000000D02*
X111100000Y-119000000D01*
X114050000Y-120800000D02*
X114050000Y-120200000D01*
X113350000Y-121500000D02*
G75*
G03*
X114050000Y-120800000I0J700000D01*
G01*
X109950000Y-120800000D02*
G75*
G03*
X110650000Y-121500000I699999J-1D01*
G01*
X114050000Y-120200000D02*
G75*
G03*
X113350000Y-119500000I-700000J0D01*
G01*
X110650000Y-119500000D02*
G75*
G03*
X109950000Y-120200000I-1J-699999D01*
G01*
X147030000Y-76180000D02*
X144200000Y-76180000D01*
X148530000Y-69550000D02*
X147030000Y-69550000D01*
X148530000Y-76450000D02*
X147030000Y-76450000D01*
X147030000Y-69820000D02*
X145930000Y-69820000D01*
X147030000Y-69550000D02*
X147030000Y-69820000D01*
X147030000Y-76450000D02*
X147030000Y-76180000D01*
X132237258Y-139522500D02*
X131762742Y-139522500D01*
X132237258Y-138477500D02*
X131762742Y-138477500D01*
X121550000Y-53470000D02*
X121820000Y-53470000D01*
X128450000Y-51970000D02*
X128450000Y-53470000D01*
X121550000Y-51970000D02*
X121550000Y-53470000D01*
X128180000Y-53470000D02*
X128180000Y-56300000D01*
X128450000Y-53470000D02*
X128180000Y-53470000D01*
X121820000Y-53470000D02*
X121820000Y-54570000D01*
X112990000Y-100640580D02*
X112990000Y-100359420D01*
X114010000Y-100640580D02*
X114010000Y-100359420D01*
X145477500Y-65762742D02*
X145477500Y-66237258D01*
X146522500Y-65762742D02*
X146522500Y-66237258D01*
X147060000Y-107060000D02*
X142940000Y-107060000D01*
X147060000Y-104940000D02*
X142940000Y-104940000D01*
X147060000Y-104940000D02*
X147060000Y-105240000D01*
X142940000Y-104940000D02*
X142940000Y-105240000D01*
X147060000Y-106760000D02*
X147060000Y-107060000D01*
X142940000Y-106760000D02*
X142940000Y-107060000D01*
X148315000Y-105240000D02*
X147060000Y-105240000D01*
X133237258Y-113022500D02*
X132762742Y-113022500D01*
X133237258Y-111977500D02*
X132762742Y-111977500D01*
X147030000Y-62820000D02*
X145930000Y-62820000D01*
X148530000Y-62550000D02*
X147030000Y-62550000D01*
X148530000Y-69450000D02*
X147030000Y-69450000D01*
X147030000Y-69450000D02*
X147030000Y-69180000D01*
X147030000Y-69180000D02*
X144200000Y-69180000D01*
X147030000Y-62550000D02*
X147030000Y-62820000D01*
X154235000Y-105987500D02*
X154235000Y-108272500D01*
X152765000Y-108272500D02*
X152765000Y-105987500D01*
X154235000Y-108272500D02*
X152765000Y-108272500D01*
X150977500Y-107024758D02*
X150977500Y-106550242D01*
X152022500Y-107024758D02*
X152022500Y-106550242D01*
X148737258Y-103022500D02*
X148262742Y-103022500D01*
X148737258Y-101977500D02*
X148262742Y-101977500D01*
X113522500Y-112762742D02*
X113522500Y-113237258D01*
X112477500Y-112762742D02*
X112477500Y-113237258D01*
X109690000Y-100235000D02*
X109690000Y-98765000D01*
X111975000Y-100235000D02*
X109690000Y-100235000D01*
X109690000Y-98765000D02*
X111975000Y-98765000D01*
X97237258Y-98522500D02*
X96762742Y-98522500D01*
X97237258Y-97477500D02*
X96762742Y-97477500D01*
M02*
