G04 #@! TF.GenerationSoftware,KiCad,Pcbnew,(6.0.8)*
G04 #@! TF.CreationDate,2022-12-09T11:51:08+09:00*
G04 #@! TF.ProjectId,ORION_boost_v3,4f52494f-4e5f-4626-9f6f-73745f76332e,rev?*
G04 #@! TF.SameCoordinates,Original*
G04 #@! TF.FileFunction,Soldermask,Top*
G04 #@! TF.FilePolarity,Negative*
%FSLAX46Y46*%
G04 Gerber Fmt 4.6, Leading zero omitted, Abs format (unit mm)*
G04 Created by KiCad (PCBNEW (6.0.8)) date 2022-12-09 11:51:08*
%MOMM*%
%LPD*%
G01*
G04 APERTURE LIST*
G04 Aperture macros list*
%AMRoundRect*
0 Rectangle with rounded corners*
0 $1 Rounding radius*
0 $2 $3 $4 $5 $6 $7 $8 $9 X,Y pos of 4 corners*
0 Add a 4 corners polygon primitive as box body*
4,1,4,$2,$3,$4,$5,$6,$7,$8,$9,$2,$3,0*
0 Add four circle primitives for the rounded corners*
1,1,$1+$1,$2,$3*
1,1,$1+$1,$4,$5*
1,1,$1+$1,$6,$7*
1,1,$1+$1,$8,$9*
0 Add four rect primitives between the rounded corners*
20,1,$1+$1,$2,$3,$4,$5,0*
20,1,$1+$1,$4,$5,$6,$7,0*
20,1,$1+$1,$6,$7,$8,$9,0*
20,1,$1+$1,$8,$9,$2,$3,0*%
%AMRotRect*
0 Rectangle, with rotation*
0 The origin of the aperture is its center*
0 $1 length*
0 $2 width*
0 $3 Rotation angle, in degrees counterclockwise*
0 Add horizontal line*
21,1,$1,$2,0,0,$3*%
G04 Aperture macros list end*
%ADD10RoundRect,0.218750X0.218750X0.256250X-0.218750X0.256250X-0.218750X-0.256250X0.218750X-0.256250X0*%
%ADD11RoundRect,0.237500X-0.287500X-0.237500X0.287500X-0.237500X0.287500X0.237500X-0.287500X0.237500X0*%
%ADD12O,2.800000X2.460000*%
%ADD13R,3.800000X3.800000*%
%ADD14C,3.800000*%
%ADD15RoundRect,0.200000X-0.200000X-0.275000X0.200000X-0.275000X0.200000X0.275000X-0.200000X0.275000X0*%
%ADD16RoundRect,0.250000X0.625000X-0.350000X0.625000X0.350000X-0.625000X0.350000X-0.625000X-0.350000X0*%
%ADD17O,1.750000X1.200000*%
%ADD18C,1.524000*%
%ADD19RoundRect,0.218750X-0.218750X-0.256250X0.218750X-0.256250X0.218750X0.256250X-0.218750X0.256250X0*%
%ADD20RoundRect,0.200000X0.200000X0.275000X-0.200000X0.275000X-0.200000X-0.275000X0.200000X-0.275000X0*%
%ADD21RoundRect,0.250000X-0.575000X0.350000X-0.575000X-0.350000X0.575000X-0.350000X0.575000X0.350000X0*%
%ADD22O,1.650000X1.200000*%
%ADD23RoundRect,0.250000X1.075000X-0.375000X1.075000X0.375000X-1.075000X0.375000X-1.075000X-0.375000X0*%
%ADD24R,1.700000X1.700000*%
%ADD25O,1.700000X1.700000*%
%ADD26R,0.900000X1.000000*%
%ADD27R,5.800000X6.400000*%
%ADD28R,1.200000X2.200000*%
%ADD29RoundRect,0.500000X-0.500000X2.000000X-0.500000X-2.000000X0.500000X-2.000000X0.500000X2.000000X0*%
%ADD30RoundRect,0.250000X1.150000X-0.980000X1.150000X0.980000X-1.150000X0.980000X-1.150000X-0.980000X0*%
%ADD31C,5.000000*%
%ADD32RoundRect,0.225000X0.575000X-0.225000X0.575000X0.225000X-0.575000X0.225000X-0.575000X-0.225000X0*%
%ADD33R,1.600000X1.600000*%
%ADD34C,1.600000*%
%ADD35RoundRect,0.250000X0.980000X1.150000X-0.980000X1.150000X-0.980000X-1.150000X0.980000X-1.150000X0*%
%ADD36O,2.460000X2.800000*%
%ADD37RotRect,1.800000X1.800000X45.000000*%
%ADD38C,1.800000*%
%ADD39RotRect,1.800000X1.800000X135.000000*%
%ADD40C,2.200000*%
%ADD41R,1.800000X1.800000*%
%ADD42O,1.905000X2.000000*%
%ADD43R,1.905000X2.000000*%
G04 APERTURE END LIST*
D10*
X96287500Y-106000000D03*
X94712500Y-106000000D03*
D11*
X141625000Y-122000000D03*
X143375000Y-122000000D03*
D12*
X165450000Y-78480000D03*
X165450000Y-74520000D03*
D13*
X88000000Y-89000000D03*
D14*
X93000000Y-89000000D03*
D15*
X138175000Y-123500000D03*
X139825000Y-123500000D03*
D16*
X112000000Y-130000000D03*
D17*
X112000000Y-128000000D03*
D10*
X136287500Y-123500000D03*
X134712500Y-123500000D03*
D18*
X121540000Y-130951000D03*
X119000000Y-130951000D03*
X116460000Y-130951000D03*
D19*
X134712500Y-125500000D03*
X136287500Y-125500000D03*
D20*
X143325000Y-123500000D03*
X141675000Y-123500000D03*
D21*
X108000000Y-123000000D03*
D22*
X106000000Y-123000000D03*
X108000000Y-125000000D03*
X106000000Y-125000000D03*
X108000000Y-127000000D03*
X106000000Y-127000000D03*
X108000000Y-129000000D03*
X106000000Y-129000000D03*
D23*
X144000000Y-120400000D03*
X144000000Y-117600000D03*
D24*
X137500000Y-157500000D03*
D25*
X137500000Y-154960000D03*
X137500000Y-152420000D03*
X137500000Y-149880000D03*
X137500000Y-147340000D03*
X137500000Y-144800000D03*
X137500000Y-142260000D03*
X137500000Y-139720000D03*
X137500000Y-137180000D03*
X137500000Y-134640000D03*
D26*
X92050000Y-98200000D03*
X87950000Y-98200000D03*
X92050000Y-99800000D03*
X87950000Y-99800000D03*
D27*
X154500000Y-66900000D03*
D28*
X152220000Y-73200000D03*
X156780000Y-73200000D03*
D10*
X96287500Y-100000000D03*
X94712500Y-100000000D03*
X96287500Y-104000000D03*
X94712500Y-104000000D03*
D29*
X142500000Y-127250000D03*
X142500000Y-134750000D03*
D30*
X84550000Y-78480000D03*
D12*
X84550000Y-74520000D03*
D18*
X116460000Y-129049000D03*
X119000000Y-129049000D03*
X121540000Y-129049000D03*
D10*
X96287500Y-102000000D03*
X94712500Y-102000000D03*
D15*
X138175000Y-121500000D03*
X139825000Y-121500000D03*
D27*
X95500000Y-66900000D03*
D28*
X93220000Y-73200000D03*
X97780000Y-73200000D03*
D13*
X161500000Y-89000000D03*
D14*
X156500000Y-89000000D03*
D10*
X96287500Y-98000000D03*
X94712500Y-98000000D03*
D31*
X142500000Y-140000000D03*
D32*
X154500000Y-104500000D03*
X154500000Y-103000000D03*
X154500000Y-101500000D03*
X154500000Y-100000000D03*
X154500000Y-98500000D03*
X154500000Y-97000000D03*
D26*
X87950000Y-94300000D03*
X92050000Y-94300000D03*
X92050000Y-92700000D03*
X87950000Y-92700000D03*
D31*
X135000000Y-130500000D03*
D26*
X157450000Y-99800000D03*
X161550000Y-99800000D03*
X157450000Y-98200000D03*
X161550000Y-98200000D03*
D33*
X92402651Y-96000000D03*
D34*
X87402651Y-96000000D03*
D33*
X157597349Y-96000000D03*
D34*
X162597349Y-96000000D03*
D35*
X91980000Y-74450000D03*
D36*
X88020000Y-74450000D03*
D37*
X108598439Y-140401561D03*
D38*
X110394490Y-138605510D03*
D39*
X123401561Y-140401561D03*
D38*
X121605510Y-138605510D03*
D40*
X146000000Y-53000000D03*
X131000000Y-53000000D03*
D34*
X132500000Y-128000000D03*
X137500000Y-128000000D03*
D41*
X106500000Y-147275000D03*
D38*
X106500000Y-144735000D03*
D41*
X114725000Y-155500000D03*
D38*
X117265000Y-155500000D03*
D39*
X110500000Y-154000000D03*
D38*
X108703949Y-152203949D03*
D42*
X133500000Y-60717500D03*
D43*
X136040000Y-56907500D03*
D41*
X125500000Y-147275000D03*
D38*
X125500000Y-144735000D03*
D35*
X161980000Y-74450000D03*
D36*
X158020000Y-74450000D03*
D37*
X122098439Y-153401561D03*
D38*
X123894490Y-151605510D03*
D41*
X114725000Y-137000000D03*
D38*
X117265000Y-137000000D03*
D40*
X103500000Y-53000000D03*
X118500000Y-53000000D03*
G36*
X152442121Y-87520002D02*
G01*
X152488614Y-87573658D01*
X152500000Y-87626000D01*
X152500000Y-88874000D01*
X152479998Y-88942121D01*
X152426342Y-88988614D01*
X152374000Y-89000000D01*
X142518115Y-89000000D01*
X142502876Y-89004475D01*
X142501671Y-89005865D01*
X142500000Y-89013548D01*
X142500000Y-117036660D01*
X142479998Y-117104781D01*
X142426342Y-117151274D01*
X142375381Y-117162652D01*
X141383388Y-117173525D01*
X141315052Y-117154271D01*
X141267974Y-117101128D01*
X141256007Y-117047533D01*
X141256007Y-89018115D01*
X141251532Y-89002876D01*
X141250142Y-89001671D01*
X141242459Y-89000000D01*
X97626000Y-89000000D01*
X97557879Y-88979998D01*
X97511386Y-88926342D01*
X97500000Y-88874000D01*
X97500000Y-87626000D01*
X97520002Y-87557879D01*
X97573658Y-87511386D01*
X97626000Y-87500000D01*
X152374000Y-87500000D01*
X152442121Y-87520002D01*
G37*
M02*
