%TF.GenerationSoftware,KiCad,Pcbnew,8.0.6*%
%TF.CreationDate,2024-11-18T00:02:46+09:00*%
%TF.ProjectId,ORION_boost_v5,4f52494f-4e5f-4626-9f6f-73745f76352e,rev?*%
%TF.SameCoordinates,Original*%
%TF.FileFunction,Paste,Top*%
%TF.FilePolarity,Positive*%
%FSLAX46Y46*%
G04 Gerber Fmt 4.6, Leading zero omitted, Abs format (unit mm)*
G04 Created by KiCad (PCBNEW 8.0.6) date 2024-11-18 00:02:46*
%MOMM*%
%LPD*%
G01*
G04 APERTURE LIST*
G04 Aperture macros list*
%AMRoundRect*
0 Rectangle with rounded corners*
0 $1 Rounding radius*
0 $2 $3 $4 $5 $6 $7 $8 $9 X,Y pos of 4 corners*
0 Add a 4 corners polygon primitive as box body*
4,1,4,$2,$3,$4,$5,$6,$7,$8,$9,$2,$3,0*
0 Add four circle primitives for the rounded corners*
1,1,$1+$1,$2,$3*
1,1,$1+$1,$4,$5*
1,1,$1+$1,$6,$7*
1,1,$1+$1,$8,$9*
0 Add four rect primitives between the rounded corners*
20,1,$1+$1,$2,$3,$4,$5,0*
20,1,$1+$1,$4,$5,$6,$7,0*
20,1,$1+$1,$6,$7,$8,$9,0*
20,1,$1+$1,$8,$9,$2,$3,0*%
G04 Aperture macros list end*
%ADD10RoundRect,0.218750X0.218750X0.256250X-0.218750X0.256250X-0.218750X-0.256250X0.218750X-0.256250X0*%
%ADD11RoundRect,0.300000X0.300000X-1.000000X0.300000X1.000000X-0.300000X1.000000X-0.300000X-1.000000X0*%
%ADD12RoundRect,0.218750X-0.218750X-0.256250X0.218750X-0.256250X0.218750X0.256250X-0.218750X0.256250X0*%
%ADD13RoundRect,0.250000X1.075000X-0.375000X1.075000X0.375000X-1.075000X0.375000X-1.075000X-0.375000X0*%
%ADD14RoundRect,0.200000X0.200000X0.800000X-0.200000X0.800000X-0.200000X-0.800000X0.200000X-0.800000X0*%
%ADD15R,2.750000X3.050000*%
%ADD16R,1.200000X2.200000*%
%ADD17RoundRect,0.200000X-0.200000X-0.800000X0.200000X-0.800000X0.200000X0.800000X-0.200000X0.800000X0*%
G04 APERTURE END LIST*
D10*
%TO.C,D1*%
X96287500Y-106000000D03*
X94712500Y-106000000D03*
%TD*%
D11*
%TO.C,J11*%
X119000000Y-113000000D03*
%TD*%
D12*
%TO.C,D18*%
X132212500Y-123000000D03*
X133787500Y-123000000D03*
%TD*%
D10*
%TO.C,D22*%
X133787500Y-125000000D03*
X132212500Y-125000000D03*
%TD*%
%TO.C,D25*%
X96287500Y-96000000D03*
X94712500Y-96000000D03*
%TD*%
D13*
%TO.C,F4*%
X144500000Y-122900000D03*
X144500000Y-120100000D03*
%TD*%
D10*
%TO.C,D26*%
X96287500Y-94000000D03*
X94712500Y-94000000D03*
%TD*%
D13*
%TO.C,F3*%
X141500000Y-122900000D03*
X141500000Y-120100000D03*
%TD*%
D14*
%TO.C,SW3*%
X92100000Y-98500000D03*
X87900000Y-98500000D03*
%TD*%
D15*
%TO.C,D21*%
X152975000Y-68075000D03*
X156025000Y-68075000D03*
X152975000Y-64725000D03*
X156025000Y-64725000D03*
D16*
X152220000Y-72700000D03*
X156780000Y-72700000D03*
%TD*%
D10*
%TO.C,D4*%
X96287500Y-100000000D03*
X94712500Y-100000000D03*
%TD*%
%TO.C,D2*%
X96287500Y-104000000D03*
X94712500Y-104000000D03*
%TD*%
%TO.C,D3*%
X96287500Y-102000000D03*
X94712500Y-102000000D03*
%TD*%
D15*
%TO.C,D20*%
X93975000Y-68075000D03*
X97025000Y-68075000D03*
X93975000Y-64725000D03*
X97025000Y-64725000D03*
D16*
X93220000Y-72700000D03*
X97780000Y-72700000D03*
%TD*%
D10*
%TO.C,D5*%
X96287500Y-98000000D03*
X94712500Y-98000000D03*
%TD*%
D17*
%TO.C,SW4*%
X158400000Y-93500000D03*
X162600000Y-93500000D03*
%TD*%
D11*
%TO.C,J10*%
X121500000Y-113000000D03*
%TD*%
D14*
%TO.C,SW2*%
X91100000Y-93500000D03*
X86900000Y-93500000D03*
%TD*%
D17*
%TO.C,SW1*%
X157400000Y-98500000D03*
X161600000Y-98500000D03*
%TD*%
M02*
