%TF.GenerationSoftware,KiCad,Pcbnew,8.0.6*%
%TF.CreationDate,2024-11-17T22:54:00+09:00*%
%TF.ProjectId,ORION_boost_v5,4f52494f-4e5f-4626-9f6f-73745f76352e,rev?*%
%TF.SameCoordinates,Original*%
%TF.FileFunction,Soldermask,Top*%
%TF.FilePolarity,Negative*%
%FSLAX46Y46*%
G04 Gerber Fmt 4.6, Leading zero omitted, Abs format (unit mm)*
G04 Created by KiCad (PCBNEW 8.0.6) date 2024-11-17 22:54:00*
%MOMM*%
%LPD*%
G01*
G04 APERTURE LIST*
G04 Aperture macros list*
%AMRoundRect*
0 Rectangle with rounded corners*
0 $1 Rounding radius*
0 $2 $3 $4 $5 $6 $7 $8 $9 X,Y pos of 4 corners*
0 Add a 4 corners polygon primitive as box body*
4,1,4,$2,$3,$4,$5,$6,$7,$8,$9,$2,$3,0*
0 Add four circle primitives for the rounded corners*
1,1,$1+$1,$2,$3*
1,1,$1+$1,$4,$5*
1,1,$1+$1,$6,$7*
1,1,$1+$1,$8,$9*
0 Add four rect primitives between the rounded corners*
20,1,$1+$1,$2,$3,$4,$5,0*
20,1,$1+$1,$4,$5,$6,$7,0*
20,1,$1+$1,$6,$7,$8,$9,0*
20,1,$1+$1,$8,$9,$2,$3,0*%
%AMRotRect*
0 Rectangle, with rotation*
0 The origin of the aperture is its center*
0 $1 length*
0 $2 width*
0 $3 Rotation angle, in degrees counterclockwise*
0 Add horizontal line*
21,1,$1,$2,0,0,$3*%
G04 Aperture macros list end*
%ADD10RoundRect,0.218750X0.218750X0.256250X-0.218750X0.256250X-0.218750X-0.256250X0.218750X-0.256250X0*%
%ADD11O,2.800000X2.460000*%
%ADD12R,3.800000X3.800000*%
%ADD13C,3.800000*%
%ADD14RoundRect,0.300000X0.300000X-1.000000X0.300000X1.000000X-0.300000X1.000000X-0.300000X-1.000000X0*%
%ADD15RoundRect,0.250000X0.625000X-0.350000X0.625000X0.350000X-0.625000X0.350000X-0.625000X-0.350000X0*%
%ADD16O,1.750000X1.200000*%
%ADD17RoundRect,0.218750X-0.218750X-0.256250X0.218750X-0.256250X0.218750X0.256250X-0.218750X0.256250X0*%
%ADD18C,1.524000*%
%ADD19RoundRect,0.250000X1.075000X-0.375000X1.075000X0.375000X-1.075000X0.375000X-1.075000X-0.375000X0*%
%ADD20C,1.600000*%
%ADD21RoundRect,0.250000X-0.575000X0.350000X-0.575000X-0.350000X0.575000X-0.350000X0.575000X0.350000X0*%
%ADD22O,1.650000X1.200000*%
%ADD23R,1.700000X1.700000*%
%ADD24O,1.700000X1.700000*%
%ADD25RoundRect,0.200000X0.200000X0.800000X-0.200000X0.800000X-0.200000X-0.800000X0.200000X-0.800000X0*%
%ADD26R,5.800000X6.400000*%
%ADD27R,1.200000X2.200000*%
%ADD28RoundRect,0.500000X-0.500000X2.000000X-0.500000X-2.000000X0.500000X-2.000000X0.500000X2.000000X0*%
%ADD29RoundRect,0.250000X1.150000X-0.980000X1.150000X0.980000X-1.150000X0.980000X-1.150000X-0.980000X0*%
%ADD30C,4.000000*%
%ADD31RoundRect,0.200000X-0.200000X-0.800000X0.200000X-0.800000X0.200000X0.800000X-0.200000X0.800000X0*%
%ADD32RoundRect,0.225000X0.575000X-0.225000X0.575000X0.225000X-0.575000X0.225000X-0.575000X-0.225000X0*%
%ADD33R,1.600000X1.600000*%
%ADD34RoundRect,0.250000X0.980000X1.150000X-0.980000X1.150000X-0.980000X-1.150000X0.980000X-1.150000X0*%
%ADD35O,2.460000X2.800000*%
%ADD36RotRect,1.800000X1.800000X45.000000*%
%ADD37C,1.800000*%
%ADD38RotRect,1.800000X1.800000X135.000000*%
%ADD39C,2.200000*%
%ADD40R,1.800000X1.800000*%
%ADD41O,1.905000X2.000000*%
%ADD42R,1.905000X2.000000*%
%ADD43RoundRect,0.250000X-0.625000X0.350000X-0.625000X-0.350000X0.625000X-0.350000X0.625000X0.350000X0*%
G04 APERTURE END LIST*
D10*
%TO.C,D1*%
X96287500Y-106000000D03*
X94712500Y-106000000D03*
%TD*%
D11*
%TO.C,P5*%
X165450000Y-78480000D03*
X165450000Y-74520000D03*
%TD*%
D12*
%TO.C,P6*%
X89500000Y-89000000D03*
D13*
X94500000Y-89000000D03*
%TD*%
D14*
%TO.C,J11*%
X119000000Y-113000000D03*
%TD*%
D15*
%TO.C,J7*%
X112000000Y-130000000D03*
D16*
X112000000Y-128000000D03*
%TD*%
D17*
%TO.C,D18*%
X132212500Y-123000000D03*
X133787500Y-123000000D03*
%TD*%
D18*
%TO.C,J4*%
X121540000Y-130951000D03*
X119000000Y-130951000D03*
X116460000Y-130951000D03*
%TD*%
D10*
%TO.C,D22*%
X133787500Y-125000000D03*
X132212500Y-125000000D03*
%TD*%
%TO.C,D25*%
X96287500Y-96000000D03*
X94712500Y-96000000D03*
%TD*%
D19*
%TO.C,F4*%
X144500000Y-122900000D03*
X144500000Y-120100000D03*
%TD*%
D20*
%TO.C,F2*%
X132500000Y-131500000D03*
X137500000Y-131500000D03*
%TD*%
D10*
%TO.C,D26*%
X96287500Y-94000000D03*
X94712500Y-94000000D03*
%TD*%
D21*
%TO.C,J1*%
X108000000Y-123000000D03*
D22*
X106000000Y-123000000D03*
X108000000Y-125000000D03*
X106000000Y-125000000D03*
X108000000Y-127000000D03*
X106000000Y-127000000D03*
X108000000Y-129000000D03*
X106000000Y-129000000D03*
%TD*%
D19*
%TO.C,F3*%
X141500000Y-122900000D03*
X141500000Y-120100000D03*
%TD*%
D23*
%TO.C,J2*%
X137500000Y-157500000D03*
D24*
X137500000Y-154960000D03*
X137500000Y-152420000D03*
X137500000Y-149880000D03*
X137500000Y-147340000D03*
X137500000Y-144800000D03*
X137500000Y-142260000D03*
X137500000Y-139720000D03*
X137500000Y-137180000D03*
X137500000Y-134640000D03*
%TD*%
D25*
%TO.C,SW3*%
X92100000Y-98500000D03*
X87900000Y-98500000D03*
%TD*%
D26*
%TO.C,D21*%
X154500000Y-66400000D03*
D27*
X152220000Y-72700000D03*
X156780000Y-72700000D03*
%TD*%
D10*
%TO.C,D4*%
X96287500Y-100000000D03*
X94712500Y-100000000D03*
%TD*%
%TO.C,D2*%
X96287500Y-104000000D03*
X94712500Y-104000000D03*
%TD*%
D28*
%TO.C,F1*%
X142500000Y-127250000D03*
X142500000Y-134750000D03*
%TD*%
D29*
%TO.C,P4*%
X84450000Y-78480000D03*
D11*
X84450000Y-74520000D03*
%TD*%
D18*
%TO.C,J3*%
X116460000Y-129049000D03*
X119000000Y-129049000D03*
X121540000Y-129049000D03*
%TD*%
D10*
%TO.C,D3*%
X96287500Y-102000000D03*
X94712500Y-102000000D03*
%TD*%
D26*
%TO.C,D20*%
X95500000Y-66400000D03*
D27*
X93220000Y-72700000D03*
X97780000Y-72700000D03*
%TD*%
D12*
%TO.C,P7*%
X160500000Y-89000000D03*
D13*
X155500000Y-89000000D03*
%TD*%
D10*
%TO.C,D5*%
X96287500Y-98000000D03*
X94712500Y-98000000D03*
%TD*%
D30*
%TO.C,J5*%
X142500000Y-140000000D03*
%TD*%
D31*
%TO.C,SW4*%
X158400000Y-93500000D03*
X162600000Y-93500000D03*
%TD*%
D14*
%TO.C,J10*%
X121500000Y-113000000D03*
%TD*%
D32*
%TO.C,P1*%
X154500000Y-104500000D03*
X154500000Y-103000000D03*
X154500000Y-101500000D03*
X154500000Y-100000000D03*
X154500000Y-98500000D03*
X154500000Y-97000000D03*
%TD*%
D25*
%TO.C,SW2*%
X91100000Y-93500000D03*
X86900000Y-93500000D03*
%TD*%
D30*
%TO.C,J6*%
X135000000Y-128500000D03*
%TD*%
D31*
%TO.C,SW1*%
X157400000Y-98500000D03*
X161600000Y-98500000D03*
%TD*%
D33*
%TO.C,C20*%
X92402651Y-96000000D03*
D20*
X88902651Y-96000000D03*
%TD*%
D33*
%TO.C,C33*%
X157597349Y-96000000D03*
D20*
X161097349Y-96000000D03*
%TD*%
D34*
%TO.C,P2*%
X91980000Y-74450000D03*
D35*
X88020000Y-74450000D03*
%TD*%
D36*
%TO.C,D8*%
X108598439Y-140401561D03*
D37*
X110394490Y-138605510D03*
%TD*%
D38*
%TO.C,D11*%
X123401561Y-140401561D03*
D37*
X121605510Y-138605510D03*
%TD*%
D39*
%TO.C,C27*%
X146000000Y-53000000D03*
X131000000Y-53000000D03*
%TD*%
D40*
%TO.C,D9*%
X106500000Y-147275000D03*
D37*
X106500000Y-144735000D03*
%TD*%
D40*
%TO.C,D14*%
X114725000Y-155500000D03*
D37*
X117265000Y-155500000D03*
%TD*%
D38*
%TO.C,D10*%
X110500000Y-154000000D03*
D37*
X108703949Y-152203949D03*
%TD*%
D41*
%TO.C,Q5*%
X133500000Y-60717500D03*
D42*
X136040000Y-56907500D03*
%TD*%
D40*
%TO.C,D12*%
X125500000Y-147275000D03*
D37*
X125500000Y-144735000D03*
%TD*%
D34*
%TO.C,P3*%
X161980000Y-74450000D03*
D35*
X158020000Y-74450000D03*
%TD*%
D36*
%TO.C,D13*%
X122098439Y-153401561D03*
D37*
X123894490Y-151605510D03*
%TD*%
D40*
%TO.C,D7*%
X114725000Y-137000000D03*
D37*
X117265000Y-137000000D03*
%TD*%
D39*
%TO.C,C28*%
X103500000Y-53000000D03*
X118500000Y-53000000D03*
%TD*%
D43*
%TO.C,J12*%
X133450000Y-155000000D03*
D16*
X133450000Y-157000000D03*
%TD*%
G36*
X152442121Y-87520002D02*
G01*
X152488614Y-87573658D01*
X152500000Y-87626000D01*
X152500000Y-88874000D01*
X152479998Y-88942121D01*
X152426342Y-88988614D01*
X152374000Y-89000000D01*
X142500000Y-89000000D01*
X142500000Y-117036659D01*
X142479998Y-117104780D01*
X142426342Y-117151273D01*
X142375381Y-117162651D01*
X141383388Y-117173524D01*
X141315052Y-117154270D01*
X141267974Y-117101127D01*
X141256007Y-117047532D01*
X141256007Y-89000000D01*
X97626000Y-89000000D01*
X97557879Y-88979998D01*
X97511386Y-88926342D01*
X97500000Y-88874000D01*
X97500000Y-87626000D01*
X97520002Y-87557879D01*
X97573658Y-87511386D01*
X97626000Y-87500000D01*
X152374000Y-87500000D01*
X152442121Y-87520002D01*
G37*
M02*
