%TF.GenerationSoftware,KiCad,Pcbnew,8.0.6*%
%TF.CreationDate,2024-11-17T22:54:00+09:00*%
%TF.ProjectId,ORION_boost_v5,4f52494f-4e5f-4626-9f6f-73745f76352e,rev?*%
%TF.SameCoordinates,Original*%
%TF.FileFunction,Legend,Top*%
%TF.FilePolarity,Positive*%
%FSLAX46Y46*%
G04 Gerber Fmt 4.6, Leading zero omitted, Abs format (unit mm)*
G04 Created by KiCad (PCBNEW 8.0.6) date 2024-11-17 22:54:00*
%MOMM*%
%LPD*%
G01*
G04 APERTURE LIST*
G04 Aperture macros list*
%AMRoundRect*
0 Rectangle with rounded corners*
0 $1 Rounding radius*
0 $2 $3 $4 $5 $6 $7 $8 $9 X,Y pos of 4 corners*
0 Add a 4 corners polygon primitive as box body*
4,1,4,$2,$3,$4,$5,$6,$7,$8,$9,$2,$3,0*
0 Add four circle primitives for the rounded corners*
1,1,$1+$1,$2,$3*
1,1,$1+$1,$4,$5*
1,1,$1+$1,$6,$7*
1,1,$1+$1,$8,$9*
0 Add four rect primitives between the rounded corners*
20,1,$1+$1,$2,$3,$4,$5,0*
20,1,$1+$1,$4,$5,$6,$7,0*
20,1,$1+$1,$6,$7,$8,$9,0*
20,1,$1+$1,$8,$9,$2,$3,0*%
%AMRotRect*
0 Rectangle, with rotation*
0 The origin of the aperture is its center*
0 $1 length*
0 $2 width*
0 $3 Rotation angle, in degrees counterclockwise*
0 Add horizontal line*
21,1,$1,$2,0,0,$3*%
G04 Aperture macros list end*
%ADD10C,0.150000*%
%ADD11C,0.300000*%
%ADD12C,0.120000*%
%ADD13C,0.200000*%
%ADD14RoundRect,0.218750X0.218750X0.256250X-0.218750X0.256250X-0.218750X-0.256250X0.218750X-0.256250X0*%
%ADD15O,2.800000X2.460000*%
%ADD16R,3.800000X3.800000*%
%ADD17C,3.800000*%
%ADD18RoundRect,0.300000X0.300000X-1.000000X0.300000X1.000000X-0.300000X1.000000X-0.300000X-1.000000X0*%
%ADD19RoundRect,0.250000X0.625000X-0.350000X0.625000X0.350000X-0.625000X0.350000X-0.625000X-0.350000X0*%
%ADD20O,1.750000X1.200000*%
%ADD21RoundRect,0.218750X-0.218750X-0.256250X0.218750X-0.256250X0.218750X0.256250X-0.218750X0.256250X0*%
%ADD22C,1.524000*%
%ADD23RoundRect,0.250000X1.075000X-0.375000X1.075000X0.375000X-1.075000X0.375000X-1.075000X-0.375000X0*%
%ADD24C,1.600000*%
%ADD25RoundRect,0.250000X-0.575000X0.350000X-0.575000X-0.350000X0.575000X-0.350000X0.575000X0.350000X0*%
%ADD26O,1.650000X1.200000*%
%ADD27R,1.700000X1.700000*%
%ADD28O,1.700000X1.700000*%
%ADD29RoundRect,0.200000X0.200000X0.800000X-0.200000X0.800000X-0.200000X-0.800000X0.200000X-0.800000X0*%
%ADD30R,5.800000X6.400000*%
%ADD31R,1.200000X2.200000*%
%ADD32RoundRect,0.500000X-0.500000X2.000000X-0.500000X-2.000000X0.500000X-2.000000X0.500000X2.000000X0*%
%ADD33RoundRect,0.250000X1.150000X-0.980000X1.150000X0.980000X-1.150000X0.980000X-1.150000X-0.980000X0*%
%ADD34C,4.000000*%
%ADD35RoundRect,0.200000X-0.200000X-0.800000X0.200000X-0.800000X0.200000X0.800000X-0.200000X0.800000X0*%
%ADD36RoundRect,0.225000X0.575000X-0.225000X0.575000X0.225000X-0.575000X0.225000X-0.575000X-0.225000X0*%
%ADD37R,1.600000X1.600000*%
%ADD38RoundRect,0.250000X0.980000X1.150000X-0.980000X1.150000X-0.980000X-1.150000X0.980000X-1.150000X0*%
%ADD39O,2.460000X2.800000*%
%ADD40RotRect,1.800000X1.800000X45.000000*%
%ADD41C,1.800000*%
%ADD42RotRect,1.800000X1.800000X135.000000*%
%ADD43C,2.200000*%
%ADD44R,1.800000X1.800000*%
%ADD45O,1.905000X2.000000*%
%ADD46R,1.905000X2.000000*%
%ADD47RoundRect,0.250000X-0.625000X0.350000X-0.625000X-0.350000X0.625000X-0.350000X0.625000X0.350000X0*%
G04 APERTURE END LIST*
D10*
X100500000Y-109000000D02*
X100500000Y-50000000D01*
X125000000Y-122000000D02*
X125000000Y-159000000D01*
X168500000Y-91000000D02*
G75*
G02*
X163500000Y-91000000I-2500000J0D01*
G01*
X163500000Y-91000000D02*
G75*
G02*
X168500000Y-91000000I2500000J0D01*
G01*
X116000000Y-119000000D02*
X134000000Y-119000000D01*
X149500000Y-50000000D02*
X149500000Y-109000000D01*
X100500000Y-53000000D02*
G75*
G02*
X94500000Y-53000000I-3000000J0D01*
G01*
X94500000Y-53000000D02*
G75*
G02*
X100500000Y-53000000I3000000J0D01*
G01*
X155500000Y-53000000D02*
G75*
G02*
X149500000Y-53000000I-3000000J0D01*
G01*
X149500000Y-53000000D02*
G75*
G02*
X155500000Y-53000000I3000000J0D01*
G01*
X86500000Y-91000000D02*
G75*
G02*
X81500000Y-91000000I-2500000J0D01*
G01*
X81500000Y-91000000D02*
G75*
G02*
X86500000Y-91000000I2500000J0D01*
G01*
X128500000Y-156000000D02*
G75*
G02*
X123500000Y-156000000I-2500000J0D01*
G01*
X123500000Y-156000000D02*
G75*
G02*
X128500000Y-156000000I2500000J0D01*
G01*
X155500000Y-79000000D02*
G75*
G02*
X149500000Y-79000000I-3000000J0D01*
G01*
X149500000Y-79000000D02*
G75*
G02*
X155500000Y-79000000I3000000J0D01*
G01*
X100460000Y-79000000D02*
G75*
G02*
X94460000Y-79000000I-3000000J0D01*
G01*
X94460000Y-79000000D02*
G75*
G02*
X100460000Y-79000000I3000000J0D01*
G01*
X146000000Y-156000000D02*
G75*
G02*
X140000000Y-156000000I-3000000J0D01*
G01*
X140000000Y-156000000D02*
G75*
G02*
X146000000Y-156000000I3000000J0D01*
G01*
X97460000Y-82000000D02*
X97500000Y-110500000D01*
X97500000Y-110500000D02*
X114800000Y-122000000D01*
X152500000Y-110500000D02*
X135000000Y-122000000D01*
X169000000Y-86000000D02*
G75*
G02*
X163000000Y-86000000I-3000000J0D01*
G01*
X163000000Y-86000000D02*
G75*
G02*
X169000000Y-86000000I3000000J0D01*
G01*
X108500000Y-136000000D02*
G75*
G02*
X103500000Y-136000000I-2500000J0D01*
G01*
X103500000Y-136000000D02*
G75*
G02*
X108500000Y-136000000I2500000J0D01*
G01*
X87000000Y-86000000D02*
G75*
G02*
X81000000Y-86000000I-3000000J0D01*
G01*
X81000000Y-86000000D02*
G75*
G02*
X87000000Y-86000000I3000000J0D01*
G01*
X155500000Y-79000000D02*
X155500000Y-50000000D01*
X116000000Y-119000000D02*
X100500000Y-109000000D01*
X134000000Y-119000000D02*
X149500000Y-109000000D01*
X114800000Y-122000000D02*
X135000000Y-122000000D01*
X131000000Y-133500000D02*
X136000000Y-133500000D01*
X94500000Y-50000000D02*
X94460000Y-79000000D01*
X131000000Y-159000000D02*
X131000000Y-122000000D01*
X152500000Y-82000000D02*
X152500000Y-110500000D01*
X110000000Y-156000000D02*
G75*
G02*
X104000000Y-156000000I-3000000J0D01*
G01*
X104000000Y-156000000D02*
G75*
G02*
X110000000Y-156000000I3000000J0D01*
G01*
X119359580Y-110666666D02*
X119407200Y-110714285D01*
X119407200Y-110714285D02*
X119454819Y-110857142D01*
X119454819Y-110857142D02*
X119454819Y-110952380D01*
X119454819Y-110952380D02*
X119407200Y-111095237D01*
X119407200Y-111095237D02*
X119311961Y-111190475D01*
X119311961Y-111190475D02*
X119216723Y-111238094D01*
X119216723Y-111238094D02*
X119026247Y-111285713D01*
X119026247Y-111285713D02*
X118883390Y-111285713D01*
X118883390Y-111285713D02*
X118692914Y-111238094D01*
X118692914Y-111238094D02*
X118597676Y-111190475D01*
X118597676Y-111190475D02*
X118502438Y-111095237D01*
X118502438Y-111095237D02*
X118454819Y-110952380D01*
X118454819Y-110952380D02*
X118454819Y-110857142D01*
X118454819Y-110857142D02*
X118502438Y-110714285D01*
X118502438Y-110714285D02*
X118550057Y-110666666D01*
X119407200Y-110285713D02*
X119454819Y-110142856D01*
X119454819Y-110142856D02*
X119454819Y-109904761D01*
X119454819Y-109904761D02*
X119407200Y-109809523D01*
X119407200Y-109809523D02*
X119359580Y-109761904D01*
X119359580Y-109761904D02*
X119264342Y-109714285D01*
X119264342Y-109714285D02*
X119169104Y-109714285D01*
X119169104Y-109714285D02*
X119073866Y-109761904D01*
X119073866Y-109761904D02*
X119026247Y-109809523D01*
X119026247Y-109809523D02*
X118978628Y-109904761D01*
X118978628Y-109904761D02*
X118931009Y-110095237D01*
X118931009Y-110095237D02*
X118883390Y-110190475D01*
X118883390Y-110190475D02*
X118835771Y-110238094D01*
X118835771Y-110238094D02*
X118740533Y-110285713D01*
X118740533Y-110285713D02*
X118645295Y-110285713D01*
X118645295Y-110285713D02*
X118550057Y-110238094D01*
X118550057Y-110238094D02*
X118502438Y-110190475D01*
X118502438Y-110190475D02*
X118454819Y-110095237D01*
X118454819Y-110095237D02*
X118454819Y-109857142D01*
X118454819Y-109857142D02*
X118502438Y-109714285D01*
X140761904Y-143931009D02*
X140904761Y-143978628D01*
X140904761Y-143978628D02*
X140952380Y-144026247D01*
X140952380Y-144026247D02*
X140999999Y-144121485D01*
X140999999Y-144121485D02*
X140999999Y-144264342D01*
X140999999Y-144264342D02*
X140952380Y-144359580D01*
X140952380Y-144359580D02*
X140904761Y-144407200D01*
X140904761Y-144407200D02*
X140809523Y-144454819D01*
X140809523Y-144454819D02*
X140428571Y-144454819D01*
X140428571Y-144454819D02*
X140428571Y-143454819D01*
X140428571Y-143454819D02*
X140761904Y-143454819D01*
X140761904Y-143454819D02*
X140857142Y-143502438D01*
X140857142Y-143502438D02*
X140904761Y-143550057D01*
X140904761Y-143550057D02*
X140952380Y-143645295D01*
X140952380Y-143645295D02*
X140952380Y-143740533D01*
X140952380Y-143740533D02*
X140904761Y-143835771D01*
X140904761Y-143835771D02*
X140857142Y-143883390D01*
X140857142Y-143883390D02*
X140761904Y-143931009D01*
X140761904Y-143931009D02*
X140428571Y-143931009D01*
X141380952Y-144169104D02*
X141857142Y-144169104D01*
X141285714Y-144454819D02*
X141619047Y-143454819D01*
X141619047Y-143454819D02*
X141952380Y-144454819D01*
X142142857Y-143454819D02*
X142714285Y-143454819D01*
X142428571Y-144454819D02*
X142428571Y-143454819D01*
X142904762Y-143454819D02*
X143476190Y-143454819D01*
X143190476Y-144454819D02*
X143190476Y-143454819D01*
X143809524Y-144073866D02*
X144571429Y-144073866D01*
X144190476Y-144454819D02*
X144190476Y-143692914D01*
X157824200Y-104366666D02*
X157862295Y-104252380D01*
X157862295Y-104252380D02*
X157862295Y-104061904D01*
X157862295Y-104061904D02*
X157824200Y-103985713D01*
X157824200Y-103985713D02*
X157786104Y-103947618D01*
X157786104Y-103947618D02*
X157709914Y-103909523D01*
X157709914Y-103909523D02*
X157633723Y-103909523D01*
X157633723Y-103909523D02*
X157557533Y-103947618D01*
X157557533Y-103947618D02*
X157519438Y-103985713D01*
X157519438Y-103985713D02*
X157481342Y-104061904D01*
X157481342Y-104061904D02*
X157443247Y-104214285D01*
X157443247Y-104214285D02*
X157405152Y-104290475D01*
X157405152Y-104290475D02*
X157367057Y-104328570D01*
X157367057Y-104328570D02*
X157290866Y-104366666D01*
X157290866Y-104366666D02*
X157214676Y-104366666D01*
X157214676Y-104366666D02*
X157138485Y-104328570D01*
X157138485Y-104328570D02*
X157100390Y-104290475D01*
X157100390Y-104290475D02*
X157062295Y-104214285D01*
X157062295Y-104214285D02*
X157062295Y-104023808D01*
X157062295Y-104023808D02*
X157100390Y-103909523D01*
X157062295Y-103680951D02*
X157062295Y-103223808D01*
X157862295Y-103452380D02*
X157062295Y-103452380D01*
X157862295Y-102576189D02*
X157862295Y-102957141D01*
X157862295Y-102957141D02*
X157062295Y-102957141D01*
X157862295Y-102309522D02*
X157062295Y-102309522D01*
X157862295Y-101928570D02*
X157062295Y-101928570D01*
X157062295Y-101928570D02*
X157862295Y-101471427D01*
X157862295Y-101471427D02*
X157062295Y-101471427D01*
X157862295Y-101090475D02*
X157062295Y-101090475D01*
X157862295Y-100633332D02*
X157405152Y-100976190D01*
X157062295Y-100633332D02*
X157519438Y-101090475D01*
X123454819Y-128976189D02*
X123454819Y-128357142D01*
X123454819Y-128357142D02*
X123835771Y-128690475D01*
X123835771Y-128690475D02*
X123835771Y-128547618D01*
X123835771Y-128547618D02*
X123883390Y-128452380D01*
X123883390Y-128452380D02*
X123931009Y-128404761D01*
X123931009Y-128404761D02*
X124026247Y-128357142D01*
X124026247Y-128357142D02*
X124264342Y-128357142D01*
X124264342Y-128357142D02*
X124359580Y-128404761D01*
X124359580Y-128404761D02*
X124407200Y-128452380D01*
X124407200Y-128452380D02*
X124454819Y-128547618D01*
X124454819Y-128547618D02*
X124454819Y-128833332D01*
X124454819Y-128833332D02*
X124407200Y-128928570D01*
X124407200Y-128928570D02*
X124359580Y-128976189D01*
X124359580Y-127928570D02*
X124407200Y-127880951D01*
X124407200Y-127880951D02*
X124454819Y-127928570D01*
X124454819Y-127928570D02*
X124407200Y-127976189D01*
X124407200Y-127976189D02*
X124359580Y-127928570D01*
X124359580Y-127928570D02*
X124454819Y-127928570D01*
X123454819Y-127547618D02*
X123454819Y-126928571D01*
X123454819Y-126928571D02*
X123835771Y-127261904D01*
X123835771Y-127261904D02*
X123835771Y-127119047D01*
X123835771Y-127119047D02*
X123883390Y-127023809D01*
X123883390Y-127023809D02*
X123931009Y-126976190D01*
X123931009Y-126976190D02*
X124026247Y-126928571D01*
X124026247Y-126928571D02*
X124264342Y-126928571D01*
X124264342Y-126928571D02*
X124359580Y-126976190D01*
X124359580Y-126976190D02*
X124407200Y-127023809D01*
X124407200Y-127023809D02*
X124454819Y-127119047D01*
X124454819Y-127119047D02*
X124454819Y-127404761D01*
X124454819Y-127404761D02*
X124407200Y-127499999D01*
X124407200Y-127499999D02*
X124359580Y-127547618D01*
X123454819Y-126642856D02*
X124454819Y-126309523D01*
X124454819Y-126309523D02*
X123454819Y-125976190D01*
X139214286Y-150454819D02*
X139214286Y-149454819D01*
X139214286Y-149454819D02*
X139785714Y-150454819D01*
X139785714Y-150454819D02*
X139785714Y-149454819D01*
X159362295Y-101938094D02*
X158981342Y-102204761D01*
X159362295Y-102395237D02*
X158562295Y-102395237D01*
X158562295Y-102395237D02*
X158562295Y-102090475D01*
X158562295Y-102090475D02*
X158600390Y-102014285D01*
X158600390Y-102014285D02*
X158638485Y-101976190D01*
X158638485Y-101976190D02*
X158714676Y-101938094D01*
X158714676Y-101938094D02*
X158828961Y-101938094D01*
X158828961Y-101938094D02*
X158905152Y-101976190D01*
X158905152Y-101976190D02*
X158943247Y-102014285D01*
X158943247Y-102014285D02*
X158981342Y-102090475D01*
X158981342Y-102090475D02*
X158981342Y-102395237D01*
X159324200Y-101633333D02*
X159362295Y-101519047D01*
X159362295Y-101519047D02*
X159362295Y-101328571D01*
X159362295Y-101328571D02*
X159324200Y-101252380D01*
X159324200Y-101252380D02*
X159286104Y-101214285D01*
X159286104Y-101214285D02*
X159209914Y-101176190D01*
X159209914Y-101176190D02*
X159133723Y-101176190D01*
X159133723Y-101176190D02*
X159057533Y-101214285D01*
X159057533Y-101214285D02*
X159019438Y-101252380D01*
X159019438Y-101252380D02*
X158981342Y-101328571D01*
X158981342Y-101328571D02*
X158943247Y-101480952D01*
X158943247Y-101480952D02*
X158905152Y-101557142D01*
X158905152Y-101557142D02*
X158867057Y-101595237D01*
X158867057Y-101595237D02*
X158790866Y-101633333D01*
X158790866Y-101633333D02*
X158714676Y-101633333D01*
X158714676Y-101633333D02*
X158638485Y-101595237D01*
X158638485Y-101595237D02*
X158600390Y-101557142D01*
X158600390Y-101557142D02*
X158562295Y-101480952D01*
X158562295Y-101480952D02*
X158562295Y-101290475D01*
X158562295Y-101290475D02*
X158600390Y-101176190D01*
X158562295Y-100947618D02*
X158562295Y-100490475D01*
X159362295Y-100719047D02*
X158562295Y-100719047D01*
X92909524Y-99943247D02*
X93176190Y-99943247D01*
X93290476Y-100362295D02*
X92909524Y-100362295D01*
X92909524Y-100362295D02*
X92909524Y-99562295D01*
X92909524Y-99562295D02*
X93290476Y-99562295D01*
X93633334Y-100362295D02*
X93633334Y-99562295D01*
X93633334Y-99562295D02*
X94090477Y-100362295D01*
X94090477Y-100362295D02*
X94090477Y-99562295D01*
X130309523Y-123454819D02*
X129976190Y-122978628D01*
X129738095Y-123454819D02*
X129738095Y-122454819D01*
X129738095Y-122454819D02*
X130119047Y-122454819D01*
X130119047Y-122454819D02*
X130214285Y-122502438D01*
X130214285Y-122502438D02*
X130261904Y-122550057D01*
X130261904Y-122550057D02*
X130309523Y-122645295D01*
X130309523Y-122645295D02*
X130309523Y-122788152D01*
X130309523Y-122788152D02*
X130261904Y-122883390D01*
X130261904Y-122883390D02*
X130214285Y-122931009D01*
X130214285Y-122931009D02*
X130119047Y-122978628D01*
X130119047Y-122978628D02*
X129738095Y-122978628D01*
X92028571Y-101943247D02*
X92295237Y-101943247D01*
X92409523Y-102362295D02*
X92028571Y-102362295D01*
X92028571Y-102362295D02*
X92028571Y-101562295D01*
X92028571Y-101562295D02*
X92409523Y-101562295D01*
X93209524Y-102362295D02*
X92942857Y-101981342D01*
X92752381Y-102362295D02*
X92752381Y-101562295D01*
X92752381Y-101562295D02*
X93057143Y-101562295D01*
X93057143Y-101562295D02*
X93133333Y-101600390D01*
X93133333Y-101600390D02*
X93171428Y-101638485D01*
X93171428Y-101638485D02*
X93209524Y-101714676D01*
X93209524Y-101714676D02*
X93209524Y-101828961D01*
X93209524Y-101828961D02*
X93171428Y-101905152D01*
X93171428Y-101905152D02*
X93133333Y-101943247D01*
X93133333Y-101943247D02*
X93057143Y-101981342D01*
X93057143Y-101981342D02*
X92752381Y-101981342D01*
X94009524Y-102362295D02*
X93742857Y-101981342D01*
X93552381Y-102362295D02*
X93552381Y-101562295D01*
X93552381Y-101562295D02*
X93857143Y-101562295D01*
X93857143Y-101562295D02*
X93933333Y-101600390D01*
X93933333Y-101600390D02*
X93971428Y-101638485D01*
X93971428Y-101638485D02*
X94009524Y-101714676D01*
X94009524Y-101714676D02*
X94009524Y-101828961D01*
X94009524Y-101828961D02*
X93971428Y-101905152D01*
X93971428Y-101905152D02*
X93933333Y-101943247D01*
X93933333Y-101943247D02*
X93857143Y-101981342D01*
X93857143Y-101981342D02*
X93552381Y-101981342D01*
X121002438Y-110761904D02*
X120954819Y-110857142D01*
X120954819Y-110857142D02*
X120954819Y-110999999D01*
X120954819Y-110999999D02*
X121002438Y-111142856D01*
X121002438Y-111142856D02*
X121097676Y-111238094D01*
X121097676Y-111238094D02*
X121192914Y-111285713D01*
X121192914Y-111285713D02*
X121383390Y-111333332D01*
X121383390Y-111333332D02*
X121526247Y-111333332D01*
X121526247Y-111333332D02*
X121716723Y-111285713D01*
X121716723Y-111285713D02*
X121811961Y-111238094D01*
X121811961Y-111238094D02*
X121907200Y-111142856D01*
X121907200Y-111142856D02*
X121954819Y-110999999D01*
X121954819Y-110999999D02*
X121954819Y-110904761D01*
X121954819Y-110904761D02*
X121907200Y-110761904D01*
X121907200Y-110761904D02*
X121859580Y-110714285D01*
X121859580Y-110714285D02*
X121526247Y-110714285D01*
X121526247Y-110714285D02*
X121526247Y-110904761D01*
X121954819Y-110285713D02*
X120954819Y-110285713D01*
X120954819Y-110285713D02*
X121954819Y-109714285D01*
X121954819Y-109714285D02*
X120954819Y-109714285D01*
X121954819Y-109238094D02*
X120954819Y-109238094D01*
X120954819Y-109238094D02*
X120954819Y-108999999D01*
X120954819Y-108999999D02*
X121002438Y-108857142D01*
X121002438Y-108857142D02*
X121097676Y-108761904D01*
X121097676Y-108761904D02*
X121192914Y-108714285D01*
X121192914Y-108714285D02*
X121383390Y-108666666D01*
X121383390Y-108666666D02*
X121526247Y-108666666D01*
X121526247Y-108666666D02*
X121716723Y-108714285D01*
X121716723Y-108714285D02*
X121811961Y-108761904D01*
X121811961Y-108761904D02*
X121907200Y-108857142D01*
X121907200Y-108857142D02*
X121954819Y-108999999D01*
X121954819Y-108999999D02*
X121954819Y-109238094D01*
X99571429Y-105454819D02*
X99809524Y-106454819D01*
X99809524Y-106454819D02*
X100000000Y-105740533D01*
X100000000Y-105740533D02*
X100190476Y-106454819D01*
X100190476Y-106454819D02*
X100428572Y-105454819D01*
X124454819Y-133119047D02*
X124454819Y-133690475D01*
X124454819Y-133404761D02*
X123454819Y-133404761D01*
X123454819Y-133404761D02*
X123597676Y-133499999D01*
X123597676Y-133499999D02*
X123692914Y-133595237D01*
X123692914Y-133595237D02*
X123740533Y-133690475D01*
X123550057Y-132738094D02*
X123502438Y-132690475D01*
X123502438Y-132690475D02*
X123454819Y-132595237D01*
X123454819Y-132595237D02*
X123454819Y-132357142D01*
X123454819Y-132357142D02*
X123502438Y-132261904D01*
X123502438Y-132261904D02*
X123550057Y-132214285D01*
X123550057Y-132214285D02*
X123645295Y-132166666D01*
X123645295Y-132166666D02*
X123740533Y-132166666D01*
X123740533Y-132166666D02*
X123883390Y-132214285D01*
X123883390Y-132214285D02*
X124454819Y-132785713D01*
X124454819Y-132785713D02*
X124454819Y-132166666D01*
X123454819Y-131880951D02*
X124454819Y-131547618D01*
X124454819Y-131547618D02*
X123454819Y-131214285D01*
X139500000Y-147954819D02*
X139500000Y-146954819D01*
D11*
X139892857Y-156749757D02*
X139750000Y-156678328D01*
X139750000Y-156678328D02*
X139535714Y-156678328D01*
X139535714Y-156678328D02*
X139321428Y-156749757D01*
X139321428Y-156749757D02*
X139178571Y-156892614D01*
X139178571Y-156892614D02*
X139107142Y-157035471D01*
X139107142Y-157035471D02*
X139035714Y-157321185D01*
X139035714Y-157321185D02*
X139035714Y-157535471D01*
X139035714Y-157535471D02*
X139107142Y-157821185D01*
X139107142Y-157821185D02*
X139178571Y-157964042D01*
X139178571Y-157964042D02*
X139321428Y-158106900D01*
X139321428Y-158106900D02*
X139535714Y-158178328D01*
X139535714Y-158178328D02*
X139678571Y-158178328D01*
X139678571Y-158178328D02*
X139892857Y-158106900D01*
X139892857Y-158106900D02*
X139964285Y-158035471D01*
X139964285Y-158035471D02*
X139964285Y-157535471D01*
X139964285Y-157535471D02*
X139678571Y-157535471D01*
D10*
X100309523Y-102454819D02*
X99976190Y-101978628D01*
X99738095Y-102454819D02*
X99738095Y-101454819D01*
X99738095Y-101454819D02*
X100119047Y-101454819D01*
X100119047Y-101454819D02*
X100214285Y-101502438D01*
X100214285Y-101502438D02*
X100261904Y-101550057D01*
X100261904Y-101550057D02*
X100309523Y-101645295D01*
X100309523Y-101645295D02*
X100309523Y-101788152D01*
X100309523Y-101788152D02*
X100261904Y-101883390D01*
X100261904Y-101883390D02*
X100214285Y-101931009D01*
X100214285Y-101931009D02*
X100119047Y-101978628D01*
X100119047Y-101978628D02*
X99738095Y-101978628D01*
X92928572Y-98362295D02*
X92928572Y-97562295D01*
X92928572Y-97943247D02*
X93385715Y-97943247D01*
X93385715Y-98362295D02*
X93385715Y-97562295D01*
X93652381Y-97562295D02*
X93919048Y-98362295D01*
X93919048Y-98362295D02*
X94185714Y-97562295D01*
X135261904Y-124931009D02*
X135404761Y-124978628D01*
X135404761Y-124978628D02*
X135452380Y-125026247D01*
X135452380Y-125026247D02*
X135499999Y-125121485D01*
X135499999Y-125121485D02*
X135499999Y-125264342D01*
X135499999Y-125264342D02*
X135452380Y-125359580D01*
X135452380Y-125359580D02*
X135404761Y-125407200D01*
X135404761Y-125407200D02*
X135309523Y-125454819D01*
X135309523Y-125454819D02*
X134928571Y-125454819D01*
X134928571Y-125454819D02*
X134928571Y-124454819D01*
X134928571Y-124454819D02*
X135261904Y-124454819D01*
X135261904Y-124454819D02*
X135357142Y-124502438D01*
X135357142Y-124502438D02*
X135404761Y-124550057D01*
X135404761Y-124550057D02*
X135452380Y-124645295D01*
X135452380Y-124645295D02*
X135452380Y-124740533D01*
X135452380Y-124740533D02*
X135404761Y-124835771D01*
X135404761Y-124835771D02*
X135357142Y-124883390D01*
X135357142Y-124883390D02*
X135261904Y-124931009D01*
X135261904Y-124931009D02*
X134928571Y-124931009D01*
X135880952Y-125169104D02*
X136357142Y-125169104D01*
X135785714Y-125454819D02*
X136119047Y-124454819D01*
X136119047Y-124454819D02*
X136452380Y-125454819D01*
X136642857Y-124454819D02*
X137214285Y-124454819D01*
X136928571Y-125454819D02*
X136928571Y-124454819D01*
X95504761Y-107862295D02*
X95047618Y-107862295D01*
X95276190Y-107862295D02*
X95276190Y-107062295D01*
X95276190Y-107062295D02*
X95199999Y-107176580D01*
X95199999Y-107176580D02*
X95123809Y-107252771D01*
X95123809Y-107252771D02*
X95047618Y-107290866D01*
X95809523Y-107138485D02*
X95847619Y-107100390D01*
X95847619Y-107100390D02*
X95923809Y-107062295D01*
X95923809Y-107062295D02*
X96114285Y-107062295D01*
X96114285Y-107062295D02*
X96190476Y-107100390D01*
X96190476Y-107100390D02*
X96228571Y-107138485D01*
X96228571Y-107138485D02*
X96266666Y-107214676D01*
X96266666Y-107214676D02*
X96266666Y-107290866D01*
X96266666Y-107290866D02*
X96228571Y-107405152D01*
X96228571Y-107405152D02*
X95771428Y-107862295D01*
X95771428Y-107862295D02*
X96266666Y-107862295D01*
X96495238Y-107062295D02*
X96761905Y-107862295D01*
X96761905Y-107862295D02*
X97028571Y-107062295D01*
X139809523Y-142859580D02*
X139761904Y-142907200D01*
X139761904Y-142907200D02*
X139619047Y-142954819D01*
X139619047Y-142954819D02*
X139523809Y-142954819D01*
X139523809Y-142954819D02*
X139380952Y-142907200D01*
X139380952Y-142907200D02*
X139285714Y-142811961D01*
X139285714Y-142811961D02*
X139238095Y-142716723D01*
X139238095Y-142716723D02*
X139190476Y-142526247D01*
X139190476Y-142526247D02*
X139190476Y-142383390D01*
X139190476Y-142383390D02*
X139238095Y-142192914D01*
X139238095Y-142192914D02*
X139285714Y-142097676D01*
X139285714Y-142097676D02*
X139380952Y-142002438D01*
X139380952Y-142002438D02*
X139523809Y-141954819D01*
X139523809Y-141954819D02*
X139619047Y-141954819D01*
X139619047Y-141954819D02*
X139761904Y-142002438D01*
X139761904Y-142002438D02*
X139809523Y-142050057D01*
X93728571Y-96362295D02*
X93271428Y-96362295D01*
X93500000Y-96362295D02*
X93500000Y-95562295D01*
X93500000Y-95562295D02*
X93423809Y-95676580D01*
X93423809Y-95676580D02*
X93347619Y-95752771D01*
X93347619Y-95752771D02*
X93271428Y-95790866D01*
X99904762Y-97454819D02*
X100095238Y-97454819D01*
X100095238Y-97454819D02*
X100190476Y-97502438D01*
X100190476Y-97502438D02*
X100285714Y-97597676D01*
X100285714Y-97597676D02*
X100333333Y-97788152D01*
X100333333Y-97788152D02*
X100333333Y-98121485D01*
X100333333Y-98121485D02*
X100285714Y-98311961D01*
X100285714Y-98311961D02*
X100190476Y-98407200D01*
X100190476Y-98407200D02*
X100095238Y-98454819D01*
X100095238Y-98454819D02*
X99904762Y-98454819D01*
X99904762Y-98454819D02*
X99809524Y-98407200D01*
X99809524Y-98407200D02*
X99714286Y-98311961D01*
X99714286Y-98311961D02*
X99666667Y-98121485D01*
X99666667Y-98121485D02*
X99666667Y-97788152D01*
X99666667Y-97788152D02*
X99714286Y-97597676D01*
X99714286Y-97597676D02*
X99809524Y-97502438D01*
X99809524Y-97502438D02*
X99904762Y-97454819D01*
X83380952Y-71859580D02*
X83333333Y-71907200D01*
X83333333Y-71907200D02*
X83190476Y-71954819D01*
X83190476Y-71954819D02*
X83095238Y-71954819D01*
X83095238Y-71954819D02*
X82952381Y-71907200D01*
X82952381Y-71907200D02*
X82857143Y-71811961D01*
X82857143Y-71811961D02*
X82809524Y-71716723D01*
X82809524Y-71716723D02*
X82761905Y-71526247D01*
X82761905Y-71526247D02*
X82761905Y-71383390D01*
X82761905Y-71383390D02*
X82809524Y-71192914D01*
X82809524Y-71192914D02*
X82857143Y-71097676D01*
X82857143Y-71097676D02*
X82952381Y-71002438D01*
X82952381Y-71002438D02*
X83095238Y-70954819D01*
X83095238Y-70954819D02*
X83190476Y-70954819D01*
X83190476Y-70954819D02*
X83333333Y-71002438D01*
X83333333Y-71002438D02*
X83380952Y-71050057D01*
X83761905Y-71669104D02*
X84238095Y-71669104D01*
X83666667Y-71954819D02*
X84000000Y-70954819D01*
X84000000Y-70954819D02*
X84333333Y-71954819D01*
X84666667Y-71954819D02*
X84666667Y-70954819D01*
X84666667Y-70954819D02*
X85047619Y-70954819D01*
X85047619Y-70954819D02*
X85142857Y-71002438D01*
X85142857Y-71002438D02*
X85190476Y-71050057D01*
X85190476Y-71050057D02*
X85238095Y-71145295D01*
X85238095Y-71145295D02*
X85238095Y-71288152D01*
X85238095Y-71288152D02*
X85190476Y-71383390D01*
X85190476Y-71383390D02*
X85142857Y-71431009D01*
X85142857Y-71431009D02*
X85047619Y-71478628D01*
X85047619Y-71478628D02*
X84666667Y-71478628D01*
X165380952Y-71859580D02*
X165333333Y-71907200D01*
X165333333Y-71907200D02*
X165190476Y-71954819D01*
X165190476Y-71954819D02*
X165095238Y-71954819D01*
X165095238Y-71954819D02*
X164952381Y-71907200D01*
X164952381Y-71907200D02*
X164857143Y-71811961D01*
X164857143Y-71811961D02*
X164809524Y-71716723D01*
X164809524Y-71716723D02*
X164761905Y-71526247D01*
X164761905Y-71526247D02*
X164761905Y-71383390D01*
X164761905Y-71383390D02*
X164809524Y-71192914D01*
X164809524Y-71192914D02*
X164857143Y-71097676D01*
X164857143Y-71097676D02*
X164952381Y-71002438D01*
X164952381Y-71002438D02*
X165095238Y-70954819D01*
X165095238Y-70954819D02*
X165190476Y-70954819D01*
X165190476Y-70954819D02*
X165333333Y-71002438D01*
X165333333Y-71002438D02*
X165380952Y-71050057D01*
X165761905Y-71669104D02*
X166238095Y-71669104D01*
X165666667Y-71954819D02*
X166000000Y-70954819D01*
X166000000Y-70954819D02*
X166333333Y-71954819D01*
X166666667Y-71954819D02*
X166666667Y-70954819D01*
X166666667Y-70954819D02*
X167047619Y-70954819D01*
X167047619Y-70954819D02*
X167142857Y-71002438D01*
X167142857Y-71002438D02*
X167190476Y-71050057D01*
X167190476Y-71050057D02*
X167238095Y-71145295D01*
X167238095Y-71145295D02*
X167238095Y-71288152D01*
X167238095Y-71288152D02*
X167190476Y-71383390D01*
X167190476Y-71383390D02*
X167142857Y-71431009D01*
X167142857Y-71431009D02*
X167047619Y-71478628D01*
X167047619Y-71478628D02*
X166666667Y-71478628D01*
X139404762Y-144454819D02*
X139595238Y-144454819D01*
X139595238Y-144454819D02*
X139690476Y-144502438D01*
X139690476Y-144502438D02*
X139785714Y-144597676D01*
X139785714Y-144597676D02*
X139833333Y-144788152D01*
X139833333Y-144788152D02*
X139833333Y-145121485D01*
X139833333Y-145121485D02*
X139785714Y-145311961D01*
X139785714Y-145311961D02*
X139690476Y-145407200D01*
X139690476Y-145407200D02*
X139595238Y-145454819D01*
X139595238Y-145454819D02*
X139404762Y-145454819D01*
X139404762Y-145454819D02*
X139309524Y-145407200D01*
X139309524Y-145407200D02*
X139214286Y-145311961D01*
X139214286Y-145311961D02*
X139166667Y-145121485D01*
X139166667Y-145121485D02*
X139166667Y-144788152D01*
X139166667Y-144788152D02*
X139214286Y-144597676D01*
X139214286Y-144597676D02*
X139309524Y-144502438D01*
X139309524Y-144502438D02*
X139404762Y-144454819D01*
X99571429Y-103454819D02*
X99809524Y-104454819D01*
X99809524Y-104454819D02*
X100000000Y-103740533D01*
X100000000Y-103740533D02*
X100190476Y-104454819D01*
X100190476Y-104454819D02*
X100428572Y-103454819D01*
X100071428Y-93931009D02*
X100214285Y-93978628D01*
X100214285Y-93978628D02*
X100261904Y-94026247D01*
X100261904Y-94026247D02*
X100309523Y-94121485D01*
X100309523Y-94121485D02*
X100309523Y-94264342D01*
X100309523Y-94264342D02*
X100261904Y-94359580D01*
X100261904Y-94359580D02*
X100214285Y-94407200D01*
X100214285Y-94407200D02*
X100119047Y-94454819D01*
X100119047Y-94454819D02*
X99738095Y-94454819D01*
X99738095Y-94454819D02*
X99738095Y-93454819D01*
X99738095Y-93454819D02*
X100071428Y-93454819D01*
X100071428Y-93454819D02*
X100166666Y-93502438D01*
X100166666Y-93502438D02*
X100214285Y-93550057D01*
X100214285Y-93550057D02*
X100261904Y-93645295D01*
X100261904Y-93645295D02*
X100261904Y-93740533D01*
X100261904Y-93740533D02*
X100214285Y-93835771D01*
X100214285Y-93835771D02*
X100166666Y-93883390D01*
X100166666Y-93883390D02*
X100071428Y-93931009D01*
X100071428Y-93931009D02*
X99738095Y-93931009D01*
X134833333Y-123407200D02*
X134976190Y-123454819D01*
X134976190Y-123454819D02*
X135214285Y-123454819D01*
X135214285Y-123454819D02*
X135309523Y-123407200D01*
X135309523Y-123407200D02*
X135357142Y-123359580D01*
X135357142Y-123359580D02*
X135404761Y-123264342D01*
X135404761Y-123264342D02*
X135404761Y-123169104D01*
X135404761Y-123169104D02*
X135357142Y-123073866D01*
X135357142Y-123073866D02*
X135309523Y-123026247D01*
X135309523Y-123026247D02*
X135214285Y-122978628D01*
X135214285Y-122978628D02*
X135023809Y-122931009D01*
X135023809Y-122931009D02*
X134928571Y-122883390D01*
X134928571Y-122883390D02*
X134880952Y-122835771D01*
X134880952Y-122835771D02*
X134833333Y-122740533D01*
X134833333Y-122740533D02*
X134833333Y-122645295D01*
X134833333Y-122645295D02*
X134880952Y-122550057D01*
X134880952Y-122550057D02*
X134928571Y-122502438D01*
X134928571Y-122502438D02*
X135023809Y-122454819D01*
X135023809Y-122454819D02*
X135261904Y-122454819D01*
X135261904Y-122454819D02*
X135404761Y-122502438D01*
X136404761Y-123454819D02*
X136071428Y-122978628D01*
X135833333Y-123454819D02*
X135833333Y-122454819D01*
X135833333Y-122454819D02*
X136214285Y-122454819D01*
X136214285Y-122454819D02*
X136309523Y-122502438D01*
X136309523Y-122502438D02*
X136357142Y-122550057D01*
X136357142Y-122550057D02*
X136404761Y-122645295D01*
X136404761Y-122645295D02*
X136404761Y-122788152D01*
X136404761Y-122788152D02*
X136357142Y-122883390D01*
X136357142Y-122883390D02*
X136309523Y-122931009D01*
X136309523Y-122931009D02*
X136214285Y-122978628D01*
X136214285Y-122978628D02*
X135833333Y-122978628D01*
X136690476Y-122454819D02*
X137261904Y-122454819D01*
X136976190Y-123454819D02*
X136976190Y-122454819D01*
X91819047Y-103562295D02*
X92314285Y-103562295D01*
X92314285Y-103562295D02*
X92047619Y-103867057D01*
X92047619Y-103867057D02*
X92161904Y-103867057D01*
X92161904Y-103867057D02*
X92238095Y-103905152D01*
X92238095Y-103905152D02*
X92276190Y-103943247D01*
X92276190Y-103943247D02*
X92314285Y-104019438D01*
X92314285Y-104019438D02*
X92314285Y-104209914D01*
X92314285Y-104209914D02*
X92276190Y-104286104D01*
X92276190Y-104286104D02*
X92238095Y-104324200D01*
X92238095Y-104324200D02*
X92161904Y-104362295D01*
X92161904Y-104362295D02*
X91933333Y-104362295D01*
X91933333Y-104362295D02*
X91857142Y-104324200D01*
X91857142Y-104324200D02*
X91819047Y-104286104D01*
X92657143Y-104286104D02*
X92695238Y-104324200D01*
X92695238Y-104324200D02*
X92657143Y-104362295D01*
X92657143Y-104362295D02*
X92619047Y-104324200D01*
X92619047Y-104324200D02*
X92657143Y-104286104D01*
X92657143Y-104286104D02*
X92657143Y-104362295D01*
X92961904Y-103562295D02*
X93457142Y-103562295D01*
X93457142Y-103562295D02*
X93190476Y-103867057D01*
X93190476Y-103867057D02*
X93304761Y-103867057D01*
X93304761Y-103867057D02*
X93380952Y-103905152D01*
X93380952Y-103905152D02*
X93419047Y-103943247D01*
X93419047Y-103943247D02*
X93457142Y-104019438D01*
X93457142Y-104019438D02*
X93457142Y-104209914D01*
X93457142Y-104209914D02*
X93419047Y-104286104D01*
X93419047Y-104286104D02*
X93380952Y-104324200D01*
X93380952Y-104324200D02*
X93304761Y-104362295D01*
X93304761Y-104362295D02*
X93076190Y-104362295D01*
X93076190Y-104362295D02*
X92999999Y-104324200D01*
X92999999Y-104324200D02*
X92961904Y-104286104D01*
X93685714Y-103562295D02*
X93952381Y-104362295D01*
X93952381Y-104362295D02*
X94219047Y-103562295D01*
X100261904Y-99502438D02*
X100166666Y-99454819D01*
X100166666Y-99454819D02*
X100023809Y-99454819D01*
X100023809Y-99454819D02*
X99880952Y-99502438D01*
X99880952Y-99502438D02*
X99785714Y-99597676D01*
X99785714Y-99597676D02*
X99738095Y-99692914D01*
X99738095Y-99692914D02*
X99690476Y-99883390D01*
X99690476Y-99883390D02*
X99690476Y-100026247D01*
X99690476Y-100026247D02*
X99738095Y-100216723D01*
X99738095Y-100216723D02*
X99785714Y-100311961D01*
X99785714Y-100311961D02*
X99880952Y-100407200D01*
X99880952Y-100407200D02*
X100023809Y-100454819D01*
X100023809Y-100454819D02*
X100119047Y-100454819D01*
X100119047Y-100454819D02*
X100261904Y-100407200D01*
X100261904Y-100407200D02*
X100309523Y-100359580D01*
X100309523Y-100359580D02*
X100309523Y-100026247D01*
X100309523Y-100026247D02*
X100119047Y-100026247D01*
X129571429Y-124454819D02*
X129809524Y-125454819D01*
X129809524Y-125454819D02*
X130000000Y-124740533D01*
X130000000Y-124740533D02*
X130190476Y-125454819D01*
X130190476Y-125454819D02*
X130428572Y-124454819D01*
X138002438Y-131761904D02*
X137954819Y-131857142D01*
X137954819Y-131857142D02*
X137954819Y-131999999D01*
X137954819Y-131999999D02*
X138002438Y-132142856D01*
X138002438Y-132142856D02*
X138097676Y-132238094D01*
X138097676Y-132238094D02*
X138192914Y-132285713D01*
X138192914Y-132285713D02*
X138383390Y-132333332D01*
X138383390Y-132333332D02*
X138526247Y-132333332D01*
X138526247Y-132333332D02*
X138716723Y-132285713D01*
X138716723Y-132285713D02*
X138811961Y-132238094D01*
X138811961Y-132238094D02*
X138907200Y-132142856D01*
X138907200Y-132142856D02*
X138954819Y-131999999D01*
X138954819Y-131999999D02*
X138954819Y-131904761D01*
X138954819Y-131904761D02*
X138907200Y-131761904D01*
X138907200Y-131761904D02*
X138859580Y-131714285D01*
X138859580Y-131714285D02*
X138526247Y-131714285D01*
X138526247Y-131714285D02*
X138526247Y-131904761D01*
X138954819Y-131285713D02*
X137954819Y-131285713D01*
X137954819Y-131285713D02*
X138954819Y-130714285D01*
X138954819Y-130714285D02*
X137954819Y-130714285D01*
X138954819Y-130238094D02*
X137954819Y-130238094D01*
X137954819Y-130238094D02*
X137954819Y-129999999D01*
X137954819Y-129999999D02*
X138002438Y-129857142D01*
X138002438Y-129857142D02*
X138097676Y-129761904D01*
X138097676Y-129761904D02*
X138192914Y-129714285D01*
X138192914Y-129714285D02*
X138383390Y-129666666D01*
X138383390Y-129666666D02*
X138526247Y-129666666D01*
X138526247Y-129666666D02*
X138716723Y-129714285D01*
X138716723Y-129714285D02*
X138811961Y-129761904D01*
X138811961Y-129761904D02*
X138907200Y-129857142D01*
X138907200Y-129857142D02*
X138954819Y-129999999D01*
X138954819Y-129999999D02*
X138954819Y-130238094D01*
X139809523Y-140454819D02*
X139476190Y-139978628D01*
X139238095Y-140454819D02*
X139238095Y-139454819D01*
X139238095Y-139454819D02*
X139619047Y-139454819D01*
X139619047Y-139454819D02*
X139714285Y-139502438D01*
X139714285Y-139502438D02*
X139761904Y-139550057D01*
X139761904Y-139550057D02*
X139809523Y-139645295D01*
X139809523Y-139645295D02*
X139809523Y-139788152D01*
X139809523Y-139788152D02*
X139761904Y-139883390D01*
X139761904Y-139883390D02*
X139714285Y-139931009D01*
X139714285Y-139931009D02*
X139619047Y-139978628D01*
X139619047Y-139978628D02*
X139238095Y-139978628D01*
X139166667Y-151954819D02*
X139785714Y-151954819D01*
X139785714Y-151954819D02*
X139452381Y-152335771D01*
X139452381Y-152335771D02*
X139595238Y-152335771D01*
X139595238Y-152335771D02*
X139690476Y-152383390D01*
X139690476Y-152383390D02*
X139738095Y-152431009D01*
X139738095Y-152431009D02*
X139785714Y-152526247D01*
X139785714Y-152526247D02*
X139785714Y-152764342D01*
X139785714Y-152764342D02*
X139738095Y-152859580D01*
X139738095Y-152859580D02*
X139690476Y-152907200D01*
X139690476Y-152907200D02*
X139595238Y-152954819D01*
X139595238Y-152954819D02*
X139309524Y-152954819D01*
X139309524Y-152954819D02*
X139214286Y-152907200D01*
X139214286Y-152907200D02*
X139166667Y-152859580D01*
X86228571Y-93862295D02*
X85771428Y-93862295D01*
X86000000Y-93862295D02*
X86000000Y-93062295D01*
X86000000Y-93062295D02*
X85923809Y-93176580D01*
X85923809Y-93176580D02*
X85847619Y-93252771D01*
X85847619Y-93252771D02*
X85771428Y-93290866D01*
X99738095Y-96454819D02*
X99738095Y-95454819D01*
X99738095Y-95454819D02*
X100119047Y-95454819D01*
X100119047Y-95454819D02*
X100214285Y-95502438D01*
X100214285Y-95502438D02*
X100261904Y-95550057D01*
X100261904Y-95550057D02*
X100309523Y-95645295D01*
X100309523Y-95645295D02*
X100309523Y-95788152D01*
X100309523Y-95788152D02*
X100261904Y-95883390D01*
X100261904Y-95883390D02*
X100214285Y-95931009D01*
X100214285Y-95931009D02*
X100119047Y-95978628D01*
X100119047Y-95978628D02*
X99738095Y-95978628D01*
X86771428Y-97138485D02*
X86809524Y-97100390D01*
X86809524Y-97100390D02*
X86885714Y-97062295D01*
X86885714Y-97062295D02*
X87076190Y-97062295D01*
X87076190Y-97062295D02*
X87152381Y-97100390D01*
X87152381Y-97100390D02*
X87190476Y-97138485D01*
X87190476Y-97138485D02*
X87228571Y-97214676D01*
X87228571Y-97214676D02*
X87228571Y-97290866D01*
X87228571Y-97290866D02*
X87190476Y-97405152D01*
X87190476Y-97405152D02*
X86733333Y-97862295D01*
X86733333Y-97862295D02*
X87228571Y-97862295D01*
X92428572Y-94286104D02*
X92390476Y-94324200D01*
X92390476Y-94324200D02*
X92276191Y-94362295D01*
X92276191Y-94362295D02*
X92200000Y-94362295D01*
X92200000Y-94362295D02*
X92085714Y-94324200D01*
X92085714Y-94324200D02*
X92009524Y-94248009D01*
X92009524Y-94248009D02*
X91971429Y-94171819D01*
X91971429Y-94171819D02*
X91933333Y-94019438D01*
X91933333Y-94019438D02*
X91933333Y-93905152D01*
X91933333Y-93905152D02*
X91971429Y-93752771D01*
X91971429Y-93752771D02*
X92009524Y-93676580D01*
X92009524Y-93676580D02*
X92085714Y-93600390D01*
X92085714Y-93600390D02*
X92200000Y-93562295D01*
X92200000Y-93562295D02*
X92276191Y-93562295D01*
X92276191Y-93562295D02*
X92390476Y-93600390D01*
X92390476Y-93600390D02*
X92428572Y-93638485D01*
X92771429Y-94362295D02*
X92771429Y-93562295D01*
X92771429Y-93943247D02*
X93228572Y-93943247D01*
X93228572Y-94362295D02*
X93228572Y-93562295D01*
X94028571Y-93600390D02*
X93952381Y-93562295D01*
X93952381Y-93562295D02*
X93838095Y-93562295D01*
X93838095Y-93562295D02*
X93723809Y-93600390D01*
X93723809Y-93600390D02*
X93647619Y-93676580D01*
X93647619Y-93676580D02*
X93609524Y-93752771D01*
X93609524Y-93752771D02*
X93571428Y-93905152D01*
X93571428Y-93905152D02*
X93571428Y-94019438D01*
X93571428Y-94019438D02*
X93609524Y-94171819D01*
X93609524Y-94171819D02*
X93647619Y-94248009D01*
X93647619Y-94248009D02*
X93723809Y-94324200D01*
X93723809Y-94324200D02*
X93838095Y-94362295D01*
X93838095Y-94362295D02*
X93914286Y-94362295D01*
X93914286Y-94362295D02*
X94028571Y-94324200D01*
X94028571Y-94324200D02*
X94066667Y-94286104D01*
X94066667Y-94286104D02*
X94066667Y-94019438D01*
X94066667Y-94019438D02*
X93914286Y-94019438D01*
X97761905Y-106454819D02*
X97761905Y-105454819D01*
X97761905Y-105454819D02*
X98000000Y-105454819D01*
X98000000Y-105454819D02*
X98142857Y-105502438D01*
X98142857Y-105502438D02*
X98238095Y-105597676D01*
X98238095Y-105597676D02*
X98285714Y-105692914D01*
X98285714Y-105692914D02*
X98333333Y-105883390D01*
X98333333Y-105883390D02*
X98333333Y-106026247D01*
X98333333Y-106026247D02*
X98285714Y-106216723D01*
X98285714Y-106216723D02*
X98238095Y-106311961D01*
X98238095Y-106311961D02*
X98142857Y-106407200D01*
X98142857Y-106407200D02*
X98000000Y-106454819D01*
X98000000Y-106454819D02*
X97761905Y-106454819D01*
X99285714Y-106454819D02*
X98714286Y-106454819D01*
X99000000Y-106454819D02*
X99000000Y-105454819D01*
X99000000Y-105454819D02*
X98904762Y-105597676D01*
X98904762Y-105597676D02*
X98809524Y-105692914D01*
X98809524Y-105692914D02*
X98714286Y-105740533D01*
X160754819Y-77238094D02*
X159754819Y-77238094D01*
X159754819Y-77238094D02*
X159754819Y-76857142D01*
X159754819Y-76857142D02*
X159802438Y-76761904D01*
X159802438Y-76761904D02*
X159850057Y-76714285D01*
X159850057Y-76714285D02*
X159945295Y-76666666D01*
X159945295Y-76666666D02*
X160088152Y-76666666D01*
X160088152Y-76666666D02*
X160183390Y-76714285D01*
X160183390Y-76714285D02*
X160231009Y-76761904D01*
X160231009Y-76761904D02*
X160278628Y-76857142D01*
X160278628Y-76857142D02*
X160278628Y-77238094D01*
X159754819Y-75761904D02*
X159754819Y-76238094D01*
X159754819Y-76238094D02*
X160231009Y-76285713D01*
X160231009Y-76285713D02*
X160183390Y-76238094D01*
X160183390Y-76238094D02*
X160135771Y-76142856D01*
X160135771Y-76142856D02*
X160135771Y-75904761D01*
X160135771Y-75904761D02*
X160183390Y-75809523D01*
X160183390Y-75809523D02*
X160231009Y-75761904D01*
X160231009Y-75761904D02*
X160326247Y-75714285D01*
X160326247Y-75714285D02*
X160564342Y-75714285D01*
X160564342Y-75714285D02*
X160659580Y-75761904D01*
X160659580Y-75761904D02*
X160707200Y-75809523D01*
X160707200Y-75809523D02*
X160754819Y-75904761D01*
X160754819Y-75904761D02*
X160754819Y-76142856D01*
X160754819Y-76142856D02*
X160707200Y-76238094D01*
X160707200Y-76238094D02*
X160659580Y-76285713D01*
X98454819Y-91738094D02*
X97454819Y-91738094D01*
X97454819Y-91738094D02*
X97454819Y-91357142D01*
X97454819Y-91357142D02*
X97502438Y-91261904D01*
X97502438Y-91261904D02*
X97550057Y-91214285D01*
X97550057Y-91214285D02*
X97645295Y-91166666D01*
X97645295Y-91166666D02*
X97788152Y-91166666D01*
X97788152Y-91166666D02*
X97883390Y-91214285D01*
X97883390Y-91214285D02*
X97931009Y-91261904D01*
X97931009Y-91261904D02*
X97978628Y-91357142D01*
X97978628Y-91357142D02*
X97978628Y-91738094D01*
X97454819Y-90309523D02*
X97454819Y-90499999D01*
X97454819Y-90499999D02*
X97502438Y-90595237D01*
X97502438Y-90595237D02*
X97550057Y-90642856D01*
X97550057Y-90642856D02*
X97692914Y-90738094D01*
X97692914Y-90738094D02*
X97883390Y-90785713D01*
X97883390Y-90785713D02*
X98264342Y-90785713D01*
X98264342Y-90785713D02*
X98359580Y-90738094D01*
X98359580Y-90738094D02*
X98407200Y-90690475D01*
X98407200Y-90690475D02*
X98454819Y-90595237D01*
X98454819Y-90595237D02*
X98454819Y-90404761D01*
X98454819Y-90404761D02*
X98407200Y-90309523D01*
X98407200Y-90309523D02*
X98359580Y-90261904D01*
X98359580Y-90261904D02*
X98264342Y-90214285D01*
X98264342Y-90214285D02*
X98026247Y-90214285D01*
X98026247Y-90214285D02*
X97931009Y-90261904D01*
X97931009Y-90261904D02*
X97883390Y-90309523D01*
X97883390Y-90309523D02*
X97835771Y-90404761D01*
X97835771Y-90404761D02*
X97835771Y-90595237D01*
X97835771Y-90595237D02*
X97883390Y-90690475D01*
X97883390Y-90690475D02*
X97931009Y-90738094D01*
X97931009Y-90738094D02*
X98026247Y-90785713D01*
X84928571Y-89114700D02*
X86071429Y-89114700D01*
X97928571Y-89114700D02*
X99071429Y-89114700D01*
X98500000Y-89686128D02*
X98500000Y-88543271D01*
X118454819Y-116809523D02*
X119169104Y-116809523D01*
X119169104Y-116809523D02*
X119311961Y-116857142D01*
X119311961Y-116857142D02*
X119407200Y-116952380D01*
X119407200Y-116952380D02*
X119454819Y-117095237D01*
X119454819Y-117095237D02*
X119454819Y-117190475D01*
X119454819Y-115809523D02*
X119454819Y-116380951D01*
X119454819Y-116095237D02*
X118454819Y-116095237D01*
X118454819Y-116095237D02*
X118597676Y-116190475D01*
X118597676Y-116190475D02*
X118692914Y-116285713D01*
X118692914Y-116285713D02*
X118740533Y-116380951D01*
X119454819Y-114857142D02*
X119454819Y-115428570D01*
X119454819Y-115142856D02*
X118454819Y-115142856D01*
X118454819Y-115142856D02*
X118597676Y-115238094D01*
X118597676Y-115238094D02*
X118692914Y-115333332D01*
X118692914Y-115333332D02*
X118740533Y-115428570D01*
X111454819Y-125333333D02*
X112169104Y-125333333D01*
X112169104Y-125333333D02*
X112311961Y-125380952D01*
X112311961Y-125380952D02*
X112407200Y-125476190D01*
X112407200Y-125476190D02*
X112454819Y-125619047D01*
X112454819Y-125619047D02*
X112454819Y-125714285D01*
X111454819Y-124952380D02*
X111454819Y-124285714D01*
X111454819Y-124285714D02*
X112454819Y-124714285D01*
X126285714Y-123454819D02*
X126285714Y-122454819D01*
X126285714Y-122454819D02*
X126523809Y-122454819D01*
X126523809Y-122454819D02*
X126666666Y-122502438D01*
X126666666Y-122502438D02*
X126761904Y-122597676D01*
X126761904Y-122597676D02*
X126809523Y-122692914D01*
X126809523Y-122692914D02*
X126857142Y-122883390D01*
X126857142Y-122883390D02*
X126857142Y-123026247D01*
X126857142Y-123026247D02*
X126809523Y-123216723D01*
X126809523Y-123216723D02*
X126761904Y-123311961D01*
X126761904Y-123311961D02*
X126666666Y-123407200D01*
X126666666Y-123407200D02*
X126523809Y-123454819D01*
X126523809Y-123454819D02*
X126285714Y-123454819D01*
X127809523Y-123454819D02*
X127238095Y-123454819D01*
X127523809Y-123454819D02*
X127523809Y-122454819D01*
X127523809Y-122454819D02*
X127428571Y-122597676D01*
X127428571Y-122597676D02*
X127333333Y-122692914D01*
X127333333Y-122692914D02*
X127238095Y-122740533D01*
X128380952Y-122883390D02*
X128285714Y-122835771D01*
X128285714Y-122835771D02*
X128238095Y-122788152D01*
X128238095Y-122788152D02*
X128190476Y-122692914D01*
X128190476Y-122692914D02*
X128190476Y-122645295D01*
X128190476Y-122645295D02*
X128238095Y-122550057D01*
X128238095Y-122550057D02*
X128285714Y-122502438D01*
X128285714Y-122502438D02*
X128380952Y-122454819D01*
X128380952Y-122454819D02*
X128571428Y-122454819D01*
X128571428Y-122454819D02*
X128666666Y-122502438D01*
X128666666Y-122502438D02*
X128714285Y-122550057D01*
X128714285Y-122550057D02*
X128761904Y-122645295D01*
X128761904Y-122645295D02*
X128761904Y-122692914D01*
X128761904Y-122692914D02*
X128714285Y-122788152D01*
X128714285Y-122788152D02*
X128666666Y-122835771D01*
X128666666Y-122835771D02*
X128571428Y-122883390D01*
X128571428Y-122883390D02*
X128380952Y-122883390D01*
X128380952Y-122883390D02*
X128285714Y-122931009D01*
X128285714Y-122931009D02*
X128238095Y-122978628D01*
X128238095Y-122978628D02*
X128190476Y-123073866D01*
X128190476Y-123073866D02*
X128190476Y-123264342D01*
X128190476Y-123264342D02*
X128238095Y-123359580D01*
X128238095Y-123359580D02*
X128285714Y-123407200D01*
X128285714Y-123407200D02*
X128380952Y-123454819D01*
X128380952Y-123454819D02*
X128571428Y-123454819D01*
X128571428Y-123454819D02*
X128666666Y-123407200D01*
X128666666Y-123407200D02*
X128714285Y-123359580D01*
X128714285Y-123359580D02*
X128761904Y-123264342D01*
X128761904Y-123264342D02*
X128761904Y-123073866D01*
X128761904Y-123073866D02*
X128714285Y-122978628D01*
X128714285Y-122978628D02*
X128666666Y-122931009D01*
X128666666Y-122931009D02*
X128571428Y-122883390D01*
X119333333Y-133545180D02*
X119333333Y-132830895D01*
X119333333Y-132830895D02*
X119380952Y-132688038D01*
X119380952Y-132688038D02*
X119476190Y-132592800D01*
X119476190Y-132592800D02*
X119619047Y-132545180D01*
X119619047Y-132545180D02*
X119714285Y-132545180D01*
X118428571Y-133211847D02*
X118428571Y-132545180D01*
X118666666Y-133592800D02*
X118904761Y-132878514D01*
X118904761Y-132878514D02*
X118285714Y-132878514D01*
X126285714Y-125454819D02*
X126285714Y-124454819D01*
X126285714Y-124454819D02*
X126523809Y-124454819D01*
X126523809Y-124454819D02*
X126666666Y-124502438D01*
X126666666Y-124502438D02*
X126761904Y-124597676D01*
X126761904Y-124597676D02*
X126809523Y-124692914D01*
X126809523Y-124692914D02*
X126857142Y-124883390D01*
X126857142Y-124883390D02*
X126857142Y-125026247D01*
X126857142Y-125026247D02*
X126809523Y-125216723D01*
X126809523Y-125216723D02*
X126761904Y-125311961D01*
X126761904Y-125311961D02*
X126666666Y-125407200D01*
X126666666Y-125407200D02*
X126523809Y-125454819D01*
X126523809Y-125454819D02*
X126285714Y-125454819D01*
X127238095Y-124550057D02*
X127285714Y-124502438D01*
X127285714Y-124502438D02*
X127380952Y-124454819D01*
X127380952Y-124454819D02*
X127619047Y-124454819D01*
X127619047Y-124454819D02*
X127714285Y-124502438D01*
X127714285Y-124502438D02*
X127761904Y-124550057D01*
X127761904Y-124550057D02*
X127809523Y-124645295D01*
X127809523Y-124645295D02*
X127809523Y-124740533D01*
X127809523Y-124740533D02*
X127761904Y-124883390D01*
X127761904Y-124883390D02*
X127190476Y-125454819D01*
X127190476Y-125454819D02*
X127809523Y-125454819D01*
X128190476Y-124550057D02*
X128238095Y-124502438D01*
X128238095Y-124502438D02*
X128333333Y-124454819D01*
X128333333Y-124454819D02*
X128571428Y-124454819D01*
X128571428Y-124454819D02*
X128666666Y-124502438D01*
X128666666Y-124502438D02*
X128714285Y-124550057D01*
X128714285Y-124550057D02*
X128761904Y-124645295D01*
X128761904Y-124645295D02*
X128761904Y-124740533D01*
X128761904Y-124740533D02*
X128714285Y-124883390D01*
X128714285Y-124883390D02*
X128142857Y-125454819D01*
X128142857Y-125454819D02*
X128761904Y-125454819D01*
X96785714Y-96704819D02*
X96785714Y-95704819D01*
X96785714Y-95704819D02*
X97023809Y-95704819D01*
X97023809Y-95704819D02*
X97166666Y-95752438D01*
X97166666Y-95752438D02*
X97261904Y-95847676D01*
X97261904Y-95847676D02*
X97309523Y-95942914D01*
X97309523Y-95942914D02*
X97357142Y-96133390D01*
X97357142Y-96133390D02*
X97357142Y-96276247D01*
X97357142Y-96276247D02*
X97309523Y-96466723D01*
X97309523Y-96466723D02*
X97261904Y-96561961D01*
X97261904Y-96561961D02*
X97166666Y-96657200D01*
X97166666Y-96657200D02*
X97023809Y-96704819D01*
X97023809Y-96704819D02*
X96785714Y-96704819D01*
X97738095Y-95800057D02*
X97785714Y-95752438D01*
X97785714Y-95752438D02*
X97880952Y-95704819D01*
X97880952Y-95704819D02*
X98119047Y-95704819D01*
X98119047Y-95704819D02*
X98214285Y-95752438D01*
X98214285Y-95752438D02*
X98261904Y-95800057D01*
X98261904Y-95800057D02*
X98309523Y-95895295D01*
X98309523Y-95895295D02*
X98309523Y-95990533D01*
X98309523Y-95990533D02*
X98261904Y-96133390D01*
X98261904Y-96133390D02*
X97690476Y-96704819D01*
X97690476Y-96704819D02*
X98309523Y-96704819D01*
X99214285Y-95704819D02*
X98738095Y-95704819D01*
X98738095Y-95704819D02*
X98690476Y-96181009D01*
X98690476Y-96181009D02*
X98738095Y-96133390D01*
X98738095Y-96133390D02*
X98833333Y-96085771D01*
X98833333Y-96085771D02*
X99071428Y-96085771D01*
X99071428Y-96085771D02*
X99166666Y-96133390D01*
X99166666Y-96133390D02*
X99214285Y-96181009D01*
X99214285Y-96181009D02*
X99261904Y-96276247D01*
X99261904Y-96276247D02*
X99261904Y-96514342D01*
X99261904Y-96514342D02*
X99214285Y-96609580D01*
X99214285Y-96609580D02*
X99166666Y-96657200D01*
X99166666Y-96657200D02*
X99071428Y-96704819D01*
X99071428Y-96704819D02*
X98833333Y-96704819D01*
X98833333Y-96704819D02*
X98738095Y-96657200D01*
X98738095Y-96657200D02*
X98690476Y-96609580D01*
X144431009Y-118833333D02*
X144431009Y-119166666D01*
X144954819Y-119166666D02*
X143954819Y-119166666D01*
X143954819Y-119166666D02*
X143954819Y-118690476D01*
X144288152Y-117880952D02*
X144954819Y-117880952D01*
X143907200Y-118119047D02*
X144621485Y-118357142D01*
X144621485Y-118357142D02*
X144621485Y-117738095D01*
X134666666Y-128931009D02*
X134333333Y-128931009D01*
X134333333Y-129454819D02*
X134333333Y-128454819D01*
X134333333Y-128454819D02*
X134809523Y-128454819D01*
X135142857Y-128550057D02*
X135190476Y-128502438D01*
X135190476Y-128502438D02*
X135285714Y-128454819D01*
X135285714Y-128454819D02*
X135523809Y-128454819D01*
X135523809Y-128454819D02*
X135619047Y-128502438D01*
X135619047Y-128502438D02*
X135666666Y-128550057D01*
X135666666Y-128550057D02*
X135714285Y-128645295D01*
X135714285Y-128645295D02*
X135714285Y-128740533D01*
X135714285Y-128740533D02*
X135666666Y-128883390D01*
X135666666Y-128883390D02*
X135095238Y-129454819D01*
X135095238Y-129454819D02*
X135714285Y-129454819D01*
X96785714Y-94454819D02*
X96785714Y-93454819D01*
X96785714Y-93454819D02*
X97023809Y-93454819D01*
X97023809Y-93454819D02*
X97166666Y-93502438D01*
X97166666Y-93502438D02*
X97261904Y-93597676D01*
X97261904Y-93597676D02*
X97309523Y-93692914D01*
X97309523Y-93692914D02*
X97357142Y-93883390D01*
X97357142Y-93883390D02*
X97357142Y-94026247D01*
X97357142Y-94026247D02*
X97309523Y-94216723D01*
X97309523Y-94216723D02*
X97261904Y-94311961D01*
X97261904Y-94311961D02*
X97166666Y-94407200D01*
X97166666Y-94407200D02*
X97023809Y-94454819D01*
X97023809Y-94454819D02*
X96785714Y-94454819D01*
X97738095Y-93550057D02*
X97785714Y-93502438D01*
X97785714Y-93502438D02*
X97880952Y-93454819D01*
X97880952Y-93454819D02*
X98119047Y-93454819D01*
X98119047Y-93454819D02*
X98214285Y-93502438D01*
X98214285Y-93502438D02*
X98261904Y-93550057D01*
X98261904Y-93550057D02*
X98309523Y-93645295D01*
X98309523Y-93645295D02*
X98309523Y-93740533D01*
X98309523Y-93740533D02*
X98261904Y-93883390D01*
X98261904Y-93883390D02*
X97690476Y-94454819D01*
X97690476Y-94454819D02*
X98309523Y-94454819D01*
X99166666Y-93454819D02*
X98976190Y-93454819D01*
X98976190Y-93454819D02*
X98880952Y-93502438D01*
X98880952Y-93502438D02*
X98833333Y-93550057D01*
X98833333Y-93550057D02*
X98738095Y-93692914D01*
X98738095Y-93692914D02*
X98690476Y-93883390D01*
X98690476Y-93883390D02*
X98690476Y-94264342D01*
X98690476Y-94264342D02*
X98738095Y-94359580D01*
X98738095Y-94359580D02*
X98785714Y-94407200D01*
X98785714Y-94407200D02*
X98880952Y-94454819D01*
X98880952Y-94454819D02*
X99071428Y-94454819D01*
X99071428Y-94454819D02*
X99166666Y-94407200D01*
X99166666Y-94407200D02*
X99214285Y-94359580D01*
X99214285Y-94359580D02*
X99261904Y-94264342D01*
X99261904Y-94264342D02*
X99261904Y-94026247D01*
X99261904Y-94026247D02*
X99214285Y-93931009D01*
X99214285Y-93931009D02*
X99166666Y-93883390D01*
X99166666Y-93883390D02*
X99071428Y-93835771D01*
X99071428Y-93835771D02*
X98880952Y-93835771D01*
X98880952Y-93835771D02*
X98785714Y-93883390D01*
X98785714Y-93883390D02*
X98738095Y-93931009D01*
X98738095Y-93931009D02*
X98690476Y-94026247D01*
X104954819Y-120333333D02*
X105669104Y-120333333D01*
X105669104Y-120333333D02*
X105811961Y-120380952D01*
X105811961Y-120380952D02*
X105907200Y-120476190D01*
X105907200Y-120476190D02*
X105954819Y-120619047D01*
X105954819Y-120619047D02*
X105954819Y-120714285D01*
X105954819Y-119333333D02*
X105954819Y-119904761D01*
X105954819Y-119619047D02*
X104954819Y-119619047D01*
X104954819Y-119619047D02*
X105097676Y-119714285D01*
X105097676Y-119714285D02*
X105192914Y-119809523D01*
X105192914Y-119809523D02*
X105240533Y-119904761D01*
X141431009Y-118833333D02*
X141431009Y-119166666D01*
X141954819Y-119166666D02*
X140954819Y-119166666D01*
X140954819Y-119166666D02*
X140954819Y-118690476D01*
X140954819Y-118404761D02*
X140954819Y-117785714D01*
X140954819Y-117785714D02*
X141335771Y-118119047D01*
X141335771Y-118119047D02*
X141335771Y-117976190D01*
X141335771Y-117976190D02*
X141383390Y-117880952D01*
X141383390Y-117880952D02*
X141431009Y-117833333D01*
X141431009Y-117833333D02*
X141526247Y-117785714D01*
X141526247Y-117785714D02*
X141764342Y-117785714D01*
X141764342Y-117785714D02*
X141859580Y-117833333D01*
X141859580Y-117833333D02*
X141907200Y-117880952D01*
X141907200Y-117880952D02*
X141954819Y-117976190D01*
X141954819Y-117976190D02*
X141954819Y-118261904D01*
X141954819Y-118261904D02*
X141907200Y-118357142D01*
X141907200Y-118357142D02*
X141859580Y-118404761D01*
X139166666Y-157619819D02*
X139166666Y-158334104D01*
X139166666Y-158334104D02*
X139119047Y-158476961D01*
X139119047Y-158476961D02*
X139023809Y-158572200D01*
X139023809Y-158572200D02*
X138880952Y-158619819D01*
X138880952Y-158619819D02*
X138785714Y-158619819D01*
X139595238Y-157715057D02*
X139642857Y-157667438D01*
X139642857Y-157667438D02*
X139738095Y-157619819D01*
X139738095Y-157619819D02*
X139976190Y-157619819D01*
X139976190Y-157619819D02*
X140071428Y-157667438D01*
X140071428Y-157667438D02*
X140119047Y-157715057D01*
X140119047Y-157715057D02*
X140166666Y-157810295D01*
X140166666Y-157810295D02*
X140166666Y-157905533D01*
X140166666Y-157905533D02*
X140119047Y-158048390D01*
X140119047Y-158048390D02*
X139547619Y-158619819D01*
X139547619Y-158619819D02*
X140166666Y-158619819D01*
X88666667Y-98907200D02*
X88809524Y-98954819D01*
X88809524Y-98954819D02*
X89047619Y-98954819D01*
X89047619Y-98954819D02*
X89142857Y-98907200D01*
X89142857Y-98907200D02*
X89190476Y-98859580D01*
X89190476Y-98859580D02*
X89238095Y-98764342D01*
X89238095Y-98764342D02*
X89238095Y-98669104D01*
X89238095Y-98669104D02*
X89190476Y-98573866D01*
X89190476Y-98573866D02*
X89142857Y-98526247D01*
X89142857Y-98526247D02*
X89047619Y-98478628D01*
X89047619Y-98478628D02*
X88857143Y-98431009D01*
X88857143Y-98431009D02*
X88761905Y-98383390D01*
X88761905Y-98383390D02*
X88714286Y-98335771D01*
X88714286Y-98335771D02*
X88666667Y-98240533D01*
X88666667Y-98240533D02*
X88666667Y-98145295D01*
X88666667Y-98145295D02*
X88714286Y-98050057D01*
X88714286Y-98050057D02*
X88761905Y-98002438D01*
X88761905Y-98002438D02*
X88857143Y-97954819D01*
X88857143Y-97954819D02*
X89095238Y-97954819D01*
X89095238Y-97954819D02*
X89238095Y-98002438D01*
X89571429Y-97954819D02*
X89809524Y-98954819D01*
X89809524Y-98954819D02*
X90000000Y-98240533D01*
X90000000Y-98240533D02*
X90190476Y-98954819D01*
X90190476Y-98954819D02*
X90428572Y-97954819D01*
X90714286Y-97954819D02*
X91333333Y-97954819D01*
X91333333Y-97954819D02*
X91000000Y-98335771D01*
X91000000Y-98335771D02*
X91142857Y-98335771D01*
X91142857Y-98335771D02*
X91238095Y-98383390D01*
X91238095Y-98383390D02*
X91285714Y-98431009D01*
X91285714Y-98431009D02*
X91333333Y-98526247D01*
X91333333Y-98526247D02*
X91333333Y-98764342D01*
X91333333Y-98764342D02*
X91285714Y-98859580D01*
X91285714Y-98859580D02*
X91238095Y-98907200D01*
X91238095Y-98907200D02*
X91142857Y-98954819D01*
X91142857Y-98954819D02*
X90857143Y-98954819D01*
X90857143Y-98954819D02*
X90761905Y-98907200D01*
X90761905Y-98907200D02*
X90714286Y-98859580D01*
X158954819Y-69714285D02*
X157954819Y-69714285D01*
X157954819Y-69714285D02*
X157954819Y-69476190D01*
X157954819Y-69476190D02*
X158002438Y-69333333D01*
X158002438Y-69333333D02*
X158097676Y-69238095D01*
X158097676Y-69238095D02*
X158192914Y-69190476D01*
X158192914Y-69190476D02*
X158383390Y-69142857D01*
X158383390Y-69142857D02*
X158526247Y-69142857D01*
X158526247Y-69142857D02*
X158716723Y-69190476D01*
X158716723Y-69190476D02*
X158811961Y-69238095D01*
X158811961Y-69238095D02*
X158907200Y-69333333D01*
X158907200Y-69333333D02*
X158954819Y-69476190D01*
X158954819Y-69476190D02*
X158954819Y-69714285D01*
X158050057Y-68761904D02*
X158002438Y-68714285D01*
X158002438Y-68714285D02*
X157954819Y-68619047D01*
X157954819Y-68619047D02*
X157954819Y-68380952D01*
X157954819Y-68380952D02*
X158002438Y-68285714D01*
X158002438Y-68285714D02*
X158050057Y-68238095D01*
X158050057Y-68238095D02*
X158145295Y-68190476D01*
X158145295Y-68190476D02*
X158240533Y-68190476D01*
X158240533Y-68190476D02*
X158383390Y-68238095D01*
X158383390Y-68238095D02*
X158954819Y-68809523D01*
X158954819Y-68809523D02*
X158954819Y-68190476D01*
X158954819Y-67238095D02*
X158954819Y-67809523D01*
X158954819Y-67523809D02*
X157954819Y-67523809D01*
X157954819Y-67523809D02*
X158097676Y-67619047D01*
X158097676Y-67619047D02*
X158192914Y-67714285D01*
X158192914Y-67714285D02*
X158240533Y-67809523D01*
X97761905Y-100454819D02*
X97761905Y-99454819D01*
X97761905Y-99454819D02*
X98000000Y-99454819D01*
X98000000Y-99454819D02*
X98142857Y-99502438D01*
X98142857Y-99502438D02*
X98238095Y-99597676D01*
X98238095Y-99597676D02*
X98285714Y-99692914D01*
X98285714Y-99692914D02*
X98333333Y-99883390D01*
X98333333Y-99883390D02*
X98333333Y-100026247D01*
X98333333Y-100026247D02*
X98285714Y-100216723D01*
X98285714Y-100216723D02*
X98238095Y-100311961D01*
X98238095Y-100311961D02*
X98142857Y-100407200D01*
X98142857Y-100407200D02*
X98000000Y-100454819D01*
X98000000Y-100454819D02*
X97761905Y-100454819D01*
X99190476Y-99788152D02*
X99190476Y-100454819D01*
X98952381Y-99407200D02*
X98714286Y-100121485D01*
X98714286Y-100121485D02*
X99333333Y-100121485D01*
X97761905Y-104454819D02*
X97761905Y-103454819D01*
X97761905Y-103454819D02*
X98000000Y-103454819D01*
X98000000Y-103454819D02*
X98142857Y-103502438D01*
X98142857Y-103502438D02*
X98238095Y-103597676D01*
X98238095Y-103597676D02*
X98285714Y-103692914D01*
X98285714Y-103692914D02*
X98333333Y-103883390D01*
X98333333Y-103883390D02*
X98333333Y-104026247D01*
X98333333Y-104026247D02*
X98285714Y-104216723D01*
X98285714Y-104216723D02*
X98238095Y-104311961D01*
X98238095Y-104311961D02*
X98142857Y-104407200D01*
X98142857Y-104407200D02*
X98000000Y-104454819D01*
X98000000Y-104454819D02*
X97761905Y-104454819D01*
X98714286Y-103550057D02*
X98761905Y-103502438D01*
X98761905Y-103502438D02*
X98857143Y-103454819D01*
X98857143Y-103454819D02*
X99095238Y-103454819D01*
X99095238Y-103454819D02*
X99190476Y-103502438D01*
X99190476Y-103502438D02*
X99238095Y-103550057D01*
X99238095Y-103550057D02*
X99285714Y-103645295D01*
X99285714Y-103645295D02*
X99285714Y-103740533D01*
X99285714Y-103740533D02*
X99238095Y-103883390D01*
X99238095Y-103883390D02*
X98666667Y-104454819D01*
X98666667Y-104454819D02*
X99285714Y-104454819D01*
X143068990Y-130666666D02*
X143068990Y-130333333D01*
X142545180Y-130333333D02*
X143545180Y-130333333D01*
X143545180Y-130333333D02*
X143545180Y-130809523D01*
X142545180Y-131714285D02*
X142545180Y-131142857D01*
X142545180Y-131428571D02*
X143545180Y-131428571D01*
X143545180Y-131428571D02*
X143402323Y-131333333D01*
X143402323Y-131333333D02*
X143307085Y-131238095D01*
X143307085Y-131238095D02*
X143259466Y-131142857D01*
X80854819Y-77238094D02*
X79854819Y-77238094D01*
X79854819Y-77238094D02*
X79854819Y-76857142D01*
X79854819Y-76857142D02*
X79902438Y-76761904D01*
X79902438Y-76761904D02*
X79950057Y-76714285D01*
X79950057Y-76714285D02*
X80045295Y-76666666D01*
X80045295Y-76666666D02*
X80188152Y-76666666D01*
X80188152Y-76666666D02*
X80283390Y-76714285D01*
X80283390Y-76714285D02*
X80331009Y-76761904D01*
X80331009Y-76761904D02*
X80378628Y-76857142D01*
X80378628Y-76857142D02*
X80378628Y-77238094D01*
X80188152Y-75809523D02*
X80854819Y-75809523D01*
X79807200Y-76047618D02*
X80521485Y-76285713D01*
X80521485Y-76285713D02*
X80521485Y-75666666D01*
X118666666Y-125954819D02*
X118666666Y-126669104D01*
X118666666Y-126669104D02*
X118619047Y-126811961D01*
X118619047Y-126811961D02*
X118523809Y-126907200D01*
X118523809Y-126907200D02*
X118380952Y-126954819D01*
X118380952Y-126954819D02*
X118285714Y-126954819D01*
X119047619Y-125954819D02*
X119666666Y-125954819D01*
X119666666Y-125954819D02*
X119333333Y-126335771D01*
X119333333Y-126335771D02*
X119476190Y-126335771D01*
X119476190Y-126335771D02*
X119571428Y-126383390D01*
X119571428Y-126383390D02*
X119619047Y-126431009D01*
X119619047Y-126431009D02*
X119666666Y-126526247D01*
X119666666Y-126526247D02*
X119666666Y-126764342D01*
X119666666Y-126764342D02*
X119619047Y-126859580D01*
X119619047Y-126859580D02*
X119571428Y-126907200D01*
X119571428Y-126907200D02*
X119476190Y-126954819D01*
X119476190Y-126954819D02*
X119190476Y-126954819D01*
X119190476Y-126954819D02*
X119095238Y-126907200D01*
X119095238Y-126907200D02*
X119047619Y-126859580D01*
X97761905Y-102454819D02*
X97761905Y-101454819D01*
X97761905Y-101454819D02*
X98000000Y-101454819D01*
X98000000Y-101454819D02*
X98142857Y-101502438D01*
X98142857Y-101502438D02*
X98238095Y-101597676D01*
X98238095Y-101597676D02*
X98285714Y-101692914D01*
X98285714Y-101692914D02*
X98333333Y-101883390D01*
X98333333Y-101883390D02*
X98333333Y-102026247D01*
X98333333Y-102026247D02*
X98285714Y-102216723D01*
X98285714Y-102216723D02*
X98238095Y-102311961D01*
X98238095Y-102311961D02*
X98142857Y-102407200D01*
X98142857Y-102407200D02*
X98000000Y-102454819D01*
X98000000Y-102454819D02*
X97761905Y-102454819D01*
X98666667Y-101454819D02*
X99285714Y-101454819D01*
X99285714Y-101454819D02*
X98952381Y-101835771D01*
X98952381Y-101835771D02*
X99095238Y-101835771D01*
X99095238Y-101835771D02*
X99190476Y-101883390D01*
X99190476Y-101883390D02*
X99238095Y-101931009D01*
X99238095Y-101931009D02*
X99285714Y-102026247D01*
X99285714Y-102026247D02*
X99285714Y-102264342D01*
X99285714Y-102264342D02*
X99238095Y-102359580D01*
X99238095Y-102359580D02*
X99190476Y-102407200D01*
X99190476Y-102407200D02*
X99095238Y-102454819D01*
X99095238Y-102454819D02*
X98809524Y-102454819D01*
X98809524Y-102454819D02*
X98714286Y-102407200D01*
X98714286Y-102407200D02*
X98666667Y-102359580D01*
X91954819Y-69714285D02*
X90954819Y-69714285D01*
X90954819Y-69714285D02*
X90954819Y-69476190D01*
X90954819Y-69476190D02*
X91002438Y-69333333D01*
X91002438Y-69333333D02*
X91097676Y-69238095D01*
X91097676Y-69238095D02*
X91192914Y-69190476D01*
X91192914Y-69190476D02*
X91383390Y-69142857D01*
X91383390Y-69142857D02*
X91526247Y-69142857D01*
X91526247Y-69142857D02*
X91716723Y-69190476D01*
X91716723Y-69190476D02*
X91811961Y-69238095D01*
X91811961Y-69238095D02*
X91907200Y-69333333D01*
X91907200Y-69333333D02*
X91954819Y-69476190D01*
X91954819Y-69476190D02*
X91954819Y-69714285D01*
X91050057Y-68761904D02*
X91002438Y-68714285D01*
X91002438Y-68714285D02*
X90954819Y-68619047D01*
X90954819Y-68619047D02*
X90954819Y-68380952D01*
X90954819Y-68380952D02*
X91002438Y-68285714D01*
X91002438Y-68285714D02*
X91050057Y-68238095D01*
X91050057Y-68238095D02*
X91145295Y-68190476D01*
X91145295Y-68190476D02*
X91240533Y-68190476D01*
X91240533Y-68190476D02*
X91383390Y-68238095D01*
X91383390Y-68238095D02*
X91954819Y-68809523D01*
X91954819Y-68809523D02*
X91954819Y-68190476D01*
X90954819Y-67571428D02*
X90954819Y-67476190D01*
X90954819Y-67476190D02*
X91002438Y-67380952D01*
X91002438Y-67380952D02*
X91050057Y-67333333D01*
X91050057Y-67333333D02*
X91145295Y-67285714D01*
X91145295Y-67285714D02*
X91335771Y-67238095D01*
X91335771Y-67238095D02*
X91573866Y-67238095D01*
X91573866Y-67238095D02*
X91764342Y-67285714D01*
X91764342Y-67285714D02*
X91859580Y-67333333D01*
X91859580Y-67333333D02*
X91907200Y-67380952D01*
X91907200Y-67380952D02*
X91954819Y-67476190D01*
X91954819Y-67476190D02*
X91954819Y-67571428D01*
X91954819Y-67571428D02*
X91907200Y-67666666D01*
X91907200Y-67666666D02*
X91859580Y-67714285D01*
X91859580Y-67714285D02*
X91764342Y-67761904D01*
X91764342Y-67761904D02*
X91573866Y-67809523D01*
X91573866Y-67809523D02*
X91335771Y-67809523D01*
X91335771Y-67809523D02*
X91145295Y-67761904D01*
X91145295Y-67761904D02*
X91050057Y-67714285D01*
X91050057Y-67714285D02*
X91002438Y-67666666D01*
X91002438Y-67666666D02*
X90954819Y-67571428D01*
X152761905Y-92954819D02*
X152761905Y-91954819D01*
X152761905Y-91954819D02*
X153142857Y-91954819D01*
X153142857Y-91954819D02*
X153238095Y-92002438D01*
X153238095Y-92002438D02*
X153285714Y-92050057D01*
X153285714Y-92050057D02*
X153333333Y-92145295D01*
X153333333Y-92145295D02*
X153333333Y-92288152D01*
X153333333Y-92288152D02*
X153285714Y-92383390D01*
X153285714Y-92383390D02*
X153238095Y-92431009D01*
X153238095Y-92431009D02*
X153142857Y-92478628D01*
X153142857Y-92478628D02*
X152761905Y-92478628D01*
X153666667Y-91954819D02*
X154333333Y-91954819D01*
X154333333Y-91954819D02*
X153904762Y-92954819D01*
X150928571Y-89114700D02*
X152071429Y-89114700D01*
X151500000Y-89686128D02*
X151500000Y-88543271D01*
X163928571Y-89114700D02*
X165071429Y-89114700D01*
X97761905Y-98454819D02*
X97761905Y-97454819D01*
X97761905Y-97454819D02*
X98000000Y-97454819D01*
X98000000Y-97454819D02*
X98142857Y-97502438D01*
X98142857Y-97502438D02*
X98238095Y-97597676D01*
X98238095Y-97597676D02*
X98285714Y-97692914D01*
X98285714Y-97692914D02*
X98333333Y-97883390D01*
X98333333Y-97883390D02*
X98333333Y-98026247D01*
X98333333Y-98026247D02*
X98285714Y-98216723D01*
X98285714Y-98216723D02*
X98238095Y-98311961D01*
X98238095Y-98311961D02*
X98142857Y-98407200D01*
X98142857Y-98407200D02*
X98000000Y-98454819D01*
X98000000Y-98454819D02*
X97761905Y-98454819D01*
X99238095Y-97454819D02*
X98761905Y-97454819D01*
X98761905Y-97454819D02*
X98714286Y-97931009D01*
X98714286Y-97931009D02*
X98761905Y-97883390D01*
X98761905Y-97883390D02*
X98857143Y-97835771D01*
X98857143Y-97835771D02*
X99095238Y-97835771D01*
X99095238Y-97835771D02*
X99190476Y-97883390D01*
X99190476Y-97883390D02*
X99238095Y-97931009D01*
X99238095Y-97931009D02*
X99285714Y-98026247D01*
X99285714Y-98026247D02*
X99285714Y-98264342D01*
X99285714Y-98264342D02*
X99238095Y-98359580D01*
X99238095Y-98359580D02*
X99190476Y-98407200D01*
X99190476Y-98407200D02*
X99095238Y-98454819D01*
X99095238Y-98454819D02*
X98857143Y-98454819D01*
X98857143Y-98454819D02*
X98761905Y-98407200D01*
X98761905Y-98407200D02*
X98714286Y-98359580D01*
X142166666Y-136406819D02*
X142166666Y-137121104D01*
X142166666Y-137121104D02*
X142119047Y-137263961D01*
X142119047Y-137263961D02*
X142023809Y-137359200D01*
X142023809Y-137359200D02*
X141880952Y-137406819D01*
X141880952Y-137406819D02*
X141785714Y-137406819D01*
X143119047Y-136406819D02*
X142642857Y-136406819D01*
X142642857Y-136406819D02*
X142595238Y-136883009D01*
X142595238Y-136883009D02*
X142642857Y-136835390D01*
X142642857Y-136835390D02*
X142738095Y-136787771D01*
X142738095Y-136787771D02*
X142976190Y-136787771D01*
X142976190Y-136787771D02*
X143071428Y-136835390D01*
X143071428Y-136835390D02*
X143119047Y-136883009D01*
X143119047Y-136883009D02*
X143166666Y-136978247D01*
X143166666Y-136978247D02*
X143166666Y-137216342D01*
X143166666Y-137216342D02*
X143119047Y-137311580D01*
X143119047Y-137311580D02*
X143071428Y-137359200D01*
X143071428Y-137359200D02*
X142976190Y-137406819D01*
X142976190Y-137406819D02*
X142738095Y-137406819D01*
X142738095Y-137406819D02*
X142642857Y-137359200D01*
X142642857Y-137359200D02*
X142595238Y-137311580D01*
X159166667Y-93907200D02*
X159309524Y-93954819D01*
X159309524Y-93954819D02*
X159547619Y-93954819D01*
X159547619Y-93954819D02*
X159642857Y-93907200D01*
X159642857Y-93907200D02*
X159690476Y-93859580D01*
X159690476Y-93859580D02*
X159738095Y-93764342D01*
X159738095Y-93764342D02*
X159738095Y-93669104D01*
X159738095Y-93669104D02*
X159690476Y-93573866D01*
X159690476Y-93573866D02*
X159642857Y-93526247D01*
X159642857Y-93526247D02*
X159547619Y-93478628D01*
X159547619Y-93478628D02*
X159357143Y-93431009D01*
X159357143Y-93431009D02*
X159261905Y-93383390D01*
X159261905Y-93383390D02*
X159214286Y-93335771D01*
X159214286Y-93335771D02*
X159166667Y-93240533D01*
X159166667Y-93240533D02*
X159166667Y-93145295D01*
X159166667Y-93145295D02*
X159214286Y-93050057D01*
X159214286Y-93050057D02*
X159261905Y-93002438D01*
X159261905Y-93002438D02*
X159357143Y-92954819D01*
X159357143Y-92954819D02*
X159595238Y-92954819D01*
X159595238Y-92954819D02*
X159738095Y-93002438D01*
X160071429Y-92954819D02*
X160309524Y-93954819D01*
X160309524Y-93954819D02*
X160500000Y-93240533D01*
X160500000Y-93240533D02*
X160690476Y-93954819D01*
X160690476Y-93954819D02*
X160928572Y-92954819D01*
X161738095Y-93288152D02*
X161738095Y-93954819D01*
X161500000Y-92907200D02*
X161261905Y-93621485D01*
X161261905Y-93621485D02*
X161880952Y-93621485D01*
X120954819Y-116809523D02*
X121669104Y-116809523D01*
X121669104Y-116809523D02*
X121811961Y-116857142D01*
X121811961Y-116857142D02*
X121907200Y-116952380D01*
X121907200Y-116952380D02*
X121954819Y-117095237D01*
X121954819Y-117095237D02*
X121954819Y-117190475D01*
X121954819Y-115809523D02*
X121954819Y-116380951D01*
X121954819Y-116095237D02*
X120954819Y-116095237D01*
X120954819Y-116095237D02*
X121097676Y-116190475D01*
X121097676Y-116190475D02*
X121192914Y-116285713D01*
X121192914Y-116285713D02*
X121240533Y-116380951D01*
X120954819Y-115190475D02*
X120954819Y-115095237D01*
X120954819Y-115095237D02*
X121002438Y-114999999D01*
X121002438Y-114999999D02*
X121050057Y-114952380D01*
X121050057Y-114952380D02*
X121145295Y-114904761D01*
X121145295Y-114904761D02*
X121335771Y-114857142D01*
X121335771Y-114857142D02*
X121573866Y-114857142D01*
X121573866Y-114857142D02*
X121764342Y-114904761D01*
X121764342Y-114904761D02*
X121859580Y-114952380D01*
X121859580Y-114952380D02*
X121907200Y-114999999D01*
X121907200Y-114999999D02*
X121954819Y-115095237D01*
X121954819Y-115095237D02*
X121954819Y-115190475D01*
X121954819Y-115190475D02*
X121907200Y-115285713D01*
X121907200Y-115285713D02*
X121859580Y-115333332D01*
X121859580Y-115333332D02*
X121764342Y-115380951D01*
X121764342Y-115380951D02*
X121573866Y-115428570D01*
X121573866Y-115428570D02*
X121335771Y-115428570D01*
X121335771Y-115428570D02*
X121145295Y-115380951D01*
X121145295Y-115380951D02*
X121050057Y-115333332D01*
X121050057Y-115333332D02*
X121002438Y-115285713D01*
X121002438Y-115285713D02*
X120954819Y-115190475D01*
X154954819Y-94738094D02*
X153954819Y-94738094D01*
X153954819Y-94738094D02*
X153954819Y-94357142D01*
X153954819Y-94357142D02*
X154002438Y-94261904D01*
X154002438Y-94261904D02*
X154050057Y-94214285D01*
X154050057Y-94214285D02*
X154145295Y-94166666D01*
X154145295Y-94166666D02*
X154288152Y-94166666D01*
X154288152Y-94166666D02*
X154383390Y-94214285D01*
X154383390Y-94214285D02*
X154431009Y-94261904D01*
X154431009Y-94261904D02*
X154478628Y-94357142D01*
X154478628Y-94357142D02*
X154478628Y-94738094D01*
X154954819Y-93214285D02*
X154954819Y-93785713D01*
X154954819Y-93499999D02*
X153954819Y-93499999D01*
X153954819Y-93499999D02*
X154097676Y-93595237D01*
X154097676Y-93595237D02*
X154192914Y-93690475D01*
X154192914Y-93690475D02*
X154240533Y-93785713D01*
X87666667Y-93907200D02*
X87809524Y-93954819D01*
X87809524Y-93954819D02*
X88047619Y-93954819D01*
X88047619Y-93954819D02*
X88142857Y-93907200D01*
X88142857Y-93907200D02*
X88190476Y-93859580D01*
X88190476Y-93859580D02*
X88238095Y-93764342D01*
X88238095Y-93764342D02*
X88238095Y-93669104D01*
X88238095Y-93669104D02*
X88190476Y-93573866D01*
X88190476Y-93573866D02*
X88142857Y-93526247D01*
X88142857Y-93526247D02*
X88047619Y-93478628D01*
X88047619Y-93478628D02*
X87857143Y-93431009D01*
X87857143Y-93431009D02*
X87761905Y-93383390D01*
X87761905Y-93383390D02*
X87714286Y-93335771D01*
X87714286Y-93335771D02*
X87666667Y-93240533D01*
X87666667Y-93240533D02*
X87666667Y-93145295D01*
X87666667Y-93145295D02*
X87714286Y-93050057D01*
X87714286Y-93050057D02*
X87761905Y-93002438D01*
X87761905Y-93002438D02*
X87857143Y-92954819D01*
X87857143Y-92954819D02*
X88095238Y-92954819D01*
X88095238Y-92954819D02*
X88238095Y-93002438D01*
X88571429Y-92954819D02*
X88809524Y-93954819D01*
X88809524Y-93954819D02*
X89000000Y-93240533D01*
X89000000Y-93240533D02*
X89190476Y-93954819D01*
X89190476Y-93954819D02*
X89428572Y-92954819D01*
X89761905Y-93050057D02*
X89809524Y-93002438D01*
X89809524Y-93002438D02*
X89904762Y-92954819D01*
X89904762Y-92954819D02*
X90142857Y-92954819D01*
X90142857Y-92954819D02*
X90238095Y-93002438D01*
X90238095Y-93002438D02*
X90285714Y-93050057D01*
X90285714Y-93050057D02*
X90333333Y-93145295D01*
X90333333Y-93145295D02*
X90333333Y-93240533D01*
X90333333Y-93240533D02*
X90285714Y-93383390D01*
X90285714Y-93383390D02*
X89714286Y-93954819D01*
X89714286Y-93954819D02*
X90333333Y-93954819D01*
X131406819Y-128833333D02*
X132121104Y-128833333D01*
X132121104Y-128833333D02*
X132263961Y-128880952D01*
X132263961Y-128880952D02*
X132359200Y-128976190D01*
X132359200Y-128976190D02*
X132406819Y-129119047D01*
X132406819Y-129119047D02*
X132406819Y-129214285D01*
X131406819Y-127928571D02*
X131406819Y-128119047D01*
X131406819Y-128119047D02*
X131454438Y-128214285D01*
X131454438Y-128214285D02*
X131502057Y-128261904D01*
X131502057Y-128261904D02*
X131644914Y-128357142D01*
X131644914Y-128357142D02*
X131835390Y-128404761D01*
X131835390Y-128404761D02*
X132216342Y-128404761D01*
X132216342Y-128404761D02*
X132311580Y-128357142D01*
X132311580Y-128357142D02*
X132359200Y-128309523D01*
X132359200Y-128309523D02*
X132406819Y-128214285D01*
X132406819Y-128214285D02*
X132406819Y-128023809D01*
X132406819Y-128023809D02*
X132359200Y-127928571D01*
X132359200Y-127928571D02*
X132311580Y-127880952D01*
X132311580Y-127880952D02*
X132216342Y-127833333D01*
X132216342Y-127833333D02*
X131978247Y-127833333D01*
X131978247Y-127833333D02*
X131883009Y-127880952D01*
X131883009Y-127880952D02*
X131835390Y-127928571D01*
X131835390Y-127928571D02*
X131787771Y-128023809D01*
X131787771Y-128023809D02*
X131787771Y-128214285D01*
X131787771Y-128214285D02*
X131835390Y-128309523D01*
X131835390Y-128309523D02*
X131883009Y-128357142D01*
X131883009Y-128357142D02*
X131978247Y-128404761D01*
X158166667Y-98907200D02*
X158309524Y-98954819D01*
X158309524Y-98954819D02*
X158547619Y-98954819D01*
X158547619Y-98954819D02*
X158642857Y-98907200D01*
X158642857Y-98907200D02*
X158690476Y-98859580D01*
X158690476Y-98859580D02*
X158738095Y-98764342D01*
X158738095Y-98764342D02*
X158738095Y-98669104D01*
X158738095Y-98669104D02*
X158690476Y-98573866D01*
X158690476Y-98573866D02*
X158642857Y-98526247D01*
X158642857Y-98526247D02*
X158547619Y-98478628D01*
X158547619Y-98478628D02*
X158357143Y-98431009D01*
X158357143Y-98431009D02*
X158261905Y-98383390D01*
X158261905Y-98383390D02*
X158214286Y-98335771D01*
X158214286Y-98335771D02*
X158166667Y-98240533D01*
X158166667Y-98240533D02*
X158166667Y-98145295D01*
X158166667Y-98145295D02*
X158214286Y-98050057D01*
X158214286Y-98050057D02*
X158261905Y-98002438D01*
X158261905Y-98002438D02*
X158357143Y-97954819D01*
X158357143Y-97954819D02*
X158595238Y-97954819D01*
X158595238Y-97954819D02*
X158738095Y-98002438D01*
X159071429Y-97954819D02*
X159309524Y-98954819D01*
X159309524Y-98954819D02*
X159500000Y-98240533D01*
X159500000Y-98240533D02*
X159690476Y-98954819D01*
X159690476Y-98954819D02*
X159928572Y-97954819D01*
X160833333Y-98954819D02*
X160261905Y-98954819D01*
X160547619Y-98954819D02*
X160547619Y-97954819D01*
X160547619Y-97954819D02*
X160452381Y-98097676D01*
X160452381Y-98097676D02*
X160357143Y-98192914D01*
X160357143Y-98192914D02*
X160261905Y-98240533D01*
D12*
%TO.C,D1*%
X94700000Y-106735000D02*
X96985000Y-106735000D01*
X96985000Y-105265000D02*
X94700000Y-105265000D01*
X96985000Y-106735000D02*
X96985000Y-105265000D01*
%TO.C,P5*%
X161390000Y-72060000D02*
X161390000Y-73480000D01*
X161390000Y-73480000D02*
X162340000Y-73480000D01*
X161390000Y-79520000D02*
X162340000Y-79520000D01*
X161390000Y-80940000D02*
X161390000Y-79520000D01*
X162340000Y-73480000D02*
X162340000Y-76500000D01*
X162340000Y-79520000D02*
X162340000Y-76500000D01*
X169610000Y-72060000D02*
X161390000Y-72060000D01*
X169610000Y-76500000D02*
X169610000Y-72060000D01*
X169610000Y-76500000D02*
X169610000Y-80940000D01*
X169610000Y-80940000D02*
X161390000Y-80940000D01*
X161950000Y-78480000D02*
G75*
G02*
X161450000Y-78480000I-250000J0D01*
G01*
X161450000Y-78480000D02*
G75*
G02*
X161950000Y-78480000I250000J0D01*
G01*
%TO.C,P6*%
X86790000Y-87590000D02*
X86790000Y-90410000D01*
X86790000Y-87590000D02*
X88490000Y-86290000D01*
X86790000Y-90410000D02*
X88490000Y-91710000D01*
X88490000Y-86290000D02*
X97210000Y-86290000D01*
X88490000Y-91710000D02*
X97210000Y-91710000D01*
X97210000Y-86290000D02*
X97210000Y-91710000D01*
%TO.C,J7*%
X109890000Y-131110000D02*
X109890000Y-132360000D01*
X109890000Y-132360000D02*
X111140000Y-132360000D01*
X109990000Y-130300000D02*
X109990000Y-130600000D01*
X109990000Y-130600000D02*
X110190000Y-130600000D01*
X110090000Y-130300000D02*
X110090000Y-130600000D01*
X110190000Y-125940000D02*
X110190000Y-132060000D01*
X110190000Y-129500000D02*
X110800000Y-129500000D01*
X110190000Y-130300000D02*
X109990000Y-130300000D01*
X110190000Y-132060000D02*
X114910000Y-132060000D01*
X110800000Y-126550000D02*
X110800000Y-128500000D01*
X110800000Y-128500000D02*
X110190000Y-128500000D01*
X110800000Y-129500000D02*
X110800000Y-131450000D01*
X110800000Y-131450000D02*
X114300000Y-131450000D01*
X111500000Y-125940000D02*
X111500000Y-126550000D01*
X111500000Y-132060000D02*
X111500000Y-131450000D01*
X112800000Y-125940000D02*
X112800000Y-126550000D01*
X112800000Y-132060000D02*
X112800000Y-131450000D01*
X113800000Y-128900000D02*
X114300000Y-128900000D01*
X113800000Y-129100000D02*
X113800000Y-128900000D01*
X114300000Y-126550000D02*
X110800000Y-126550000D01*
X114300000Y-129000000D02*
X113800000Y-129000000D01*
X114300000Y-129100000D02*
X113800000Y-129100000D01*
X114300000Y-131450000D02*
X114300000Y-126550000D01*
X114910000Y-125940000D02*
X110190000Y-125940000D01*
X114910000Y-132060000D02*
X114910000Y-125940000D01*
%TO.C,D18*%
X131515000Y-122265000D02*
X131515000Y-123735000D01*
X131515000Y-123735000D02*
X133800000Y-123735000D01*
X133800000Y-122265000D02*
X131515000Y-122265000D01*
%TO.C,J4*%
X114000000Y-134951000D02*
X124000000Y-134951000D01*
X124000000Y-135951000D01*
X114000000Y-135951000D01*
X114000000Y-134951000D01*
X121800000Y-134951000D02*
X116200000Y-134951000D01*
X116200000Y-131851000D01*
X121800000Y-131851000D01*
X121800000Y-134951000D01*
X122600000Y-134951000D02*
X115400000Y-134951000D01*
X115400000Y-132351000D01*
X122600000Y-132351000D01*
X122600000Y-134951000D01*
X123200000Y-137751000D02*
X114800000Y-137751000D01*
X114800000Y-135951000D01*
X123200000Y-135951000D01*
X123200000Y-137751000D01*
%TO.C,D22*%
X132200000Y-125735000D02*
X134485000Y-125735000D01*
X134485000Y-124265000D02*
X132200000Y-124265000D01*
X134485000Y-125735000D02*
X134485000Y-124265000D01*
%TO.C,D25*%
X94700000Y-96735000D02*
X96985000Y-96735000D01*
X96985000Y-95265000D02*
X94700000Y-95265000D01*
X96985000Y-96735000D02*
X96985000Y-95265000D01*
%TO.C,F4*%
X143140000Y-122102064D02*
X143140000Y-120897936D01*
X145860000Y-122102064D02*
X145860000Y-120897936D01*
%TO.C,F2*%
X130880000Y-130130000D02*
X130880000Y-132870000D01*
X130880000Y-130130000D02*
X139120000Y-130130000D01*
X130880000Y-132870000D02*
X139120000Y-132870000D01*
X139120000Y-130130000D02*
X139120000Y-132870000D01*
%TO.C,D26*%
X94700000Y-94735000D02*
X96985000Y-94735000D01*
X96985000Y-93265000D02*
X94700000Y-93265000D01*
X96985000Y-94735000D02*
X96985000Y-93265000D01*
%TO.C,J1*%
X104400000Y-120900000D02*
X104400000Y-131100000D01*
X104400000Y-131100000D02*
X109600000Y-131100000D01*
X104800000Y-121300000D02*
X104800000Y-130700000D01*
X104800000Y-130700000D02*
X106000000Y-130700000D01*
X106000000Y-120900000D02*
X106000000Y-121300000D01*
X106000000Y-121300000D02*
X104800000Y-121300000D01*
X106000000Y-130700000D02*
X106000000Y-131100000D01*
X107000000Y-120900000D02*
X107000000Y-121300000D01*
X107000000Y-121300000D02*
X109200000Y-121300000D01*
X107000000Y-130700000D02*
X109200000Y-130700000D01*
X107000000Y-131100000D02*
X107000000Y-130700000D01*
X108000000Y-120590000D02*
X109910000Y-120590000D01*
X109200000Y-121300000D02*
X109200000Y-123500000D01*
X109200000Y-123500000D02*
X109600000Y-123500000D01*
X109200000Y-124500000D02*
X109200000Y-127500000D01*
X109200000Y-127500000D02*
X109600000Y-127500000D01*
X109200000Y-128500000D02*
X109600000Y-128500000D01*
X109200000Y-130700000D02*
X109200000Y-128500000D01*
X109600000Y-120900000D02*
X104400000Y-120900000D01*
X109600000Y-124500000D02*
X109200000Y-124500000D01*
X109600000Y-131100000D02*
X109600000Y-120900000D01*
X109910000Y-120590000D02*
X109910000Y-122500000D01*
%TO.C,F3*%
X140140000Y-122102064D02*
X140140000Y-120897936D01*
X142860000Y-122102064D02*
X142860000Y-120897936D01*
%TO.C,J2*%
X136170000Y-156230000D02*
X136170000Y-133310000D01*
X136170000Y-158830000D02*
X136170000Y-157500000D01*
X137500000Y-158830000D02*
X136170000Y-158830000D01*
X138830000Y-133310000D02*
X136170000Y-133310000D01*
X138830000Y-156230000D02*
X136170000Y-156230000D01*
X138830000Y-156230000D02*
X138830000Y-133310000D01*
%TO.C,SW3*%
X87930000Y-96930000D02*
X92070000Y-96930000D01*
X87930000Y-97230000D02*
X87930000Y-96930000D01*
X87930000Y-100070000D02*
X87930000Y-99770000D01*
X92070000Y-96930000D02*
X92070000Y-97230000D01*
X92070000Y-99770000D02*
X92070000Y-100070000D01*
X92070000Y-100070000D02*
X87930000Y-100070000D01*
%TO.C,D21*%
X151050000Y-69470000D02*
X151050000Y-70970000D01*
X151050000Y-70970000D02*
X151320000Y-70970000D01*
X151320000Y-70970000D02*
X151320000Y-73800000D01*
X157680000Y-70970000D02*
X157680000Y-72070000D01*
X157950000Y-69470000D02*
X157950000Y-70970000D01*
X157950000Y-70970000D02*
X157680000Y-70970000D01*
%TO.C,D4*%
X94700000Y-100735000D02*
X96985000Y-100735000D01*
X96985000Y-99265000D02*
X94700000Y-99265000D01*
X96985000Y-100735000D02*
X96985000Y-99265000D01*
%TO.C,D2*%
X94700000Y-104735000D02*
X96985000Y-104735000D01*
X96985000Y-103265000D02*
X94700000Y-103265000D01*
X96985000Y-104735000D02*
X96985000Y-103265000D01*
%TO.C,F1*%
X145700000Y-124700000D02*
X139300000Y-124700000D01*
X139300000Y-137300000D01*
X145700000Y-137300000D01*
X145700000Y-124700000D01*
%TO.C,P4*%
X80390000Y-72060000D02*
X80390000Y-73480000D01*
X80390000Y-73480000D02*
X81340000Y-73480000D01*
X80390000Y-79520000D02*
X81340000Y-79520000D01*
X80390000Y-80940000D02*
X80390000Y-79520000D01*
X81340000Y-73480000D02*
X81340000Y-76500000D01*
X81340000Y-79520000D02*
X81340000Y-76500000D01*
X88610000Y-72060000D02*
X80390000Y-72060000D01*
X88610000Y-76500000D02*
X88610000Y-72060000D01*
X88610000Y-76500000D02*
X88610000Y-80940000D01*
X88610000Y-80940000D02*
X80390000Y-80940000D01*
X80950000Y-78480000D02*
G75*
G02*
X80450000Y-78480000I-250000J0D01*
G01*
X80450000Y-78480000D02*
G75*
G02*
X80950000Y-78480000I250000J0D01*
G01*
%TO.C,J3*%
X114800000Y-122249000D02*
X123200000Y-122249000D01*
X123200000Y-124049000D01*
X114800000Y-124049000D01*
X114800000Y-122249000D01*
X115400000Y-125049000D02*
X122600000Y-125049000D01*
X122600000Y-127649000D01*
X115400000Y-127649000D01*
X115400000Y-125049000D01*
X116200000Y-125049000D02*
X121800000Y-125049000D01*
X121800000Y-128149000D01*
X116200000Y-128149000D01*
X116200000Y-125049000D01*
X124000000Y-125049000D02*
X114000000Y-125049000D01*
X114000000Y-124049000D01*
X124000000Y-124049000D01*
X124000000Y-125049000D01*
%TO.C,D3*%
X94700000Y-102735000D02*
X96985000Y-102735000D01*
X96985000Y-101265000D02*
X94700000Y-101265000D01*
X96985000Y-102735000D02*
X96985000Y-101265000D01*
%TO.C,D20*%
X92050000Y-69470000D02*
X92050000Y-70970000D01*
X92050000Y-70970000D02*
X92320000Y-70970000D01*
X92320000Y-70970000D02*
X92320000Y-73800000D01*
X98680000Y-70970000D02*
X98680000Y-72070000D01*
X98950000Y-69470000D02*
X98950000Y-70970000D01*
X98950000Y-70970000D02*
X98680000Y-70970000D01*
%TO.C,P7*%
X152790000Y-91710000D02*
X152790000Y-86290000D01*
X161510000Y-86290000D02*
X152790000Y-86290000D01*
X161510000Y-91710000D02*
X152790000Y-91710000D01*
X163210000Y-87590000D02*
X161510000Y-86290000D01*
X163210000Y-90410000D02*
X161510000Y-91710000D01*
X163210000Y-90410000D02*
X163210000Y-87590000D01*
%TO.C,D5*%
X94700000Y-98735000D02*
X96985000Y-98735000D01*
X96985000Y-97265000D02*
X94700000Y-97265000D01*
X96985000Y-98735000D02*
X96985000Y-97265000D01*
%TO.C,J5*%
X144786000Y-140000000D02*
G75*
G02*
X140214000Y-140000000I-2286000J0D01*
G01*
X140214000Y-140000000D02*
G75*
G02*
X144786000Y-140000000I2286000J0D01*
G01*
%TO.C,SW4*%
X158430000Y-91930000D02*
X162570000Y-91930000D01*
X158430000Y-92230000D02*
X158430000Y-91930000D01*
X158430000Y-95070000D02*
X158430000Y-94770000D01*
X162570000Y-91930000D02*
X162570000Y-92230000D01*
X162570000Y-94770000D02*
X162570000Y-95070000D01*
X162570000Y-95070000D02*
X158430000Y-95070000D01*
D13*
%TO.C,P1*%
X153200000Y-95500000D02*
X156700000Y-95500000D01*
X153200000Y-106000000D02*
X153200000Y-95500000D01*
X153200000Y-106000000D02*
X156700000Y-106000000D01*
X156700000Y-95500000D02*
X156700000Y-106000000D01*
D12*
%TO.C,SW2*%
X86930000Y-91930000D02*
X91070000Y-91930000D01*
X86930000Y-92230000D02*
X86930000Y-91930000D01*
X86930000Y-95070000D02*
X86930000Y-94770000D01*
X91070000Y-91930000D02*
X91070000Y-92230000D01*
X91070000Y-94770000D02*
X91070000Y-95070000D01*
X91070000Y-95070000D02*
X86930000Y-95070000D01*
%TO.C,J6*%
X137286000Y-128500000D02*
G75*
G02*
X132714000Y-128500000I-2286000J0D01*
G01*
X132714000Y-128500000D02*
G75*
G02*
X137286000Y-128500000I2286000J0D01*
G01*
%TO.C,SW1*%
X157430000Y-96930000D02*
X161570000Y-96930000D01*
X157430000Y-97230000D02*
X157430000Y-96930000D01*
X157430000Y-100070000D02*
X157430000Y-99770000D01*
X161570000Y-96930000D02*
X161570000Y-97230000D01*
X161570000Y-99770000D02*
X161570000Y-100070000D01*
X161570000Y-100070000D02*
X157430000Y-100070000D01*
%TD*%
%LPC*%
D14*
%TO.C,D1*%
X96287500Y-106000000D03*
X94712500Y-106000000D03*
%TD*%
D15*
%TO.C,P5*%
X165450000Y-78480000D03*
X165450000Y-74520000D03*
%TD*%
D16*
%TO.C,P6*%
X89500000Y-89000000D03*
D17*
X94500000Y-89000000D03*
%TD*%
D18*
%TO.C,J11*%
X119000000Y-113000000D03*
%TD*%
D19*
%TO.C,J7*%
X112000000Y-130000000D03*
D20*
X112000000Y-128000000D03*
%TD*%
D21*
%TO.C,D18*%
X132212500Y-123000000D03*
X133787500Y-123000000D03*
%TD*%
D22*
%TO.C,J4*%
X121540000Y-130951000D03*
X119000000Y-130951000D03*
X116460000Y-130951000D03*
%TD*%
D14*
%TO.C,D22*%
X133787500Y-125000000D03*
X132212500Y-125000000D03*
%TD*%
%TO.C,D25*%
X96287500Y-96000000D03*
X94712500Y-96000000D03*
%TD*%
D23*
%TO.C,F4*%
X144500000Y-122900000D03*
X144500000Y-120100000D03*
%TD*%
D24*
%TO.C,F2*%
X132500000Y-131500000D03*
X137500000Y-131500000D03*
%TD*%
D14*
%TO.C,D26*%
X96287500Y-94000000D03*
X94712500Y-94000000D03*
%TD*%
D25*
%TO.C,J1*%
X108000000Y-123000000D03*
D26*
X106000000Y-123000000D03*
X108000000Y-125000000D03*
X106000000Y-125000000D03*
X108000000Y-127000000D03*
X106000000Y-127000000D03*
X108000000Y-129000000D03*
X106000000Y-129000000D03*
%TD*%
D23*
%TO.C,F3*%
X141500000Y-122900000D03*
X141500000Y-120100000D03*
%TD*%
D27*
%TO.C,J2*%
X137500000Y-157500000D03*
D28*
X137500000Y-154960000D03*
X137500000Y-152420000D03*
X137500000Y-149880000D03*
X137500000Y-147340000D03*
X137500000Y-144800000D03*
X137500000Y-142260000D03*
X137500000Y-139720000D03*
X137500000Y-137180000D03*
X137500000Y-134640000D03*
%TD*%
D29*
%TO.C,SW3*%
X92100000Y-98500000D03*
X87900000Y-98500000D03*
%TD*%
D30*
%TO.C,D21*%
X154500000Y-66400000D03*
D31*
X152220000Y-72700000D03*
X156780000Y-72700000D03*
%TD*%
D14*
%TO.C,D4*%
X96287500Y-100000000D03*
X94712500Y-100000000D03*
%TD*%
%TO.C,D2*%
X96287500Y-104000000D03*
X94712500Y-104000000D03*
%TD*%
D32*
%TO.C,F1*%
X142500000Y-127250000D03*
X142500000Y-134750000D03*
%TD*%
D33*
%TO.C,P4*%
X84450000Y-78480000D03*
D15*
X84450000Y-74520000D03*
%TD*%
D22*
%TO.C,J3*%
X116460000Y-129049000D03*
X119000000Y-129049000D03*
X121540000Y-129049000D03*
%TD*%
D14*
%TO.C,D3*%
X96287500Y-102000000D03*
X94712500Y-102000000D03*
%TD*%
D30*
%TO.C,D20*%
X95500000Y-66400000D03*
D31*
X93220000Y-72700000D03*
X97780000Y-72700000D03*
%TD*%
D16*
%TO.C,P7*%
X160500000Y-89000000D03*
D17*
X155500000Y-89000000D03*
%TD*%
D14*
%TO.C,D5*%
X96287500Y-98000000D03*
X94712500Y-98000000D03*
%TD*%
D34*
%TO.C,J5*%
X142500000Y-140000000D03*
%TD*%
D35*
%TO.C,SW4*%
X158400000Y-93500000D03*
X162600000Y-93500000D03*
%TD*%
D18*
%TO.C,J10*%
X121500000Y-113000000D03*
%TD*%
D36*
%TO.C,P1*%
X154500000Y-104500000D03*
X154500000Y-103000000D03*
X154500000Y-101500000D03*
X154500000Y-100000000D03*
X154500000Y-98500000D03*
X154500000Y-97000000D03*
%TD*%
D29*
%TO.C,SW2*%
X91100000Y-93500000D03*
X86900000Y-93500000D03*
%TD*%
D34*
%TO.C,J6*%
X135000000Y-128500000D03*
%TD*%
D35*
%TO.C,SW1*%
X157400000Y-98500000D03*
X161600000Y-98500000D03*
%TD*%
D37*
%TO.C,C20*%
X92402651Y-96000000D03*
D24*
X88902651Y-96000000D03*
%TD*%
D37*
%TO.C,C33*%
X157597349Y-96000000D03*
D24*
X161097349Y-96000000D03*
%TD*%
D38*
%TO.C,P2*%
X91980000Y-74450000D03*
D39*
X88020000Y-74450000D03*
%TD*%
D40*
%TO.C,D8*%
X108598439Y-140401561D03*
D41*
X110394490Y-138605510D03*
%TD*%
D42*
%TO.C,D11*%
X123401561Y-140401561D03*
D41*
X121605510Y-138605510D03*
%TD*%
D43*
%TO.C,C27*%
X146000000Y-53000000D03*
X131000000Y-53000000D03*
%TD*%
D44*
%TO.C,D9*%
X106500000Y-147275000D03*
D41*
X106500000Y-144735000D03*
%TD*%
D44*
%TO.C,D14*%
X114725000Y-155500000D03*
D41*
X117265000Y-155500000D03*
%TD*%
D42*
%TO.C,D10*%
X110500000Y-154000000D03*
D41*
X108703949Y-152203949D03*
%TD*%
D45*
%TO.C,Q5*%
X133500000Y-60717500D03*
D46*
X136040000Y-56907500D03*
%TD*%
D44*
%TO.C,D12*%
X125500000Y-147275000D03*
D41*
X125500000Y-144735000D03*
%TD*%
D38*
%TO.C,P3*%
X161980000Y-74450000D03*
D39*
X158020000Y-74450000D03*
%TD*%
D40*
%TO.C,D13*%
X122098439Y-153401561D03*
D41*
X123894490Y-151605510D03*
%TD*%
D44*
%TO.C,D7*%
X114725000Y-137000000D03*
D41*
X117265000Y-137000000D03*
%TD*%
D43*
%TO.C,C28*%
X103500000Y-53000000D03*
X118500000Y-53000000D03*
%TD*%
D47*
%TO.C,J12*%
X133450000Y-155000000D03*
D20*
X133450000Y-157000000D03*
%TD*%
G36*
X152442121Y-87520002D02*
G01*
X152488614Y-87573658D01*
X152500000Y-87626000D01*
X152500000Y-88874000D01*
X152479998Y-88942121D01*
X152426342Y-88988614D01*
X152374000Y-89000000D01*
X142500000Y-89000000D01*
X142500000Y-117036659D01*
X142479998Y-117104780D01*
X142426342Y-117151273D01*
X142375381Y-117162651D01*
X141383388Y-117173524D01*
X141315052Y-117154270D01*
X141267974Y-117101127D01*
X141256007Y-117047532D01*
X141256007Y-89000000D01*
X97626000Y-89000000D01*
X97557879Y-88979998D01*
X97511386Y-88926342D01*
X97500000Y-88874000D01*
X97500000Y-87626000D01*
X97520002Y-87557879D01*
X97573658Y-87511386D01*
X97626000Y-87500000D01*
X152374000Y-87500000D01*
X152442121Y-87520002D01*
G37*
%LPD*%
M02*
