M48
; DRILL file {KiCad 8.0.6} date 2024-11-18T00:02:46+0900
; FORMAT={-:-/ absolute / inch / decimal}
; #@! TF.CreationDate,2024-11-18T00:02:46+09:00
; #@! TF.GenerationSoftware,Kicad,Pcbnew,8.0.6
; #@! TF.FileFunction,Plated,1,4,PTH
FMAT,2
INCH
; #@! TA.AperFunction,Plated,PTH,ViaDrill
T1C0.0118
; #@! TA.AperFunction,Plated,PTH,ViaDrill
T2C0.0236
; #@! TA.AperFunction,Plated,PTH,ComponentDrill
T3C0.0276
; #@! TA.AperFunction,Plated,PTH,ComponentDrill
T4C0.0295
; #@! TA.AperFunction,Plated,PTH,ComponentDrill
T5C0.0315
; #@! TA.AperFunction,Plated,PTH,ComponentDrill
T6C0.0335
; #@! TA.AperFunction,Plated,PTH,ComponentDrill
T7C0.0354
; #@! TA.AperFunction,Plated,PTH,ComponentDrill
T8C0.0394
; #@! TA.AperFunction,Plated,PTH,ComponentDrill
T9C0.0433
; #@! TA.AperFunction,Plated,PTH,ComponentDrill
T10C0.0472
; #@! TA.AperFunction,Plated,PTH,ComponentDrill
T11C0.0709
; #@! TA.AperFunction,Plated,PTH,ViaDrill
T12C0.0866
; #@! TA.AperFunction,Plated,PTH,ComponentDrill
T13C0.1063
; #@! TA.AperFunction,Plated,PTH,ComponentDrill
T14C0.1181
; #@! TA.AperFunction,Plated,PTH,ViaDrill
T15C0.1260
%
G90
G05
T1
X3.6614Y-3.8583
X3.7008Y-3.8976
X3.7008Y-3.937
X3.7008Y-4.0157
X3.7008Y-4.0945
X3.7008Y-4.1732
X3.7402Y-3.7008
X3.7402Y-3.7795
X3.7598Y-3.8189
X3.7992Y-4.252
X3.8386Y-3.7008
X3.8386Y-3.7795
X3.8386Y-3.8583
X3.8386Y-3.937
X3.8386Y-4.0157
X3.8386Y-4.0945
X3.8386Y-4.1732
X3.9961Y-3.9567
X4.0945Y-3.878
X4.1535Y-4.2549
X4.1535Y-4.7638
X4.1732Y-3.9764
X4.2126Y-4.7284
X4.252Y-4.252
X4.2929Y-4.7244
X4.311Y-4.0945
X4.3504Y-4.7244
X4.3701Y-3.9961
X4.4685Y-3.7008
X4.4685Y-4.0551
X4.5214Y-4.0293
X4.5276Y-3.7008
X4.5276Y-4.2943
X4.5669Y-4.252
X4.6063Y-3.6388
X4.626Y-4.2913
X4.6457Y-3.6162
X4.6743Y-4.0551
X4.685Y-3.9173
X4.685Y-4.5079
X4.7018Y-4.0551
X4.7244Y-4.0748
X4.7244Y-4.1535
X4.7638Y-3.7126
X4.7638Y-3.8189
X4.7638Y-4.1929
X4.7835Y-4.5079
X4.8031Y-4.2155
X4.8228Y-3.6614
X4.8425Y-3.6811
X4.8425Y-4.2381
X4.8622Y-3.8189
X4.8819Y-3.6644
X4.8819Y-3.9173
X4.9016Y-3.8386
X4.9213Y-3.9173
X4.9409Y-3.0906
X4.9409Y-4.2913
X4.9606Y-3.8553
X4.9606Y-3.9567
X5.0075Y-3.9518
X5.0121Y-4.2399
X5.0168Y-4.1929
X5.0197Y-3.8386
X5.0318Y-4.2596
X5.0551Y-4.1545
X5.0591Y-3.6417
X5.0591Y-3.9567
X5.0787Y-3.563
X5.0787Y-4.1142
X5.0955Y-3.9498
X5.1181Y-4.0748
X5.1378Y-4.252
X5.1407Y-4.0354
X5.1575Y-3.563
X5.1575Y-4.8228
X5.1575Y-4.8819
X5.1929Y-5.5315
X5.2165Y-3.7874
X5.2165Y-3.8386
X5.2165Y-4.1368
X5.2214Y-3.9321
X5.2284Y-3.8661
X5.2362Y-3.6043
X5.2362Y-4.6457
X5.2362Y-4.685
X5.2372Y-4.8819
X5.2559Y-3.937
X5.2559Y-4.1535
X5.2756Y-4.0354
X5.2756Y-4.0916
X5.2756Y-4.685
X5.3346Y-5.4134
X5.3937Y-3.8386
X5.3937Y-4.8819
X5.3953Y-4.8307
X5.4163Y-4.0128
X5.4528Y-3.875
X5.4724Y-4.0748
X5.4724Y-4.7047
X5.5315Y-3.8415
X5.6496Y-3.8029
X5.748Y-4.1142
X5.9843Y-3.9764
X6.0433Y-3.7008
X6.1417Y-3.878
T2
X3.248Y-2.8543
X3.248Y-2.9134
X3.248Y-2.9724
X3.248Y-3.0512
X3.248Y-3.1102
X3.248Y-3.1693
X3.248Y-3.2283
X3.3071Y-2.8543
X3.3661Y-2.8543
X3.3858Y-3.2874
X3.4252Y-2.8543
X3.4252Y-3.0512
X3.4252Y-3.1102
X3.4252Y-3.1693
X3.4449Y-3.2874
X3.4449Y-3.3465
X3.4843Y-2.7362
X3.4843Y-2.7953
X3.4843Y-2.8543
X3.4843Y-3.0512
X3.4843Y-3.1102
X3.4843Y-3.1693
X3.5039Y-3.2874
X3.5039Y-3.3465
X3.5236Y-2.6969
X3.5433Y-2.7362
X3.5433Y-3.0512
X3.5433Y-3.1102
X3.5433Y-3.1693
X3.563Y-2.3622
X3.563Y-2.4213
X3.563Y-2.4803
X3.563Y-2.5394
X3.563Y-2.6575
X3.563Y-3.2874
X3.563Y-3.3465
X3.6024Y-2.6181
X3.6024Y-3.0512
X3.6024Y-3.1102
X3.6024Y-3.1693
X3.622Y-2.2441
X3.622Y-2.3031
X3.622Y-2.3622
X3.622Y-2.4213
X3.622Y-2.4803
X3.622Y-3.2874
X3.622Y-3.3465
X3.6417Y-2.5787
X3.6614Y-3.0512
X3.6614Y-3.1102
X3.6614Y-3.1693
X3.6811Y-2.126
X3.6811Y-2.185
X3.6811Y-2.2441
X3.6811Y-2.3031
X3.6811Y-2.3622
X3.6811Y-2.4213
X3.6811Y-2.4803
X3.6811Y-2.5394
X3.6811Y-3.2874
X3.6811Y-3.3465
X3.7205Y-2.8543
X3.7205Y-2.9134
X3.7205Y-2.9724
X3.7205Y-3.0512
X3.7205Y-3.1102
X3.7205Y-3.1693
X3.7402Y-3.2874
X3.7402Y-3.3465
X3.7795Y-2.8543
X3.7795Y-2.9134
X3.7795Y-2.9724
X3.7992Y-3.2874
X3.7992Y-3.3465
X3.7992Y-3.4055
X3.8386Y-2.8543
X3.8386Y-2.9134
X3.8583Y-3.2874
X3.8583Y-3.3465
X3.8583Y-3.4055
X3.9173Y-3.2874
X3.9173Y-3.3465
X3.9173Y-3.4055
X3.9173Y-3.563
X3.9567Y-3.0512
X3.9567Y-3.1102
X3.9567Y-3.1693
X3.9764Y-3.2874
X3.9764Y-3.3465
X3.9764Y-3.4055
X4.0157Y-3.0512
X4.0157Y-3.1102
X4.0157Y-3.1693
X4.0354Y-3.2874
X4.0354Y-3.3465
X4.0354Y-3.4055
X4.0354Y-4.3307
X4.0551Y-1.6535
X4.0551Y-1.7126
X4.0551Y-1.7717
X4.0551Y-1.8307
X4.0551Y-1.8898
X4.0551Y-1.9488
X4.0747Y-2.913
X4.0748Y-2.9921
X4.1142Y-1.6535
X4.1142Y-1.7126
X4.1142Y-1.7717
X4.1142Y-1.8307
X4.1142Y-1.8898
X4.1142Y-1.9488
X4.1339Y-3.563
X4.1732Y-1.6535
X4.1732Y-1.7126
X4.1732Y-1.7717
X4.1732Y-1.8307
X4.1732Y-1.8898
X4.1732Y-1.9488
X4.1732Y-2.0079
X4.1732Y-2.0669
X4.1732Y-2.126
X4.1732Y-2.5984
X4.1732Y-2.6772
X4.1732Y-2.8543
X4.1732Y-2.9134
X4.1732Y-2.9724
X4.1732Y-3.0315
X4.1732Y-3.0906
X4.1732Y-3.1496
X4.1929Y-3.2874
X4.1929Y-3.3465
X4.1929Y-3.4055
X4.2126Y-2.5591
X4.2323Y-1.6535
X4.2323Y-1.7126
X4.2323Y-1.7717
X4.2323Y-1.8307
X4.2323Y-1.8898
X4.2323Y-1.9488
X4.2323Y-2.0079
X4.2323Y-2.0669
X4.2323Y-2.126
X4.2323Y-2.6181
X4.2323Y-2.6772
X4.2323Y-2.7362
X4.2323Y-2.7953
X4.2323Y-2.8543
X4.2323Y-2.9134
X4.2323Y-2.9724
X4.2323Y-3.0315
X4.2323Y-3.0906
X4.2323Y-3.1496
X4.252Y-2.5197
X4.252Y-3.2874
X4.252Y-3.3465
X4.252Y-3.4055
X4.2717Y-3.7402
X4.2717Y-3.9764
X4.2913Y-1.6535
X4.2913Y-1.7126
X4.2913Y-1.7717
X4.2913Y-1.8307
X4.2913Y-1.8898
X4.2913Y-1.9488
X4.2913Y-2.0079
X4.2913Y-2.0669
X4.2913Y-2.126
X4.2913Y-2.4803
X4.2913Y-2.5591
X4.3307Y-2.4409
X4.3504Y-1.6535
X4.3504Y-1.7126
X4.3504Y-1.7717
X4.3504Y-1.8307
X4.3504Y-1.8898
X4.3504Y-1.9488
X4.3504Y-2.0079
X4.3504Y-2.0669
X4.3504Y-2.126
X4.3504Y-2.5
X4.3504Y-2.6181
X4.3504Y-2.6772
X4.3504Y-2.7362
X4.3504Y-2.7953
X4.3504Y-2.8543
X4.3504Y-2.9134
X4.3504Y-2.9724
X4.3504Y-3.0315
X4.3504Y-3.0906
X4.3504Y-3.1496
X4.3504Y-3.2874
X4.3504Y-3.3465
X4.3504Y-3.4055
X4.3504Y-3.7402
X4.3701Y-2.3819
X4.3701Y-3.5896
X4.4094Y-1.6535
X4.4094Y-1.7126
X4.4094Y-1.7717
X4.4094Y-1.8307
X4.4094Y-1.8898
X4.4094Y-1.9488
X4.4094Y-2.0079
X4.4094Y-2.0669
X4.4094Y-2.126
X4.4094Y-2.5591
X4.4094Y-2.6181
X4.4094Y-2.6772
X4.4094Y-2.7362
X4.4094Y-3.1496
X4.4094Y-3.2874
X4.4094Y-3.3465
X4.4094Y-3.4055
X4.4488Y-2.3228
X4.4685Y-1.6535
X4.4685Y-1.7126
X4.4685Y-1.7717
X4.4685Y-1.8307
X4.4685Y-1.8898
X4.4685Y-1.9488
X4.4685Y-2.0079
X4.4685Y-2.0669
X4.4685Y-2.126
X4.4685Y-2.4409
X4.4685Y-2.5
X4.4685Y-2.5591
X4.4685Y-2.6181
X4.4685Y-2.6772
X4.4685Y-2.7362
X4.4685Y-3.1496
X4.4685Y-3.2874
X4.4685Y-3.3465
X4.5079Y-2.2638
X4.5079Y-2.3228
X4.5276Y-1.6535
X4.5276Y-1.7126
X4.5276Y-1.7717
X4.5276Y-1.8307
X4.5276Y-1.8898
X4.5276Y-1.9488
X4.5276Y-2.0079
X4.5276Y-2.0669
X4.5276Y-2.4409
X4.5276Y-2.5
X4.5276Y-2.5591
X4.5276Y-2.6181
X4.5276Y-2.6772
X4.5276Y-2.7362
X4.5276Y-3.1496
X4.5276Y-3.2874
X4.5472Y-4.7244
X4.5669Y-2.2047
X4.5669Y-2.2638
X4.5669Y-2.3228
X4.5866Y-1.6535
X4.5866Y-1.7126
X4.5866Y-1.7717
X4.5866Y-1.8307
X4.5866Y-1.8898
X4.5866Y-1.9488
X4.5866Y-2.0079
X4.5866Y-2.4409
X4.5866Y-2.5
X4.5866Y-2.5591
X4.5866Y-2.6181
X4.5866Y-2.6772
X4.5866Y-2.7362
X4.5866Y-3.1496
X4.5866Y-4.7244
X4.626Y-4.7244
X4.6457Y-1.6535
X4.6457Y-1.7126
X4.6457Y-1.7717
X4.6457Y-1.8307
X4.6457Y-1.8898
X4.6457Y-1.9488
X4.6457Y-2.4409
X4.6457Y-2.5
X4.6457Y-2.5591
X4.6457Y-2.6181
X4.6457Y-2.6772
X4.6457Y-2.7362
X4.6457Y-2.7953
X4.6457Y-2.8543
X4.6457Y-2.9134
X4.6457Y-2.9724
X4.7047Y-1.6535
X4.7047Y-1.7126
X4.7047Y-1.7717
X4.7047Y-1.8307
X4.7047Y-1.8898
X4.7047Y-1.9488
X4.7047Y-2.4409
X4.7047Y-2.5
X4.7047Y-2.5591
X4.7047Y-2.6181
X4.7047Y-2.6772
X4.7047Y-2.7362
X4.7047Y-2.7953
X4.7047Y-2.8543
X4.7047Y-2.9134
X4.7047Y-2.9724
X4.7211Y-4.2946
X4.7254Y-4.9419
X4.7638Y-1.6535
X4.7638Y-1.7126
X4.7638Y-1.7717
X4.7638Y-1.8307
X4.7638Y-1.8898
X4.7638Y-1.9488
X4.7638Y-2.5
X4.7638Y-2.5591
X4.7638Y-2.6181
X4.7638Y-2.6772
X4.7638Y-2.7362
X4.7638Y-2.7953
X4.7638Y-2.8543
X4.7638Y-2.9134
X4.7638Y-2.9724
X4.8228Y-1.6535
X4.8228Y-1.7126
X4.8228Y-1.7717
X4.8228Y-2.5591
X4.8228Y-2.6181
X4.8228Y-2.6772
X4.8228Y-2.7362
X4.8228Y-2.7953
X4.8228Y-2.8543
X4.8228Y-2.9134
X4.8228Y-2.9724
X4.8819Y-1.6535
X4.8819Y-1.7126
X4.8819Y-1.7717
X4.8819Y-2.6181
X4.8819Y-2.6772
X4.8819Y-2.7362
X4.8819Y-2.7953
X4.8819Y-2.8543
X4.8819Y-2.9134
X4.8819Y-2.9724
X4.8819Y-4.4685
X4.9409Y-2.6181
X4.9409Y-2.6772
X4.9409Y-2.7362
X4.9409Y-2.7953
X4.9409Y-2.8543
X4.9409Y-2.9134
X4.9409Y-2.9724
X4.9479Y-4.3701
X4.9606Y-1.6535
X4.9606Y-1.7126
X4.9606Y-1.7717
X4.9803Y-5.2362
X5.0197Y-1.6535
X5.0197Y-1.7126
X5.0197Y-1.7717
X5.0787Y-1.6535
X5.0787Y-1.7126
X5.0787Y-1.7717
X5.0787Y-1.8307
X5.0787Y-1.8898
X5.0787Y-1.9488
X5.1378Y-1.6535
X5.1378Y-1.7126
X5.1378Y-1.7717
X5.1378Y-1.8307
X5.1378Y-1.8898
X5.1378Y-1.9488
X5.1969Y-1.6535
X5.1969Y-1.7126
X5.1969Y-1.7717
X5.1969Y-1.8307
X5.1969Y-1.8898
X5.1969Y-1.9488
X5.2362Y-2.6772
X5.2362Y-2.7362
X5.2362Y-2.7953
X5.2362Y-2.8543
X5.2362Y-2.9134
X5.2362Y-2.9724
X5.2362Y-3.0315
X5.2362Y-3.0906
X5.2362Y-3.1496
X5.2362Y-4.2913
X5.2362Y-4.5866
X5.2559Y-1.6535
X5.2559Y-1.7126
X5.2559Y-1.7717
X5.2559Y-1.8307
X5.2559Y-1.8898
X5.2559Y-1.9488
X5.2559Y-2.0079
X5.2756Y-2.2441
X5.2953Y-2.6181
X5.2953Y-2.6772
X5.2953Y-2.7362
X5.2953Y-2.7953
X5.2953Y-2.8543
X5.2953Y-2.9134
X5.2953Y-2.9724
X5.2953Y-3.0315
X5.2953Y-3.0906
X5.2953Y-3.1496
X5.2953Y-3.2874
X5.315Y-1.6535
X5.315Y-1.7126
X5.315Y-1.7717
X5.315Y-1.8307
X5.315Y-1.8898
X5.315Y-1.9488
X5.315Y-2.0079
X5.315Y-2.0669
X5.3543Y-2.5591
X5.3543Y-2.6181
X5.3543Y-2.6772
X5.3543Y-2.7362
X5.3543Y-2.7953
X5.3543Y-2.8543
X5.3543Y-2.9134
X5.3543Y-2.9724
X5.3543Y-3.0315
X5.3543Y-3.0906
X5.3543Y-3.1496
X5.3543Y-3.2874
X5.3543Y-3.3465
X5.374Y-1.6535
X5.374Y-1.7126
X5.374Y-1.7717
X5.374Y-1.8307
X5.374Y-1.8898
X5.374Y-1.9488
X5.374Y-2.0079
X5.374Y-2.0669
X5.374Y-2.126
X5.3937Y-2.4016
X5.3937Y-2.4606
X5.3937Y-3.7205
X5.3937Y-3.7992
X5.4134Y-2.3228
X5.4134Y-2.5591
X5.4134Y-2.6181
X5.4134Y-2.6772
X5.4134Y-2.7362
X5.4134Y-2.7953
X5.4134Y-2.8543
X5.4134Y-2.9134
X5.4134Y-2.9724
X5.4134Y-3.0315
X5.4134Y-3.0906
X5.4134Y-3.1496
X5.4134Y-3.2874
X5.4134Y-3.3465
X5.4134Y-3.4055
X5.4134Y-4.2913
X5.4134Y-4.3504
X5.4134Y-4.4094
X5.4134Y-4.4685
X5.4134Y-4.5276
X5.4134Y-4.5866
X5.4331Y-1.6535
X5.4331Y-1.7126
X5.4331Y-1.7717
X5.4331Y-1.8307
X5.4331Y-1.8898
X5.4331Y-1.9488
X5.4331Y-2.0079
X5.4331Y-2.0669
X5.4331Y-2.126
X5.4528Y-2.3622
X5.4528Y-3.5433
X5.4528Y-3.6024
X5.4724Y-2.5
X5.4724Y-2.5591
X5.4724Y-2.6181
X5.4724Y-2.6772
X5.4724Y-2.7362
X5.4724Y-2.7953
X5.4724Y-2.8543
X5.4724Y-2.9134
X5.4724Y-2.9724
X5.4724Y-3.0315
X5.4724Y-3.0906
X5.4724Y-3.1496
X5.4724Y-3.2874
X5.4724Y-3.3465
X5.4724Y-3.4055
X5.4724Y-4.2913
X5.4724Y-4.3504
X5.4724Y-4.4094
X5.4724Y-4.4685
X5.4724Y-4.5276
X5.4724Y-4.5866
X5.4921Y-1.6535
X5.4921Y-1.7126
X5.4921Y-1.7717
X5.4921Y-1.8307
X5.4921Y-1.8898
X5.4921Y-1.9488
X5.4921Y-2.0079
X5.4921Y-2.0669
X5.4921Y-2.126
X5.4921Y-2.4016
X5.5315Y-2.4409
X5.5315Y-2.5591
X5.5315Y-2.6181
X5.5315Y-2.6772
X5.5315Y-2.7362
X5.5315Y-2.7953
X5.5315Y-2.8543
X5.5315Y-2.9134
X5.5315Y-2.9724
X5.5315Y-3.0315
X5.5315Y-3.0906
X5.5315Y-3.1496
X5.5315Y-3.2874
X5.5315Y-3.3465
X5.5315Y-3.4055
X5.5315Y-4.2913
X5.5315Y-4.3504
X5.5315Y-4.4094
X5.5315Y-4.4685
X5.5315Y-4.5276
X5.5315Y-4.5866
X5.5512Y-1.6535
X5.5512Y-1.7126
X5.5512Y-1.7717
X5.5512Y-1.8307
X5.5512Y-1.8898
X5.5512Y-1.9488
X5.5512Y-2.0079
X5.5512Y-2.0669
X5.5512Y-2.126
X5.5709Y-2.4803
X5.5906Y-2.6181
X5.5906Y-2.6772
X5.5906Y-2.7362
X5.5906Y-2.7953
X5.5906Y-2.8543
X5.5906Y-2.9134
X5.5906Y-2.9724
X5.5906Y-3.0315
X5.5906Y-3.0906
X5.5906Y-3.1496
X5.5906Y-3.2874
X5.5906Y-3.3465
X5.5906Y-3.4055
X5.5906Y-4.2913
X5.5906Y-4.3504
X5.5906Y-4.4094
X5.5906Y-4.4685
X5.5906Y-4.5276
X5.5906Y-4.5866
X5.6102Y-1.6535
X5.6102Y-1.7126
X5.6102Y-1.7717
X5.6102Y-1.8307
X5.6102Y-1.8898
X5.6102Y-1.9488
X5.6102Y-2.0079
X5.6102Y-2.0669
X5.6102Y-2.126
X5.6102Y-2.5197
X5.6102Y-4.7815
X5.6496Y-2.5591
X5.6496Y-2.6772
X5.6496Y-2.7362
X5.6496Y-2.7953
X5.6496Y-2.8543
X5.6496Y-2.9134
X5.6496Y-2.9724
X5.6496Y-3.0315
X5.6496Y-3.0906
X5.6496Y-3.1496
X5.6496Y-3.2874
X5.6496Y-3.3465
X5.6496Y-3.4055
X5.6496Y-4.2913
X5.6496Y-4.3504
X5.6496Y-4.4094
X5.6496Y-4.4685
X5.6496Y-4.5276
X5.6496Y-4.5866
X5.6693Y-1.6535
X5.6693Y-1.7126
X5.6693Y-1.7717
X5.6693Y-1.8307
X5.6693Y-1.8898
X5.6693Y-1.9488
X5.6693Y-2.0079
X5.6693Y-2.0669
X5.6693Y-2.126
X5.689Y-2.5984
X5.7087Y-3.0315
X5.7087Y-3.0906
X5.7087Y-3.1496
X5.7087Y-3.2874
X5.7087Y-3.3465
X5.7087Y-3.4055
X5.7087Y-4.2913
X5.7087Y-4.3504
X5.7087Y-4.4094
X5.7087Y-4.4685
X5.7087Y-4.5276
X5.7087Y-4.5866
X5.7283Y-1.6535
X5.7283Y-1.7126
X5.7283Y-1.7717
X5.7283Y-1.8307
X5.7283Y-1.8898
X5.7283Y-1.9488
X5.7283Y-3.5433
X5.7471Y-2.7394
X5.7677Y-4.2913
X5.7677Y-4.3504
X5.7677Y-4.4094
X5.7677Y-4.4685
X5.7677Y-4.5276
X5.7874Y-1.6535
X5.7874Y-1.7126
X5.7874Y-1.7717
X5.7874Y-1.8307
X5.7874Y-1.8898
X5.7874Y-1.9488
X5.7874Y-2.8543
X5.8268Y-3.0512
X5.8268Y-3.1102
X5.8268Y-3.1693
X5.8268Y-3.2874
X5.8268Y-3.3465
X5.8268Y-3.4055
X5.8268Y-4.2913
X5.8268Y-4.3504
X5.8268Y-4.4094
X5.8268Y-4.4685
X5.8858Y-3.0512
X5.8858Y-3.1102
X5.8858Y-3.1693
X5.8858Y-3.2874
X5.8858Y-3.3465
X5.8858Y-3.4055
X5.8858Y-3.5433
X5.8858Y-4.2913
X5.8858Y-4.3504
X5.8858Y-4.4094
X5.9449Y-3.2874
X5.9449Y-3.3465
X5.9449Y-3.4055
X5.9449Y-4.2913
X5.9449Y-4.3504
X6.0039Y-2.8543
X6.0039Y-2.9134
X6.0039Y-3.2874
X6.0039Y-3.3465
X6.0039Y-3.4055
X6.063Y-2.8543
X6.063Y-2.9134
X6.063Y-2.9724
X6.063Y-3.2874
X6.063Y-3.3465
X6.063Y-3.4055
X6.122Y-2.8543
X6.122Y-2.9134
X6.122Y-2.9724
X6.122Y-3.0512
X6.122Y-3.1102
X6.122Y-3.1693
X6.122Y-3.2874
X6.122Y-3.3465
X6.1614Y-2.126
X6.1614Y-2.185
X6.1614Y-2.2441
X6.1614Y-2.3031
X6.1614Y-2.3622
X6.1614Y-2.4213
X6.1614Y-2.4803
X6.1614Y-2.5394
X6.1811Y-3.0512
X6.1811Y-3.1102
X6.1811Y-3.1693
X6.1811Y-3.2874
X6.1811Y-3.3465
X6.2008Y-2.5787
X6.2205Y-2.2441
X6.2205Y-2.3031
X6.2205Y-2.3622
X6.2205Y-2.4213
X6.2205Y-2.4803
X6.2402Y-2.6181
X6.2402Y-3.0512
X6.2402Y-3.1102
X6.2402Y-3.1693
X6.2402Y-3.2874
X6.2402Y-3.3465
X6.2795Y-2.3622
X6.2795Y-2.4213
X6.2795Y-2.4803
X6.2795Y-2.5394
X6.2795Y-2.6575
X6.2992Y-2.7362
X6.2992Y-3.0512
X6.2992Y-3.1102
X6.2992Y-3.1693
X6.2992Y-3.2874
X6.2992Y-3.3465
X6.3189Y-2.6969
X6.3583Y-2.7362
X6.3583Y-2.7953
X6.3583Y-2.8543
X6.3583Y-3.0512
X6.3583Y-3.1102
X6.3583Y-3.1693
X6.3583Y-3.2874
X6.3583Y-3.3465
X6.4173Y-2.8543
X6.4173Y-3.0512
X6.4173Y-3.1102
X6.4173Y-3.1693
X6.4173Y-3.2874
X6.4173Y-3.3465
X6.4764Y-2.8543
X6.4764Y-3.2874
X6.5354Y-2.8543
X6.5945Y-2.8543
X6.5945Y-2.9134
X6.5945Y-2.9724
X6.5945Y-3.0512
X6.5945Y-3.1102
X6.5945Y-3.1693
X6.5945Y-3.2283
T3
X6.0827Y-3.8189
X6.0827Y-3.878
X6.0827Y-3.937
X6.0827Y-3.9961
X6.0827Y-4.0551
X6.0827Y-4.1142
T4
X4.4094Y-5.0394
X4.4094Y-5.1181
X5.2539Y-6.1024
X5.2539Y-6.1811
T5
X3.5001Y-3.7795
X3.6379Y-3.7795
X5.2165Y-5.1772
X5.4134Y-5.1772
X6.2046Y-3.7795
X6.3424Y-3.7795
T6
X4.1732Y-4.8425
X4.1732Y-4.9213
X4.1732Y-5.0
X4.1732Y-5.0787
X4.252Y-4.8425
X4.252Y-4.9213
X4.252Y-5.0
X4.252Y-5.0787
T7
X4.1929Y-5.6982
X4.1929Y-5.7982
X4.2755Y-5.5276
X4.2797Y-5.9923
X4.3462Y-5.4569
X4.3504Y-6.063
X4.5167Y-5.3937
X4.5167Y-6.122
X4.585Y-5.0807
X4.585Y-5.1556
X4.6167Y-5.3937
X4.6167Y-6.122
X4.685Y-5.0807
X4.685Y-5.1556
X4.785Y-5.0807
X4.785Y-5.1556
X4.7876Y-5.4569
X4.807Y-6.0394
X4.8583Y-5.5276
X4.8777Y-5.9687
X4.9409Y-5.6982
X4.9409Y-5.7982
T8
X5.4134Y-5.3008
X5.4134Y-5.4008
X5.4134Y-5.5008
X5.4134Y-5.6008
X5.4134Y-5.7008
X5.4134Y-5.8008
X5.4134Y-5.9008
X5.4134Y-6.0008
X5.4134Y-6.1008
X5.4134Y-6.2008
T9
X4.0748Y-2.0866
X4.6654Y-2.0866
X5.1575Y-2.0866
X5.748Y-2.0866
T10
X5.1559Y-2.2405
X5.2559Y-2.3905
X5.3559Y-2.2405
T11
X3.3248Y-2.9339
X3.3248Y-3.0898
X3.4654Y-2.9311
X3.6213Y-2.9311
X6.2213Y-2.9311
X6.3772Y-2.9311
X6.5138Y-2.9339
X6.5138Y-3.0898
T12
X3.3071Y-3.5827
X3.8386Y-2.0866
X3.8386Y-3.1102
X4.1732Y-5.3543
X4.9606Y-6.1417
X6.0039Y-2.0866
X6.0039Y-3.1102
X6.5354Y-3.5827
T13
X3.5236Y-3.5039
X3.7205Y-3.5039
X6.122Y-3.5039
X6.3189Y-3.5039
T14
X5.315Y-5.0591
X5.6102Y-5.5118
T15
X3.3071Y-3.3858
X4.2126Y-6.1417
X5.0394Y-5.3543
X5.0394Y-5.9449
X5.6299Y-6.1417
X6.5354Y-3.3858
T8
G00X5.6102Y-4.9606
M15
G01X5.6102Y-5.0591
M16
G05
G00X5.6102Y-5.2559
M15
G01X5.6102Y-5.3543
M16
G05
M30
